<svg width="8" height="14" viewBox="0 0 8 14" fill="none" xmlns="http://www.w3.org/2000/svg">
<path d="M7.43231 5.99458L1.64536 0.207745C1.51152 0.0737945 1.33285 0 1.14233 0C0.951821 0 0.77315 0.0737945 0.639305 0.207745L0.213137 0.633808C-0.0641736 0.911435 -0.0641736 1.36266 0.213137 1.63986L5.07258 6.4993L0.207745 11.3641C0.0739002 11.4981 0 11.6767 0 11.8671C0 12.0577 0.0739002 12.2362 0.207745 12.3703L0.633913 12.7963C0.767864 12.9302 0.94643 13.004 1.13694 13.004C1.32745 13.004 1.50613 12.9302 1.63997 12.7963L7.43231 7.00413C7.56647 6.86976 7.64016 6.69034 7.63973 6.49962C7.64016 6.30816 7.56647 6.12885 7.43231 5.99458Z" fill="#21344D"/>
</svg>
