<svg width="8" height="14" viewBox="0 0 8 14" fill="none" xmlns="http://www.w3.org/2000/svg">
<path d="M0.207343 5.99458L5.99429 0.207745C6.12813 0.0737945 6.3068 0 6.49731 0C6.68783 0 6.8665 0.0737945 7.00034 0.207745L7.42651 0.633808C7.70382 0.911435 7.70382 1.36266 7.42651 1.63986L2.56707 6.4993L7.4319 11.3641C7.56575 11.4981 7.63965 11.6767 7.63965 11.8671C7.63965 12.0577 7.56575 12.2362 7.4319 12.3703L7.00574 12.7963C6.87178 12.9302 6.69322 13.004 6.50271 13.004C6.31219 13.004 6.13352 12.9302 5.99968 12.7963L0.207343 7.00413C0.0731807 6.86976 -0.000507832 6.69034 -8.4877e-05 6.49962C-0.000507832 6.30816 0.0731807 6.12885 0.207343 5.99458Z" fill="#21344D"/>
</svg>
