<svg width="10" height="16" viewBox="0 0 10 16" fill="none" xmlns="http://www.w3.org/2000/svg">
<path d="M9.57709 7.65983C9.57732 7.85174 9.53772 8.0418 9.46057 8.21909C9.38343 8.39638 9.27025 8.55741 9.12754 8.6929L2.61893 14.8924C2.33123 15.1664 1.94102 15.3203 1.53415 15.3203C1.12728 15.3203 0.737073 15.1664 0.449372 14.8924C0.161672 14.6184 4.38754e-05 14.2467 4.5292e-05 13.8593C4.67086e-05 13.4718 0.161677 13.1001 0.449379 12.8261L5.87321 7.65983L0.449334 2.49352C0.161631 2.21952 8.16036e-07 1.8479 -6.36121e-07 1.4604C-2.08828e-06 1.07291 0.161626 0.701283 0.449326 0.427281C0.737027 0.153279 1.12723 -0.000655221 1.5341 -0.000656192C1.94098 -0.000658116 2.33118 0.153273 2.61889 0.427273L9.12759 6.62675C9.27029 6.76226 9.38345 6.92328 9.46059 7.10057C9.53773 7.27786 9.57732 7.46792 9.57709 7.65983Z" fill="#BABABA"/>
</svg>
