<?xml version="1.0" standalone="no"?>
<!DOCTYPE svg PUBLIC "-//W3C//DTD SVG 20010904//EN"
 "http://www.w3.org/TR/2001/REC-SVG-20010904/DTD/svg10.dtd">
<svg version="1.0" xmlns="http://www.w3.org/2000/svg"
 width="49.000000pt" height="49.000000pt" viewBox="0 0 49.000000 49.000000"
 preserveAspectRatio="xMidYMid meet">

<g transform="translate(0.000000,49.000000) scale(0.100000,-0.100000)"
fill="#0EBD00" stroke="none">
<path d="M130 270 c0 -140 4 -220 10 -220 6 0 10 77 10 210 l0 210 95 0 95 0
0 -210 c0 -133 4 -210 10 -210 6 0 10 80 10 220 l0 220 -115 0 -115 0 0 -220z"/>
<path d="M180 410 c0 -25 4 -30 25 -30 21 0 25 5 25 30 0 25 -4 30 -25 30 -21
0 -25 -5 -25 -30z m27 -12 c-3 -7 -5 -2 -5 12 0 14 2 19 5 13 2 -7 2 -19 0
-25z"/>
<path d="M260 410 c0 -25 4 -30 25 -30 21 0 25 5 25 30 0 25 -4 30 -25 30 -21
0 -25 -5 -25 -30z m27 -12 c-3 -7 -5 -2 -5 12 0 14 2 19 5 13 2 -7 2 -19 0
-25z"/>
<path d="M0 305 c0 -50 4 -85 10 -85 6 0 10 33 10 79 l0 80 48 4 c46 3 46 3
-10 5 l-58 2 0 -85z"/>
<path d="M423 383 l47 -4 0 -164 0 -164 -27 5 c-35 7 -69 -16 -60 -40 5 -13
17 -16 54 -14 l48 3 3 193 2 192 -57 -2 c-57 -2 -57 -2 -10 -5z m31 -348 c18
-14 17 -15 -24 -15 -41 0 -42 1 -24 15 10 8 21 14 24 14 3 0 14 -6 24 -14z"/>
<path d="M50 310 c0 -25 4 -30 25 -30 21 0 25 5 25 30 0 25 -4 30 -25 30 -21
0 -25 -5 -25 -30z m30 -2 c0 -16 -3 -19 -11 -11 -6 6 -8 16 -5 22 11 17 16 13
16 -11z"/>
<path d="M180 310 c0 -25 4 -30 25 -30 21 0 25 5 25 30 0 25 -4 30 -25 30 -21
0 -25 -5 -25 -30z m27 -12 c-3 -7 -5 -2 -5 12 0 14 2 19 5 13 2 -7 2 -19 0
-25z"/>
<path d="M260 310 c0 -25 4 -30 25 -30 21 0 25 5 25 30 0 25 -4 30 -25 30 -21
0 -25 -5 -25 -30z m27 -12 c-3 -7 -5 -2 -5 12 0 14 2 19 5 13 2 -7 2 -19 0
-25z"/>
<path d="M390 310 c0 -25 4 -30 25 -30 21 0 25 5 25 30 0 25 -4 30 -25 30 -21
0 -25 -5 -25 -30z m32 -12 c-9 -9 -12 -7 -12 12 0 19 3 21 12 12 9 -9 9 -15 0
-24z"/>
<path d="M51 223 c0 -11 3 -13 6 -5 8 21 23 13 23 -13 0 -14 5 -25 10 -25 6 0
10 14 10 30 0 25 -4 30 -25 30 -17 0 -25 -5 -24 -17z"/>
<path d="M180 210 c0 -25 4 -30 25 -30 21 0 25 5 25 30 0 25 -4 30 -25 30 -21
0 -25 -5 -25 -30z m27 -2 c-3 -8 -6 -5 -6 6 -1 11 2 17 5 13 3 -3 4 -12 1 -19z"/>
<path d="M260 210 c0 -25 4 -30 25 -30 21 0 25 5 25 30 0 25 -4 30 -25 30 -21
0 -25 -5 -25 -30z m27 -2 c-3 -8 -6 -5 -6 6 -1 11 2 17 5 13 3 -3 4 -12 1 -19z"/>
<path d="M390 210 c0 -25 4 -30 25 -30 21 0 25 5 25 30 0 25 -4 30 -25 30 -21
0 -25 -5 -25 -30z m40 5 c0 -8 -4 -15 -10 -15 -5 0 -10 7 -10 15 0 8 5 15 10
15 6 0 10 -7 10 -15z"/>
<path d="M11 159 c-15 -44 -14 -84 4 -99 8 -7 15 -21 15 -31 0 -10 5 -21 10
-24 6 -3 10 4 10 18 0 14 7 30 15 37 17 14 20 66 5 104 -14 37 -45 34 -59 -5z
m42 4 c15 -55 17 -76 7 -88 -20 -24 -40 -6 -40 35 0 61 22 95 33 53z"/>
<path d="M170 140 c0 -5 6 -10 14 -10 10 0 16 -14 19 -42 l4 -43 1 43 c2 41 3
42 36 42 34 0 35 -1 39 -42 l4 -43 1 43 c1 30 6 42 17 42 8 0 15 5 15 10 0 6
-32 10 -75 10 -43 0 -75 -4 -75 -10z"/>
<path d="M394 136 c-10 -26 1 -51 24 -54 19 -3 22 1 22 32 0 30 -4 36 -20 36
-11 0 -23 -6 -26 -14z m36 -21 c0 -8 -4 -15 -10 -15 -5 0 -10 7 -10 15 0 8 5
15 10 15 6 0 10 -7 10 -15z"/>
<path d="M115 21 c-3 -5 -1 -12 5 -16 5 -3 10 -2 10 4 0 6 46 12 118 14 l117
3 -122 2 c-67 1 -124 -2 -128 -7z"/>
</g>
</svg>
