<svg width="18" height="14" viewBox="0 0 18 14" fill="none" xmlns="http://www.w3.org/2000/svg">
<path d="M17.25 7.66699H0.75C0.335999 7.66699 0 7.33099 0 6.91699C0 6.50299 0.335999 6.16699 0.75 6.16699H17.25C17.664 6.16699 18 6.50299 18 6.91699C18 7.33099 17.664 7.66699 17.25 7.66699Z" fill="white"/>
<path d="M17.25 1.5H0.75C0.335999 1.5 0 1.164 0 0.75C0 0.335999 0.335999 0 0.75 0H17.25C17.664 0 18 0.335999 18 0.75C18 1.164 17.664 1.5 17.25 1.5Z" fill="white"/>
<path d="M17.25 13.8335H0.75C0.335999 13.8335 0 13.4975 0 13.0835C0 12.6695 0.335999 12.3335 0.75 12.3335H17.25C17.664 12.3335 18 12.6695 18 13.0835C18 13.4975 17.664 13.8335 17.25 13.8335Z" fill="white"/>
</svg>
