<svg width="300" height="216" viewBox="0 0 275 216" fill="none" xmlns="http://www.w3.org/2000/svg">
<path opacity="0.1" d="M96.4659 211.009C122.959 211.009 144.436 206.94 144.436 201.921C144.436 196.903 122.959 192.834 96.4659 192.834C69.973 192.834 48.4962 196.903 48.4962 201.921C48.4962 206.94 69.973 211.009 96.4659 211.009Z" fill="#21344D"/>
<path opacity="0.1" d="M159.778 30.3445C142.148 29.7343 125.357 24.0411 109.324 17.8141C93.29 11.587 77.4091 4.68982 60.2016 1.39105C49.134 -0.73095 36.4755 -1.03331 27.5599 4.89412C18.9765 10.6145 16.2035 20.4618 14.7135 29.6063C13.5912 36.4871 12.932 43.7302 16.0046 50.1725C18.1403 54.6453 21.9266 58.4044 24.5471 62.6893C33.6643 77.595 27.2194 95.9766 17.3421 110.531C12.7113 117.357 7.33141 123.879 3.7548 131.138C0.178179 138.398 -1.47529 146.744 1.65459 154.169C4.7545 161.524 12.1447 167.038 20.1506 170.919C36.4101 178.805 55.5626 181.061 74.252 182.341C115.611 185.169 157.187 183.946 198.654 182.717C214.002 182.265 229.414 181.804 244.51 179.432C252.895 178.113 261.549 176.021 267.637 170.971C275.362 164.562 277.277 153.709 272.099 145.673C263.415 132.189 239.411 128.842 233.334 114.375C229.994 106.41 233.424 97.5402 238.281 90.1554C248.697 74.3099 266.155 60.4093 267.073 42.3001C267.705 29.8623 259.313 17.4055 246.335 11.5189C232.734 5.34902 213.871 6.12537 203.841 16.3377C193.503 26.8414 175.345 30.8865 159.778 30.3445Z" fill="#21344D"/>
<path d="M145.768 98.5381L137.424 92.913L141.633 86.6478L119.595 84.8909L111.677 91.0144L101.764 85.4574L93.4967 86.4517L93.3987 84.2725C93.2964 82.0007 93.0681 79.7363 92.715 77.4897C92.7504 76.8087 92.7749 76.0269 92.7722 75.1771C92.7722 71.595 92.2873 66.847 90.1571 63.6818L90.6474 59.2743L86.6704 54.5754C87.3091 53.3032 88.0373 52.0779 88.8496 50.9089C88.9858 50.7128 89.122 50.5221 89.2691 50.3369C94.4311 49.9637 98.5035 45.7197 98.5035 40.5305C98.5035 40.2907 98.5035 40.051 98.4762 39.814C98.4762 39.7187 98.4572 39.6206 98.4463 39.5253C98.9502 39.7977 99.4596 40.0701 99.969 40.3425C100.064 40.4787 100.173 40.6149 100.293 40.7756L100.318 40.8056L100.47 40.9935L100.519 41.0507C100.574 41.1161 100.631 41.1788 100.688 41.2441L100.726 41.2877C100.871 41.4484 101.023 41.6119 101.187 41.7726C101.206 41.7884 101.224 41.8057 101.241 41.8244L101.445 42.015L101.503 42.0668C101.677 42.2221 101.862 42.3719 102.047 42.5135L102.107 42.5571L102.342 42.7178L102.418 42.7669C102.508 42.8213 102.6 42.8785 102.69 42.9303L102.723 42.9494C102.829 43.0066 102.938 43.0611 103.047 43.1128L103.102 43.1346C103.194 43.1746 103.285 43.2127 103.374 43.249L103.458 43.279C103.554 43.3117 103.646 43.3416 103.744 43.3689L103.804 43.3852C103.924 43.4152 104.044 43.4397 104.167 43.4588H104.18C104.296 43.4774 104.412 43.4893 104.529 43.4942H104.608C104.712 43.4996 104.817 43.4996 104.921 43.4942H104.989C105.12 43.4866 105.25 43.4712 105.379 43.4479C105.988 43.3677 106.574 43.1578 107.095 42.8322C107.228 42.7435 107.345 42.634 107.444 42.5081C107.988 41.7944 107.389 41.0126 107.389 41.0126C107.177 40.5059 105.798 40.1491 105.798 40.1491C105.798 40.1491 101.44 38.3295 101.44 36.8803C101.44 35.4311 100.35 27.9129 89.1029 26.194C89.1029 26.194 81.7863 25.7827 79.7296 29.6998L79.6861 30.1575C79.0813 30.5361 78.5801 31.2961 77.9836 31.5195C77.7258 31.5748 77.4773 31.6665 77.2453 31.7919V31.7401C77.1765 31.8003 77.12 31.8734 77.0792 31.9553C76.951 32.2103 76.8742 32.4879 76.8531 32.7725C76.7917 33.1201 76.671 33.4546 76.4962 33.7613C76.4475 33.8485 76.3929 33.9322 76.3328 34.0119L76.2865 34.0855C76.6027 34.1101 76.9203 34.0587 77.2127 33.9356C77.1666 34.3086 77.0751 34.6745 76.9403 35.0252C77.1134 35.0308 77.2846 34.9866 77.4333 34.8977C77.582 34.8089 77.7021 34.6792 77.7793 34.524V34.5022L77.8147 34.4532C77.8832 34.3271 77.9397 34.1949 77.9836 34.0582L77.9536 34.0909C78.0081 33.9139 78.0571 33.7341 78.117 33.5597C78.1445 33.4615 78.1897 33.3692 78.2505 33.2873C78.3232 33.214 78.4121 33.1588 78.5101 33.1262C78.608 33.0936 78.7122 33.0844 78.8144 33.0994L78.7027 35.4611H78.7517C78.6861 35.6329 78.6059 35.7987 78.512 35.9569C78.1252 36.5834 77.4224 37.011 77.1636 37.6975C77.052 38.0286 77.0094 38.379 77.0383 38.7272C77.0383 38.9315 77.0628 39.1385 77.0792 39.3428V39.3264C77.1173 39.8712 77.1282 40.3888 76.834 40.8274C76.6324 41.127 76.3083 41.3531 76.1966 41.6936C76.1657 41.7885 76.1519 41.8881 76.1557 41.9878C76.1776 42.2863 76.2399 42.5805 76.341 42.8622C76.3422 42.8568 76.3422 42.8512 76.341 42.8459C76.4089 43.0531 76.4248 43.2739 76.3873 43.4887C76.2647 44.0335 75.6028 44.4884 75.6355 45.0087C75.6336 45.0771 75.6437 45.1454 75.6654 45.2103C75.7928 45.4644 76.0133 45.6596 76.2811 45.7551C76.701 45.9939 77.1834 46.1003 77.6648 46.0602C77.8453 46.0276 78.0198 45.9679 78.1824 45.8831C77.9917 46.3217 77.7956 46.7548 77.5967 47.1661C77.5668 47.2315 77.5341 47.2969 77.5014 47.3623C77.5014 47.3623 75.818 46.2372 74.8618 48.5309C74.5827 49.0075 74.3831 49.5264 74.2707 50.0672C74.2228 50.2835 74.1554 50.495 74.0692 50.6992C73.6447 51.4178 73.0094 51.9884 72.2495 52.3336C70.2991 53.227 62.4213 63.0525 62.2824 65.5967C62.2142 66.5899 62.0463 67.5737 61.7812 68.5332C61.161 70.7929 61.0017 73.1542 61.3127 75.4767C61.41 76.2273 61.5713 76.9682 61.7948 77.6913C62.6311 80.2328 63.1895 84.9753 63.1895 84.9753L64.0939 93.2072C64.0603 94.3434 64.1095 95.4805 64.241 96.6095C63.3175 97.6637 59.6102 102.058 61.0266 103.253C62.1162 104.196 64.023 104.041 65.0936 103.847C64.1919 106.078 62.7727 109.957 62.5848 112.621C62.3124 116.563 63.0506 121.785 64.2192 123.79C65.3878 125.794 69.2831 130.937 69.2831 130.937C69.2831 130.937 69.1006 137.993 70.4925 140.556C71.8845 143.119 72.4457 148.436 72.4457 148.436C72.4457 148.436 73.745 152.926 73.094 154.576C72.4429 156.227 74.3007 157.6 72.3503 158.698C70.3999 159.795 67.9047 184.538 67.9047 184.538C67.9047 184.538 66.8996 200.754 67.9047 201.579C67.9585 201.618 68.016 201.652 68.0764 201.68V207.128C68.0764 207.128 67.379 208.272 70.2147 208.503C72.1569 208.659 77.6621 209.01 80.9282 209.214L83.4588 209.372C83.4588 209.372 89.4516 210.565 92.0993 209.372C94.7471 208.179 99.4405 208.206 98.7432 205.055C98.6507 204.626 98.5269 204.204 98.3727 203.794C97.6073 201.838 96.3079 201.614 93.9135 201.07C93.7746 201.04 93.6411 201.012 93.5185 200.991C90.9961 200.552 90.168 201.726 88.7543 200.198C87.5257 198.877 83.6141 197.398 82.282 196.929C82.3147 196.831 82.3556 196.736 82.3883 196.635C82.0111 196.571 81.6603 196.4 81.3777 196.142L84.987 196.371L87.1362 196.504C87.1362 196.504 92.2301 197.52 94.491 196.504C96.7519 195.488 100.729 195.515 100.135 192.838C100.057 192.473 99.9522 192.114 99.8219 191.764C99.1708 190.103 98.0649 189.92 96.0301 189.46C95.9129 189.435 95.804 189.411 95.695 189.392C93.5512 189.019 92.8484 190.016 91.6472 188.719C90.6175 187.613 87.3677 186.374 86.1992 185.951C86.1992 185.347 85.3819 184.486 84.8671 183.622C84.2624 182.614 85.3792 179.087 85.3792 179.087L86.0166 164.451C86.2594 164.343 86.5161 164.269 86.7794 164.233C86.7794 164.233 89.6614 161.482 89.0103 158.551C88.8777 157.664 88.8085 156.769 88.8033 155.873C89.7512 154.993 91.056 153.694 91.4265 152.893C92.0312 151.588 91.4265 145.266 91.4265 145.266V121.09L96.248 121.578L100.623 122.027L101.955 122.163L106.33 122.605L116.384 123.621L125.444 121.905L129.364 121.164L137.424 119.638V99.9164L145.768 98.5381ZM79.4082 33.1865L78.8471 33.1266C79.0323 33.1348 79.2284 33.1702 79.4082 33.1865Z" fill="url(#paint0_linear_1234_9898)"/>
<path d="M126.211 111.342C123.487 115.24 113.695 113.175 113.695 113.175L106.105 106.074L105.084 105.112L106.797 101.473C106.797 101.473 107.342 101.622 108.277 101.889C113.182 103.314 128.51 108.065 126.211 111.342Z" fill="#EFB7B9"/>
<path opacity="0.1" d="M108.271 101.889C107.936 103.055 107.018 104.801 106.105 106.074L105.084 105.112L106.797 101.473C106.797 101.473 107.348 101.622 108.271 101.889Z" fill="black"/>
<path d="M82.2437 60.8508C82.2437 60.8508 75.2485 63.9534 75.5917 71.5725C75.8387 76.481 76.3735 81.3708 77.1934 86.2167C77.1934 86.2167 75.7633 97.682 81.718 100.638C87.6726 103.593 93.1833 106.023 93.1833 106.023C93.1833 106.023 102.499 107.025 103.657 107.439C104.815 107.853 108.432 101.523 107.765 100.537C107.098 99.5507 98.5469 97.4832 97.4573 95.8379C96.3677 94.1926 93.848 93.1765 93.848 93.1765C93.848 93.1765 91.2465 91.602 91.0695 90.1801C90.8924 88.7582 91.5789 87.6986 91.7532 87.0748C91.9275 86.451 92.3688 80.4282 92.3688 80.4282C92.3688 80.4282 95.3053 58.9903 82.2437 60.8508Z" fill="#DCE6F2"/>
<path opacity="0.1" d="M86.8607 85.9023C86.8607 85.9023 77.2641 87.5095 78.193 90.8682C78.193 90.8682 81.677 87.2426 86.8607 85.9023Z" fill="black"/>
<path opacity="0.1" d="M86.9348 87.2617C86.9348 87.2617 81.6584 91.5684 82.6908 91.789C83.7232 92.0097 86.9348 87.2617 86.9348 87.2617Z" fill="black"/>
<path opacity="0.1" d="M89.4715 88.7637C89.4715 88.7637 88.0577 91.6593 88.9267 91.4632C89.7956 91.267 89.4715 88.7637 89.4715 88.7637Z" fill="black"/>
<path opacity="0.1" d="M108.626 102.198L108.043 102.032C108.209 101.487 108.255 101.046 108.119 100.841C107.452 99.8554 98.9067 97.7906 97.8198 96.1426C96.7329 94.4946 94.2105 93.4812 94.2105 93.4812C94.2105 93.4812 91.6091 91.9067 91.432 90.4848C91.2549 89.0629 91.9414 88.0033 92.1157 87.3795C92.2901 86.7557 92.7313 80.7302 92.7313 80.7302C92.7313 80.7302 95.6597 59.295 82.5981 61.1555C82.5981 61.1555 75.6028 64.2608 75.9433 71.8799C76.1904 76.7885 76.7261 81.6784 77.5478 86.5241C77.5478 86.5241 76.1176 97.9894 82.0723 100.945C88.027 103.901 93.5376 106.33 93.5376 106.33C93.5376 106.33 102.851 107.33 104.011 107.747C104.45 107.905 105.243 107.09 106.019 105.971L106.46 106.382L114.049 113.481C114.049 113.481 123.842 115.548 126.566 111.65C128.868 108.371 113.543 103.62 108.626 102.198Z" fill="black"/>
<path d="M78.2191 32.2542C77.9524 32.3063 77.697 32.4049 77.4645 32.5456C77.1921 32.7717 77.1921 33.1585 77.124 33.4963C77.044 33.9662 76.8577 34.4115 76.5792 34.7984C76.8892 34.8211 77.2001 34.7698 77.4863 34.6486C77.4397 35.0214 77.3482 35.3872 77.2139 35.7382C77.3836 35.7425 77.551 35.6977 77.696 35.6093C77.8409 35.5209 77.9573 35.3926 78.0311 35.2397C78.1752 34.9327 78.2893 34.6125 78.3716 34.2835C78.3972 34.1852 78.4416 34.0926 78.5024 34.0111C78.753 33.7142 79.2188 33.8477 79.6056 33.8858C79.9275 33.913 80.2508 33.8535 80.542 33.7137C80.8332 33.5738 81.0817 33.3586 81.2618 33.0904C81.6731 32.4666 81.6976 30.8704 80.717 30.7015C79.6928 30.5326 79.0553 31.9436 78.2191 32.2542Z" fill="#965D7B"/>
<g opacity="0.1">
<path opacity="0.1" d="M77.436 32.8805C77.4605 32.747 77.4769 32.6081 77.5068 32.4746C77.2481 32.7007 77.2344 33.0848 77.1663 33.4253C77.132 33.6217 77.0782 33.8143 77.0056 34.0001C77.2201 33.6582 77.3663 33.278 77.436 32.8805Z" fill="black"/>
<path opacity="0.1" d="M77.5231 35.1306C77.6588 34.7801 77.7503 34.4141 77.7955 34.041C77.5228 34.1558 77.2275 34.2071 76.932 34.1908C76.846 34.3824 76.7411 34.5649 76.6188 34.7356C76.9277 34.7595 77.2378 34.7091 77.5231 34.5885C77.4779 34.9616 77.3864 35.3276 77.2507 35.6781C77.4204 35.6821 77.5876 35.6372 77.7325 35.5489C77.8774 35.4605 77.9938 35.3323 78.0679 35.1796C78.1358 35.0558 78.1906 34.9253 78.2314 34.7901C78.1515 34.9018 78.0447 34.9916 77.9209 35.0511C77.7971 35.1106 77.6603 35.138 77.5231 35.1306Z" fill="black"/>
<path opacity="0.1" d="M79.9155 33.2787C79.5287 33.2406 79.0601 33.1071 78.8095 33.404C78.7499 33.4862 78.7056 33.5785 78.6788 33.6764C78.6543 33.7472 78.6325 33.8208 78.6134 33.8943C78.8722 33.69 79.2917 33.799 79.6431 33.8344C79.9649 33.8607 80.2879 33.8009 80.5789 33.6611C80.87 33.5213 81.1186 33.3066 81.2993 33.039C81.3818 32.9067 81.4434 32.7625 81.4818 32.6113C81.2952 32.8422 81.0549 33.0238 80.7818 33.1402C80.5087 33.2565 80.2112 33.3041 79.9155 33.2787Z" fill="black"/>
</g>
<path d="M86.4167 54.752L90.5708 59.7478L90.0288 64.7899L85.0084 56.9312L86.4167 54.752Z" fill="#DCE6F2"/>
<path opacity="0.1" d="M90.5681 59.7478L90.0587 64.4903L90.026 64.7899L85.496 57.6966L85.0084 56.9312L85.1501 56.7105L86.414 54.752L86.6946 55.0897L90.5681 59.7478Z" fill="black"/>
<path d="M92.7266 47.9877C91.321 48.3908 89.9781 49.7746 88.8095 51.4553C88.0196 52.615 87.3132 53.8293 86.6956 55.0891C86.3116 55.8573 85.9738 56.5955 85.6932 57.2384L85.4971 57.696C85.0231 58.8156 84.7589 59.5647 84.7589 59.5647C84.7589 59.5647 73.9991 51.4744 75.7016 50.9296C76.2736 50.7471 77.0254 49.5213 77.7691 47.9768L77.8617 47.7806C78.333 46.7891 78.796 45.6832 79.2074 44.6426C80.0491 42.5043 80.6729 40.6465 80.6729 40.6465C80.6729 40.6465 97.0169 46.7619 92.7266 47.9877Z" fill="#EFB7B9"/>
<path d="M99.1637 40.1914C99.1637 40.1914 101.648 44.686 104.985 44.0731C108.322 43.4602 106.949 41.6596 106.949 41.6596L99.1637 40.1914Z" fill="#444053"/>
<path d="M94.3498 195.773C92.1488 196.778 87.1721 195.773 87.1721 195.773L85.0746 195.643C82.3506 195.468 77.7906 195.174 76.178 195.043C73.8245 194.85 74.4019 193.886 74.4019 193.886V188.059L85.821 185.166C85.821 185.166 90.3346 186.711 91.5713 188.059C92.7454 189.345 93.4318 188.356 95.5266 188.726C95.6301 188.745 95.739 188.767 95.8535 188.794C97.842 189.249 98.9207 189.429 99.5581 191.077C99.6862 191.423 99.7891 191.778 99.8659 192.139C100.454 194.793 96.5481 194.774 94.3498 195.773Z" fill="#A36468"/>
<path opacity="0.1" d="M99.5581 191.077C99.1489 191.333 98.7188 191.554 98.2724 191.737C96.7742 192.42 95.3495 193.254 93.835 193.899C92.3204 194.545 90.6888 195.005 89.0489 194.883C88.1908 194.82 87.3137 194.61 86.4938 194.856C85.9867 195.051 85.5091 195.316 85.0746 195.643C82.3506 195.468 77.7906 195.174 76.178 195.044C73.8245 194.85 74.4019 193.886 74.4019 193.886V193.205C74.4864 193.205 74.5817 193.18 74.6907 193.172C75.2544 193.163 75.8158 193.247 76.3523 193.42C77.5345 193.741 78.7113 194.057 79.8935 194.373C79.9908 194.007 80.1617 193.663 80.3958 193.364C80.63 193.066 80.9225 192.818 81.2555 192.636C81.9303 192.277 82.6876 192.103 83.4511 192.132C85.2843 192.156 87.0195 193.025 88.85 193.112C89.3618 193.159 89.8771 193.073 90.3455 192.862C90.5961 192.736 90.8168 192.554 91.0619 192.415C91.4543 192.225 91.8688 192.085 92.2959 191.998C93.4963 191.699 94.6749 191.319 95.8235 190.859C96.1504 190.731 96.5317 190.5 96.4882 190.151C96.431 189.688 95.7036 189.634 95.513 189.209C95.4793 189.132 95.4638 189.049 95.4676 188.965C95.4713 188.881 95.4943 188.8 95.5348 188.727C95.6383 188.746 95.7472 188.767 95.8616 188.795C97.842 189.25 98.9207 189.429 99.5581 191.077Z" fill="black"/>
<path d="M92.0239 208.521C89.4361 209.703 83.5795 208.521 83.5795 208.521L81.1143 208.377C77.9218 208.173 72.5446 207.832 70.646 207.671C67.8756 207.442 68.5566 206.309 68.5566 206.309V199.442L81.9942 196.037C81.9942 196.037 87.306 197.854 88.7606 199.442C90.1416 200.954 90.9398 199.791 93.4159 200.227C93.5385 200.248 93.6665 200.276 93.8 200.306C96.1399 200.85 97.4093 201.055 98.1584 202.994C98.3101 203.401 98.4311 203.819 98.5207 204.245C99.1962 207.366 94.6117 207.342 92.0239 208.521Z" fill="#A36468"/>
<path opacity="0.1" d="M98.1529 202.994C97.6716 203.295 97.1659 203.555 96.6411 203.771C94.8787 204.574 93.2007 205.555 91.4192 206.315C89.6377 207.075 87.7173 207.614 85.786 207.472C84.7781 207.399 83.7457 207.146 82.7896 207.44C82.1905 207.673 81.6267 207.988 81.1143 208.377C77.9218 208.173 72.5446 207.832 70.646 207.671C67.8756 207.442 68.5566 206.309 68.5566 206.309V205.508C68.6694 205.49 68.7831 205.477 68.8971 205.47C69.5608 205.458 70.2217 205.557 70.853 205.762L75.018 206.884C75.134 206.451 75.3371 206.046 75.6148 205.695C75.8926 205.343 76.2391 205.052 76.6333 204.838C77.4273 204.415 78.3193 204.21 79.2184 204.245C81.3758 204.274 83.4161 205.296 85.5708 205.399C86.1708 205.454 86.7749 205.354 87.325 205.108C87.6219 204.958 87.8698 204.743 88.1695 204.582C88.6302 204.357 89.1182 204.192 89.6214 204.092C91.0261 203.737 92.4057 203.29 93.751 202.752C94.135 202.599 94.5845 202.327 94.5327 201.918C94.4646 201.373 93.6093 201.308 93.3832 200.807C93.3451 200.716 93.3278 200.618 93.3325 200.52C93.3372 200.422 93.3638 200.327 93.4105 200.24C93.533 200.262 93.6611 200.289 93.7945 200.319C96.1344 200.842 97.4038 201.055 98.1529 202.994Z" fill="black"/>
<path d="M86.1664 161.398L85.4391 178.513C85.4391 178.513 84.3495 182.008 84.9406 183.008C85.5317 184.008 86.5287 185.005 86.1664 185.596C85.8041 186.187 81.4457 192.577 80.0374 190.126C78.6291 187.674 77.2399 177.051 77.2399 177.051L78.5392 163.929L86.1664 161.398Z" fill="#444053"/>
<path d="M89.3204 118.758L91.3416 121.46V144.963C91.3416 144.963 91.9327 151.228 91.3416 152.522C90.7505 153.816 87.7541 156.404 87.7541 156.404L85.2344 143.465L85.7792 129.776L89.3204 118.758Z" fill="#444053"/>
<path opacity="0.1" d="M86.1664 161.398L85.4391 178.513C85.4391 178.513 84.3495 182.008 84.9406 183.008C85.5317 184.008 86.5287 185.005 86.1664 185.596C85.8041 186.187 81.4457 192.577 80.0374 190.126C78.6291 187.674 77.2399 177.051 77.2399 177.051L78.5392 163.929L86.1664 161.398Z" fill="black"/>
<path opacity="0.1" d="M89.3204 118.758L91.3416 121.46V144.963C91.3416 144.963 91.9327 151.228 91.3416 152.522C90.7505 153.816 87.7541 156.404 87.7541 156.404L85.2344 143.465L85.7792 129.776L89.3204 118.758Z" fill="black"/>
<path d="M91.3423 108.733V121.446L89.0732 131.342C89.0732 131.342 88.3459 155.223 88.9806 158.127C89.6153 161.031 86.8014 163.758 86.8014 163.758C86.8014 163.758 85.167 163.94 85.167 165.21C85.167 166.479 82.443 170.113 82.443 170.113L82.5329 177.195C82.5329 177.195 83.7151 190.453 81.8982 192.995C80.0813 195.536 82.5329 195.901 82.5329 195.901C80.2638 203.346 69.3678 201.621 68.3844 200.804C67.4011 199.987 68.3844 183.915 68.3844 183.915C68.3844 183.915 70.8197 159.399 72.7265 158.31C74.6333 157.22 72.8191 155.858 73.4538 154.224C74.0885 152.589 72.8191 148.141 72.8191 148.141C72.8191 148.141 72.2743 142.873 70.9123 140.331C69.5503 137.79 69.7301 130.797 69.7301 130.797C69.7301 130.797 65.9165 125.712 64.7833 123.715C63.6501 121.718 62.9201 116.543 63.1925 112.636C63.3777 109.997 64.7642 106.153 65.6441 103.941C66.0663 102.882 66.3714 102.195 66.3714 102.195L66.6302 102.263L81.5087 106.159L91.3423 108.733Z" fill="#444053"/>
<path opacity="0.1" d="M92.7262 47.9872C91.3206 48.3904 89.9777 49.7742 88.8091 51.4549H88.504C86.7911 51.4561 85.1082 51.0051 83.6255 50.1475C82.1427 49.2899 80.9127 48.0561 80.0596 46.5707C79.7031 45.9553 79.4162 45.302 79.2042 44.6231C80.0459 42.4847 80.6697 40.627 80.6697 40.627C80.6697 40.627 97.0165 46.7614 92.7262 47.9872Z" fill="black"/>
<path d="M98.2431 41.1773C98.2455 42.6678 97.9058 44.1389 97.25 45.4774C96.5943 46.8158 95.6401 47.9859 94.4609 48.8975C93.2817 49.8091 91.909 50.4379 90.4486 50.7354C88.9881 51.0329 87.4788 50.9912 86.037 50.6135C84.5952 50.2358 83.2593 49.5322 82.1323 48.5569C81.0052 47.5815 80.1171 46.3605 79.5363 44.9879C78.9555 43.6152 78.6975 42.1276 78.7822 40.6395C78.8669 39.1514 79.2921 37.7027 80.025 36.4048C80.3202 35.8775 80.665 35.3795 81.0546 34.9175C81.697 34.1522 82.452 33.4891 83.2938 32.9508C84.7156 32.0473 86.3474 31.5281 88.0299 31.4438C89.7124 31.3596 91.3879 31.7132 92.8928 32.4702C94.3978 33.2272 95.6806 34.3617 96.616 35.7627C97.5513 37.1637 98.1073 38.7835 98.2295 40.4636C98.2349 40.7033 98.2431 40.9403 98.2431 41.1773Z" fill="#EFB7B9"/>
<path opacity="0.1" d="M90.0598 64.4903L90.0271 64.7899L85.4971 57.7075C85.0231 58.8271 84.7589 59.5762 84.7589 59.5762C84.7589 59.5762 73.9991 51.475 75.7016 50.9302C76.2736 50.7477 77.0254 49.5219 77.7691 47.9774L77.8617 47.7812C78.6517 50.1348 83.2416 54.8391 85.1511 56.7241C85.3718 56.9421 85.5543 57.1219 85.6959 57.2526L85.9874 57.525L86.14 57.6775C86.8346 58.394 89.7656 61.5538 90.0598 64.4903Z" fill="black"/>
<path d="M93.4463 88.5205L92.9505 104.475L92.8633 107.316C92.8633 107.316 86.9904 106.771 81.5097 106.172C77.0968 105.69 72.9372 105.17 72.2971 104.865C71.4799 104.48 69.7284 104.184 68.3473 103.996C67.2795 103.851 66.4405 103.775 66.4405 103.775C66.4405 103.775 66.1272 103.868 65.6451 103.955C64.5936 104.145 62.7467 104.301 61.6708 103.366C60.2951 102.17 63.9099 97.8257 64.8115 96.7824L65.0104 96.5563L64.6699 93.4101L63.7846 85.2517C63.7846 85.2517 63.2398 80.5528 62.4226 78.0331C62.2041 77.3167 62.0465 76.5832 61.9513 75.8403C61.6477 73.539 61.8032 71.2003 62.409 68.9594C62.6678 68.0073 62.832 67.0319 62.8993 66.0475C63.0355 63.5278 70.7308 53.7895 72.6376 52.9042C73.4954 52.5042 74.1856 51.8159 74.588 50.9592C74.7208 50.6899 74.8205 50.4054 74.8849 50.1121C75.7021 46.5709 77.7696 47.9764 77.7696 47.9764C78.2681 50.7468 85.9852 58.0798 85.9852 58.0798L86.1378 58.2323C86.9032 59.0168 90.3137 62.6997 90.0712 65.8432C90.0228 67.0132 90.1975 68.1817 90.5861 69.2863C92.1558 74.2289 93.0581 79.3591 93.2692 84.5407L93.4463 88.5205Z" fill="#DCE6F2"/>
<path opacity="0.1" d="M82.5108 69.5762C82.5108 69.5762 80.604 74.207 79.1739 74.9561C77.7438 75.7052 83.1918 76.536 82.5108 69.5762Z" fill="black"/>
<path opacity="0.1" d="M83.9415 78.2246C83.9415 78.2246 79.5831 78.7694 79.5831 79.5866C79.5831 80.4038 83.9415 78.2246 83.9415 78.2246Z" fill="black"/>
<path opacity="0.1" d="M88.5044 83.5352C88.5044 83.5352 82.1711 97.019 80.4005 97.4276C78.6299 97.8362 88.5044 83.5352 88.5044 83.5352Z" fill="black"/>
<path opacity="0.1" d="M85.865 58.7636L80.6267 61.0408L74.3043 51.4905C74.4372 51.2211 74.5369 50.9367 74.6012 50.6433C75.4184 47.1021 77.486 48.5077 77.486 48.5077C77.9844 51.278 85.7015 58.611 85.7015 58.611L85.865 58.7636Z" fill="black"/>
<path d="M86.1372 58.2186L80.8989 60.4959L74.5765 50.9456C74.7094 50.6762 74.8091 50.3917 74.8735 50.0984C75.6907 46.5572 77.7582 47.9628 77.7582 47.9628C78.2567 50.7331 85.9738 58.0661 85.9738 58.0661L86.1372 58.2186Z" fill="#DCE6F2"/>
<path opacity="0.1" d="M92.8633 107.316C92.8633 107.316 86.9904 106.772 81.5097 106.172L91.3433 108.746V111.743C90.9129 112.132 90.5397 112.334 90.2973 112.231C89.1641 111.754 79.9161 110.256 79.9161 110.256C79.9161 110.256 74.5444 107.532 68.7477 104.263C68.607 104.185 68.4706 104.099 68.3391 104.007C67.6632 103.548 67.0808 102.965 66.623 102.288C65.5525 100.738 65.0295 98.7467 64.8034 96.7936C64.6763 95.6742 64.6289 94.5473 64.6617 93.4213C64.6898 92.1444 64.8063 90.8711 65.0104 89.6104C64.4498 84.7274 64.1769 79.8158 64.1932 74.9008C64.2613 67.2736 71.4118 64.5496 71.4118 64.5496C84.5551 63.3919 80.48 84.6391 80.48 84.6391C80.48 84.6391 79.72 90.6319 79.513 91.2448C79.306 91.8577 78.5623 92.8792 78.6631 94.3093C78.7639 95.7394 81.2754 97.4501 81.2754 97.4501C81.2754 97.4501 83.727 98.5996 84.7376 100.302C85.4731 101.558 90.251 103.26 92.9505 104.475L92.8633 107.316Z" fill="black"/>
<path opacity="0.1" d="M97.2637 35.1299C97.2687 35.5786 97.1758 36.023 96.9913 36.432C96.8517 36.7658 96.6897 37.0898 96.5064 37.4017C96.2197 37.9756 95.8128 38.481 95.3133 38.8836C94.6841 39.3331 93.8887 39.4584 93.1341 39.6409C92.3796 39.8234 91.595 40.1148 91.1647 40.7577C90.9314 41.171 90.7754 41.6233 90.7043 42.0925C90.6321 42.5613 90.445 43.0049 90.1595 43.3836C90.0109 43.5686 89.805 43.6989 89.5742 43.7541C89.3435 43.8093 89.1009 43.7863 88.8847 43.6887C88.6569 43.5352 88.4841 43.3128 88.3916 43.054C88.0811 42.354 88.0021 41.5776 87.8768 40.8231C87.7515 40.0685 87.5744 39.2922 87.1113 38.6847C86.6483 38.0773 85.8283 37.6769 85.101 37.9138C84.8576 38.0076 84.6356 38.1495 84.4484 38.3311C84.2611 38.5127 84.1125 38.7303 84.0114 38.9708C83.8101 39.4522 83.6719 39.9576 83.6001 40.4744C83.2623 42.3231 82.8637 44.1609 82.4043 45.9878C82.3902 46.0627 82.3595 46.1334 82.3144 46.1948C82.242 46.267 82.1442 46.308 82.042 46.3092C81.4318 46.3909 80.8461 45.9633 80.2305 46.0096C80.1671 46.0138 80.1042 46.0238 80.0426 46.0396C79.0472 44.3097 78.6077 42.3157 78.7836 40.3277C78.9595 38.3397 79.7423 36.4538 81.0259 34.9256L81.0749 34.912C81.4845 34.7666 81.8566 34.5322 82.1645 34.2255C82.5578 33.832 82.9219 33.4105 83.2541 32.9643L83.4721 32.6919C84.0982 31.9376 84.8114 31.2601 85.5968 30.6734C85.8112 30.4978 86.0571 30.3647 86.3214 30.2812C86.5475 30.2371 86.7793 30.2298 87.0078 30.2594C87.9486 30.3723 88.897 30.4079 89.8435 30.3656C90.5031 30.262 91.1678 30.1947 91.8348 30.1641C93.5591 30.2131 95.03 31.4307 96.1196 32.7655C96.7053 33.4492 97.2283 34.2364 97.2637 35.1299Z" fill="black"/>
<path d="M78.7513 36.6641C78.3727 37.2852 77.689 37.7074 77.4329 38.3884C77.057 39.3772 77.6917 40.6084 77.1088 41.491C76.9154 41.7879 76.5967 42.0086 76.4877 42.3491C76.3025 42.9238 76.8091 43.5367 76.6784 44.1279C76.5476 44.719 75.7686 45.2175 75.9756 45.7949C76.0979 46.0468 76.3125 46.2419 76.5749 46.3397C76.9876 46.5765 77.4627 46.682 77.9369 46.6421C78.6805 46.5195 79.2335 45.7895 79.988 45.735C80.6009 45.6914 81.1866 46.1164 81.7968 46.0374C81.899 46.0338 81.9962 45.992 82.0692 45.9203C82.1155 45.8595 82.1463 45.7885 82.1591 45.7132C82.6167 43.8881 83.0162 42.0504 83.3576 40.1998C83.4272 39.6829 83.5646 39.1773 83.7662 38.6962C83.8681 38.4562 84.017 38.2391 84.2041 38.0576C84.3913 37.876 84.6129 37.7338 84.8558 37.6393C85.5831 37.405 86.4003 37.8027 86.8661 38.4102C87.3319 39.0176 87.509 39.794 87.6343 40.5485C87.7596 41.3031 87.8386 42.0794 88.1464 42.7795C88.24 43.0391 88.4136 43.2623 88.6422 43.4169C89.0508 43.6539 89.601 43.4659 89.9143 43.1118C90.2013 42.7329 90.3886 42.288 90.4591 41.8179C90.5302 41.3496 90.6862 40.8981 90.9195 40.4859C91.3499 39.843 92.1371 39.5515 92.8889 39.369C93.6407 39.1865 94.4334 39.0585 95.0681 38.609C95.5669 38.2069 95.9738 37.7025 96.2612 37.1299C96.6644 36.4271 97.0403 35.6644 97.0076 34.8554C96.9722 33.9728 96.4492 33.1855 95.8908 32.4991C94.8012 31.1643 93.3275 29.9467 91.6032 29.9004C90.936 29.9283 90.2711 29.9956 89.6119 30.102C88.6653 30.1445 87.7168 30.1081 86.7763 29.993C86.5475 29.9656 86.316 29.9739 86.0898 30.0175C85.8252 30.0983 85.5797 30.2317 85.3679 30.4098C84.5818 30.9955 83.8677 31.6721 83.2405 32.4255C82.8361 32.9617 82.3975 33.4713 81.9275 33.951C81.6195 34.2581 81.2474 34.4934 80.8379 34.6402C80.5655 34.7164 80.2931 34.6619 80.0343 34.7464C79.2308 34.9997 79.1245 36.0485 78.7513 36.6641Z" fill="#965D7B"/>
<path opacity="0.1" d="M104.985 44.0704C102.806 44.4708 101 42.7084 100 41.4227C99.6929 41.0322 99.4135 40.6208 99.1637 40.1914L106.644 41.6024L106.946 41.6596C106.946 41.6596 108.322 43.4602 104.985 44.0704Z" fill="black"/>
<g opacity="0.1">
<path opacity="0.1" d="M76.6795 43.3488C76.71 42.9925 76.6559 42.6341 76.5215 42.3027C76.5215 42.33 76.497 42.3572 76.4888 42.3845C76.3717 42.7495 76.5297 43.1281 76.6305 43.5067C76.6521 43.4559 76.6686 43.4029 76.6795 43.3488Z" fill="black"/>
<path opacity="0.1" d="M77.3269 38.8906C77.2988 39.2673 77.3061 39.6458 77.3487 40.0211C77.3766 39.6444 77.3693 39.2659 77.3269 38.8906Z" fill="black"/>
<path opacity="0.1" d="M96.2454 36.3429C95.9588 36.9168 95.5518 37.4222 95.0523 37.8248C94.4231 38.2742 93.6304 38.3995 92.8731 38.582C92.1159 38.7646 91.3341 39.056 90.9037 39.6989C90.6708 40.1123 90.5148 40.5646 90.4433 41.0337C90.3724 41.5036 90.1851 41.9484 89.8985 42.3276C89.5853 42.6817 89.035 42.8724 88.6264 42.6326C88.3978 42.4781 88.2242 42.2549 88.1306 41.9952C87.8228 41.2952 87.7411 40.5215 87.6185 39.7643C87.496 39.007 87.3134 38.2334 86.8504 37.6259C86.3873 37.0185 85.5674 36.618 84.84 36.855C84.5968 36.9492 84.3751 37.0912 84.1879 37.2728C84.0007 37.4544 83.8519 37.6717 83.7504 37.9119C83.5488 38.393 83.4114 38.8986 83.3418 39.4156C83.0023 41.2661 82.6027 43.1039 82.1433 44.929C82.1305 45.0042 82.0997 45.0753 82.0534 45.136C81.9805 45.2078 81.8833 45.2496 81.781 45.2531C81.1708 45.3321 80.5852 44.9072 79.9723 44.9508C79.2177 45.0052 78.6647 45.7353 77.9211 45.8551C77.4467 45.8977 76.9709 45.792 76.5591 45.5528C76.3697 45.4713 76.1998 45.3506 76.0606 45.1987C75.9969 45.2899 75.9547 45.3945 75.9372 45.5044C75.9197 45.6143 75.9275 45.7268 75.9598 45.8333C76.0798 46.087 76.2952 46.2828 76.5591 46.3781C76.9709 46.6174 77.4467 46.7231 77.9211 46.6805C78.6647 46.5607 79.2177 45.8306 79.9723 45.7761C80.5852 45.7326 81.1708 46.1575 81.781 46.0785C81.8833 46.0749 81.9805 46.0331 82.0534 45.9614C82.0997 45.9007 82.1305 45.8296 82.1433 45.7543C82.6009 43.9383 83.0004 42.1006 83.3418 40.241C83.4114 39.724 83.5488 39.2184 83.7504 38.7373C83.8519 38.4971 84.0007 38.2797 84.1879 38.0982C84.3751 37.9166 84.5968 37.7745 84.84 37.6804C85.5674 37.4434 86.3846 37.8438 86.8504 38.4513C87.3162 39.0588 87.4932 39.8351 87.6185 40.5896C87.7438 41.3442 87.8228 42.1205 88.1306 42.8206C88.2242 43.0802 88.3978 43.3035 88.6264 43.458C89.035 43.695 89.5853 43.507 89.8985 43.1529C90.1851 42.7738 90.3724 42.329 90.4433 41.859C90.5148 41.3899 90.6708 40.9377 90.9037 40.5243C91.3341 39.8814 92.1213 39.5927 92.8731 39.4074C93.625 39.2222 94.4176 39.0996 95.0523 38.6501C95.5518 38.2476 95.9588 37.7422 96.2454 37.1683C96.6486 36.4682 97.0245 35.7055 96.9918 34.8965C96.9865 34.7925 96.9756 34.6888 96.9591 34.5859C96.8277 35.2094 96.586 35.8044 96.2454 36.3429Z" fill="black"/>
</g>
<path opacity="0.1" d="M97.003 36.4236C97.7015 37.6656 98.1156 39.0473 98.2152 40.4688C95.7881 39.1068 93.5054 37.6113 92.3531 37.091C90.3455 36.1839 82.8382 36.3201 80.0161 36.4046C80.3113 35.8772 80.6561 35.3792 81.0458 34.9172C81.6906 34.1513 82.4484 33.4881 83.2931 32.9505C84.4117 32.2406 85.6633 31.7663 86.9714 31.5565C88.2796 31.3467 89.6167 31.4059 90.9012 31.7305C92.1857 32.0551 93.3905 32.6382 94.442 33.4442C95.4935 34.2502 96.3695 35.2621 97.0166 36.4182L97.003 36.4236Z" fill="black"/>
<path opacity="0.1" d="M105.666 42.9154C104.356 43.3186 102.217 42.5395 100 41.4227C99.6929 41.0322 99.4135 40.6208 99.1637 40.1914L106.644 41.6024C107.14 41.9402 107.265 42.4224 105.666 42.9154Z" fill="black"/>
<path d="M89.0836 26.9811C89.0836 26.9811 81.9331 26.5725 79.9227 30.4542L79.5986 33.8946L79.0538 33.8347L78.9448 36.1746C78.9448 36.1746 89.8735 35.6979 92.3605 36.8202C94.8476 37.9425 102.576 43.5975 105.673 42.6441C108.77 41.6907 105.4 40.8054 105.4 40.8054C105.4 40.8054 101.137 38.9994 101.137 37.5829C101.137 36.1664 100.08 28.6836 89.0836 26.9811Z" fill="#444053"/>
<path opacity="0.1" d="M75.2928 154.518C75.2928 154.518 79.8556 158.944 81.8305 158.604C81.8305 158.604 76.2462 158.127 75.2928 154.518Z" fill="black"/>
<path opacity="0.1" d="M74.3394 156.57C74.3394 156.57 74.748 158.848 75.8376 158.624C76.9272 158.401 74.3394 156.57 74.3394 156.57Z" fill="black"/>
<path opacity="0.1" d="M81.4901 194.629C81.4901 194.629 75.0124 199.668 76.1047 199.805C77.197 199.941 81.4901 194.629 81.4901 194.629Z" fill="black"/>
<path d="M90.155 94.6124L111.13 91.1992V111.057L91.201 110.014L90.155 94.6124Z" fill="#21344D"/>
<path opacity="0.05" d="M90.155 94.6124L111.13 91.1992V111.057L91.201 110.014L90.155 94.6124Z" fill="black"/>
<path d="M111.13 91.1992L136.284 93.0815L134.892 110.363L111.13 111.057V91.1992Z" fill="#21344D"/>
<path opacity="0.1" d="M111.13 91.1992L136.284 93.0815L134.892 110.363L111.13 111.057V91.1992Z" fill="black"/>
<path d="M118.864 85.1387L111.13 91.1996L136.284 93.0819L140.394 86.8793L118.864 85.1387Z" fill="#21344D"/>
<path d="M82.5601 87.9924L101.443 85.6934L111.129 91.1986L90.1546 94.6117L82.5601 87.9924Z" fill="#21344D"/>
<path d="M115.728 96.3547V123.505L105.902 122.497L101.629 122.061L100.326 121.925L96.0552 121.486L90.155 120.882V94.6113L111.127 96.0387L115.728 96.3547Z" fill="#21344D"/>
<path d="M136.283 93.0801V119.557L128.408 121.069L124.578 121.805L115.728 123.504V96.3543L136.283 93.0801Z" fill="#21344D"/>
<path opacity="0.05" d="M136.283 93.0801V119.557L128.408 121.069L124.578 121.805L115.728 123.504V96.3543L136.283 93.0801Z" fill="black"/>
<path d="M82.5601 100.326L90.1546 94.6113L115.728 96.3547L111.963 102.696L82.5601 100.326Z" fill="#21344D"/>
<path opacity="0.1" d="M82.5601 100.326L90.1546 94.6113L115.728 96.3547L111.963 102.696L82.5601 100.326Z" fill="white"/>
<path d="M136.283 93.0801L115.728 96.3543L122.418 102.347L144.436 98.6534L136.283 93.0801Z" fill="#21344D"/>
<path opacity="0.1" d="M136.283 93.0801L115.728 96.3543L122.418 102.347L144.436 98.6534L136.283 93.0801Z" fill="white"/>
<path opacity="0.1" d="M128.409 121.071L124.579 121.806V116.149L128.166 115.244L128.409 121.071Z" fill="white"/>
<path opacity="0.1" d="M105.902 118.754V122.497L101.628 122.061V118.754H105.902Z" fill="white"/>
<path opacity="0.1" d="M100.326 119.934V121.925L96.0547 121.486V119.934H100.326Z" fill="white"/>
<path opacity="0.1" d="M113.156 116.769C110.228 120.515 100.558 117.927 100.558 117.927L93.3717 110.43L92.3965 109.414L94.3033 105.873C94.3033 105.873 94.8481 106.053 95.7579 106.369C100.574 108.052 115.621 113.617 113.156 116.769Z" fill="black"/>
<path d="M112.884 116.224C109.956 119.97 100.285 117.382 100.285 117.382L93.0995 109.885L92.1243 108.869L94.0311 105.328C94.0311 105.328 94.5759 105.508 95.4857 105.824C100.302 107.507 115.349 113.072 112.884 116.224Z" fill="#EFB7B9"/>
<path opacity="0.1" d="M95.4745 105.824C95.0768 106.968 94.0661 108.662 93.0882 109.885L92.113 108.869L94.0198 105.328C94.0198 105.328 94.5674 105.508 95.4745 105.824Z" fill="black"/>
<path d="M71.684 63.4607C71.684 63.4607 64.5335 66.1847 64.4654 73.812C64.4491 78.7269 64.722 83.6386 65.2826 88.5216C65.2826 88.5216 63.2396 99.8943 69.0281 103.163C74.8166 106.432 80.1965 109.156 80.1965 109.156C80.1965 109.156 89.4445 110.654 90.5804 111.131C91.7163 111.607 95.6634 105.478 95.0505 104.457C94.4376 103.435 86.0177 100.916 85.018 99.2133C84.0183 97.5108 81.5558 96.364 81.5558 96.364C81.5558 96.364 79.0443 94.6506 78.9435 93.2205C78.8427 91.7904 79.5836 90.7689 79.7934 90.156C80.0031 89.5431 80.7631 83.5503 80.7631 83.5503C80.7631 83.5503 84.8273 62.2894 71.684 63.4607Z" fill="#DCE6F2"/>
<path opacity="0.1" d="M74.9522 88.7109C74.9522 88.7109 65.282 89.8005 66.0311 93.2055C66.0311 93.2055 69.7058 89.7706 74.9522 88.7109Z" fill="black"/>
<path opacity="0.1" d="M74.9514 90.0742C74.9514 90.0742 69.4625 94.0921 70.4704 94.3645C71.4782 94.6369 74.9514 90.0742 74.9514 90.0742Z" fill="black"/>
<path opacity="0.1" d="M77.4039 91.707C77.4039 91.707 75.8376 94.5236 76.7229 94.3766C77.6082 94.2295 77.4039 91.707 77.4039 91.707Z" fill="black"/>
<path d="M178.088 30.615C178.088 30.615 167.737 29.9912 168.947 37.2534C168.947 37.2534 168.704 38.5364 169.867 39.1193C169.867 39.1193 169.886 38.5745 170.93 38.7625C171.301 38.825 171.679 38.8433 172.055 38.8169C172.564 38.783 173.048 38.583 173.433 38.2476C173.433 38.2476 176.345 37.0463 177.478 32.2848C177.478 32.2848 178.317 31.2442 178.295 30.9773L176.547 31.7264C176.547 31.7264 177.143 32.9876 176.672 34.0363C176.672 34.0363 176.617 31.7727 176.28 31.8244C176.211 31.8244 175.372 32.263 175.372 32.263C175.372 32.263 176.399 34.4585 175.623 36.0575C175.623 36.0575 175.917 33.3499 175.051 32.421L173.82 33.1401C173.82 33.1401 175.021 35.4092 174.207 37.2615C174.207 37.2615 174.416 34.4204 173.561 33.3145L172.444 34.1834C172.444 34.1834 173.575 36.4225 172.885 37.9589C172.885 37.9589 172.796 34.6519 172.202 34.4013C172.202 34.4013 171.227 35.2621 171.079 35.6162C171.079 35.6162 171.85 37.2506 171.371 38.0978C171.371 38.0978 171.077 35.8941 170.826 35.8832C170.826 35.8832 169.854 37.3433 169.753 38.3348C169.8 37.4104 170.088 36.5145 170.589 35.7361C170.029 35.8421 169.512 36.1102 169.102 36.507C169.102 36.507 169.252 35.4746 170.829 35.3847C170.829 35.3847 171.646 34.276 171.848 34.2079C171.848 34.2079 170.279 34.0772 169.328 34.4994C169.328 34.4994 170.164 33.5269 172.136 33.9546L173.226 33.0557C173.226 33.0557 171.161 32.7833 170.284 33.0856C170.284 33.0856 171.292 32.2249 173.523 32.8514L174.721 32.135C174.721 32.135 172.962 31.7536 171.913 31.8925C171.913 31.8925 173.019 31.296 175.073 31.9416L175.931 31.5575C175.931 31.5575 174.64 31.3041 174.264 31.2633C173.888 31.2224 173.866 31.1189 173.866 31.1189C174.683 30.983 175.522 31.0773 176.288 31.3913C176.288 31.3913 178.126 30.7294 178.088 30.615Z" fill="#21344D"/>
<path opacity="0.1" d="M209.54 66.9353C209.54 66.9353 199.189 66.3115 200.398 73.5737C200.398 73.5737 200.156 74.8567 201.319 75.4396C201.319 75.4396 201.338 74.8948 202.384 75.0828C202.755 75.1453 203.133 75.1636 203.509 75.1373C204.012 75.1008 204.49 74.9019 204.871 74.5707C204.871 74.5707 207.786 73.3667 208.919 68.6051C208.919 68.6051 209.755 67.5673 209.722 67.3003L207.974 68.0467C207.974 68.0467 208.57 69.3079 208.102 70.3566C208.102 70.3566 208.044 68.093 207.709 68.1447C207.641 68.1447 206.8 68.5833 206.8 68.5833C206.8 68.5833 207.829 70.7816 207.053 72.3778C207.053 72.3778 207.347 69.6702 206.478 68.7413L205.26 69.4523C205.26 69.4523 206.462 71.7214 205.647 73.5737C205.647 73.5737 205.857 70.7325 205.002 69.6266L203.888 70.4983C203.888 70.4983 205.015 72.7347 204.329 74.271C204.329 74.271 204.239 70.9641 203.645 70.7135C203.645 70.7135 202.67 71.5743 202.52 71.9284C202.52 71.9284 203.294 73.5628 202.814 74.4099C202.814 74.4099 202.52 72.2062 202.269 72.1953C202.269 72.1953 201.297 73.6554 201.196 74.6469C201.245 73.7224 201.534 72.8267 202.035 72.0482C201.474 72.1545 200.956 72.4225 200.545 72.8191C200.545 72.8191 200.698 71.7867 202.275 71.6968C202.275 71.6968 203.079 70.5882 203.294 70.5201C203.294 70.5201 201.725 70.3893 200.774 70.8115C200.774 70.8115 201.61 69.8391 203.58 70.2804L204.669 69.3814C204.669 69.3814 202.602 69.109 201.727 69.4114C201.727 69.4114 202.735 68.5506 204.966 69.1771L206.165 68.4607C206.165 68.4607 204.402 68.0821 203.354 68.2183C203.354 68.2183 204.462 67.6217 206.516 68.2673L207.374 67.8832C207.374 67.8832 206.083 67.6299 205.704 67.589C205.326 67.5482 205.307 67.4447 205.307 67.4447C206.124 67.3086 206.964 67.403 207.731 67.7171C207.731 67.7171 209.573 67.0497 209.54 66.9353Z" fill="#21344D"/>
<path opacity="0.1" d="M146.656 60.4884C146.656 60.4884 149.039 50.3851 141.673 50.3497C141.673 50.3497 140.45 49.892 139.679 50.938C139.679 50.938 140.205 51.0497 139.848 52.0467C139.725 52.3993 139.643 52.7649 139.603 53.1363C139.55 53.6427 139.664 54.1524 139.927 54.5882C139.927 54.5882 140.616 57.6663 145.103 59.5949C145.103 59.5949 145.985 60.5974 146.252 60.6083L145.817 58.7587C145.817 58.7587 144.471 59.1318 143.517 58.4863C143.517 58.4863 145.759 58.8159 145.762 58.4863C145.762 58.4182 145.49 57.5165 145.49 57.5165C145.49 57.5165 143.15 58.1539 141.706 57.1161C141.706 57.1161 144.324 57.8679 145.389 57.1733L144.899 55.8331C144.899 55.8331 142.447 56.6312 140.769 55.5117C140.769 55.5117 143.534 56.2035 144.771 55.5498L144.103 54.3022C144.103 54.3022 141.706 55.0322 140.309 54.0924C140.309 54.0924 143.577 54.5664 143.932 54.0271C143.932 54.0271 143.251 52.9184 142.926 52.7114C142.926 52.7114 141.194 53.1962 140.431 52.5779C140.431 52.5779 142.651 52.6623 142.703 52.4281C142.703 52.4281 141.431 51.2213 140.461 50.9489C141.365 51.1547 142.199 51.5922 142.883 52.2183C142.873 51.6474 142.697 51.0918 142.376 50.6193C142.376 50.6193 143.368 50.9462 143.193 52.5261C143.193 52.5261 144.147 53.5068 144.177 53.7302C144.177 53.7302 144.572 52.2074 144.318 51.1968C144.318 51.1968 145.136 52.1884 144.365 54.0543L145.062 55.2937C145.062 55.2937 145.694 53.3052 145.533 52.3899C145.533 52.3899 146.211 53.5286 145.212 55.6206L145.716 56.9254C145.716 56.9254 146.389 55.2529 146.432 54.2014C146.432 54.2014 146.833 55.3945 145.844 57.3095L146.078 58.2193C146.078 58.2193 146.547 56.9908 146.65 56.6258C146.754 56.2608 146.86 56.258 146.86 56.258C146.856 57.0867 146.621 57.8979 146.182 58.6007C146.182 58.6007 146.538 60.502 146.656 60.4884Z" fill="#21344D"/>
<path opacity="0.1" d="M123.986 63.9312C123.986 63.9312 115.673 57.7123 112.701 64.4488C112.701 64.4488 111.794 65.3885 112.445 66.5136C112.445 66.5136 112.755 66.075 113.534 66.8023C113.81 67.059 114.116 67.2821 114.444 67.467C114.889 67.7147 115.403 67.8103 115.907 67.7394C115.907 67.7394 119.001 68.3359 122.564 64.9827C122.564 64.9827 123.836 64.5741 123.956 64.3344L122.079 64.0048C122.079 64.0048 121.883 65.3858 120.916 66.0042C120.916 66.0042 122.112 64.081 121.802 63.9421C121.739 63.9121 120.802 63.8059 120.802 63.8059C120.802 63.8059 120.453 66.2085 118.928 67.1156C118.928 67.1156 120.663 65.0154 120.448 63.7623L119.023 63.686C119.023 63.686 118.781 66.2439 117.081 67.3444C117.081 67.3444 118.816 65.0862 118.715 63.6915L117.304 63.8059C117.304 63.8059 117.018 66.2929 115.599 67.1973C115.599 67.1973 117.34 64.3861 116.983 63.8522C116.983 63.8522 115.694 64.0347 115.376 64.2472C115.376 64.2472 115.128 66.0287 114.256 66.4809C114.256 66.4809 115.223 64.4787 115.027 64.3398C115.027 64.3398 113.412 65.0235 112.777 65.8026C113.326 65.0567 114.06 64.467 114.907 64.0919C114.38 63.8729 113.801 63.8123 113.24 63.9176C113.24 63.9176 113.932 63.1385 115.299 63.9312C115.299 63.9312 116.58 63.4491 116.798 63.509C116.798 63.509 115.558 62.5365 114.531 62.3676C114.531 62.3676 115.768 62.0135 117.171 63.4572L118.585 63.3129C118.585 63.3129 117.013 61.9509 116.111 61.722C116.111 61.722 117.427 61.5559 118.944 63.3047L120.339 63.3673C120.339 63.3673 119.078 62.0816 118.127 61.6185C118.127 61.6185 119.377 61.7275 120.739 63.3973L121.668 63.5471C121.668 63.5471 120.728 62.6264 120.434 62.3867C120.14 62.147 120.181 62.0462 120.181 62.0462C120.939 62.3818 121.588 62.9212 122.058 63.6043C122.058 63.6043 123.951 64.0429 123.986 63.9312Z" fill="#21344D"/>
<path opacity="0.1" d="M151.665 6.15312C151.665 6.15312 143.351 -0.0685024 140.379 6.67068C140.379 6.67068 139.472 7.61046 140.123 8.73548C140.123 8.73548 140.434 8.29691 141.213 9.02422C141.49 9.27962 141.797 9.50176 142.126 9.68615C142.57 9.93407 143.084 10.0297 143.588 9.95855C143.588 9.95855 146.683 10.5551 150.246 7.19914C150.246 7.19914 151.518 6.79326 151.635 6.55083L149.758 6.22667C149.758 6.22667 149.565 7.60774 148.595 8.22609C148.595 8.22609 149.794 6.30294 149.483 6.16402C149.42 6.13405 148.483 6.02782 148.483 6.02782C148.483 6.02782 148.124 8.43584 146.598 9.33748C146.598 9.33748 148.331 7.23727 148.118 5.98423L146.694 5.90796C146.694 5.90796 146.449 8.4658 144.751 9.56357C144.751 9.56357 146.487 7.30538 146.386 5.91069L144.978 6.02509C144.978 6.02509 144.689 8.51483 143.27 9.4192C143.27 9.4192 145.013 6.60803 144.656 6.07413C144.656 6.07413 143.368 6.25663 143.049 6.46911C143.049 6.46911 142.801 8.25061 141.929 8.70279C141.929 8.70279 142.896 6.70065 142.7 6.559C142.7 6.559 141.085 7.24545 140.45 8.02451C140.998 7.27778 141.733 6.68793 142.58 6.31384C142.053 6.09321 141.472 6.03258 140.911 6.1395C140.911 6.1395 141.605 5.36044 142.973 6.15312C142.973 6.15312 144.253 5.66825 144.471 5.7309C144.471 5.7309 143.231 4.75843 142.205 4.58682C142.205 4.58682 143.438 4.23542 144.841 5.67642L146.255 5.53205C146.255 5.53205 144.686 4.17005 143.782 3.93851C143.782 3.93851 145.097 3.77507 146.617 5.52388L148.012 5.5838C148.012 5.5838 146.751 4.29808 145.797 3.83772C145.797 3.83772 147.051 3.94668 148.413 5.61649L149.339 5.76631C149.339 5.76631 148.396 4.8565 148.102 4.62223C147.808 4.38797 147.849 4.28446 147.849 4.28446C148.607 4.61967 149.257 5.15916 149.725 5.84259C149.725 5.84259 151.619 6.25663 151.665 6.15312Z" fill="#21344D"/>
<path opacity="0.1" d="M183.433 14.0331C183.433 14.0331 180.109 4.19677 173.841 8.06213C173.841 8.06213 172.561 8.33453 172.46 9.61753C172.46 9.61753 172.964 9.4323 173.188 10.4674C173.271 10.8356 173.396 11.193 173.561 11.5325C173.786 11.9894 174.153 12.3611 174.607 12.5921C174.607 12.5921 176.819 14.8394 181.657 14.0958C181.657 14.0958 182.934 14.4826 183.168 14.3491L181.806 13.0116C181.806 13.0116 180.864 14.0386 179.714 13.9977C179.714 13.9977 181.793 13.0934 181.621 12.8019C181.586 12.7447 180.875 12.1263 180.875 12.1263C180.875 12.1263 179.224 13.9051 177.453 13.788C177.453 13.788 180.071 13.0416 180.605 11.8812L179.477 11.0122C179.477 11.0122 177.827 12.979 175.803 12.919C175.803 12.919 178.527 12.0446 179.216 10.8352L177.99 10.1296C177.99 10.1296 176.356 12.0174 174.661 11.9575C174.661 11.9575 177.69 10.6309 177.699 9.988C177.699 9.988 176.535 9.40779 176.151 9.40234C176.151 9.40234 174.936 10.7289 173.972 10.6091C173.972 10.6091 175.901 9.50585 175.819 9.27976C175.819 9.27976 174.103 8.92836 173.136 9.21166C174.011 8.90713 174.95 8.8367 175.86 9.00736C175.549 8.52766 175.105 8.149 174.582 7.91776C174.582 7.91776 175.596 7.66987 176.274 9.09725C176.274 9.09725 177.603 9.42685 177.745 9.59846C177.745 9.59846 177.276 8.09754 176.527 7.37296C176.527 7.37296 177.745 7.78428 178.077 9.77553L179.325 10.4565C179.325 10.4565 178.81 8.43804 178.189 7.73252C178.189 7.73252 179.368 8.3427 179.624 10.6445L180.741 11.4862C180.741 11.4862 180.431 9.71015 179.908 8.78944C179.908 8.78944 180.877 9.59029 181.052 11.7395L181.73 12.3878C181.73 12.3878 181.479 11.0967 181.376 10.7317C181.272 10.3666 181.357 10.3421 181.357 10.3421C181.79 11.0488 182.019 11.8614 182.019 12.6902C182.019 12.6902 183.337 14.104 183.433 14.0331Z" fill="#21344D"/>
<path opacity="0.1" d="M161.744 14.5187C161.744 14.5187 151.42 13.3692 152.272 20.694C152.272 20.694 151.965 21.9634 153.09 22.6008C153.09 22.6008 153.136 22.056 154.179 22.3012C154.548 22.3805 154.924 22.418 155.301 22.4129C155.811 22.4037 156.303 22.2287 156.704 21.9144C156.704 21.9144 159.676 20.8602 161.063 16.1613C161.063 16.1613 161.951 15.167 161.932 14.8974L160.147 15.5566C160.147 15.5566 160.692 16.845 160.147 17.8692C160.147 17.8692 160.205 15.6056 159.875 15.641C159.807 15.641 158.946 16.0333 158.946 16.0333C158.946 16.0333 159.861 18.2806 159.006 19.8469C159.006 19.8469 159.436 17.1556 158.617 16.1858L157.35 16.8396C157.35 16.8396 158.439 19.1686 157.527 20.9773C157.527 20.9773 157.881 18.1498 157.083 17.003L155.925 17.8202C155.925 17.8202 156.939 20.1111 156.173 21.612C156.173 21.612 156.252 18.3051 155.672 18.0245C155.672 18.0245 154.653 18.8417 154.487 19.1795C154.487 19.1795 155.176 20.8411 154.656 21.672C154.656 21.672 154.473 19.4573 154.234 19.4356C154.234 19.4356 153.188 20.8439 153.035 21.8381C153.13 20.9163 153.464 20.0354 154.005 19.283C153.44 19.3611 152.909 19.6025 152.479 19.9776C152.479 19.9776 152.681 18.9561 154.261 18.9452C154.261 18.9452 155.119 17.8801 155.35 17.8229C155.35 17.8229 153.79 17.6132 152.817 17.9864C152.817 17.9864 153.702 17.0548 155.647 17.5968L156.794 16.7551C156.794 16.7551 154.721 16.3356 153.844 16.608C153.844 16.608 154.896 15.7908 157.091 16.5399L158.325 15.8835C158.325 15.8835 156.584 15.4149 155.53 15.4994C155.53 15.4994 156.666 14.9546 158.685 15.7091L159.562 15.3686C159.562 15.3686 158.284 15.0499 157.908 14.99C157.532 14.9301 157.519 14.8265 157.519 14.8265C158.342 14.7321 159.176 14.8678 159.927 15.2188C159.927 15.2188 161.763 14.6331 161.744 14.5187Z" fill="#21344D"/>
<path opacity="0.1" d="M252.073 94.6497C252.073 94.6497 241.755 93.5002 242.607 100.817C242.607 100.817 242.3 102.086 243.425 102.724C243.425 102.724 243.471 102.179 244.514 102.421C244.882 102.503 245.259 102.541 245.636 102.533C246.146 102.525 246.639 102.35 247.039 102.034C247.039 102.034 250.011 100.98 251.384 96.2841C251.384 96.2841 252.272 95.2871 252.253 95.0202L250.469 95.6766C250.469 95.6766 251.014 96.9678 250.469 97.992C250.469 97.992 250.526 95.7257 250.196 95.7638C250.128 95.7638 249.268 96.1533 249.268 96.1533C249.268 96.1533 250.183 98.4006 249.327 99.9669C249.327 99.9669 249.758 97.2784 248.938 96.3059L247.671 96.9624C247.671 96.9624 248.761 99.2914 247.851 101.1C247.851 101.1 248.202 98.2726 247.404 97.1231L246.247 97.9403C246.247 97.9403 247.26 100.231 246.494 101.729C246.494 101.729 246.573 98.4224 245.993 98.1446C245.993 98.1446 244.977 98.9618 244.808 99.2996C244.808 99.2996 245.5 100.961 244.977 101.792C244.977 101.792 244.795 99.5774 244.555 99.5556C244.555 99.5556 243.509 100.964 243.356 101.958C243.451 101.036 243.785 100.155 244.326 99.4031C243.761 99.4798 243.23 99.7214 242.801 100.098C242.801 100.098 243.002 99.0735 244.582 99.0626C244.582 99.0626 245.443 97.9975 245.672 97.943C245.672 97.943 244.111 97.7305 243.139 98.1037C243.139 98.1037 244.024 97.1749 245.971 97.7169L247.116 96.8752C247.116 96.8752 245.067 96.4884 244.176 96.7554C244.176 96.7554 245.228 95.9382 247.423 96.6845L248.657 96.0308C248.657 96.0308 246.917 95.5622 245.863 95.6467C245.863 95.6467 246.998 95.1019 249.017 95.8564L249.894 95.5132C249.894 95.5132 248.616 95.1945 248.241 95.1373C247.865 95.0801 247.851 94.9739 247.851 94.9739C248.674 94.8777 249.508 95.0125 250.259 95.3634C250.259 95.3634 252.1 94.7668 252.073 94.6497Z" fill="#21344D"/>
<path opacity="0.1" d="M267.846 104.288C267.846 104.288 257.527 103.141 258.38 110.455C258.38 110.455 258.075 111.725 259.197 112.362C259.197 112.362 259.244 111.817 260.287 112.062C260.654 112.142 261.03 112.179 261.406 112.171C261.913 112.161 262.404 111.987 262.804 111.676C262.804 111.676 265.773 110.621 267.146 105.922C267.146 105.922 268.037 104.928 268.015 104.658L266.231 105.315C266.231 105.315 266.775 106.606 266.231 107.63C266.231 107.63 266.288 105.367 265.958 105.402C265.89 105.402 265.029 105.792 265.029 105.792C265.029 105.792 265.945 108.039 265.089 109.605C265.089 109.605 265.52 106.917 264.7 105.947L263.433 106.601C263.433 106.601 264.523 108.93 263.613 110.738C263.613 110.738 263.964 107.911 263.166 106.764L262.008 107.581C262.008 107.581 263.022 109.872 262.259 111.373C262.259 111.373 262.335 108.063 261.755 107.786C261.755 107.786 260.739 108.603 260.57 108.941C260.57 108.941 261.262 110.602 260.739 111.433C260.739 111.433 260.557 109.218 260.317 109.197C260.317 109.197 259.271 110.605 259.121 111.599C259.215 110.678 259.549 109.797 260.088 109.044C259.523 109.122 258.993 109.364 258.563 109.739C258.563 109.739 258.767 108.715 260.347 108.706C260.347 108.706 261.205 107.641 261.436 107.584C261.436 107.584 259.876 107.374 258.903 107.747C258.903 107.747 259.788 106.816 261.736 107.358L262.88 106.516C262.88 106.516 260.832 106.129 259.941 106.396C259.941 106.396 260.992 105.579 263.188 106.328L264.422 105.672C264.422 105.672 262.681 105.203 261.627 105.288C261.627 105.288 262.763 104.743 264.781 105.497L265.659 105.157C265.659 105.157 264.381 104.838 264.008 104.778C263.635 104.718 263.616 104.615 263.616 104.615C264.439 104.52 265.273 104.656 266.024 105.007C266.024 105.007 267.873 104.405 267.846 104.288Z" fill="#21344D"/>
<path opacity="0.1" d="M232.824 23.1089C232.824 23.1089 224.51 16.89 221.538 23.6265C221.538 23.6265 220.631 24.5663 221.282 25.6913C221.282 25.6913 221.593 25.2527 222.372 25.98C222.648 26.2368 222.953 26.4599 223.282 26.6447C223.727 26.8922 224.24 26.9879 224.745 26.9171C224.745 26.9171 227.839 27.5137 231.405 24.1604C231.405 24.1604 232.674 23.7518 232.794 23.5121L230.923 23.1743C230.923 23.1743 230.727 24.5554 229.76 25.1737C229.76 25.1737 230.955 23.2506 230.645 23.1117C230.582 23.0817 229.648 22.9755 229.648 22.9755C229.648 22.9755 229.296 25.378 227.771 26.2851C227.771 26.2851 229.506 24.1849 229.291 22.9319L227.866 22.8556C227.866 22.8556 227.624 25.4134 225.924 26.5139C225.924 26.5139 227.662 24.2558 227.559 22.8611L226.148 22.9755C226.148 22.9755 225.875 25.4625 224.442 26.3669C224.442 26.3669 226.186 23.5557 225.826 23.0218C225.826 23.0218 224.538 23.2043 224.219 23.4168C224.219 23.4168 223.974 25.1983 223.102 25.6504C223.102 25.6504 224.066 23.6483 223.87 23.5094C223.87 23.5094 222.255 24.1931 221.62 24.9722C222.169 24.2262 222.904 23.6366 223.75 23.2615C223.223 23.0425 222.644 22.9819 222.083 23.0871C222.083 23.0871 222.778 22.3081 224.145 23.1008C224.145 23.1008 225.423 22.6186 225.641 22.6785C225.641 22.6785 224.401 21.7061 223.374 21.5372C223.374 21.5372 224.611 21.1831 226.014 22.6268L227.428 22.4824C227.428 22.4824 225.859 21.1204 224.954 20.8916C224.954 20.8916 226.27 20.7254 227.787 22.4742L229.185 22.5369C229.185 22.5369 227.921 21.2512 226.97 20.7881C226.97 20.7881 228.223 20.8971 229.582 22.5669L230.511 22.7167C230.511 22.7167 229.572 21.796 229.277 21.5563C228.983 21.3165 229.027 21.2376 229.027 21.2376C229.784 21.5737 230.432 22.113 230.901 22.7957C230.901 22.7957 232.789 23.2206 232.824 23.1089Z" fill="#21344D"/>
<path opacity="0.1" d="M239.247 68.0062C239.247 68.0062 236.382 58.0281 229.937 61.6102C229.937 61.6102 228.645 61.809 228.485 63.1002C228.485 63.1002 228.997 62.9395 229.174 63.9828C229.239 64.3576 229.349 64.7233 229.501 65.0724C229.703 65.5418 230.053 65.9321 230.498 66.1838C230.498 66.1838 232.606 68.5264 237.471 68.0034C237.471 68.0034 238.73 68.4447 238.969 68.3249L237.681 66.9247C237.681 66.9247 236.692 67.9108 235.548 67.8182C235.548 67.8182 237.662 67.001 237.498 66.7095C237.466 66.6496 236.785 65.9986 236.785 65.9986C236.785 65.9986 235.058 67.7038 233.292 67.5049C233.292 67.5049 235.943 66.8784 236.526 65.7507L235.436 64.83C235.436 64.83 233.698 66.7204 231.68 66.5733C231.68 66.5733 234.426 65.8188 235.183 64.6447L233.99 63.8847C233.99 63.8847 232.26 65.6962 230.582 65.56C230.582 65.56 233.668 64.3696 233.707 63.7295C233.707 63.7295 232.568 63.0975 232.184 63.0757C232.184 63.0757 230.912 64.3451 229.945 64.1817C229.945 64.1817 231.922 63.1656 231.851 62.9368C231.851 62.9368 230.152 62.5091 229.174 62.7461C230.059 62.4835 230.998 62.4562 231.898 62.6671C231.61 62.1742 231.184 61.7765 230.672 61.523C230.672 61.523 231.696 61.3187 232.306 62.7761C232.306 62.7761 233.617 63.1629 233.753 63.3427C233.753 63.3427 233.352 61.8199 232.636 61.0654C232.636 61.0654 233.835 61.5285 234.077 63.5333L235.292 64.2715C235.292 64.2715 234.867 62.2285 234.279 61.5094C234.279 61.5094 235.428 62.1713 235.583 64.4813L236.673 65.372C236.673 65.372 236.441 63.5851 235.962 62.648C235.962 62.648 236.896 63.4925 236.973 65.6444L237.621 66.3254C237.621 66.3254 237.43 65.0234 237.349 64.6529C237.267 64.2824 237.349 64.2307 237.349 64.2307C237.752 64.9552 237.945 65.7777 237.907 66.606C237.907 66.606 239.149 68.0715 239.247 68.0062Z" fill="#21344D"/>
<path opacity="0.1" d="M175.391 90.4897C175.391 90.4897 169.826 81.7239 164.658 86.9703C164.658 86.9703 163.476 87.5151 163.683 88.809C163.683 88.809 164.132 88.5094 164.596 89.4628C164.762 89.8006 164.969 90.1171 165.211 90.4053C165.536 90.7986 165.981 91.0742 166.478 91.1898C166.478 91.1898 169.161 92.846 173.683 90.9719C173.683 90.9719 175.015 91.0427 175.211 90.8602L173.577 89.8795C173.577 89.8795 172.904 91.1053 171.779 91.3369C171.779 91.3369 173.582 89.9749 173.34 89.7243C173.293 89.6752 172.454 89.2449 172.454 89.2449C172.454 89.2449 171.275 91.3641 169.526 91.6719C169.526 91.6719 171.893 90.3236 172.138 89.076L170.834 88.5012C170.834 88.5012 169.698 90.803 167.72 91.2252C167.72 91.2252 170.144 89.7297 170.539 88.3895L169.177 87.9973C169.177 87.9973 168.028 90.2228 166.38 90.5633C166.38 90.5633 169.006 88.553 168.861 87.9264C168.861 87.9264 167.592 87.6404 167.227 87.7276C167.227 87.7276 166.363 89.3048 165.388 89.4192C165.388 89.4192 167.001 87.8883 166.867 87.6867C166.867 87.6867 165.116 87.7548 164.244 88.2588C165.022 87.755 165.918 87.4639 166.843 87.4143C166.429 87.0223 165.909 86.76 165.347 86.6598C165.347 86.6598 166.271 86.1776 167.254 87.4034C167.254 87.4034 168.616 87.4034 168.804 87.5396C168.804 87.5396 167.987 86.1776 167.091 85.6682C167.091 85.6682 168.371 85.7772 169.166 87.6322L170.542 87.9973C170.542 87.9973 169.559 86.1586 168.793 85.6328C168.793 85.6328 170.082 85.9434 170.88 88.1198L172.166 88.6646C172.166 88.6646 171.441 87.0166 170.714 86.2457C170.714 86.2457 171.847 86.7905 172.525 88.8363L173.342 89.3075C173.342 89.3075 172.798 88.1117 172.604 87.7821C172.411 87.4525 172.487 87.3762 172.487 87.3762C173.076 87.9584 173.492 88.6931 173.688 89.4982C173.688 89.4982 175.317 90.5823 175.391 90.4897Z" fill="#21344D"/>
<path d="M211.966 45.7023C211.966 45.7023 206.673 36.7703 201.343 41.8533C201.343 41.8533 200.144 42.3708 200.313 43.662C200.313 43.662 200.768 43.3733 201.204 44.3403C201.36 44.684 201.556 45.0078 201.789 45.3046C202.102 45.7063 202.539 45.9935 203.031 46.1218C203.031 46.1218 205.66 47.8597 210.239 46.1218C210.239 46.1218 211.569 46.2335 211.77 46.0564L210.171 45.0267C210.171 45.0267 209.463 46.228 208.33 46.4269C208.33 46.4269 210.174 45.1112 209.942 44.8633C209.893 44.8115 209.071 44.3539 209.071 44.3539C209.071 44.3539 207.826 46.4378 206.074 46.6911C206.074 46.6911 208.482 45.4163 208.763 44.1796L207.477 43.5748C207.477 43.5748 206.27 45.8439 204.279 46.2062C204.279 46.2062 206.75 44.787 207.186 43.4604L205.84 43.0246C205.84 43.0246 204.62 45.2038 202.963 45.5034C202.963 45.5034 205.649 43.5748 205.524 42.9456C205.524 42.9456 204.265 42.6187 203.89 42.695C203.89 42.695 202.977 44.2449 201.999 44.3294C201.999 44.3294 203.658 42.853 203.533 42.6459C203.533 42.6459 201.778 42.6596 200.893 43.1363C201.686 42.6579 202.59 42.395 203.516 42.3735C203.114 41.9686 202.601 41.6902 202.043 41.5727C202.043 41.5727 202.982 41.1178 203.949 42.3735C203.949 42.3735 205.311 42.4199 205.494 42.5588C205.494 42.5588 204.723 41.1968 203.841 40.6356C203.841 40.6356 205.115 40.7827 205.854 42.6623L207.216 43.0709C207.216 43.0709 206.292 41.2022 205.54 40.652C205.54 40.652 206.821 41.0034 207.551 43.2016L208.817 43.7928C208.817 43.7928 208.144 42.1229 207.455 41.3411C207.455 41.3411 208.569 41.9214 209.188 43.9862L209.986 44.4819C209.986 44.4819 209.474 43.2697 209.294 42.9347C209.114 42.5996 209.19 42.5261 209.19 42.5261C209.761 43.1262 210.155 43.8731 210.326 44.6835C210.326 44.6835 211.887 45.7922 211.966 45.7023Z" fill="#21344D"/>
<path d="M178.48 64.4847C178.48 64.4847 178.753 54.1062 171.542 55.569C171.542 55.569 170.251 55.3702 169.706 56.5524C169.706 56.5524 170.251 56.5524 170.099 57.6011C170.049 57.9751 170.043 58.3536 170.082 58.7289C170.131 59.2378 170.347 59.7165 170.695 60.0909C170.695 60.0909 171.994 62.962 176.791 63.9372C176.791 63.9372 177.857 64.7407 178.123 64.6972L177.306 62.9756C177.306 62.9756 176.067 63.613 175.002 63.1799C175.002 63.1799 177.263 63.0464 177.2 62.7141C177.2 62.646 176.732 61.8179 176.732 61.8179C176.732 61.8179 174.569 62.9211 172.948 62.1965C172.948 62.1965 175.672 62.4008 176.563 61.5046L175.803 60.2979C175.803 60.2979 173.574 61.5727 171.695 60.8209C171.695 60.8209 174.541 60.9353 175.62 60.0445L174.713 58.9549C174.713 58.9549 172.515 60.159 170.957 59.5215C170.957 59.5215 174.258 59.3227 174.498 58.7207C174.498 58.7207 173.604 57.7755 173.245 57.6311C173.245 57.6311 171.649 58.4483 170.777 58.007C170.777 58.007 172.956 57.642 172.97 57.3995C172.97 57.3995 171.48 56.4761 170.474 56.408C171.401 56.4246 172.308 56.6838 173.103 57.1598C172.979 56.603 172.695 56.0946 172.286 55.697C172.286 55.697 173.324 55.8142 173.465 57.3859C173.465 57.3859 174.601 58.1541 174.675 58.3666C174.675 58.3666 174.754 56.7948 174.299 55.8578C174.299 55.8578 175.301 56.6613 174.925 58.6444L175.86 59.7177C175.86 59.7177 176.072 57.642 175.732 56.7785C175.732 56.7785 176.625 57.7564 176.075 60.0064L176.83 61.1805C176.83 61.1805 177.151 59.4071 176.979 58.3638C176.979 58.3638 177.611 59.4534 177.034 61.5264L177.448 62.3709C177.448 62.3709 177.658 61.0715 177.685 60.6929C177.712 60.3142 177.816 60.2897 177.816 60.2897C177.98 61.1023 177.915 61.9445 177.628 62.7222C177.628 62.7222 178.36 64.5201 178.48 64.4847Z" fill="#21344D"/>
<path opacity="0.1" d="M190.4 196.36C194.451 196.36 197.736 195.805 197.736 195.12C197.736 194.436 194.451 193.881 190.4 193.881C186.348 193.881 183.064 194.436 183.064 195.12C183.064 195.805 186.348 196.36 190.4 196.36Z" fill="#21344D"/>
<path opacity="0.1" d="M163.659 215.176C167.71 215.176 170.995 214.621 170.995 213.937C170.995 213.252 167.71 212.697 163.659 212.697C159.607 212.697 156.323 213.252 156.323 213.937C156.323 214.621 159.607 215.176 163.659 215.176Z" fill="#21344D"/>
<path opacity="0.1" d="M25.3721 205.535C29.4235 205.535 32.7079 204.981 32.7079 204.296C32.7079 203.612 29.4235 203.057 25.3721 203.057C21.3207 203.057 18.0364 203.612 18.0364 204.296C18.0364 204.981 21.3207 205.535 25.3721 205.535Z" fill="#21344D"/>
<path opacity="0.1" d="M219.299 213.936C223.351 213.936 226.635 213.381 226.635 212.696C226.635 212.012 223.351 211.457 219.299 211.457C215.248 211.457 211.964 212.012 211.964 212.696C211.964 213.381 215.248 213.936 219.299 213.936Z" fill="#21344D"/>
<path d="M226.938 198.824C232.987 198.824 237.891 197.994 237.891 196.971C237.891 195.948 232.987 195.119 226.938 195.119C220.889 195.119 215.985 195.948 215.985 196.971C215.985 197.994 220.889 198.824 226.938 198.824Z" fill="#21344D"/>
<path d="M231.479 193.939C231.979 193.533 232.343 192.984 232.522 192.365C232.658 191.738 232.391 190.989 231.794 190.76C231.124 190.504 230.408 190.968 229.863 191.436C229.318 191.905 228.7 192.441 227.989 192.343C228.354 192.012 228.627 191.591 228.782 191.123C228.936 190.655 228.967 190.155 228.872 189.671C228.841 189.47 228.756 189.282 228.626 189.126C228.253 188.728 227.58 188.9 227.134 189.213C225.717 190.21 225.322 192.133 225.314 193.866C225.172 193.242 225.292 192.591 225.29 191.959C225.287 191.327 225.11 190.597 224.568 190.265C224.235 190.079 223.859 189.985 223.478 189.992C222.841 189.971 222.13 190.033 221.697 190.499C221.152 191.076 221.296 192.049 221.765 192.678C222.233 193.307 222.95 193.713 223.609 194.155C224.136 194.47 224.587 194.899 224.927 195.41C224.966 195.482 224.998 195.556 225.023 195.634H229.016C229.91 195.183 230.738 194.613 231.479 193.939Z" fill="#21344D"/>
<path d="M20.4465 198.536C20.4465 198.536 24.6279 198.408 25.8945 197.509C27.1612 196.61 32.3314 195.54 32.6446 196.981C32.9579 198.422 38.9316 204.142 34.2082 204.18C29.4848 204.218 23.2332 203.445 21.9747 202.676C20.7162 201.908 20.4465 198.536 20.4465 198.536Z" fill="#A8A8A8"/>
<path opacity="0.2" d="M34.2872 203.678C29.5638 203.716 23.3122 202.942 22.0537 202.174C21.0948 201.591 20.7135 199.496 20.5855 198.529H20.4465C20.4465 198.529 20.7189 201.904 21.9693 202.67C23.2196 203.435 29.4793 204.212 34.2027 204.173C35.5647 204.173 36.036 203.678 36.0115 202.959C35.8208 203.397 35.3005 203.669 34.2872 203.678Z" fill="black"/>
<defs>
<linearGradient id="paint0_linear_1234_9898" x1="60.7433" y1="118.064" x2="145.768" y2="118.064" gradientUnits="userSpaceOnUse">
<stop stop-color="#808080" stop-opacity="0.25"/>
<stop offset="0.54" stop-color="#808080" stop-opacity="0.12"/>
<stop offset="1" stop-color="#808080" stop-opacity="0.1"/>
</linearGradient>
</defs>
</svg>
