<svg width="85" height="85" viewBox="0 0 85 85" fill="none" xmlns="http://www.w3.org/2000/svg">
<circle cx="42.5" cy="42.5" r="42" fill="#FDFDFD" stroke="#878787"/>
<path d="M57.2667 16H24.3333C21.9413 16.0028 20.0028 17.9413 20 20.3333V63.6667C20.0028 66.0587 21.9413 67.9972 24.3333 68H57.2667C59.6587 67.9972 61.5972 66.0587 61.6 63.6667V20.3333C61.5972 17.9413 59.6587 16.0028 57.2667 16ZM32.1333 17.7333H49.4667V19.4667H32.1333V17.7333ZM56.4 21.2V29.8667H25.2V21.2H56.4ZM59.8667 63.6667C59.8667 65.1026 58.7026 66.2667 57.2667 66.2667H24.3333C22.8974 66.2667 21.7333 65.1026 21.7333 63.6667V20.3333C21.7333 18.8974 22.8974 17.7333 24.3333 17.7333H30.4V19.4667H24.3333C23.8547 19.4667 23.4667 19.8547 23.4667 20.3333V30.7333C23.4667 31.212 23.8547 31.6 24.3333 31.6H57.2667C57.7453 31.6 58.1333 31.212 58.1333 30.7333V20.3333C58.1333 19.8547 57.7453 19.4667 57.2667 19.4667H51.2V17.7333H57.2667C58.7026 17.7333 59.8667 18.8974 59.8667 20.3333V63.6667Z" fill="#21344D"/>
<path d="M40.8 33.334C38.4068 33.334 36.4667 35.2741 36.4667 37.6673C36.4695 40.0593 38.408 41.9978 40.8 42.0007C43.1932 42.0007 45.1333 40.0605 45.1333 37.6673C45.1333 35.2741 43.1932 33.334 40.8 33.334ZM40.8 40.2673C39.364 40.2673 38.2 39.1033 38.2 37.6673C38.2 36.2314 39.364 35.0673 40.8 35.0673C42.236 35.0673 43.4 36.2314 43.4 37.6673C43.4 39.1033 42.236 40.2673 40.8 40.2673Z" fill="#21344D"/>
<path d="M52.0667 33.334C49.6735 33.334 47.7333 35.2741 47.7333 37.6673C47.7362 40.0593 49.6747 41.9978 52.0667 42.0007C54.4599 42.0007 56.4 40.0605 56.4 37.6673C56.4 35.2741 54.4599 33.334 52.0667 33.334ZM52.0667 40.2673C50.6307 40.2673 49.4667 39.1033 49.4667 37.6673C49.4667 36.2314 50.6307 35.0673 52.0667 35.0673C53.5026 35.0673 54.6667 36.2314 54.6667 37.6673C54.6667 39.1033 53.5026 40.2673 52.0667 40.2673Z" fill="#21344D"/>
<path d="M29.5333 33.334C27.1402 33.334 25.2 35.2741 25.2 37.6673C25.2028 40.0593 27.1413 41.9978 29.5333 42.0007C31.9265 42.0007 33.8667 40.0605 33.8667 37.6673C33.8667 35.2741 31.9265 33.334 29.5333 33.334ZM29.5333 40.2673C28.0974 40.2673 26.9333 39.1033 26.9333 37.6673C26.9333 36.2314 28.0974 35.0673 29.5333 35.0673C30.9693 35.0673 32.1333 36.2314 32.1333 37.6673C32.1333 39.1033 30.9693 40.2673 29.5333 40.2673Z" fill="#21344D"/>
<path d="M40.8 43.7324C38.4068 43.7324 36.4667 45.6726 36.4667 48.0658C36.4695 50.4578 38.408 52.3963 40.8 52.3991C43.1932 52.3991 45.1333 50.4589 45.1333 48.0658C45.1333 45.6726 43.1932 43.7324 40.8 43.7324ZM40.8 50.6658C39.364 50.6658 38.2 49.5017 38.2 48.0658C38.2 46.6298 39.364 45.4658 40.8 45.4658C42.236 45.4658 43.4 46.6298 43.4 48.0658C43.4 49.5017 42.236 50.6658 40.8 50.6658Z" fill="#21344D"/>
<path d="M52.0667 43.7324C49.6735 43.7324 47.7333 45.6726 47.7333 48.0658C47.7362 50.4578 49.6747 52.3963 52.0667 52.3991C54.4599 52.3991 56.4 50.4589 56.4 48.0658C56.4 45.6726 54.4599 43.7324 52.0667 43.7324ZM52.0667 50.6658C50.6307 50.6658 49.4667 49.5017 49.4667 48.0658C49.4667 46.6298 50.6307 45.4658 52.0667 45.4658C53.5026 45.4658 54.6667 46.6298 54.6667 48.0658C54.6667 49.5017 53.5026 50.6658 52.0667 50.6658Z" fill="#21344D"/>
<path d="M29.5333 43.7324C27.1402 43.7324 25.2 45.6726 25.2 48.0658C25.2028 50.4578 27.1413 52.3963 29.5333 52.3991C31.9265 52.3991 33.8667 50.4589 33.8667 48.0658C33.8667 45.6726 31.9265 43.7324 29.5333 43.7324ZM29.5333 50.6658C28.0974 50.6658 26.9333 49.5017 26.9333 48.0658C26.9333 46.6298 28.0974 45.4658 29.5333 45.4658C30.9693 45.4658 32.1333 46.6298 32.1333 48.0658C32.1333 49.5017 30.9693 50.6658 29.5333 50.6658Z" fill="#21344D"/>
<path d="M40.8 54.1328C38.4068 54.1328 36.4667 56.073 36.4667 58.4661C36.4695 60.8581 38.408 62.7967 40.8 62.7995C43.1932 62.7995 45.1333 60.8593 45.1333 58.4661C45.1333 56.073 43.1932 54.1328 40.8 54.1328ZM40.8 61.0661C39.364 61.0661 38.2 59.9021 38.2 58.4661C38.2 57.0302 39.364 55.8661 40.8 55.8661C42.236 55.8661 43.4 57.0302 43.4 58.4661C43.4 59.9021 42.236 61.0661 40.8 61.0661Z" fill="#21344D"/>
<path d="M29.5333 54.1328C27.1402 54.1328 25.2 56.073 25.2 58.4661C25.2028 60.8581 27.1413 62.7967 29.5333 62.7995C31.9265 62.7995 33.8667 60.8593 33.8667 58.4661C33.8667 56.073 31.9265 54.1328 29.5333 54.1328ZM29.5333 61.0661C28.0974 61.0661 26.9333 59.9021 26.9333 58.4661C26.9333 57.0302 28.0974 55.8661 29.5333 55.8661C30.9693 55.8661 32.1333 57.0302 32.1333 58.4661C32.1333 59.9021 30.9693 61.0661 29.5333 61.0661Z" fill="#21344D"/>
<path d="M55.5333 54.1328H48.6C48.1214 54.1328 47.7333 54.5209 47.7333 54.9995V63.6661C47.7333 64.1448 48.1214 64.5328 48.6 64.5328H55.5333C56.012 64.5328 56.4 64.1448 56.4 63.6661V54.9995C56.4 54.5209 56.012 54.1328 55.5333 54.1328ZM54.6667 62.7995H49.4667V55.8661H54.6667V62.7995Z" fill="#21344D"/>
<path d="M51.2 26.4004H49.4667V28.1337H51.2V26.4004Z" fill="#21344D"/>
<path d="M54.6667 26.4004H52.9333V28.1337H54.6667V26.4004Z" fill="#21344D"/>
<path d="M30.4 24.6669V22.9336H28.6667V24.6669H26.9333V26.4003H28.6667V28.1336H30.4V26.4003H32.1334V24.6669H30.4Z" fill="#21344D"/>
<path d="M52.9333 60.1992H52.0667C51.5881 60.1992 51.2 60.5873 51.2 61.0659C51.2 61.5445 51.5881 61.9326 52.0667 61.9326H52.9333C53.412 61.9326 53.8 61.5445 53.8 61.0659C53.8 60.5873 53.412 60.1992 52.9333 60.1992Z" fill="#21344D"/>
</svg>
