<?xml version="1.0" standalone="no"?>
<!DOCTYPE svg PUBLIC "-//W3C//DTD SVG 20010904//EN"
 "http://www.w3.org/TR/2001/REC-SVG-20010904/DTD/svg10.dtd">
<svg version="1.0" xmlns="http://www.w3.org/2000/svg"
 width="24pt" height="24pt" viewBox="0 0 1143.000000 188.000000"
 preserveAspectRatio="xMidYMid meet">

<g transform="translate(0.000000,528.000000) scale(0.070000,-0.070000)"
fill="#ffffff" >
<path d="M1115 10465 c-572 -89 -1014 -533 -1100 -1105 -22 -143 -22 -8087 0
-8230 33 -218 119 -425 250 -599 192 -255 463 -427 785 -497 82 -18 231 -19
4660 -19 4422 0 4578 1 4660 19 270 59 477 172 670 365 199 199 320 434 364
706 15 92 17 444 14 4185 l-3 4085 -31 115 c-42 154 -98 279 -177 397 -167
251 -405 433 -688 527 -214 71 175 66 -4820 65 -3565 -1 -4521 -4 -4584 -14z
m9180 -728 c156 -55 281 -164 350 -302 54 -110 65 -179 65 -418 l0 -207 -4997
2 -4998 3 1 220 c0 175 4 233 17 284 62 231 265 411 497 441 30 4 2064 7 4520
6 l4465 -1 80 -28z m415 -5054 c0 -2968 -2 -3427 -15 -3488 -46 -219 -224
-402 -445 -456 -46 -12 -795 -14 -4550 -14 l-4495 0 -80 28 c-192 68 -323 204
-392 407 -17 53 -18 181 -21 3498 l-2 3442 5000 0 5000 0 0 -3417z"/>
<path d="M2167 6646 c-106 -44 -167 -107 -208 -215 -17 -45 -20 -71 -17 -133
8 -139 82 -248 207 -307 l56 -26 685 0 685 0 56 26 c79 37 133 90 171 167 30
61 33 74 33 162 0 79 -4 103 -24 142 -37 75 -95 134 -169 170 l-67 33 -675 2
-675 3 -58 -24z"/>
<path d="M5519 6654 c-154 -47 -259 -204 -246 -366 11 -130 81 -234 195 -290
l67 -33 1880 0 1880 0 48 24 c71 35 142 104 174 169 25 51 28 68 28 157 0 89
-3 106 -28 156 -32 66 -93 126 -169 166 l-53 28 -1865 2 c-1595 1 -1872 0
-1911 -13z"/>
<path d="M2205 4756 c-106 -34 -187 -102 -233 -196 -24 -48 -27 -67 -27 -150
0 -84 3 -102 28 -152 35 -72 119 -149 195 -180 l57 -23 625 -3 c653 -3 715 0
793 39 61 32 134 106 164 168 25 49 28 68 28 151 0 82 -4 102 -27 150 -44 93
-122 161 -219 191 -57 18 -98 19 -702 18 -489 0 -652 -3 -682 -13z"/>
<path d="M5535 4756 c-67 -21 -118 -52 -161 -98 -54 -57 -69 -84 -90 -153 -49
-169 47 -359 214 -427 l57 -23 1815 -3 c1277 -2 1834 0 1879 8 121 21 220 94
270 200 23 48 26 68 26 155 0 86 -4 106 -24 145 -37 70 -68 105 -124 143 -106
72 41 67 -1991 66 -1450 0 -1839 -3 -1871 -13z"/>
<path d="M2242 2860 c-113 -17 -219 -97 -273 -207 -20 -40 -24 -64 -24 -143 0
-82 4 -103 27 -152 34 -73 103 -142 176 -176 l57 -27 685 0 685 0 59 29 c76
37 140 101 174 174 23 49 27 70 27 152 0 84 -3 102 -28 152 -36 72 -119 149
-195 180 l-57 23 -630 1 c-346 1 -654 -2 -683 -6z"/>
<path d="M5571 2859 c-70 -12 -162 -62 -207 -112 -143 -158 -115 -413 59 -530
106 -72 -43 -68 2013 -65 l1849 3 55 26 c78 37 131 88 170 161 29 54 35 75 38
148 3 70 0 95 -19 145 -30 82 -120 172 -204 206 l-60 24 -1820 1 c-1044 1
-1843 -2 -1874 -7z"/>
</g>
</svg>
