<svg width="188" height="163" viewBox="0 0 188 163" fill="none" xmlns="http://www.w3.org/2000/svg">
<g clip-path="url(#clip0_1173_19191)">
<path d="M162.87 163C176.749 163 188 162.145 188 161.09C188 160.035 176.749 159.18 162.87 159.18C148.991 159.18 137.74 160.035 137.74 161.09C137.74 162.145 148.991 163 162.87 163Z" fill="#E6E6E6"/>
<path d="M172.608 106.41L170.177 113.165C169.993 113.677 169.992 114.237 170.175 114.75C170.357 115.262 170.712 115.696 171.179 115.978C171.518 116.183 171.904 116.3 172.301 116.317C172.698 116.334 173.093 116.252 173.449 116.077C173.806 115.903 174.113 115.641 174.341 115.317C174.569 114.994 174.712 114.618 174.757 114.224L175.528 107.38L181.369 88.141L176.339 85.7158L172.608 106.41Z" fill="#A0616A"/>
<path d="M170.579 157.419H174.149V122.821L166.036 122.659L170.579 157.419Z" fill="#A0616A"/>
<path d="M154.679 157.419H158.248V122.821L150.136 122.659L154.679 157.419Z" fill="#A0616A"/>
<path d="M174.717 126.458L165.469 125.488L163.522 115.303L159.952 125.65L148.919 124.518L153.462 107.38C161.767 101.757 169.654 101.88 177.151 107.38L174.717 126.458Z" fill="#2F2E41"/>
<path d="M159.037 158.893C159.092 159.332 159.045 159.778 158.9 160.196C158.755 160.614 158.515 160.993 158.2 161.304C157.884 161.615 157.501 161.85 157.08 161.991C156.659 162.131 156.211 162.173 155.771 162.113L149.195 161.225C148.607 161.133 148.08 160.813 147.728 160.334C147.377 159.856 147.23 159.258 147.321 158.672C147.402 158.143 147.671 157.661 148.079 157.313C148.486 156.964 149.005 156.773 149.542 156.773H150.626L154.193 153.534C154.228 155.74 155.859 155.25 158.553 155.035L159.037 158.893Z" fill="#2F2E41"/>
<path d="M174.937 158.893C174.992 159.332 174.945 159.778 174.8 160.196C174.655 160.614 174.415 160.993 174.1 161.304C173.784 161.615 173.401 161.85 172.98 161.991C172.559 162.131 172.111 162.173 171.671 162.113L165.096 161.225C164.508 161.133 163.98 160.813 163.628 160.334C163.277 159.856 163.13 159.258 163.221 158.672C163.303 158.143 163.571 157.661 163.979 157.313C164.386 156.964 164.905 156.773 165.442 156.773H166.526L170.093 153.534C170.129 155.74 171.759 155.25 174.453 155.035L174.937 158.893Z" fill="#2F2E41"/>
<path d="M162.264 67.6082C165.423 67.6082 167.984 65.0566 167.984 61.9091C167.984 58.7615 165.423 56.21 162.264 56.21C159.106 56.21 156.545 58.7615 156.545 61.9091C156.545 65.0566 159.106 67.6082 162.264 67.6082Z" fill="#A0616A"/>
<path d="M169.525 71.4882L162.386 72.1351V65.8295L166.118 63.5662L169.525 71.4882Z" fill="#A0616A"/>
<path d="M177.962 109.806C170.78 104.565 162.156 105.098 152.651 109.159C156.957 97.0107 158.792 85.6889 155.409 76.111C155.409 74.4188 155.975 72.7747 157.016 71.438C158.057 70.1013 159.516 69.1481 161.161 68.7287L162.386 68.4165L168.389 68.7399L174.026 72.0327C175.176 72.7043 176.13 73.6625 176.795 74.8132C177.46 75.9639 177.813 77.2673 177.819 78.5952L177.962 109.806Z" fill="#E6E6E6"/>
<path d="M150.217 105.117L147.787 111.872C147.603 112.384 147.602 112.944 147.784 113.456C147.967 113.969 148.322 114.403 148.788 114.684C149.128 114.89 149.514 115.006 149.911 115.024C150.308 115.041 150.703 114.959 151.059 114.784C151.416 114.609 151.722 114.348 151.951 114.024C152.179 113.7 152.322 113.324 152.367 112.931L153.138 106.087L158.979 86.8475L153.949 84.4224L150.217 105.117Z" fill="#A0616A"/>
<path d="M182.667 91.8594H174.717V72.4583C176.092 73.2194 177.286 74.2664 178.22 75.5282C179.153 76.7899 179.803 78.2369 180.125 79.771L182.667 91.8594Z" fill="#E6E6E6"/>
<path d="M157.904 58.8232C157.554 58.9877 157.169 59.0629 156.783 59.0421C156.398 59.0213 156.023 58.9051 155.693 58.704C155.371 58.4918 155.127 58.1797 155 57.816C154.873 57.4523 154.87 57.057 154.99 56.6911C155.232 56.0733 155.842 55.6864 156.434 55.3841C157.74 54.7178 159.14 54.2518 160.585 54.0021C161.275 53.8833 162.005 53.818 162.656 54.0719C162.979 54.1975 163.268 54.3965 163.588 54.528C164.176 54.7699 164.832 54.7709 165.455 54.9021C166.093 55.0409 166.693 55.3144 167.215 55.7043C167.737 56.0942 168.169 56.5913 168.482 57.162C168.687 57.5504 168.844 57.9618 168.951 58.3876C169.251 59.5523 169.247 60.7742 168.939 61.937C168.45 63.7792 167.203 65.4717 167.315 67.3741C166.394 66.8394 165.962 65.7506 165.192 65.0149C164.62 64.4714 163.88 64.1374 163.093 64.0673C162.878 64.0757 162.665 64.0217 162.48 63.9117C162.346 63.7811 162.253 63.6141 162.213 63.4314L161.346 60.7255C161.17 60.1748 160.957 59.5765 160.458 59.2811C160.151 59.1259 159.811 59.0437 159.466 59.0409C158.642 58.9811 157.814 58.9889 156.99 59.0641" fill="#2F2E41"/>
<path d="M159.79 88.3026L150.542 84.7457L154.742 73.4692C155.231 72.156 156.09 71.0113 157.215 70.1725C158.341 69.3336 159.686 68.8361 161.088 68.7397L159.79 88.3026Z" fill="#E6E6E6"/>
<path d="M110.036 120.725H8.46633C7.98431 120.724 7.52218 120.533 7.18134 120.194C6.8405 119.854 6.64878 119.393 6.64825 118.913V8.52212C6.64878 8.04179 6.8405 7.58129 7.18134 7.24165C7.52218 6.90201 7.98431 6.71097 8.46633 6.71045H110.036C110.518 6.71097 110.98 6.90201 111.321 7.24165C111.662 7.58129 111.854 8.04179 111.854 8.52212V118.913C111.854 119.393 111.662 119.854 111.321 120.194C110.98 120.533 110.518 120.724 110.036 120.725ZM8.46633 7.43512C8.17712 7.43543 7.89984 7.55006 7.69533 7.75384C7.49083 7.95762 7.3758 8.23392 7.37548 8.52212V118.913C7.3758 119.201 7.49083 119.478 7.69533 119.681C7.89984 119.885 8.17712 120 8.46633 120H110.036C110.325 120 110.603 119.885 110.807 119.681C111.012 119.478 111.127 119.201 111.127 118.913V8.52212C111.127 8.23392 111.012 7.95762 110.807 7.75384C110.603 7.55006 110.325 7.43543 110.036 7.43512H8.46633Z" fill="#E6E6E6"/>
<path d="M29.4257 47.8586C30.7434 47.8586 31.8117 46.794 31.8117 45.4809C31.8117 44.1678 30.7434 43.1033 29.4257 43.1033C28.1079 43.1033 27.0396 44.1678 27.0396 45.4809C27.0396 46.794 28.1079 47.8586 29.4257 47.8586Z" fill="#E6E6E6"/>
<path d="M39.3676 47.8586C40.6853 47.8586 41.7536 46.794 41.7536 45.4809C41.7536 44.1678 40.6853 43.1033 39.3676 43.1033C38.0498 43.1033 36.9815 44.1678 36.9815 45.4809C36.9815 46.794 38.0498 47.8586 39.3676 47.8586Z" fill="#E6E6E6"/>
<path d="M49.3095 47.8586C50.6272 47.8586 51.6955 46.794 51.6955 45.4809C51.6955 44.1678 50.6272 43.1033 49.3095 43.1033C47.9917 43.1033 46.9234 44.1678 46.9234 45.4809C46.9234 46.794 47.9917 47.8586 49.3095 47.8586Z" fill="#6C63FF"/>
<path d="M59.2513 47.8586C60.5691 47.8586 61.6373 46.794 61.6373 45.4809C61.6373 44.1678 60.5691 43.1033 59.2513 43.1033C57.9335 43.1033 56.8652 44.1678 56.8652 45.4809C56.8652 46.794 57.9335 47.8586 59.2513 47.8586Z" fill="#6C63FF"/>
<path d="M69.1932 47.8586C70.511 47.8586 71.5792 46.794 71.5792 45.4809C71.5792 44.1678 70.511 43.1033 69.1932 43.1033C67.8754 43.1033 66.8071 44.1678 66.8071 45.4809C66.8071 46.794 67.8754 47.8586 69.1932 47.8586Z" fill="#6C63FF"/>
<path d="M79.135 47.8586C80.4528 47.8586 81.5211 46.794 81.5211 45.4809C81.5211 44.1678 80.4528 43.1033 79.135 43.1033C77.8172 43.1033 76.749 44.1678 76.749 45.4809C76.749 46.794 77.8172 47.8586 79.135 47.8586Z" fill="#E6E6E6"/>
<path d="M89.0769 47.8586C90.3947 47.8586 91.463 46.794 91.463 45.4809C91.463 44.1678 90.3947 43.1033 89.0769 43.1033C87.7591 43.1033 86.6909 44.1678 86.6909 45.4809C86.6909 46.794 87.7591 47.8586 89.0769 47.8586Z" fill="#E6E6E6"/>
<path d="M29.4257 55.3878C30.7434 55.3878 31.8117 54.3233 31.8117 53.0102C31.8117 51.6971 30.7434 50.6326 29.4257 50.6326C28.1079 50.6326 27.0396 51.6971 27.0396 53.0102C27.0396 54.3233 28.1079 55.3878 29.4257 55.3878Z" fill="#E6E6E6"/>
<path d="M39.3676 55.3878C40.6853 55.3878 41.7536 54.3233 41.7536 53.0102C41.7536 51.6971 40.6853 50.6326 39.3676 50.6326C38.0498 50.6326 36.9815 51.6971 36.9815 53.0102C36.9815 54.3233 38.0498 55.3878 39.3676 55.3878Z" fill="#E6E6E6"/>
<path d="M49.3095 55.3878C50.6272 55.3878 51.6955 54.3233 51.6955 53.0102C51.6955 51.6971 50.6272 50.6326 49.3095 50.6326C47.9917 50.6326 46.9234 51.6971 46.9234 53.0102C46.9234 54.3233 47.9917 55.3878 49.3095 55.3878Z" fill="#E6E6E6"/>
<path d="M59.2513 55.3878C60.5691 55.3878 61.6373 54.3233 61.6373 53.0102C61.6373 51.6971 60.5691 50.6326 59.2513 50.6326C57.9335 50.6326 56.8652 51.6971 56.8652 53.0102C56.8652 54.3233 57.9335 55.3878 59.2513 55.3878Z" fill="#E6E6E6"/>
<path d="M69.1932 55.3878C70.511 55.3878 71.5792 54.3233 71.5792 53.0102C71.5792 51.6971 70.511 50.6326 69.1932 50.6326C67.8754 50.6326 66.8071 51.6971 66.8071 53.0102C66.8071 54.3233 67.8754 55.3878 69.1932 55.3878Z" fill="#E6E6E6"/>
<path d="M79.135 55.3878C80.4528 55.3878 81.5211 54.3233 81.5211 53.0102C81.5211 51.6971 80.4528 50.6326 79.135 50.6326C77.8172 50.6326 76.749 51.6971 76.749 53.0102C76.749 54.3233 77.8172 55.3878 79.135 55.3878Z" fill="#E6E6E6"/>
<path d="M89.0769 55.3878C90.3947 55.3878 91.463 54.3233 91.463 53.0102C91.463 51.6971 90.3947 50.6326 89.0769 50.6326C87.7591 50.6326 86.6909 51.6971 86.6909 53.0102C86.6909 54.3233 87.7591 55.3878 89.0769 55.3878Z" fill="#E6E6E6"/>
<path d="M29.4257 62.9169C30.7434 62.9169 31.8117 61.8524 31.8117 60.5393C31.8117 59.2261 30.7434 58.1616 29.4257 58.1616C28.1079 58.1616 27.0396 59.2261 27.0396 60.5393C27.0396 61.8524 28.1079 62.9169 29.4257 62.9169Z" fill="#6C63FF"/>
<path d="M39.3676 62.9169C40.6853 62.9169 41.7536 61.8524 41.7536 60.5393C41.7536 59.2261 40.6853 58.1616 39.3676 58.1616C38.0498 58.1616 36.9815 59.2261 36.9815 60.5393C36.9815 61.8524 38.0498 62.9169 39.3676 62.9169Z" fill="#6C63FF"/>
<path d="M49.3095 62.9169C50.6272 62.9169 51.6955 61.8524 51.6955 60.5393C51.6955 59.2261 50.6272 58.1616 49.3095 58.1616C47.9917 58.1616 46.9234 59.2261 46.9234 60.5393C46.9234 61.8524 47.9917 62.9169 49.3095 62.9169Z" fill="#6C63FF"/>
<path d="M59.2513 62.9169C60.5691 62.9169 61.6373 61.8524 61.6373 60.5393C61.6373 59.2261 60.5691 58.1616 59.2513 58.1616C57.9335 58.1616 56.8652 59.2261 56.8652 60.5393C56.8652 61.8524 57.9335 62.9169 59.2513 62.9169Z" fill="#E6E6E6"/>
<path d="M69.1932 62.9169C70.511 62.9169 71.5792 61.8524 71.5792 60.5393C71.5792 59.2261 70.511 58.1616 69.1932 58.1616C67.8754 58.1616 66.8071 59.2261 66.8071 60.5393C66.8071 61.8524 67.8754 62.9169 69.1932 62.9169Z" fill="#E6E6E6"/>
<path d="M79.135 62.9169C80.4528 62.9169 81.5211 61.8524 81.5211 60.5393C81.5211 59.2261 80.4528 58.1616 79.135 58.1616C77.8172 58.1616 76.749 59.2261 76.749 60.5393C76.749 61.8524 77.8172 62.9169 79.135 62.9169Z" fill="#E6E6E6"/>
<path d="M89.0769 62.9169C90.3947 62.9169 91.463 61.8524 91.463 60.5393C91.463 59.2261 90.3947 58.1616 89.0769 58.1616C87.7591 58.1616 86.6909 59.2261 86.6909 60.5393C86.6909 61.8524 87.7591 62.9169 89.0769 62.9169Z" fill="#E6E6E6"/>
<path d="M29.4257 70.4462C30.7434 70.4462 31.8117 69.3817 31.8117 68.0686C31.8117 66.7554 30.7434 65.6909 29.4257 65.6909C28.1079 65.6909 27.0396 66.7554 27.0396 68.0686C27.0396 69.3817 28.1079 70.4462 29.4257 70.4462Z" fill="#E6E6E6"/>
<path d="M39.3676 70.4462C40.6853 70.4462 41.7536 69.3817 41.7536 68.0686C41.7536 66.7554 40.6853 65.6909 39.3676 65.6909C38.0498 65.6909 36.9815 66.7554 36.9815 68.0686C36.9815 69.3817 38.0498 70.4462 39.3676 70.4462Z" fill="#E6E6E6"/>
<path d="M29.4257 77.9752C30.7434 77.9752 31.8117 76.9107 31.8117 75.5976C31.8117 74.2845 30.7434 73.22 29.4257 73.22C28.1079 73.22 27.0396 74.2845 27.0396 75.5976C27.0396 76.9107 28.1079 77.9752 29.4257 77.9752Z" fill="#E6E6E6"/>
<path d="M39.3676 77.9752C40.6853 77.9752 41.7536 76.9107 41.7536 75.5976C41.7536 74.2845 40.6853 73.22 39.3676 73.22C38.0498 73.22 36.9815 74.2845 36.9815 75.5976C36.9815 76.9107 38.0498 77.9752 39.3676 77.9752Z" fill="#E6E6E6"/>
<path d="M49.3095 77.9752C50.6272 77.9752 51.6955 76.9107 51.6955 75.5976C51.6955 74.2845 50.6272 73.22 49.3095 73.22C47.9917 73.22 46.9234 74.2845 46.9234 75.5976C46.9234 76.9107 47.9917 77.9752 49.3095 77.9752Z" fill="#E6E6E6"/>
<path d="M49.3095 70.4462C50.6272 70.4462 51.6955 69.3817 51.6955 68.0686C51.6955 66.7554 50.6272 65.6909 49.3095 65.6909C47.9917 65.6909 46.9234 66.7554 46.9234 68.0686C46.9234 69.3817 47.9917 70.4462 49.3095 70.4462Z" fill="#E6E6E6"/>
<path d="M59.2513 70.4462C60.5691 70.4462 61.6373 69.3817 61.6373 68.0686C61.6373 66.7554 60.5691 65.6909 59.2513 65.6909C57.9335 65.6909 56.8652 66.7554 56.8652 68.0686C56.8652 69.3817 57.9335 70.4462 59.2513 70.4462Z" fill="#6C63FF"/>
<path d="M69.1932 70.4462C70.511 70.4462 71.5792 69.3817 71.5792 68.0686C71.5792 66.7554 70.511 65.6909 69.1932 65.6909C67.8754 65.6909 66.8071 66.7554 66.8071 68.0686C66.8071 69.3817 67.8754 70.4462 69.1932 70.4462Z" fill="#6C63FF"/>
<path d="M79.135 70.4462C80.4528 70.4462 81.5211 69.3817 81.5211 68.0686C81.5211 66.7554 80.4528 65.6909 79.135 65.6909C77.8172 65.6909 76.749 66.7554 76.749 68.0686C76.749 69.3817 77.8172 70.4462 79.135 70.4462Z" fill="#6C63FF"/>
<path d="M89.0769 70.4462C90.3947 70.4462 91.463 69.3817 91.463 68.0686C91.463 66.7554 90.3947 65.6909 89.0769 65.6909C87.7591 65.6909 86.6909 66.7554 86.6909 68.0686C86.6909 69.3817 87.7591 70.4462 89.0769 70.4462Z" fill="#E6E6E6"/>
<path d="M41.189 24.4646C40.8108 24.4708 40.4502 24.6248 40.185 24.8935C39.9198 25.1622 39.7711 25.524 39.7711 25.9009C39.7711 26.2777 39.9198 26.6395 40.185 26.9082C40.4502 27.1769 40.8108 27.331 41.189 27.3372H77.3289C77.5183 27.3405 77.7065 27.3065 77.8827 27.2373C78.059 27.1681 78.2198 27.0649 78.356 26.9337C78.4923 26.8025 78.6012 26.6459 78.6766 26.4727C78.752 26.2995 78.7924 26.1132 78.7955 25.9245C78.7986 25.7357 78.7644 25.5482 78.6947 25.3727C78.625 25.1971 78.5213 25.037 78.3895 24.9014C78.2577 24.7658 78.1004 24.6574 77.9265 24.5825C77.7526 24.5075 77.5656 24.4674 77.3762 24.4646C77.3604 24.4643 77.3447 24.4643 77.3289 24.4646H41.189Z" fill="#3F3D56"/>
<path d="M85.5245 24.0645C85.4981 24.0907 85.4773 24.1219 85.463 24.1562C85.4487 24.1905 85.4414 24.2272 85.4414 24.2643C85.4414 24.3014 85.4487 24.3382 85.463 24.3725C85.4773 24.4068 85.4981 24.4379 85.5245 24.4642L86.7421 25.6775H83.7396C83.6644 25.6775 83.5923 25.7073 83.5391 25.7603C83.4859 25.8133 83.456 25.8852 83.456 25.9601C83.456 26.0351 83.4859 26.107 83.5391 26.16C83.5923 26.213 83.6644 26.2428 83.7396 26.2428H86.7421L85.5245 27.4561C85.4981 27.4823 85.4773 27.5135 85.463 27.5478C85.4488 27.582 85.4414 27.6188 85.4414 27.6559C85.4414 27.693 85.4488 27.7298 85.463 27.7641C85.4773 27.7984 85.4981 27.8295 85.5245 27.8558C85.5508 27.882 85.5821 27.9028 85.6165 27.917C85.6509 27.9312 85.6878 27.9385 85.725 27.9385C85.7623 27.9385 85.7992 27.9312 85.8336 27.917C85.868 27.9028 85.8993 27.882 85.9256 27.8558L87.6274 26.16C87.6806 26.107 87.7105 26.0351 87.7105 25.9601C87.7105 25.8852 87.6806 25.8133 87.6274 25.7603L85.9256 24.0645C85.8993 24.0382 85.868 24.0174 85.8336 24.0032C85.7992 23.989 85.7623 23.9817 85.725 23.9817C85.6878 23.9817 85.6509 23.989 85.6165 24.0032C85.5821 24.0174 85.5508 24.0382 85.5245 24.0645Z" fill="#E6E6E6"/>
<path d="M32.978 24.0645C33.0044 24.0907 33.0253 24.1219 33.0395 24.1562C33.0538 24.1905 33.0611 24.2272 33.0611 24.2643C33.0611 24.3014 33.0538 24.3382 33.0395 24.3725C33.0253 24.4068 33.0044 24.4379 32.978 24.4642L31.7604 25.6775H34.7629C34.8381 25.6775 34.9103 25.7073 34.9635 25.7603C35.0166 25.8133 35.0465 25.8852 35.0465 25.9601C35.0465 26.0351 35.0166 26.107 34.9635 26.16C34.9103 26.213 34.8381 26.2428 34.7629 26.2428H31.7604L32.978 27.4561C33.0312 27.5091 33.0611 27.581 33.0611 27.6559C33.0611 27.7309 33.0312 27.8028 32.978 27.8558C32.9248 27.9088 32.8527 27.9386 32.7775 27.9386C32.7023 27.9386 32.6301 27.9088 32.5769 27.8558L30.8751 26.16C30.8219 26.107 30.7921 26.0351 30.7921 25.9601C30.7921 25.8852 30.8219 25.8133 30.8751 25.7603L32.5769 24.0645C32.6033 24.0382 32.6345 24.0174 32.6689 24.0032C32.7033 23.989 32.7402 23.9817 32.7775 23.9817C32.8147 23.9817 32.8516 23.989 32.886 24.0032C32.9204 24.0174 32.9517 24.0382 32.978 24.0645Z" fill="#E6E6E6"/>
<path d="M39.1687 93.1506C38.4895 93.1502 37.8169 93.2831 37.1893 93.5418C36.5616 93.8004 35.9913 94.1798 35.5109 94.6582C35.0304 95.1367 34.6493 95.7047 34.3893 96.33C34.1293 96.9552 33.9954 97.6254 33.9954 98.3022C33.9954 98.979 34.1293 99.6492 34.3893 100.274C34.6493 100.9 35.0304 101.468 35.5109 101.946C35.9913 102.425 36.5616 102.804 37.1893 103.063C37.8169 103.321 38.4895 103.454 39.1687 103.454H79.3339C80.0131 103.454 80.6857 103.321 81.3134 103.063C81.941 102.804 82.5113 102.425 82.9918 101.946C83.4722 101.468 83.8533 100.9 84.1133 100.274C84.3734 99.6492 84.5072 98.979 84.5072 98.3022C84.5072 97.6254 84.3734 96.9552 84.1133 96.33C83.8533 95.7047 83.4722 95.1367 82.9918 94.6582C82.5113 94.1798 81.941 93.8004 81.3134 93.5418C80.6857 93.2831 80.0131 93.1502 79.3339 93.1506H39.1687Z" fill="#E6E6E6"/>
<path d="M8.308 16.5574C6.66483 16.5574 5.05857 16.0719 3.69232 15.1622C2.32608 14.2525 1.26123 12.9596 0.632413 11.4468C0.00359988 9.93411 -0.160926 8.26953 0.15964 6.66362C0.480205 5.05771 1.27146 3.58258 2.43336 2.42478C3.59525 1.26698 5.0756 0.478513 6.68719 0.159077C8.29878 -0.160359 9.96924 0.00358581 11.4873 0.630182C13.0054 1.25678 14.303 2.31788 15.2158 3.67931C16.1287 5.04074 16.616 6.64134 16.616 8.27872C16.6135 10.4736 15.7374 12.5779 14.1799 14.1299C12.6224 15.6819 10.5107 16.555 8.308 16.5574Z" fill="#6C63FF"/>
<path d="M11.5861 7.46215H9.12755V5.01221C9.12755 4.79562 9.0412 4.5879 8.88751 4.43475C8.73381 4.2816 8.52536 4.19556 8.308 4.19556C8.09065 4.19556 7.88219 4.2816 7.7285 4.43475C7.57481 4.5879 7.48846 4.79562 7.48846 5.01221V7.46215H5.02986C4.8125 7.46215 4.60405 7.54819 4.45036 7.70134C4.29667 7.85449 4.21033 8.0622 4.21033 8.27879C4.21033 8.49538 4.29667 8.7031 4.45036 8.85625C4.60405 9.0094 4.8125 9.09544 5.02986 9.09544H7.48846V11.5454C7.48846 11.762 7.57481 11.9697 7.7285 12.1228C7.88219 12.276 8.09065 12.362 8.308 12.362C8.52536 12.362 8.73381 12.276 8.88751 12.1228C9.0412 11.9697 9.12755 11.762 9.12755 11.5454V9.09544H11.5861C11.8035 9.09544 12.0119 9.0094 12.1656 8.85625C12.3193 8.7031 12.4056 8.49538 12.4056 8.27879C12.4056 8.0622 12.3193 7.85449 12.1656 7.70134C12.0119 7.54819 11.8035 7.46215 11.5861 7.46215Z" fill="white"/>
</g>
<defs>
<clipPath id="clip0_1173_19191">
<rect width="188" height="163" fill="white"/>
</clipPath>
</defs>
</svg>
