<svg width="20" height="20" viewBox="0 0 20 20" fill="none" xmlns="http://www.w3.org/2000/svg">
<g clip-path="url(#clip0)">
<path d="M12.7594 7.24609C12.5007 7.24609 12.291 7.45577 12.291 7.71448V16.5669C12.291 16.8255 12.5007 17.0353 12.7594 17.0353C13.0181 17.0353 13.2278 16.8255 13.2278 16.5669V7.71448C13.2278 7.45577 13.0181 7.24609 12.7594 7.24609Z" fill="#21344D"/>
<path d="M7.23206 7.24609C6.97335 7.24609 6.76367 7.45577 6.76367 7.71448V16.5669C6.76367 16.8255 6.97335 17.0353 7.23206 17.0353C7.49076 17.0353 7.70044 16.8255 7.70044 16.5669V7.71448C7.70044 7.45577 7.49076 7.24609 7.23206 7.24609Z" fill="#21344D"/>
<path d="M3.20333 5.95395V17.4939C3.20333 18.176 3.45344 18.8165 3.89035 19.2761C4.32525 19.737 4.93049 19.9987 5.56391 19.9998H14.4259C15.0594 19.9987 15.6647 19.737 16.0994 19.2761C16.5363 18.8165 16.7864 18.176 16.7864 17.4939V5.95395C17.6549 5.72342 18.2177 4.88435 18.1016 3.99314C17.9852 3.10212 17.2261 2.43559 16.3274 2.43541H13.9293V1.84993C13.932 1.35758 13.7374 0.884804 13.3888 0.536994C13.0403 0.189366 12.5668 -0.00420776 12.0744 -0.000182599H7.91533C7.42298 -0.00420776 6.94948 0.189366 6.60093 0.536994C6.25239 0.884804 6.05772 1.35758 6.06046 1.84993V2.43541H3.66238C2.76367 2.43559 2.00456 3.10212 1.8882 3.99314C1.77202 4.88435 2.33481 5.72342 3.20333 5.95395ZM14.4259 19.063H5.56391C4.76308 19.063 4.14009 18.375 4.14009 17.4939V5.99511H15.8497V17.4939C15.8497 18.375 15.2267 19.063 14.4259 19.063ZM6.99723 1.84993C6.99412 1.60604 7.08999 1.3713 7.26307 1.19913C7.43597 1.02697 7.67126 0.932374 7.91533 0.936583H12.0744C12.3185 0.932374 12.5538 1.02697 12.7267 1.19913C12.8998 1.37112 12.9956 1.60604 12.9925 1.84993V2.43541H6.99723V1.84993ZM3.66238 3.37217H16.3274C16.793 3.37217 17.1705 3.74962 17.1705 4.21526C17.1705 4.6809 16.793 5.05835 16.3274 5.05835H3.66238C3.19674 5.05835 2.81929 4.6809 2.81929 4.21526C2.81929 3.74962 3.19674 3.37217 3.66238 3.37217Z" fill="#21344D"/>
<path d="M9.99573 7.24609C9.73702 7.24609 9.52734 7.45577 9.52734 7.71448V16.5669C9.52734 16.8255 9.73702 17.0353 9.99573 17.0353C10.2544 17.0353 10.4641 16.8255 10.4641 16.5669V7.71448C10.4641 7.45577 10.2544 7.24609 9.99573 7.24609Z" fill="#21344D"/>
</g>
<defs>
<clipPath id="clip0">
<rect width="20" height="20" fill="white"/>
</clipPath>
</defs>
</svg>
