<svg width="87" height="87" viewBox="0 0 87 87" fill="none" xmlns="http://www.w3.org/2000/svg">
<path d="M5.03937 43.8982C4.84926 43.7081 4.60704 43.5786 4.34334 43.5261C4.07964 43.4737 3.80631 43.5006 3.55791 43.6035C3.30951 43.7064 3.0972 43.8806 2.94783 44.1042C2.79846 44.3277 2.71874 44.5906 2.71875 44.8594V82.9219C2.71875 83.2824 2.86197 83.6282 3.1169 83.8831C3.37183 84.1381 3.7176 84.2813 4.07812 84.2813H42.1406C42.4095 84.2813 42.6723 84.2016 42.8959 84.0522C43.1194 83.9028 43.2937 83.6905 43.3966 83.4421C43.4995 83.1937 43.5264 82.9204 43.4739 82.6567C43.4215 82.393 43.292 82.1508 43.1019 81.9607L5.03937 43.8982ZM5.4375 81.5625V48.1411L38.8589 81.5625H5.4375Z" fill="#21344D"/>
<path d="M12.2344 76.125H23.1094C23.3782 76.125 23.6411 76.0453 23.8646 75.896C24.0882 75.7466 24.2624 75.5343 24.3653 75.2859C24.4682 75.0375 24.4951 74.7642 24.4427 74.5005C24.3902 74.2368 24.2607 73.9945 24.0706 73.8044L13.1956 62.9294C13.0055 62.7393 12.7633 62.6098 12.4996 62.5574C12.2359 62.5049 11.9626 62.5318 11.7142 62.6347C11.4658 62.7376 11.2534 62.9119 11.1041 63.1354C10.9547 63.359 10.875 63.6218 10.875 63.8907V74.7657C10.875 75.1262 11.0182 75.472 11.2732 75.7269C11.5281 75.9818 11.8738 76.125 12.2344 76.125ZM13.5937 67.1725L19.8277 73.4063H13.5937V67.1725Z" fill="#21344D"/>
<path d="M17.6719 8.15625H20.3906V10.875H17.6719V8.15625Z" fill="#21344D"/>
<path d="M23.1094 8.15625H25.8281V10.875H23.1094V8.15625Z" fill="#21344D"/>
<path d="M28.5469 8.15625H31.2656V10.875H28.5469V8.15625Z" fill="#21344D"/>
<path d="M30.7144 27.3064C30.4727 27.4109 30.2672 27.5843 30.1235 27.8049C29.9797 28.0255 29.9042 28.2836 29.9063 28.5469V43.5C29.9063 43.763 29.9825 44.0203 30.1258 44.2408C30.2691 44.4613 30.4733 44.6355 30.7136 44.7423L42.948 50.1798C43.1218 50.2572 43.31 50.2972 43.5003 50.297C43.6906 50.2968 43.8788 50.2565 44.0525 50.1788V50.1798L56.2868 44.7423C56.5271 44.6354 56.7312 44.4612 56.8744 44.2407C57.0176 44.0202 57.0938 43.7629 57.0938 43.5V28.5469C57.0959 28.2836 57.0204 28.0255 56.8766 27.8049C56.7329 27.5843 56.5274 27.4109 56.2857 27.3064V27.3046L44.0513 21.8671C43.8774 21.7899 43.6893 21.75 43.499 21.75C43.3088 21.75 43.1207 21.7899 42.9468 21.8671L30.7124 27.3046L30.7144 27.3064ZM42.1407 46.8457L32.625 42.6164V30.6386L42.1407 34.868V46.8457ZM54.3751 42.6164L44.8594 46.8457V34.868L54.3751 30.6388V42.6164ZM43.5 24.5969L52.387 28.5469L43.5 32.4967L34.6131 28.5469L43.5 24.5969Z" fill="#21344D"/>
<path d="M42.1406 54.375H44.8594V61.1719H42.1406V54.375Z" fill="#21344D"/>
<path d="M42.1406 12.2344H44.8594V19.0312H42.1406V12.2344Z" fill="#21344D"/>
<path d="M19.7974 25.7039L20.9691 23.2515L26.6593 25.9704L25.4875 28.4228L19.7974 25.7039Z" fill="#21344D"/>
<path d="M60.3101 25.9507L66.0002 23.2318L67.172 25.6841L61.4818 28.403L60.3101 25.9507Z" fill="#21344D"/>
<path d="M19.7969 47.696L25.487 44.9772L26.6588 47.4295L20.9687 50.1484L19.7969 47.696Z" fill="#21344D"/>
<path d="M82.9219 65.25H74.7656V44.0631L82.757 36.0717C83.2403 35.5884 83.6236 35.0147 83.8852 34.3833C84.1467 33.7519 84.2813 33.0752 84.2813 32.3917C84.2813 31.7083 84.1467 31.0316 83.8851 30.4002C83.6236 29.7687 83.2402 29.195 82.757 28.7118C82.2737 28.2285 81.7 27.8452 81.0686 27.5837C80.4372 27.3221 79.7604 27.1875 79.077 27.1875C78.3936 27.1875 77.7168 27.3222 77.0854 27.5837C76.454 27.8453 75.8803 28.2286 75.397 28.7119L74.7656 29.3433V17.6719C74.7656 17.4934 74.7305 17.3166 74.6622 17.1517C74.5938 16.9867 74.4937 16.8369 74.3675 16.7106L60.7737 3.11688C60.6475 2.99065 60.4976 2.89052 60.3327 2.82221C60.1678 2.7539 59.991 2.71874 59.8125 2.71875H17.6719C16.2303 2.72037 14.8481 3.29377 13.8288 4.31315C12.8094 5.33252 12.236 6.71463 12.2344 8.15625V47.5781H14.9531V8.15625C14.954 7.43545 15.2407 6.74443 15.7504 6.23475C16.2601 5.72507 16.9511 5.43835 17.6719 5.4375H58.4531V13.5938C58.4547 15.0354 59.0281 16.4175 60.0475 17.4369C61.0669 18.4562 62.449 19.0296 63.8906 19.0312H72.0469V32.0619L50.695 53.4137C50.5053 53.6036 50.3759 53.8452 50.3232 54.1084L48.9638 60.9053C48.9199 61.1247 48.9309 61.3516 48.9957 61.5658C49.0606 61.78 49.1773 61.9749 49.3356 62.1332C49.4938 62.2914 49.6887 62.4082 49.9029 62.473C50.1171 62.5379 50.344 62.5488 50.5635 62.5049L57.3604 61.1455C57.6235 61.0929 57.8652 60.9635 58.055 60.7738L72.0469 46.7819V65.25H44.8594C44.4988 65.25 44.1531 65.3932 43.8981 65.6482C43.6432 65.9031 43.5 66.2488 43.5 66.6094V70.6875H36.7031V73.4062H43.5V77.4844C43.5 77.8449 43.6432 78.1907 43.8981 78.4456C44.1531 78.7005 44.4988 78.8438 44.8594 78.8438H82.9219C83.2824 78.8438 83.6282 78.7005 83.8831 78.4456C84.138 78.1907 84.2812 77.8449 84.2812 77.4844V66.6094C84.2812 66.2488 84.138 65.9031 83.8831 65.6482C83.6282 65.3932 83.2824 65.25 82.9219 65.25ZM61.1719 13.5938V7.36L70.1244 16.3125H63.8906C63.1698 16.3116 62.4788 16.0249 61.9691 15.5153C61.4594 15.0056 61.1727 14.3145 61.1719 13.5938ZM53.5787 54.375L74.7656 33.1881L78.2806 36.7031L57.0937 57.89L53.5787 54.375ZM79.077 29.9062C79.5686 29.9063 80.0492 30.0521 80.4579 30.3252C80.8666 30.5983 81.1852 30.9865 81.3733 31.4407C81.5614 31.8949 81.6106 32.3946 81.5147 32.8767C81.4188 33.3589 81.1821 33.8017 80.8345 34.1494L80.2031 34.7806L76.6881 31.2656L77.3195 30.6342C77.5498 30.4027 77.8237 30.2191 78.1254 30.0942C78.427 29.9692 78.7505 29.9053 79.077 29.9062ZM52.4911 57.1323L54.3364 58.9777L52.0301 59.4387L52.4911 57.1323ZM81.5625 76.125H46.2187V67.9688H48.9375V70.6875H51.6562V67.9688H54.375V70.6875H57.0937V67.9688H59.8125V70.6875H62.5312V67.9688H65.25V70.6875H67.9687V67.9688H70.6875V70.6875H73.4062V67.9688H76.125V70.6875H78.8437V67.9688H81.5625V76.125Z" fill="#21344D"/>
</svg>
