<svg width="87" height="87" viewBox="0 0 87 87" fill="none" xmlns="http://www.w3.org/2000/svg">
<path d="M81.8076 14.1033H81.8054L34.3997 14.2068L33.12 12.9252C31.8216 11.6274 30.9579 9.95867 30.648 8.14921C30.3749 6.48237 29.5443 4.95752 28.292 3.82402C27.1825 2.82873 25.8056 2.18032 24.3316 1.9589C22.8576 1.73749 21.351 1.95277 19.998 2.57815C19.8495 2.64741 19.7199 2.75143 19.6201 2.88141C19.5203 3.01139 19.4534 3.1635 19.4249 3.32485C19.3964 3.4862 19.4072 3.65204 19.4564 3.80833C19.5056 3.96461 19.5918 4.10674 19.7076 4.22266L23.1417 7.66171L21.4659 9.33986L18.0287 5.89877C17.9131 5.78305 17.7713 5.69686 17.6154 5.64747C17.4594 5.59808 17.2938 5.58694 17.1327 5.615C16.9715 5.64306 16.8195 5.7095 16.6894 5.80869C16.5593 5.90788 16.455 6.03692 16.3853 6.18492C15.7784 7.48999 15.5566 8.94118 15.746 10.3679C15.9355 11.7947 16.5283 13.1377 17.4547 14.2392L13.52 14.2484C11.0514 14.2646 8.68977 15.2582 6.95203 17.0117C5.2143 18.7651 4.24204 21.1356 4.24807 23.6043V68.2662C4.24807 73.119 8.11431 77.1443 12.959 77.1443H17.9482C18.2329 77.1293 18.5018 77.0085 18.7022 76.8056C18.9025 76.6028 19.0199 76.3324 19.0313 76.0474V68.988H22.4297V70.4942C22.4297 70.7356 22.5153 70.9692 22.6714 71.1534C22.8274 71.3375 23.0438 71.4604 23.2819 71.5L26.5965 72.0519C26.8296 72.715 27.1113 73.3599 27.4394 73.9815L25.5784 76.6359C25.4403 76.8326 25.3762 77.0718 25.3974 77.3112C25.4185 77.5506 25.5235 77.7748 25.6939 77.9443L29.8438 82.0756C30.0138 82.2448 30.238 82.3486 30.4771 82.3688C30.7161 82.389 30.9546 82.3243 31.1506 82.186L33.8145 80.3067C34.4385 80.6398 35.0859 80.9271 35.7516 81.1662L36.3072 84.4509C36.3474 84.6885 36.4704 84.9042 36.6544 85.0597C36.8384 85.2152 37.0716 85.3005 37.3125 85.3005H43.1638C43.4047 85.3006 43.6379 85.2153 43.822 85.0597C44.006 84.9042 44.129 84.6885 44.1692 84.4509L44.7209 81.1714C45.3853 80.943 46.0317 80.6654 46.6548 80.3409L49.3156 82.2064C49.512 82.3441 49.7506 82.4081 49.9896 82.3872C50.2285 82.3663 50.4524 82.2619 50.622 82.0922L54.7594 77.9523C54.9294 77.7821 55.0338 77.5573 55.0541 77.3177C55.0744 77.078 55.0093 76.8388 54.8704 76.6425L52.9744 73.9642C53.2337 73.3405 53.4439 72.6976 53.6031 72.0412L56.5954 71.499C56.8303 71.4564 57.0429 71.3328 57.196 71.1496C57.3492 70.9663 57.4331 70.7352 57.4333 70.4964V68.988H62.6237L61.245 75.6225C61.2104 75.7892 61.2186 75.962 61.2689 76.1248L63.5597 83.6013C63.6115 83.772 63.7071 83.9261 63.8371 84.0482C63.9671 84.1703 64.1268 84.2562 64.3004 84.2973C64.4739 84.3384 64.6552 84.3332 64.8262 84.2823C64.9971 84.2314 65.1517 84.1366 65.2745 84.0073L70.8235 78.1526L70.8218 78.1511C70.965 78.0172 71.069 77.8468 71.1225 77.6583L72.9354 68.988H81.8076C81.9336 68.9947 82.0596 68.9747 82.1775 68.9294C82.2953 68.8841 82.4022 68.8144 82.4913 68.725C82.5804 68.6356 82.6497 68.5284 82.6946 68.4105C82.7395 68.2925 82.7591 68.1664 82.752 68.0404V15.1067C82.7588 14.9762 82.7391 14.8457 82.6941 14.723C82.6491 14.6004 82.5797 14.4881 82.4901 14.393C82.4024 14.3003 82.2965 14.2268 82.1791 14.1769C82.0616 14.1271 81.9351 14.102 81.8076 14.1033ZM16.9922 75.1052H12.959C9.23868 75.1052 6.28714 71.9946 6.28714 68.2662V29.4333C7.14335 30.5331 8.23937 31.4229 9.49165 32.0349C10.7439 32.6469 12.1194 32.9649 13.5132 32.9646H16.9922V75.1052ZM55.3946 69.6429L52.6063 70.1481C52.4181 70.1822 52.2433 70.2685 52.1019 70.3972C51.9604 70.5259 51.858 70.6917 51.8063 70.8759C51.7523 71.068 51.7015 71.2585 51.651 71.4475C51.4389 72.2414 51.2558 72.927 50.9022 73.5545C50.8073 73.7228 50.7622 73.9146 50.7722 74.1075C50.7821 74.3004 50.8466 74.4866 50.9582 74.6442L52.7098 77.1174L49.7854 80.0437L47.3109 78.3088C47.1536 78.1983 46.9683 78.1346 46.7763 78.125C46.5843 78.1154 46.3936 78.1604 46.2261 78.2547C45.3818 78.7429 44.4817 79.1275 43.5454 79.4003C43.359 79.4525 43.1913 79.5566 43.0619 79.7006C42.9325 79.8446 42.8468 80.0224 42.8147 80.2132L42.3014 83.2615H38.1742L37.6588 80.2124C37.6266 80.0217 37.5408 79.844 37.4114 79.7002C37.282 79.5565 37.1144 79.4524 36.9281 79.4003C35.9896 79.1152 35.0886 78.7186 34.2444 78.219C34.0764 78.1246 33.8851 78.0797 33.6926 78.0896C33.5001 78.0994 33.3144 78.1637 33.1569 78.2748L30.6748 80.025L27.7401 77.1033L29.4706 74.635C29.5811 74.4775 29.6447 74.2919 29.6541 74.0998C29.6636 73.9076 29.6184 73.7167 29.524 73.5491C29.0316 72.707 28.6419 71.809 28.3634 70.8742C28.3111 70.6876 28.2068 70.5198 28.0626 70.3904C27.9184 70.261 27.7403 70.1753 27.5491 70.1435L24.4688 69.6305V65.516L27.5486 65.0051C27.7398 64.9733 27.918 64.8877 28.0623 64.7583C28.2067 64.6289 28.3111 64.461 28.3634 64.2744C28.6213 63.3546 29.0976 62.4457 29.5741 61.6005C29.669 61.432 29.7141 61.24 29.704 61.0469C29.6939 60.8538 29.6291 60.6675 29.5172 60.5098L27.7687 58.0459L30.6852 55.1403L33.1596 56.9027C33.3172 57.0149 33.5034 57.0799 33.6966 57.0903C33.8898 57.1006 34.0819 57.0557 34.2505 56.961C35.0977 56.4961 35.9978 56.1351 36.9314 55.8857C37.1169 55.834 37.2841 55.7308 37.4134 55.588C37.5427 55.4452 37.6289 55.2687 37.662 55.0789L38.1696 52.1658H42.3053L42.8084 55.0781C42.8413 55.2681 42.9274 55.4449 43.0567 55.588C43.1861 55.7311 43.3533 55.8346 43.5391 55.8864C44.4695 56.1234 45.3675 56.4728 46.2133 56.927C46.3817 57.0216 46.5735 57.0665 46.7664 57.0564C46.9593 57.0462 47.1454 56.9815 47.3029 56.8697L49.7618 55.1246L52.6522 58.0289L50.8619 60.4972C50.7473 60.6552 50.6805 60.8428 50.6694 61.0376C50.6583 61.2325 50.7033 61.4264 50.7992 61.5964C51.2714 62.4343 51.556 63.3779 51.807 64.2725C51.8587 64.4567 51.9612 64.6227 52.1028 64.7514C52.2443 64.8801 52.4192 64.9663 52.6075 65.0003L55.3946 65.5046V69.6429ZM63.4489 75.0415L69.2739 47.0102L71.1973 47.4069L65.3722 75.4384L63.4489 75.0415ZM69.753 45.0268C70.0276 44.3995 70.509 43.8852 71.1169 43.5698C71.7249 43.2544 72.4225 43.1569 73.0936 43.2936C73.7638 43.4325 74.3658 43.7978 74.7982 44.3283C75.2307 44.8588 75.4673 45.522 75.4683 46.2064L69.753 45.0268ZM64.9968 81.3366L63.7224 77.18L68.0828 78.0806L64.9968 81.3366ZM69.292 76.2473L67.3693 75.8505L73.1944 47.819L75.1169 48.2158L69.292 76.2473ZM80.7129 66.949H73.3619L77.4844 47.238C77.6543 45.9208 77.461 44.5769 76.7233 43.4539C76.1719 42.625 75.3881 41.9774 74.4701 41.5921C73.5521 41.2069 72.5409 41.1011 71.5631 41.2882C70.5853 41.4753 69.6845 41.9468 68.9735 42.6436C68.2626 43.3405 67.7731 44.2317 67.5666 45.2056L63.0478 66.949H57.4336V64.6518C57.4334 64.4129 57.3494 64.1818 57.1962 63.9985C57.043 63.8153 56.8303 63.6917 56.5952 63.6493L53.5922 63.1069C53.4034 62.4499 53.1653 61.808 52.8801 61.1868L54.8117 58.5234C54.954 58.3274 55.0219 58.0872 55.0032 57.8458C54.9845 57.6043 54.8805 57.3774 54.7098 57.2057L50.5977 53.0743C50.4275 52.9033 50.2022 52.7982 49.9618 52.7777C49.7214 52.7572 49.4816 52.8225 49.2849 52.9622L46.6302 54.8461C46.0095 54.5517 45.3677 54.3042 44.71 54.1056L44.1688 50.9726C44.1279 50.7357 44.0046 50.521 43.8207 50.3662C43.6368 50.2114 43.4041 50.1266 43.1638 50.1267H37.3125C37.0725 50.1267 36.8401 50.2114 36.6564 50.3658C36.4727 50.5203 36.3493 50.7346 36.3081 50.9711L35.7606 54.1087C35.0995 54.3172 34.4549 54.5746 33.832 54.8787L31.1669 52.9814C30.9708 52.8417 30.7316 52.7759 30.4916 52.7957C30.2516 52.8156 30.0264 52.9197 29.8558 53.0896L25.7184 57.2123C25.5476 57.3825 25.4426 57.6077 25.4221 57.848C25.4017 58.0882 25.467 58.3279 25.6066 58.5246L27.4839 61.1691C27.1426 61.7887 26.8477 62.4328 26.6016 63.096L23.2824 63.6469C23.0443 63.6864 22.828 63.809 22.6719 63.993C22.5157 64.1771 22.4299 64.4105 22.4297 64.6518V66.949H19.0313V31.9412C19.0166 31.6649 18.8957 31.4049 18.6939 31.2156C18.4921 31.0264 18.2249 30.9224 17.9482 30.9255H13.5132C11.5779 30.9201 9.72344 30.1484 8.35567 28.7791C6.9879 27.4098 6.21816 25.5546 6.21486 23.6192C6.21156 21.6838 6.97496 19.8259 8.33805 18.452C9.70113 17.0781 11.5529 16.3 13.4883 16.288L20.1312 16.272C20.6834 16.5218 21.2643 16.7029 21.8606 16.8111C23.6958 17.1316 25.3883 18.0079 26.7092 19.3216L35.4564 28.0816C35.5511 28.1763 35.6636 28.2515 35.7873 28.3028C35.9111 28.3541 36.0437 28.3805 36.1777 28.3805C36.3116 28.3805 36.4443 28.3541 36.568 28.3028C36.6918 28.2515 36.8042 28.1763 36.8989 28.0816C37.0899 27.8904 37.1972 27.6312 37.1972 27.3609C37.1972 27.0907 37.0899 26.8315 36.8989 26.6403L28.1517 17.8803C26.5349 16.2719 24.4636 15.1984 22.2173 14.8047C21.7017 14.7039 21.2017 14.535 20.7305 14.3024V14.2311H20.6019C19.6043 13.685 18.7986 12.8458 18.2935 11.8269C17.7884 10.808 17.6085 9.65859 17.7779 8.53409L20.7431 11.5035C20.8378 11.5983 20.9503 11.6735 21.0742 11.7248C21.198 11.7761 21.3308 11.8026 21.4648 11.8026C21.5989 11.8026 21.7316 11.7761 21.8554 11.7248C21.9793 11.6735 22.0918 11.5983 22.1866 11.5035L25.3033 8.38252C25.4942 8.19135 25.6014 7.93222 25.6014 7.66205C25.6014 7.39187 25.4942 7.13274 25.3033 6.94158L22.3425 3.97593C23.1574 3.84702 23.9908 3.90153 24.7819 4.13549C25.573 4.36945 26.302 4.77697 26.9157 5.32834C27.8297 6.15411 28.4365 7.26562 28.6368 8.48107C29.0171 10.7102 30.0799 12.7664 31.6784 14.366L48.849 31.5621C50.471 33.1664 52.5464 34.234 54.7947 34.6207C55.8941 34.8136 56.9077 35.3396 57.6984 36.1274C58.3134 36.7477 58.7726 37.505 59.0384 38.3371C59.3042 39.1691 59.3691 40.0524 59.2277 40.9144L56.3971 38.0811C56.3024 37.9863 56.1899 37.911 56.0661 37.8597C55.9423 37.8084 55.8096 37.7819 55.6756 37.7819C55.5416 37.7819 55.4089 37.8084 55.2851 37.8597C55.1613 37.911 55.0488 37.9863 54.9541 38.0811L51.8381 41.2022C51.6472 41.3934 51.54 41.6525 51.54 41.9226C51.54 42.1928 51.6472 42.4519 51.8381 42.643L54.6542 45.4637C53.8416 45.5867 53.0119 45.5279 52.2248 45.2915C51.4376 45.0552 50.7128 44.6471 50.1023 44.0969C49.1921 43.2633 48.5917 42.1456 48.3992 40.9265C48.0128 38.7022 46.9366 36.6558 45.3228 35.0771L41.9422 31.6902C41.8475 31.5954 41.7351 31.5202 41.6113 31.469C41.4876 31.4177 41.3549 31.3913 41.221 31.3913C41.087 31.3913 40.9543 31.4177 40.8306 31.469C40.7068 31.5202 40.5944 31.5954 40.4997 31.6902C40.3087 31.8814 40.2014 32.1406 40.2014 32.4108C40.2014 32.6811 40.3087 32.9403 40.4997 33.1315L43.8812 36.517C45.1935 37.7952 46.0707 39.4537 46.3887 41.2578C46.672 43.0203 47.5737 44.6244 48.9322 45.7825C50.2907 46.9406 52.0172 47.5771 53.8024 47.5779C54.9033 47.577 55.9908 47.336 56.9889 46.8715C57.1398 46.8041 57.272 46.7011 57.3741 46.5712C57.4762 46.4413 57.5453 46.2886 57.5752 46.1261C57.6051 45.9636 57.5951 45.7963 57.5459 45.6386C57.4968 45.4809 57.41 45.3374 57.2931 45.2207L54.0005 41.9242L55.6761 40.2461L58.9706 43.5453C59.1175 43.6925 59.3059 43.7913 59.5105 43.8284C59.7152 43.8655 59.9263 43.8391 60.1155 43.7528C60.3424 43.6461 60.5236 43.4619 60.6266 43.2333C61.2816 41.8276 61.4902 40.2549 61.2244 38.727C60.9586 37.1991 60.2312 35.7893 59.14 34.6873C58.056 33.6042 56.6655 32.8803 55.1567 32.6135C53.3177 32.3004 51.6192 31.4303 50.2906 30.1208L36.4267 16.2368L80.7129 16.1286V66.949Z" fill="#21344D"/>
<path d="M11.7246 38.7112C11.4542 38.7112 11.1949 38.8186 11.0037 39.0098C10.8125 39.201 10.7051 39.4603 10.7051 39.7307V57.6697C10.7051 57.9401 10.8125 58.1994 11.0037 58.3906C11.1949 58.5818 11.4542 58.6892 11.7246 58.6892C11.995 58.6892 12.2543 58.5818 12.4455 58.3906C12.6367 58.1994 12.7441 57.9401 12.7441 57.6697V39.7307C12.7441 39.4603 12.6367 39.201 12.4455 39.0098C12.2543 38.8186 11.995 38.7112 11.7246 38.7112Z" fill="#21344D"/>
<path d="M11.7246 34.9277C11.4542 34.9277 11.1949 35.0352 11.0037 35.2263C10.8125 35.4175 10.7051 35.6769 10.7051 35.9473V36.7313C10.7051 37.0017 10.8125 37.261 11.0037 37.4522C11.1949 37.6434 11.4542 37.7508 11.7246 37.7508C11.995 37.7508 12.2543 37.6434 12.4455 37.4522C12.6367 37.261 12.7441 37.0017 12.7441 36.7313V35.9473C12.7441 35.6769 12.6367 35.4175 12.4455 35.2263C12.2543 35.0352 11.995 34.9277 11.7246 34.9277Z" fill="#21344D"/>
<path d="M40.2327 57.3542C38.2122 57.3569 36.2378 57.9586 34.5591 59.0831C32.8804 60.2076 31.5727 61.8045 30.8013 63.672C30.03 65.5395 29.8295 67.5937 30.2254 69.5751C30.6212 71.5565 31.5955 73.3761 33.0252 74.8038C34.4549 76.2316 36.2758 77.2035 38.2577 77.5967C40.2396 77.9899 42.2936 77.7868 44.16 77.0129C46.0265 76.2391 47.6217 74.9293 48.744 73.2491C49.8662 71.5689 50.4652 69.5937 50.4652 67.5732C50.4604 64.8621 49.3803 62.2636 47.462 60.3479C45.5437 58.4321 42.9438 57.3555 40.2327 57.3542ZM40.2327 75.7529C38.6154 75.7502 37.0353 75.2682 35.6919 74.3677C34.3485 73.4673 33.3022 72.1888 32.6852 70.6939C32.0681 69.1989 31.9081 67.5547 32.2253 65.9688C32.5424 64.383 33.3226 62.9267 34.4671 61.7841C35.6116 60.6415 37.0692 59.8638 38.6556 59.5493C40.2419 59.2348 41.886 59.3976 43.3798 60.0172C44.8737 60.6367 46.1504 61.6852 47.0486 63.0301C47.9468 64.375 48.4262 65.9559 48.4262 67.5732C48.4218 69.7436 47.5568 71.8237 46.0207 73.3572C44.4847 74.8906 42.4031 75.7522 40.2327 75.7529Z" fill="#21344D"/>
<path d="M40.2328 61.8618C39.1035 61.8632 37.9999 62.1993 37.0616 62.8277C36.1233 63.4562 35.3923 64.3486 34.9611 65.3924C34.5299 66.4361 34.4178 67.5843 34.6389 68.6917C34.8601 69.7992 35.4046 70.8162 36.2036 71.6143C37.0027 72.4123 38.0203 72.9556 39.1281 73.1754C40.2358 73.3952 41.3838 73.2817 42.427 72.8492C43.4702 72.4167 44.3618 71.6847 44.9891 70.7456C45.6164 69.8065 45.9512 68.7025 45.9512 67.5732C45.9485 66.0581 45.3449 64.6058 44.2729 63.5351C43.2009 62.4644 41.7479 61.8626 40.2328 61.8618ZM40.2328 71.2456C39.5067 71.2442 38.7974 71.0276 38.1944 70.6233C37.5914 70.2189 37.1218 69.6449 36.8449 68.9737C36.568 68.3026 36.4963 67.5644 36.6388 66.8525C36.7813 66.1406 37.1316 65.4869 37.6455 64.974C38.1593 64.4611 38.8137 64.1121 39.5259 63.9709C40.238 63.8298 40.9761 63.9029 41.6467 64.1811C42.3173 64.4592 42.8904 64.9299 43.2937 65.5337C43.6969 66.1375 43.9121 66.8472 43.9121 67.5732C43.91 68.5478 43.5215 69.4817 42.8317 70.1701C42.142 70.8586 41.2073 71.2453 40.2328 71.2456Z" fill="#21344D"/>
</svg>
