<svg width="20" height="20" viewBox="0 0 20 20" fill="none" xmlns="http://www.w3.org/2000/svg">
<g clip-path="url(#clip0)">
<path d="M18.4592 12.5638C18.1841 12.5638 17.9611 12.7868 17.9611 13.0619V17.4845C17.9601 18.3095 17.2918 18.978 16.4668 18.9788H2.49052C1.66553 18.978 0.99718 18.3095 0.996207 17.4845V4.50443C0.99718 3.67964 1.66553 3.0111 2.49052 3.01012H6.91313C7.18826 3.01012 7.41124 2.78714 7.41124 2.51202C7.41124 2.23709 7.18826 2.01392 6.91313 2.01392H2.49052C1.11567 2.01547 0.00155657 3.12959 0 4.50443V17.4847C0.00155657 18.8595 1.11567 19.9737 2.49052 19.9752H16.4668C17.8416 19.9737 18.9558 18.8595 18.9573 17.4847V13.0619C18.9573 12.7868 18.7343 12.5638 18.4592 12.5638Z" fill="#21344D"/>
<path d="M18.7597 0.732461C17.8843 -0.142917 16.4651 -0.142917 15.5898 0.732461L6.70328 9.61894C6.64238 9.67984 6.59841 9.75534 6.57545 9.83823L5.40685 14.0571C5.35879 14.2301 5.40763 14.4153 5.53449 14.5424C5.66154 14.6692 5.84677 14.7181 6.01975 14.6702L10.2386 13.5014C10.3215 13.4785 10.397 13.4345 10.4579 13.3736L19.3442 4.48692C20.2182 3.61096 20.2182 2.19292 19.3442 1.31695L18.7597 0.732461ZM7.7886 9.94271L15.0615 2.66962L17.4071 5.01518L10.134 12.2883L7.7886 9.94271ZM7.32007 10.8829L9.19399 12.757L6.60191 13.4752L7.32007 10.8829ZM18.6399 3.78257L18.1116 4.31083L15.7658 1.96507L16.2943 1.43681C16.7805 0.950576 17.5689 0.950576 18.0552 1.43681L18.6399 2.0213C19.1253 2.50812 19.1253 3.29594 18.6399 3.78257Z" fill="#21344D"/>
</g>
<defs>
<clipPath id="clip0">
<rect width="20" height="20" fill="white"/>
</clipPath>
</defs>
</svg>
