<svg width="57" height="47" viewBox="0 0 57 47" fill="none" xmlns="http://www.w3.org/2000/svg">
<path d="M54.6789 18.205C54.2721 17.958 53.7613 18.006 53.4083 18.3244C52.474 19.166 51.5259 19.9408 50.5457 20.6661C50.7611 19.9589 50.9473 19.2637 51.1049 18.5836C52.7576 17.6392 54.0807 16.0928 54.9458 14.0875C55.7418 12.2422 56.1211 10.0578 56.0137 7.93674C55.9896 7.46026 55.6616 7.0653 55.1975 6.95378C54.7321 6.84249 54.2593 7.04549 54.0205 7.46058C53.3863 8.56381 52.7153 9.60553 51.9957 10.608C51.9909 9.74025 51.9531 8.89868 51.8825 8.08929C51.8823 8.0731 51.8825 8.05701 51.8813 8.0407C51.6935 5.53987 51.2325 3.0329 50.5112 0.58963C50.3826 0.154184 49.9251 -0.0944552 49.49 0.0339135C49.0546 0.162501 48.8057 0.619616 48.9343 1.05506C49.3934 2.61037 49.7394 4.19238 49.9739 5.78096C49.0748 4.91236 48.1478 4.10122 47.1729 3.33112C46.8102 3.0445 46.3069 3.02338 45.9205 3.27859C45.5347 3.53357 45.3571 4.00426 45.4782 4.44988C46.464 8.07343 48.112 11.1636 50.2523 13.4189C50.1992 14.1095 50.1182 14.8208 50.0091 15.5497C49.4115 14.493 48.7725 13.4835 48.078 12.5013C47.8138 12.1279 47.3413 11.9643 46.9024 12.0935C46.4642 12.2226 46.1567 12.6156 46.1373 13.0716C46.0297 15.6259 46.2832 19.3536 48.0574 22.8103C47.8088 23.4398 47.5293 24.0804 47.2194 24.7294C46.953 23.5518 46.6333 22.4081 46.2526 21.2754C46.1074 20.8436 45.7033 20.551 45.2471 20.5473C45.2442 20.5473 45.2413 20.5473 45.2385 20.5473C44.7869 20.5473 44.3832 20.8318 44.2324 21.2575C43.055 24.5817 42.7134 28.0519 43.255 31.0812C42.8313 31.6153 42.3745 32.1509 41.8861 32.6851C41.9784 31.4778 42.0083 30.2869 41.975 29.0882C41.9624 28.6324 41.6611 28.2345 41.2255 28.098C40.7912 27.9615 40.3174 28.1159 40.0473 28.4821C37.9408 31.3381 36.5743 34.5852 36.1709 37.6675C33.9804 39.3164 32.824 39.754 31.603 40.2156C30.5969 40.596 29.5698 40.9853 28.0158 42.0212C26.4618 40.9852 25.4347 40.596 24.4286 40.2156C23.2076 39.754 22.0511 39.3163 19.8607 37.6675C19.4573 34.5851 18.0908 31.338 15.9842 28.482C15.714 28.116 15.2404 27.9618 14.8061 28.098C14.3704 28.2345 14.0692 28.6324 14.0566 29.0885C14.0233 30.287 14.0532 31.4778 14.1455 32.6851C13.6571 32.1509 13.2003 31.6155 12.7766 31.0812C13.3182 28.0519 12.9766 24.5817 11.7992 21.2574C11.6484 20.8317 11.2448 20.5473 10.7931 20.5473C10.7903 20.5473 10.7874 20.5473 10.7845 20.5473C10.3284 20.5509 9.92424 20.8435 9.77891 21.2756C9.39829 22.4081 9.07852 23.5518 8.81215 24.7294C8.50245 24.0804 8.22284 23.4398 7.9742 22.8103C9.74838 19.3536 10.0019 15.6259 9.89426 13.0714C9.87489 12.6156 9.56737 12.2226 9.12919 12.0935C8.69046 11.9644 8.21758 12.128 7.95362 12.5013C7.25914 13.4834 6.62014 14.4928 6.02251 15.5497C5.9134 14.8208 5.83242 14.1095 5.77935 13.4189C7.91959 11.1636 9.56759 8.07353 10.5534 4.44988C10.6745 4.00426 10.4969 3.53357 10.111 3.27859C9.72485 3.02349 9.22155 3.0445 8.85866 3.33112C7.8838 4.10122 6.95677 4.91236 6.05775 5.78096C6.29216 4.19227 6.6382 2.61037 7.09729 1.05506C7.22587 0.619616 6.97702 0.162501 6.54157 0.0339135C6.10656 -0.0947835 5.64901 0.154074 5.52042 0.58963C4.79913 3.03301 4.33818 5.53987 4.15028 8.0407C4.14907 8.05701 4.1494 8.0731 4.14907 8.08929C4.07838 8.89868 4.04073 9.74025 4.03592 10.608C3.31626 9.60553 2.64531 8.5637 2.01102 7.46025C1.77234 7.04549 1.29957 6.8426 0.834142 6.95378C0.370023 7.0653 0.0420424 7.46026 0.017857 7.93685C-0.0894999 10.0578 0.289806 12.2422 1.08584 14.0875C1.95094 16.0929 3.27402 17.6392 4.92673 18.5836C5.08421 19.2637 5.27047 19.9589 5.48595 20.6661C4.50584 19.9408 3.55768 19.1661 2.62353 18.3245C2.27016 18.0061 1.75932 17.9579 1.35265 18.2051C0.946752 18.4516 0.754363 18.9258 0.873758 19.3852C1.8241 23.0387 4.58102 27.0319 8.64373 27.9396C8.99086 28.5415 9.36907 29.149 9.77825 29.7593C8.63257 29.3532 7.50198 28.8918 6.36439 28.3638C5.93354 28.1641 5.43178 28.2677 5.11561 28.6225C4.80033 28.9764 4.7548 29.4857 5.00257 29.8898C6.88016 32.9518 10.4208 35.8359 14.3483 35.8359C14.541 35.8359 14.7348 35.828 14.9294 35.8138C16.0158 36.8284 17.2487 37.8239 18.6029 38.7763C21.1543 40.735 22.5233 41.2526 23.847 41.7531C24.671 42.0645 25.473 42.3683 26.5833 43.0513C25.7333 43.7028 24.7487 44.5203 23.5807 45.5654C23.2423 45.8681 23.2134 46.3877 23.5162 46.7261C23.6786 46.9076 23.9034 47 24.1291 47C24.3242 47 24.5201 46.9309 24.6769 46.7905C26.0314 45.5785 27.114 44.6928 28.0156 44.0266C28.9171 44.6928 29.9998 45.5785 31.3543 46.7905C31.5111 46.9309 31.707 47 31.9021 47C32.1279 47 32.3526 46.9075 32.5149 46.7261C32.8178 46.3877 32.7889 45.8681 32.4505 45.5654C31.2825 44.5202 30.2979 43.7028 29.4479 43.0513C30.5581 42.3684 31.3603 42.0646 32.1841 41.7531C33.508 41.2526 34.877 40.7349 37.4283 38.7763C38.7826 37.8239 40.0154 36.8283 41.1017 35.8138C41.2962 35.828 41.4899 35.8359 41.6828 35.8359C45.61 35.8359 49.1511 32.9516 51.0286 29.8898C51.2764 29.4857 51.2308 28.9764 50.9155 28.6225C50.5995 28.2678 50.0977 28.1637 49.667 28.3638C48.5293 28.8917 47.3987 29.3532 46.2529 29.7593C46.6621 29.149 47.0403 28.5415 47.3874 27.9395C51.4501 27.0318 54.2071 23.0386 55.1574 19.385C55.2772 18.9257 55.0847 18.4515 54.6789 18.205ZM51.6047 15.9892C51.6273 15.8439 51.6498 15.6988 51.6703 15.5548C51.6829 15.4664 51.6942 15.3788 51.706 15.2909C51.7242 15.1561 51.742 15.0215 51.7582 14.8879C51.7691 14.7978 51.7791 14.7084 51.7893 14.6189C51.8041 14.4884 51.8183 14.3581 51.8312 14.2288C51.8401 14.1399 51.8484 14.0515 51.8565 13.9632C51.8683 13.8337 51.8792 13.7049 51.8892 13.5768C51.8929 13.5296 51.8978 13.4814 51.9012 13.4344C52.7611 12.3823 53.5535 11.2985 54.2959 10.1588C54.028 12.3953 53.1616 14.6705 51.5739 16.1927C51.585 16.1244 51.5941 16.0572 51.6047 15.9892ZM1.73579 10.1588C2.4782 11.2986 3.27063 12.3823 4.13047 13.4344C4.13386 13.4814 4.1389 13.5295 4.14251 13.5768C4.15247 13.7049 4.16341 13.8337 4.17523 13.9632C4.18333 14.0515 4.19164 14.1399 4.20051 14.2288C4.21353 14.3581 4.22765 14.4884 4.24242 14.6189C4.25249 14.7084 4.26256 14.7978 4.2735 14.8879C4.28981 15.0215 4.30765 15.1561 4.3257 15.2909C4.33752 15.3788 4.34879 15.4664 4.36138 15.5548C4.38195 15.6988 4.40439 15.8439 4.42704 15.9892C4.43766 16.0572 4.44674 16.1244 4.45779 16.1928C2.87009 14.6706 2.00369 12.3954 1.73579 10.1588ZM8.24877 15.0214C8.15838 17 7.791 18.8841 7.17192 20.5504C7.15277 20.4898 7.13417 20.4295 7.11534 20.3692C7.07901 20.2525 7.0429 20.1359 7.0082 20.0199C6.98271 19.9346 6.9583 19.8496 6.93368 19.7647C6.90129 19.6529 6.86911 19.5411 6.83825 19.4299C6.81396 19.3424 6.79054 19.2553 6.76723 19.1683C6.73844 19.061 6.7101 18.9541 6.68285 18.8476C6.66009 18.7588 6.63809 18.6704 6.61642 18.582C6.59092 18.4783 6.56597 18.3749 6.5419 18.272C6.53128 18.2269 6.52132 18.182 6.51104 18.1371C7.05176 17.0449 7.62674 16.0138 8.24877 15.0214ZM5.68151 10.4252C5.6826 10.3325 5.68457 10.2406 5.68643 10.1486C5.68884 10.0295 5.69147 9.91064 5.69519 9.79278C5.69814 9.69998 5.70186 9.60794 5.70569 9.51591C5.7104 9.40111 5.71554 9.28675 5.72156 9.17315C5.72649 9.08002 5.73196 8.98744 5.73776 8.89518C5.74465 8.78509 5.7521 8.67554 5.7603 8.56655C5.76402 8.51719 5.76807 8.46816 5.77201 8.41903C6.62014 7.50666 7.4848 6.66203 8.38579 5.86675C7.68693 7.81264 6.77335 9.54392 5.6802 10.9957C5.67976 10.9274 5.67998 10.8597 5.67998 10.7917C5.68009 10.6691 5.68009 10.5467 5.68151 10.4252ZM3.16842 20.9521C4.21036 21.7954 5.27999 22.5736 6.40072 23.3046C6.41812 23.3493 6.43728 23.3945 6.455 23.4393C6.49998 23.5527 6.54584 23.6666 6.59268 23.7807C6.62726 23.8651 6.66217 23.9494 6.69784 24.034C6.7461 24.1487 6.79579 24.2639 6.84591 24.3791C6.88235 24.4629 6.91869 24.5466 6.95622 24.6308C7.00941 24.7503 7.06435 24.8702 7.1195 24.9902C7.15638 25.0704 7.19261 25.1503 7.23036 25.2307C7.29164 25.3613 7.35501 25.4923 7.41848 25.6234C7.44704 25.6824 7.47407 25.741 7.50318 25.8001C5.56233 24.8327 4.0786 22.96 3.16842 20.9521ZM10.7913 23.5869C11.2744 25.48 11.4662 27.3775 11.3554 29.1548C11.3163 29.0977 11.2776 29.0406 11.239 28.9836C11.176 28.8906 11.1129 28.7976 11.0513 28.7048C10.9993 28.6263 10.9486 28.5481 10.8977 28.4698C10.8369 28.3765 10.7764 28.2831 10.7173 28.1901C10.6674 28.1115 10.6186 28.0332 10.5698 27.9548C10.5122 27.8624 10.4552 27.7702 10.3992 27.678C10.3516 27.5997 10.3049 27.5216 10.2584 27.4434C10.2035 27.3512 10.1492 27.259 10.0959 27.167C10.0734 27.128 10.0514 27.0892 10.0291 27.0502C10.2308 25.8551 10.4828 24.7089 10.7913 23.5869ZM7.64731 30.7114C8.88821 31.2115 10.1359 31.6427 11.4175 32.015C11.448 32.0539 11.4804 32.0927 11.5113 32.1314C11.5871 32.2269 11.6641 32.3223 11.742 32.4177C11.7999 32.4886 11.8579 32.5595 11.9169 32.6304C11.9976 32.7275 12.0798 32.8247 12.1625 32.9219C12.2213 32.9908 12.2799 33.0598 12.3396 33.1288C12.4272 33.23 12.5166 33.3309 12.6063 33.4319C12.6639 33.4967 12.7207 33.5613 12.7791 33.6261C12.8779 33.7357 12.9789 33.845 13.0802 33.9543C13.1236 34.0013 13.1654 34.0482 13.2093 34.0952C11.067 33.7284 9.10128 32.3666 7.64731 30.7114ZM17.7542 36.0832C17.6634 36.0103 17.5724 35.9373 17.4831 35.8641C17.41 35.8041 17.3381 35.7439 17.2661 35.6837C17.1781 35.6103 17.0905 35.5368 17.0042 35.4631C16.9336 35.4028 16.8641 35.3424 16.7948 35.282C16.7095 35.2078 16.6248 35.1336 16.5413 35.0592C16.4736 34.9988 16.4066 34.9384 16.3399 34.8779C16.2574 34.8029 16.1756 34.7279 16.0948 34.6527C16.0613 34.6217 16.0284 34.5905 15.9952 34.5593C15.8331 33.3514 15.7357 32.1755 15.7013 31.0058C16.727 32.6887 17.4814 34.4634 17.9159 36.2125C17.8617 36.1694 17.808 36.1263 17.7542 36.0832ZM40.0364 34.5593C40.0032 34.5905 39.9703 34.6217 39.9368 34.6527C39.856 34.7279 39.7742 34.8029 39.6917 34.8779C39.625 34.9384 39.558 34.9988 39.4903 35.0592C39.4068 35.1336 39.3221 35.2078 39.2368 35.282C39.1674 35.3424 39.0979 35.4028 39.0274 35.4631C38.941 35.5369 38.8534 35.6103 38.7655 35.6837C38.6935 35.7439 38.6216 35.8041 38.5485 35.8641C38.4592 35.9373 38.3682 36.0103 38.2774 36.0832C38.2237 36.1263 38.1701 36.1694 38.1158 36.2124C38.5505 34.4633 39.3048 32.6886 40.3304 31.0057C40.296 32.1754 40.1985 33.3514 40.0364 34.5593ZM45.2403 23.5869C45.5488 24.7088 45.8008 25.8551 46.0025 27.0502C45.9802 27.0892 45.9582 27.128 45.9356 27.167C45.8824 27.2589 45.8281 27.3512 45.7733 27.4434C45.7268 27.5216 45.68 27.5997 45.6324 27.678C45.5765 27.7701 45.5194 27.8624 45.4618 27.9548C45.413 28.0332 45.3642 28.1115 45.3143 28.1901C45.2551 28.2832 45.1945 28.3766 45.1339 28.4698C45.083 28.5481 45.0323 28.6264 44.9803 28.7048C44.9187 28.7976 44.8557 28.8906 44.7926 28.9836C44.754 29.0406 44.7153 29.0977 44.6762 29.1548C44.5654 27.3776 44.7572 25.48 45.2403 23.5869ZM48.3844 30.7114C46.9302 32.3667 44.9648 33.7286 42.8223 34.0952C42.8711 34.043 42.9177 33.9907 42.9661 33.9385C43.0613 33.8355 43.1565 33.7325 43.2496 33.6294C43.3115 33.5609 43.3717 33.4924 43.4325 33.4238C43.5192 33.3262 43.6055 33.2287 43.6901 33.131C43.7514 33.0603 43.8115 32.9896 43.8717 32.9189C43.9532 32.8232 44.0341 32.7275 44.1138 32.6318C44.1734 32.5601 44.2321 32.4884 44.2906 32.4167C44.3681 32.3218 44.4446 32.2268 44.5202 32.1318C44.5512 32.0928 44.5837 32.054 44.6143 32.015C45.8957 31.6427 47.1434 31.2114 48.3844 30.7114ZM47.6458 5.86675C48.5467 6.66203 49.4115 7.50666 50.2596 8.41903C50.2635 8.46816 50.2677 8.51719 50.2713 8.56655C50.2794 8.67554 50.2869 8.7852 50.2938 8.89529C50.2996 8.98733 50.3051 9.07969 50.31 9.1726C50.3161 9.28653 50.3212 9.40122 50.3259 9.51634C50.3296 9.60816 50.3333 9.70009 50.3363 9.79267C50.34 9.91053 50.3426 10.0295 50.3451 10.1486C50.3469 10.2406 50.349 10.3325 50.3501 10.4252C50.3515 10.5467 50.3515 10.6691 50.3516 10.7917C50.3516 10.8597 50.3518 10.9274 50.3514 10.9957C49.2582 9.54414 48.3445 7.81242 47.6458 5.86675ZM47.7828 15.0214C48.405 16.0138 48.9798 17.045 49.5205 18.1369C49.5102 18.1818 49.5002 18.2267 49.4896 18.2718C49.4655 18.3748 49.4406 18.4782 49.4151 18.5818C49.3934 18.6701 49.3713 18.7586 49.3486 18.8474C49.3214 18.9539 49.293 19.0609 49.2643 19.1681C49.241 19.2552 49.2175 19.3422 49.1932 19.4297C49.1624 19.5408 49.1302 19.6525 49.0978 19.7645C49.0732 19.8495 49.0488 19.9343 49.0233 20.0197C48.9886 20.1357 48.9525 20.2524 48.9161 20.369C48.8974 20.4293 48.8788 20.4896 48.8596 20.5501C48.2406 18.8841 47.8731 16.9999 47.7828 15.0214ZM48.5284 25.8002C48.5574 25.7411 48.5846 25.6825 48.6131 25.6235C48.6766 25.4924 48.7401 25.3614 48.8012 25.2308C48.839 25.1505 48.8752 25.0705 48.9121 24.9903C48.9673 24.8702 49.0222 24.7503 49.0754 24.6309C49.1128 24.5467 49.1491 24.463 49.1857 24.3792C49.2358 24.264 49.2855 24.1488 49.3338 24.0341C49.3694 23.9494 49.4043 23.8651 49.4389 23.7808C49.4858 23.6667 49.5317 23.5529 49.5767 23.4394C49.5944 23.3946 49.6136 23.3494 49.631 23.3048C50.7517 22.5737 51.8214 21.7956 52.8633 20.9522C51.953 22.9601 50.4693 24.8327 48.5284 25.8002Z" fill="#21344D"/>
<path d="M42.5862 16.474C42.5921 16.204 42.5214 15.9319 42.3706 15.6936L38.1421 9.01292C38.0071 8.79941 37.8208 8.6323 37.6055 8.52002C37.5986 8.51652 37.5915 8.51345 37.5845 8.51006C37.3929 8.41419 37.1796 8.36035 36.9568 8.36035H19.0746C18.8513 8.36035 18.6376 8.41441 18.4458 8.51061C18.4392 8.51367 18.4327 8.51652 18.4263 8.5198C18.2108 8.63208 18.0246 8.79919 17.8894 9.0127L14.6212 14.1761C14.3784 14.5597 14.4925 15.0676 14.8761 15.3103C15.2598 15.5531 15.7677 15.4391 16.0103 15.0554L18.7572 10.7156L21.905 15.6571L15.6292 15.6573L16.0729 14.9565C16.3157 14.5729 16.2016 14.065 15.818 13.8223C15.4344 13.5795 14.9266 13.6935 14.6838 14.0772L13.6608 15.6933C13.5099 15.9317 13.4393 16.2038 13.4452 16.4737C13.4452 16.4756 13.4449 16.4775 13.4449 16.4793C13.4449 16.4825 13.4453 16.4856 13.4453 16.4887C13.446 16.5058 13.4469 16.5227 13.448 16.5395C13.4488 16.5522 13.4498 16.565 13.4514 16.5776C13.4764 16.8388 13.5734 17.0937 13.7426 17.3093L26.9122 34.097C27.128 34.3721 27.4319 34.5505 27.7687 34.6102C27.7786 34.612 27.7886 34.6138 27.7986 34.6153C27.8699 34.6264 27.9421 34.634 28.0158 34.634C28.0889 34.634 28.1607 34.6265 28.2315 34.6155C28.2422 34.6139 28.2527 34.6121 28.2633 34.61C28.5998 34.5503 28.9036 34.372 29.1193 34.097L42.289 17.3094C42.4582 17.0938 42.5552 16.8388 42.5802 16.5776C42.5817 16.565 42.5826 16.5524 42.5836 16.5397C42.5848 16.5228 42.5857 16.5059 42.5861 16.4889C42.5861 16.4858 42.5866 16.4827 42.5866 16.4795C42.5866 16.4777 42.5863 16.4758 42.5862 16.474ZM35.7783 10.0042L32.6282 14.9491L29.4782 10.0042H35.7783ZM31.13 15.6569H24.8301L27.9801 10.712L31.13 15.6569ZM20.2533 10.0042H26.4818L23.3676 14.8929L20.2533 10.0042ZM15.8258 17.3013L22.7681 17.301L26.2235 30.5554L15.8258 17.3013ZM29.7965 30.5702L32.7064 19.3219C32.8201 18.8824 32.556 18.434 32.1164 18.3202C31.6764 18.2061 31.2284 18.4707 31.1148 18.9102L28.0128 30.9014L24.4672 17.301H31.531L30.8559 19.9111C30.7422 20.3506 31.0062 20.7991 31.4458 20.9127C31.5149 20.9305 31.5842 20.9392 31.6522 20.9392C32.018 20.9392 32.3518 20.6933 32.4475 20.3227L33.2291 17.3009L40.206 17.3012L29.7965 30.5702ZM34.1264 15.657L37.2743 10.7155L40.4022 15.6572L34.1264 15.657Z" fill="#21344D"/>
</svg>
