<svg width="88" height="87" viewBox="0 0 88 87" fill="none" xmlns="http://www.w3.org/2000/svg">
<path d="M85.7122 84.1017H79.8225C79.8844 83.6253 79.9122 83.1388 79.9122 82.6518C79.9122 78.559 77.5569 75.0753 74.1123 73.4621V24.6518C74.1123 23.7818 73.5323 23.2019 72.6623 23.2019H50.9123V1.4519C50.9123 0.581896 50.3324 0.00195316 49.4624 0.00195316H10.3124C9.44205 0.00178324 8.86211 0.581727 8.86211 1.45173V84.1017H1.61205C0.742053 84.1017 0.162109 84.6817 0.162109 85.5517C0.162109 86.4217 0.742053 87.0018 1.61205 87.0018H10.3121H14.6621H49.4621H78.0271H85.7122C86.5822 87.0018 87.1621 86.4218 87.1621 85.5518C87.1621 84.6818 86.5822 84.1017 85.7122 84.1017ZM71.2121 72.6041C70.7388 72.538 70.2552 72.5017 69.7621 72.5017C68.6675 72.5017 67.5937 72.6881 66.5793 73.0366C66.3266 72.6998 65.9193 72.5017 65.4121 72.5017C64.5421 72.5017 63.9622 73.0816 63.9622 73.9516V74.396C63.4126 74.7919 62.9017 75.2435 62.438 75.7456C62.3647 75.8231 62.2927 75.9016 62.2222 75.9815C61.0206 74.4796 59.473 73.3931 57.7231 72.8641C57.4718 72.6335 57.1254 72.5015 56.7121 72.5015C56.5505 72.5015 56.3989 72.5217 56.2591 72.5599C55.9317 72.5217 55.5991 72.5015 55.2622 72.5015C54.3534 72.5015 53.3302 72.6194 52.5011 72.956C52.3985 72.9907 52.2965 73.0264 52.1956 73.0646C51.1936 72.25 50.0216 71.6636 48.7866 71.3409C48.7735 71.3374 48.7601 71.3348 48.7472 71.3312C48.6395 71.3035 48.5314 71.2772 48.4228 71.2536C48.3348 71.2342 48.2458 71.2174 48.1569 71.2007C48.1183 71.1936 48.0797 71.186 48.041 71.1793C47.9477 71.1632 47.8541 71.1489 47.7598 71.1358C47.7176 71.1299 47.6755 71.1246 47.6332 71.1193C47.5467 71.1086 47.4599 71.0986 47.3725 71.0906C47.3088 71.0847 47.2449 71.0803 47.181 71.0757C47.1127 71.0709 47.0446 71.0653 46.9758 71.0621C46.838 71.0555 46.7001 71.0514 46.5622 71.0514C46.4555 71.0514 46.3496 71.0536 46.2442 71.0575C46.1753 71.0599 46.1064 71.0641 46.0376 71.068C46.0101 71.0697 45.9822 71.0709 45.9547 71.0728C44.6337 71.1605 43.3359 71.5333 42.212 72.1936V26.1018H49.4621H71.2121V72.6041ZM11.7622 2.90184H48.0121V23.2019H40.7621C39.8921 23.2019 39.3121 23.7818 39.3121 24.6518V69.7469C38.5711 69.0059 37.7169 68.379 36.7869 67.8885C36.7048 67.8446 36.6219 67.8021 36.5386 67.7607C36.5059 67.7445 36.4734 67.7277 36.4404 67.7119C35.4056 67.21 34.2795 66.8806 33.1028 66.7575C33.0863 66.7558 33.0697 66.7544 33.053 66.7527C32.9164 66.7391 32.7791 66.7284 32.6411 66.7204C32.6046 66.7182 32.5681 66.716 32.5314 66.7141C32.3756 66.7068 32.2192 66.7019 32.0621 66.7019C29.904 66.7019 27.9047 67.4117 26.2621 68.6045V68.152C26.2621 67.282 25.6822 66.7021 24.8122 66.7021C23.9422 66.7021 23.3622 67.282 23.3622 68.152V71.0521C23.3622 71.2696 23.3984 71.4689 23.4664 71.6456C22.7544 72.8189 22.2638 74.1416 22.0572 75.5472C20.3879 75.738 18.8615 76.3387 17.5623 77.2367V76.8522C17.5623 75.9822 16.9823 75.4022 16.1123 75.4022C15.2423 75.4022 14.6624 75.9822 14.6624 76.8522V79.7522C14.6624 79.9215 14.685 80.0793 14.7268 80.2244C14.0079 81.3872 13.5186 82.7029 13.3171 84.1021H11.7625V2.90184H11.7622ZM22.7022 78.3318C22.731 78.3293 22.76 78.3276 22.7889 78.3254C22.8654 78.3194 22.9418 78.3137 23.019 78.3101C23.1327 78.305 23.247 78.3016 23.3622 78.3016C24.2322 78.3016 24.8122 77.7217 24.8122 76.8517C24.8122 72.7917 28.0021 69.6016 32.0622 69.6016C35.6872 69.6016 38.7322 72.2116 39.1672 75.8365C39.2652 76.2287 39.498 76.5519 39.8164 76.7667C39.8365 76.7808 39.857 76.7941 39.8779 76.8071C39.9004 76.8209 39.9226 76.8348 39.9459 76.8474C39.9994 76.877 40.0552 76.904 40.1133 76.9273C40.1155 76.9281 40.1175 76.929 40.1197 76.93C40.1862 76.9565 40.2555 76.9788 40.3271 76.9966C40.3272 76.9966 40.3272 76.9966 40.3274 76.9968C40.4137 77.0255 40.5118 77.0365 40.6154 77.0333C41.092 77.0403 41.5354 76.7796 41.7772 76.4172C41.7772 76.417 41.7773 76.417 41.7775 76.4168L41.9224 76.2719C43.0825 74.8219 44.6774 73.9519 46.5625 73.9519C47.5416 73.9519 48.5202 74.2262 49.3985 74.739C47.6689 76.3653 46.6881 78.4855 46.5741 80.7539C46.5664 80.9023 46.5625 81.0518 46.5625 81.202C46.5625 82.2103 46.7302 83.1767 47.0621 84.1021H16.2571C16.9358 80.9801 19.5203 78.6209 22.7022 78.3318ZM50.4851 84.1017C49.9312 83.1648 49.6072 82.057 49.6072 81.0567C49.6072 79.4533 50.2393 78.0088 51.3258 76.9529C51.5334 76.7604 51.7548 76.5827 51.9886 76.4218C52.2151 76.4235 52.443 76.3762 52.6522 76.2717C55.8421 74.5317 59.6122 76.1268 60.7722 79.3167C60.9172 79.7517 61.3522 80.1867 62.0772 80.1867C62.2149 80.1867 62.3671 80.1429 62.52 80.0651C62.8838 80.0054 63.1715 79.7383 63.3822 79.3167C63.9442 78.1227 64.8142 77.1694 65.8731 76.5011C66.1017 76.4374 66.2979 76.3246 66.4541 76.1715C67.45 75.6709 68.5789 75.4017 69.7623 75.4017C73.8222 75.4017 77.0123 78.5917 77.0123 82.6518C77.0123 83.0868 77.0123 83.6667 76.8674 84.1017H50.4851Z" fill="#21344D"/>
<path d="M48.0117 37.7012C47.1417 37.7012 46.5618 38.2811 46.5618 39.1511V42.0512C46.5618 42.9212 47.1417 43.5011 48.0117 43.5011C48.8817 43.5011 49.4617 42.9212 49.4617 42.0512V39.1511C49.4617 38.2811 48.8817 37.7012 48.0117 37.7012Z" fill="#21344D"/>
<path d="M48.0117 63.8008C47.1417 63.8008 46.5618 64.3807 46.5618 65.2507V68.1508C46.5618 69.0208 47.1417 69.6007 48.0117 69.6007C48.8817 69.6007 49.4617 69.0208 49.4617 68.1508V65.2507C49.4617 64.3807 48.8817 63.8008 48.0117 63.8008Z" fill="#21344D"/>
<path d="M48.0117 46.4004C47.1417 46.4004 46.5618 46.9803 46.5618 47.8503V50.7504C46.5618 51.6204 47.1417 52.2003 48.0117 52.2003C48.8817 52.2003 49.4617 51.6204 49.4617 50.7504V47.8503C49.4617 46.9803 48.8817 46.4004 48.0117 46.4004Z" fill="#21344D"/>
<path d="M48.0117 55.1016C47.1417 55.1016 46.5618 55.6815 46.5618 56.5515V59.4516C46.5618 60.3216 47.1417 60.9015 48.0117 60.9015C48.8817 60.9015 49.4617 60.3216 49.4617 59.4516V56.5515C49.4617 55.6815 48.8817 55.1016 48.0117 55.1016Z" fill="#21344D"/>
<path d="M48.0117 29.002C47.1417 29.002 46.5618 29.5819 46.5618 30.4519V33.352C46.5618 34.222 47.1417 34.8019 48.0117 34.8019C48.8817 34.8019 49.4617 34.222 49.4617 33.352V30.4519C49.4617 29.5819 48.8817 29.002 48.0117 29.002Z" fill="#21344D"/>
<path d="M56.7124 43.5011C57.5824 43.5011 58.1623 42.9212 58.1623 42.0512V39.1511C58.1623 38.2811 57.5824 37.7012 56.7124 37.7012C55.8424 37.7012 55.2625 38.2811 55.2625 39.1511V42.0512C55.2625 42.9212 55.8424 43.5011 56.7124 43.5011Z" fill="#21344D"/>
<path d="M56.7124 34.8019C57.5824 34.8019 58.1623 34.222 58.1623 33.352V30.4519C58.1623 29.5819 57.5824 29.002 56.7124 29.002C55.8424 29.002 55.2625 29.5819 55.2625 30.4519V33.352C55.2625 34.222 55.8424 34.8019 56.7124 34.8019Z" fill="#21344D"/>
<path d="M56.7124 52.2003C57.5824 52.2003 58.1623 51.6204 58.1623 50.7504V47.8503C58.1623 46.9803 57.5824 46.4004 56.7124 46.4004C55.8424 46.4004 55.2625 46.9803 55.2625 47.8503V50.7504C55.2625 51.6204 55.8424 52.2003 56.7124 52.2003Z" fill="#21344D"/>
<path d="M56.7124 60.9015C57.5824 60.9015 58.1623 60.3216 58.1623 59.4516V56.5515C58.1623 55.6815 57.5824 55.1016 56.7124 55.1016C55.8424 55.1016 55.2625 55.6815 55.2625 56.5515V59.4516C55.2625 60.3216 55.8424 60.9015 56.7124 60.9015Z" fill="#21344D"/>
<path d="M56.7124 69.6007C57.5824 69.6007 58.1623 69.0208 58.1623 68.1508V65.2507C58.1623 64.3807 57.5824 63.8008 56.7124 63.8008C55.8424 63.8008 55.2625 64.3807 55.2625 65.2507V68.1508C55.2625 69.0208 55.8424 69.6007 56.7124 69.6007Z" fill="#21344D"/>
<path d="M65.4123 52.2003C66.2823 52.2003 66.8623 51.6204 66.8623 50.7504V47.8503C66.8623 46.9803 66.2823 46.4004 65.4123 46.4004C64.5423 46.4004 63.9624 46.9803 63.9624 47.8503V50.7504C63.9624 51.6204 64.5423 52.2003 65.4123 52.2003Z" fill="#21344D"/>
<path d="M65.4123 43.5011C66.2823 43.5011 66.8623 42.9212 66.8623 42.0512V39.1511C66.8623 38.2811 66.2823 37.7012 65.4123 37.7012C64.5423 37.7012 63.9624 38.2811 63.9624 39.1511V42.0512C63.9624 42.9212 64.5423 43.5011 65.4123 43.5011Z" fill="#21344D"/>
<path d="M65.4123 69.6007C66.2823 69.6007 66.8623 69.0208 66.8623 68.1508V65.2507C66.8623 64.3807 66.2823 63.8008 65.4123 63.8008C64.5423 63.8008 63.9624 64.3807 63.9624 65.2507V68.1508C63.9624 69.0208 64.5423 69.6007 65.4123 69.6007Z" fill="#21344D"/>
<path d="M65.4123 60.9015C66.2823 60.9015 66.8623 60.3216 66.8623 59.4516V56.5515C66.8623 55.6815 66.2823 55.1016 65.4123 55.1016C64.5423 55.1016 63.9624 55.6815 63.9624 56.5515V59.4516C63.9624 60.3216 64.5423 60.9015 65.4123 60.9015Z" fill="#21344D"/>
<path d="M65.4123 34.8019C66.2823 34.8019 66.8623 34.222 66.8623 33.352V30.4519C66.8623 29.5819 66.2823 29.002 65.4123 29.002C64.5423 29.002 63.9624 29.5819 63.9624 30.4519V33.352C63.9624 34.222 64.5423 34.8019 65.4123 34.8019Z" fill="#21344D"/>
<path d="M16.1122 55.1007C16.9822 55.1007 17.5621 54.5208 17.5621 53.6508V50.7507C17.5621 49.8807 16.9822 49.3008 16.1122 49.3008C15.2422 49.3008 14.6622 49.8807 14.6622 50.7507V53.6508C14.6621 54.5206 15.2422 55.1007 16.1122 55.1007Z" fill="#21344D"/>
<path d="M16.1122 63.8019C16.9822 63.8019 17.5621 63.2219 17.5621 62.3519V59.4519C17.5621 58.5819 16.9822 58.002 16.1122 58.002C15.2422 58.002 14.6622 58.5819 14.6622 59.4519V62.3519C14.6621 63.2218 15.2422 63.8019 16.1122 63.8019Z" fill="#21344D"/>
<path d="M16.1122 72.5011C16.9822 72.5011 17.5621 71.9212 17.5621 71.0512V68.1511C17.5621 67.2811 16.9822 66.7012 16.1122 66.7012C15.2422 66.7012 14.6622 67.2811 14.6622 68.1511V71.0512C14.6621 71.921 15.2422 72.5011 16.1122 72.5011Z" fill="#21344D"/>
<path d="M16.1122 11.6007C16.9822 11.6007 17.5621 11.0208 17.5621 10.1508V7.25073C17.5621 6.38073 16.9822 5.80078 16.1122 5.80078C15.2422 5.80078 14.6622 6.38073 14.6622 7.25073V10.1508C14.6621 11.0206 15.2422 11.6007 16.1122 11.6007Z" fill="#21344D"/>
<path d="M16.1122 20.3019C16.9822 20.3019 17.5621 19.722 17.5621 18.852V15.9519C17.5621 15.0819 16.9822 14.502 16.1122 14.502C15.2422 14.502 14.6622 15.0819 14.6622 15.9519V18.852C14.6621 19.7218 15.2422 20.3019 16.1122 20.3019Z" fill="#21344D"/>
<path d="M16.1122 29.0011C16.9822 29.0011 17.5621 28.4212 17.5621 27.5512V24.6511C17.5621 23.7811 16.9822 23.2012 16.1122 23.2012C15.2422 23.2012 14.6622 23.7811 14.6622 24.6511V27.5512C14.6621 28.421 15.2422 29.0011 16.1122 29.0011Z" fill="#21344D"/>
<path d="M16.1122 37.7003C16.9822 37.7003 17.5621 37.1204 17.5621 36.2504V33.3503C17.5621 32.4803 16.9822 31.9004 16.1122 31.9004C15.2422 31.9004 14.6622 32.4803 14.6622 33.3503V36.2504C14.6621 37.1202 15.2422 37.7003 16.1122 37.7003Z" fill="#21344D"/>
<path d="M16.1122 46.4015C16.9822 46.4015 17.5621 45.8215 17.5621 44.9516V42.0515C17.5621 41.1815 16.9822 40.6016 16.1122 40.6016C15.2422 40.6016 14.6622 41.1815 14.6622 42.0515V44.9516C14.6621 45.8214 15.2422 46.4015 16.1122 46.4015Z" fill="#21344D"/>
<path d="M24.812 20.3019C25.682 20.3019 26.2619 19.722 26.2619 18.852V15.9519C26.2619 15.0819 25.682 14.502 24.812 14.502C23.942 14.502 23.3621 15.0819 23.3621 15.9519V18.852C23.3619 19.7218 23.942 20.3019 24.812 20.3019Z" fill="#21344D"/>
<path d="M24.812 11.6007C25.682 11.6007 26.2619 11.0208 26.2619 10.1508V7.25073C26.2619 6.38073 25.682 5.80078 24.812 5.80078C23.942 5.80078 23.3621 6.38073 23.3621 7.25073V10.1508C23.3619 11.0206 23.942 11.6007 24.812 11.6007Z" fill="#21344D"/>
<path d="M24.812 37.7003C25.682 37.7003 26.2619 37.1204 26.2619 36.2504V33.3503C26.2619 32.4803 25.682 31.9004 24.812 31.9004C23.942 31.9004 23.3621 32.4803 23.3621 33.3503V36.2504C23.3619 37.1202 23.942 37.7003 24.812 37.7003Z" fill="#21344D"/>
<path d="M24.812 29.0011C25.682 29.0011 26.2619 28.4212 26.2619 27.5512V24.6511C26.2619 23.7811 25.682 23.2012 24.812 23.2012C23.942 23.2012 23.3621 23.7811 23.3621 24.6511V27.5512C23.3619 28.421 23.942 29.0011 24.812 29.0011Z" fill="#21344D"/>
<path d="M24.812 46.4015C25.682 46.4015 26.2619 45.8215 26.2619 44.9516V42.0515C26.2619 41.1815 25.682 40.6016 24.812 40.6016C23.942 40.6016 23.3621 41.1815 23.3621 42.0515V44.9516C23.3619 45.8214 23.942 46.4015 24.812 46.4015Z" fill="#21344D"/>
<path d="M24.812 55.1007C25.682 55.1007 26.2619 54.5208 26.2619 53.6508V50.7507C26.2619 49.8807 25.682 49.3008 24.812 49.3008C23.942 49.3008 23.3621 49.8807 23.3621 50.7507V53.6508C23.3619 54.5206 23.942 55.1007 24.812 55.1007Z" fill="#21344D"/>
<path d="M24.812 63.8019C25.682 63.8019 26.2619 63.2219 26.2619 62.3519V59.4519C26.2619 58.5819 25.682 58.002 24.812 58.002C23.942 58.002 23.3621 58.5819 23.3621 59.4519V62.3519C23.3619 63.2218 23.942 63.8019 24.812 63.8019Z" fill="#21344D"/>
<path d="M33.5118 29.0011C34.3818 29.0011 34.9618 28.4212 34.9618 27.5512V24.6511C34.9618 23.7811 34.3818 23.2012 33.5118 23.2012C32.6418 23.2012 32.0619 23.7811 32.0619 24.6511V27.5512C32.0617 28.421 32.6418 29.0011 33.5118 29.0011Z" fill="#21344D"/>
<path d="M33.5118 20.3019C34.3818 20.3019 34.9618 19.722 34.9618 18.852V15.9519C34.9618 15.0819 34.3818 14.502 33.5118 14.502C32.6418 14.502 32.0619 15.0819 32.0619 15.9519V18.852C32.0617 19.7218 32.6418 20.3019 33.5118 20.3019Z" fill="#21344D"/>
<path d="M33.5118 11.6007C34.3818 11.6007 34.9618 11.0208 34.9618 10.1508V7.25073C34.9618 6.38073 34.3818 5.80078 33.5118 5.80078C32.6418 5.80078 32.0619 6.38073 32.0619 7.25073V10.1508C32.0617 11.0206 32.6418 11.6007 33.5118 11.6007Z" fill="#21344D"/>
<path d="M33.5118 63.8019C34.3818 63.8019 34.9618 63.2219 34.9618 62.3519V59.4519C34.9618 58.5819 34.3818 58.002 33.5118 58.002C32.6418 58.002 32.0619 58.5819 32.0619 59.4519V62.3519C32.0617 63.2218 32.6418 63.8019 33.5118 63.8019Z" fill="#21344D"/>
<path d="M33.5118 55.1007C34.3818 55.1007 34.9618 54.5208 34.9618 53.6508V50.7507C34.9618 49.8807 34.3818 49.3008 33.5118 49.3008C32.6418 49.3008 32.0619 49.8807 32.0619 50.7507V53.6508C32.0617 54.5206 32.6418 55.1007 33.5118 55.1007Z" fill="#21344D"/>
<path d="M33.5118 46.4015C34.3818 46.4015 34.9618 45.8215 34.9618 44.9516V42.0515C34.9618 41.1815 34.3818 40.6016 33.5118 40.6016C32.6418 40.6016 32.0619 41.1815 32.0619 42.0515V44.9516C32.0617 45.8214 32.6418 46.4015 33.5118 46.4015Z" fill="#21344D"/>
<path d="M33.5118 37.7003C34.3818 37.7003 34.9618 37.1204 34.9618 36.2504V33.3503C34.9618 32.4803 34.3818 31.9004 33.5118 31.9004C32.6418 31.9004 32.0619 32.4803 32.0619 33.3503V36.2504C32.0617 37.1202 32.6418 37.7003 33.5118 37.7003Z" fill="#21344D"/>
<path d="M42.2125 20.3019C43.0825 20.3019 43.6625 19.722 43.6625 18.852V15.9519C43.6625 15.0819 43.0825 14.502 42.2125 14.502C41.3425 14.502 40.7626 15.0819 40.7626 15.9519V18.852C40.7624 19.7218 41.3425 20.3019 42.2125 20.3019Z" fill="#21344D"/>
<path d="M42.2125 11.6007C43.0825 11.6007 43.6625 11.0208 43.6625 10.1508V7.25073C43.6625 6.38073 43.0825 5.80078 42.2125 5.80078C41.3425 5.80078 40.7626 6.38073 40.7626 7.25073V10.1508C40.7624 11.0206 41.3425 11.6007 42.2125 11.6007Z" fill="#21344D"/>
</svg>
