<svg width="87" height="87" viewBox="0 0 87 87" fill="none" xmlns="http://www.w3.org/2000/svg">
<g clip-path="url(#clip0_1427_10046)">
<path d="M85.5501 84.1017H79.6604C79.7222 83.6253 79.7501 83.1388 79.7501 82.6518C79.7501 78.559 77.3948 75.0753 73.9502 73.4621V24.6518C73.9502 23.7818 73.3702 23.2019 72.5002 23.2019H50.7502V1.4519C50.7502 0.581896 50.1703 0.00195316 49.3003 0.00195316H10.1503C9.27994 0.00178324 8.7 0.581727 8.7 1.45173V84.1017H1.44994C0.579943 84.1017 0 84.6817 0 85.5517C0 86.4217 0.579943 87.0018 1.44994 87.0018H10.1499H14.4999H49.2999H77.865H85.5501C86.4201 87.0018 87 86.4218 87 85.5518C87 84.6818 86.4201 84.1017 85.5501 84.1017ZM71.0499 72.6041C70.5767 72.538 70.0931 72.5017 69.6 72.5017C68.5054 72.5017 67.4316 72.6881 66.4172 73.0366C66.1645 72.6998 65.7572 72.5017 65.25 72.5017C64.38 72.5017 63.8001 73.0816 63.8001 73.9516V74.396C63.2505 74.7919 62.7396 75.2435 62.2759 75.7456C62.2026 75.8231 62.1306 75.9016 62.0601 75.9815C60.8585 74.4796 59.3109 73.3931 57.561 72.8641C57.3097 72.6335 56.9632 72.5015 56.55 72.5015C56.3884 72.5015 56.2368 72.5217 56.097 72.5599C55.7696 72.5217 55.437 72.5015 55.1001 72.5015C54.1913 72.5015 53.168 72.6194 52.339 72.956C52.2364 72.9907 52.1344 73.0264 52.0335 73.0646C51.0314 72.25 49.8595 71.6636 48.6245 71.3409C48.6114 71.3374 48.598 71.3348 48.5851 71.3312C48.4774 71.3035 48.3693 71.2772 48.2607 71.2536C48.1727 71.2342 48.0836 71.2174 47.9948 71.2007C47.9562 71.1936 47.9176 71.186 47.8789 71.1793C47.7856 71.1632 47.692 71.1489 47.5977 71.1358C47.5555 71.1299 47.5134 71.1246 47.4711 71.1193C47.3846 71.1086 47.2978 71.0986 47.2104 71.0906C47.1467 71.0847 47.0828 71.0803 47.0189 71.0757C46.9506 71.0709 46.8825 71.0653 46.8136 71.0621C46.6758 71.0555 46.538 71.0514 46.4001 71.0514C46.2933 71.0514 46.1875 71.0536 46.0821 71.0575C46.0131 71.0599 45.9443 71.0641 45.8755 71.068C45.848 71.0697 45.8201 71.0709 45.7926 71.0728C44.4716 71.1605 43.1738 71.5333 42.0499 72.1936V26.1018H49.2999H71.0499V72.6041ZM11.6001 2.90184H47.85V23.2019H40.5999C39.7299 23.2019 39.15 23.7818 39.15 24.6518V69.7469C38.409 69.0059 37.5548 68.379 36.6248 67.8885C36.5427 67.8446 36.4598 67.8021 36.3765 67.7607C36.3437 67.7445 36.3113 67.7277 36.2783 67.7119C35.2435 67.21 34.1174 66.8806 32.9407 66.7575C32.9242 66.7558 32.9076 66.7544 32.8909 66.7527C32.7543 66.7391 32.617 66.7284 32.479 66.7204C32.4425 66.7182 32.406 66.716 32.3693 66.7141C32.2134 66.7068 32.0571 66.7019 31.8999 66.7019C29.7419 66.7019 27.7426 67.4117 26.1 68.6045V68.152C26.1 67.282 25.5201 66.7021 24.6501 66.7021C23.7801 66.7021 23.2001 67.282 23.2001 68.152V71.0521C23.2001 71.2696 23.2363 71.4689 23.3043 71.6456C22.5923 72.8189 22.1017 74.1416 21.8951 75.5472C20.2258 75.738 18.6994 76.3387 17.4002 77.2367V76.8522C17.4002 75.9822 16.8202 75.4022 15.9502 75.4022C15.0802 75.4022 14.5003 75.9822 14.5003 76.8522V79.7522C14.5003 79.9215 14.5229 80.0793 14.5647 80.2244C13.8457 81.3872 13.3565 82.7029 13.155 84.1021H11.6004V2.90184H11.6001ZM22.5401 78.3318C22.5689 78.3293 22.5979 78.3276 22.6268 78.3254C22.7033 78.3194 22.7797 78.3137 22.8569 78.3101C22.9706 78.305 23.0849 78.3016 23.2001 78.3016C24.0701 78.3016 24.6501 77.7217 24.6501 76.8517C24.6501 72.7917 27.84 69.6016 31.9001 69.6016C35.5251 69.6016 38.5701 72.2116 39.0051 75.8365C39.1031 76.2287 39.3359 76.5519 39.6543 76.7667C39.6744 76.7808 39.6949 76.7941 39.7158 76.8071C39.7383 76.8209 39.7605 76.8348 39.7838 76.8474C39.8373 76.877 39.8931 76.904 39.9512 76.9273C39.9534 76.9281 39.9554 76.929 39.9576 76.93C40.0241 76.9565 40.0934 76.9788 40.1649 76.9966C40.1651 76.9966 40.1651 76.9966 40.1653 76.9968C40.2516 77.0255 40.3497 77.0365 40.4533 77.0333C40.9299 77.0403 41.3733 76.7796 41.6151 76.4172C41.6151 76.417 41.6152 76.417 41.6154 76.4168L41.7603 76.2719C42.9204 74.8219 44.5153 73.9519 46.4004 73.9519C47.3795 73.9519 48.3581 74.2262 49.2364 74.739C47.5068 76.3653 46.526 78.4855 46.4119 80.7539C46.4043 80.9023 46.4004 81.0518 46.4004 81.202C46.4004 82.2103 46.5681 83.1767 46.9 84.1021H16.095C16.7737 80.9801 19.3582 78.6209 22.5401 78.3318ZM50.323 84.1017C49.7691 83.1648 49.4451 82.057 49.4451 81.0567C49.4451 79.4533 50.0772 78.0088 51.1637 76.9529C51.3713 76.7604 51.5927 76.5827 51.8265 76.4218C52.053 76.4235 52.2809 76.3762 52.4901 76.2717C55.68 74.5317 59.4501 76.1268 60.6101 79.3167C60.7551 79.7517 61.1901 80.1867 61.9151 80.1867C62.0527 80.1867 62.205 80.1429 62.3579 80.0651C62.7217 80.0054 63.0094 79.7383 63.2201 79.3167C63.782 78.1227 64.652 77.1694 65.711 76.5011C65.9395 76.4374 66.1358 76.3246 66.292 76.1715C67.2879 75.6709 68.4168 75.4017 69.6002 75.4017C73.6601 75.4017 76.8502 78.5917 76.8502 82.6518C76.8502 83.0868 76.8502 83.6667 76.7053 84.1017H50.323Z" fill="#21344D"/>
<path d="M47.8498 37.7012C46.9798 37.7012 46.3999 38.2811 46.3999 39.1511V42.0512C46.3999 42.9212 46.9798 43.5011 47.8498 43.5011C48.7198 43.5011 49.2998 42.9212 49.2998 42.0512V39.1511C49.2998 38.2811 48.7198 37.7012 47.8498 37.7012Z" fill="#21344D"/>
<path d="M47.8498 63.8008C46.9798 63.8008 46.3999 64.3807 46.3999 65.2507V68.1508C46.3999 69.0208 46.9798 69.6007 47.8498 69.6007C48.7198 69.6007 49.2998 69.0208 49.2998 68.1508V65.2507C49.2998 64.3807 48.7198 63.8008 47.8498 63.8008Z" fill="#21344D"/>
<path d="M47.8498 46.4004C46.9798 46.4004 46.3999 46.9803 46.3999 47.8503V50.7504C46.3999 51.6204 46.9798 52.2003 47.8498 52.2003C48.7198 52.2003 49.2998 51.6204 49.2998 50.7504V47.8503C49.2998 46.9803 48.7198 46.4004 47.8498 46.4004Z" fill="#21344D"/>
<path d="M47.8498 55.1016C46.9798 55.1016 46.3999 55.6815 46.3999 56.5515V59.4516C46.3999 60.3216 46.9798 60.9015 47.8498 60.9015C48.7198 60.9015 49.2998 60.3216 49.2998 59.4516V56.5515C49.2998 55.6815 48.7198 55.1016 47.8498 55.1016Z" fill="#21344D"/>
<path d="M47.8498 29.002C46.9798 29.002 46.3999 29.5819 46.3999 30.4519V33.352C46.3999 34.222 46.9798 34.8019 47.8498 34.8019C48.7198 34.8019 49.2998 34.222 49.2998 33.352V30.4519C49.2998 29.5819 48.7198 29.002 47.8498 29.002Z" fill="#21344D"/>
<path d="M56.5505 43.5011C57.4205 43.5011 58.0005 42.9212 58.0005 42.0512V39.1511C58.0005 38.2811 57.4205 37.7012 56.5505 37.7012C55.6805 37.7012 55.1006 38.2811 55.1006 39.1511V42.0512C55.1006 42.9212 55.6805 43.5011 56.5505 43.5011Z" fill="#21344D"/>
<path d="M56.5505 34.8019C57.4205 34.8019 58.0005 34.222 58.0005 33.352V30.4519C58.0005 29.5819 57.4205 29.002 56.5505 29.002C55.6805 29.002 55.1006 29.5819 55.1006 30.4519V33.352C55.1006 34.222 55.6805 34.8019 56.5505 34.8019Z" fill="#21344D"/>
<path d="M56.5505 52.2003C57.4205 52.2003 58.0005 51.6204 58.0005 50.7504V47.8503C58.0005 46.9803 57.4205 46.4004 56.5505 46.4004C55.6805 46.4004 55.1006 46.9803 55.1006 47.8503V50.7504C55.1006 51.6204 55.6805 52.2003 56.5505 52.2003Z" fill="#21344D"/>
<path d="M56.5505 60.9015C57.4205 60.9015 58.0005 60.3216 58.0005 59.4516V56.5515C58.0005 55.6815 57.4205 55.1016 56.5505 55.1016C55.6805 55.1016 55.1006 55.6815 55.1006 56.5515V59.4516C55.1006 60.3216 55.6805 60.9015 56.5505 60.9015Z" fill="#21344D"/>
<path d="M56.5505 69.6007C57.4205 69.6007 58.0005 69.0208 58.0005 68.1508V65.2507C58.0005 64.3807 57.4205 63.8008 56.5505 63.8008C55.6805 63.8008 55.1006 64.3807 55.1006 65.2507V68.1508C55.1006 69.0208 55.6805 69.6007 56.5505 69.6007Z" fill="#21344D"/>
<path d="M65.2502 52.2003C66.1202 52.2003 66.7002 51.6204 66.7002 50.7504V47.8503C66.7002 46.9803 66.1202 46.4004 65.2502 46.4004C64.3802 46.4004 63.8003 46.9803 63.8003 47.8503V50.7504C63.8003 51.6204 64.3802 52.2003 65.2502 52.2003Z" fill="#21344D"/>
<path d="M65.2502 43.5011C66.1202 43.5011 66.7002 42.9212 66.7002 42.0512V39.1511C66.7002 38.2811 66.1202 37.7012 65.2502 37.7012C64.3802 37.7012 63.8003 38.2811 63.8003 39.1511V42.0512C63.8003 42.9212 64.3802 43.5011 65.2502 43.5011Z" fill="#21344D"/>
<path d="M65.2502 69.6007C66.1202 69.6007 66.7002 69.0208 66.7002 68.1508V65.2507C66.7002 64.3807 66.1202 63.8008 65.2502 63.8008C64.3802 63.8008 63.8003 64.3807 63.8003 65.2507V68.1508C63.8003 69.0208 64.3802 69.6007 65.2502 69.6007Z" fill="#21344D"/>
<path d="M65.2502 60.9015C66.1202 60.9015 66.7002 60.3216 66.7002 59.4516V56.5515C66.7002 55.6815 66.1202 55.1016 65.2502 55.1016C64.3802 55.1016 63.8003 55.6815 63.8003 56.5515V59.4516C63.8003 60.3216 64.3802 60.9015 65.2502 60.9015Z" fill="#21344D"/>
<path d="M65.2502 34.8019C66.1202 34.8019 66.7002 34.222 66.7002 33.352V30.4519C66.7002 29.5819 66.1202 29.002 65.2502 29.002C64.3802 29.002 63.8003 29.5819 63.8003 30.4519V33.352C63.8003 34.222 64.3802 34.8019 65.2502 34.8019Z" fill="#21344D"/>
<path d="M15.9499 55.1007C16.8199 55.1007 17.3999 54.5208 17.3999 53.6508V50.7507C17.3999 49.8807 16.8199 49.3008 15.9499 49.3008C15.0799 49.3008 14.5 49.8807 14.5 50.7507V53.6508C14.4998 54.5206 15.0799 55.1007 15.9499 55.1007Z" fill="#21344D"/>
<path d="M15.9499 63.8019C16.8199 63.8019 17.3999 63.2219 17.3999 62.3519V59.4519C17.3999 58.5819 16.8199 58.002 15.9499 58.002C15.0799 58.002 14.5 58.5819 14.5 59.4519V62.3519C14.4998 63.2218 15.0799 63.8019 15.9499 63.8019Z" fill="#21344D"/>
<path d="M15.9499 72.5011C16.8199 72.5011 17.3999 71.9212 17.3999 71.0512V68.1511C17.3999 67.2811 16.8199 66.7012 15.9499 66.7012C15.0799 66.7012 14.5 67.2811 14.5 68.1511V71.0512C14.4998 71.921 15.0799 72.5011 15.9499 72.5011Z" fill="#21344D"/>
<path d="M15.9499 11.6007C16.8199 11.6007 17.3999 11.0208 17.3999 10.1508V7.25073C17.3999 6.38073 16.8199 5.80078 15.9499 5.80078C15.0799 5.80078 14.5 6.38073 14.5 7.25073V10.1508C14.4998 11.0206 15.0799 11.6007 15.9499 11.6007Z" fill="#21344D"/>
<path d="M15.9499 20.3019C16.8199 20.3019 17.3999 19.722 17.3999 18.852V15.9519C17.3999 15.0819 16.8199 14.502 15.9499 14.502C15.0799 14.502 14.5 15.0819 14.5 15.9519V18.852C14.4998 19.7218 15.0799 20.3019 15.9499 20.3019Z" fill="#21344D"/>
<path d="M15.9499 29.0011C16.8199 29.0011 17.3999 28.4212 17.3999 27.5512V24.6511C17.3999 23.7811 16.8199 23.2012 15.9499 23.2012C15.0799 23.2012 14.5 23.7811 14.5 24.6511V27.5512C14.4998 28.421 15.0799 29.0011 15.9499 29.0011Z" fill="#21344D"/>
<path d="M15.9499 37.7003C16.8199 37.7003 17.3999 37.1204 17.3999 36.2504V33.3503C17.3999 32.4803 16.8199 31.9004 15.9499 31.9004C15.0799 31.9004 14.5 32.4803 14.5 33.3503V36.2504C14.4998 37.1202 15.0799 37.7003 15.9499 37.7003Z" fill="#21344D"/>
<path d="M15.9499 46.4015C16.8199 46.4015 17.3999 45.8215 17.3999 44.9516V42.0515C17.3999 41.1815 16.8199 40.6016 15.9499 40.6016C15.0799 40.6016 14.5 41.1815 14.5 42.0515V44.9516C14.4998 45.8214 15.0799 46.4015 15.9499 46.4015Z" fill="#21344D"/>
<path d="M24.6497 20.3019C25.5197 20.3019 26.0996 19.722 26.0996 18.852V15.9519C26.0996 15.0819 25.5197 14.502 24.6497 14.502C23.7797 14.502 23.1997 15.0819 23.1997 15.9519V18.852C23.1995 19.7218 23.7797 20.3019 24.6497 20.3019Z" fill="#21344D"/>
<path d="M24.6497 11.6007C25.5197 11.6007 26.0996 11.0208 26.0996 10.1508V7.25073C26.0996 6.38073 25.5197 5.80078 24.6497 5.80078C23.7797 5.80078 23.1997 6.38073 23.1997 7.25073V10.1508C23.1995 11.0206 23.7797 11.6007 24.6497 11.6007Z" fill="#21344D"/>
<path d="M24.6497 37.7003C25.5197 37.7003 26.0996 37.1204 26.0996 36.2504V33.3503C26.0996 32.4803 25.5197 31.9004 24.6497 31.9004C23.7797 31.9004 23.1997 32.4803 23.1997 33.3503V36.2504C23.1995 37.1202 23.7797 37.7003 24.6497 37.7003Z" fill="#21344D"/>
<path d="M24.6497 29.0011C25.5197 29.0011 26.0996 28.4212 26.0996 27.5512V24.6511C26.0996 23.7811 25.5197 23.2012 24.6497 23.2012C23.7797 23.2012 23.1997 23.7811 23.1997 24.6511V27.5512C23.1995 28.421 23.7797 29.0011 24.6497 29.0011Z" fill="#21344D"/>
<path d="M24.6497 46.4015C25.5197 46.4015 26.0996 45.8215 26.0996 44.9516V42.0515C26.0996 41.1815 25.5197 40.6016 24.6497 40.6016C23.7797 40.6016 23.1997 41.1815 23.1997 42.0515V44.9516C23.1995 45.8214 23.7797 46.4015 24.6497 46.4015Z" fill="#21344D"/>
<path d="M24.6497 55.1007C25.5197 55.1007 26.0996 54.5208 26.0996 53.6508V50.7507C26.0996 49.8807 25.5197 49.3008 24.6497 49.3008C23.7797 49.3008 23.1997 49.8807 23.1997 50.7507V53.6508C23.1995 54.5206 23.7797 55.1007 24.6497 55.1007Z" fill="#21344D"/>
<path d="M24.6497 63.8019C25.5197 63.8019 26.0996 63.2219 26.0996 62.3519V59.4519C26.0996 58.5819 25.5197 58.002 24.6497 58.002C23.7797 58.002 23.1997 58.5819 23.1997 59.4519V62.3519C23.1995 63.2218 23.7797 63.8019 24.6497 63.8019Z" fill="#21344D"/>
<path d="M33.3498 29.0011C34.2198 29.0011 34.7998 28.4212 34.7998 27.5512V24.6511C34.7998 23.7811 34.2198 23.2012 33.3498 23.2012C32.4798 23.2012 31.8999 23.7811 31.8999 24.6511V27.5512C31.8997 28.421 32.4798 29.0011 33.3498 29.0011Z" fill="#21344D"/>
<path d="M33.3498 20.3019C34.2198 20.3019 34.7998 19.722 34.7998 18.852V15.9519C34.7998 15.0819 34.2198 14.502 33.3498 14.502C32.4798 14.502 31.8999 15.0819 31.8999 15.9519V18.852C31.8997 19.7218 32.4798 20.3019 33.3498 20.3019Z" fill="#21344D"/>
<path d="M33.3498 11.6007C34.2198 11.6007 34.7998 11.0208 34.7998 10.1508V7.25073C34.7998 6.38073 34.2198 5.80078 33.3498 5.80078C32.4798 5.80078 31.8999 6.38073 31.8999 7.25073V10.1508C31.8997 11.0206 32.4798 11.6007 33.3498 11.6007Z" fill="#21344D"/>
<path d="M33.3498 63.8019C34.2198 63.8019 34.7998 63.2219 34.7998 62.3519V59.4519C34.7998 58.5819 34.2198 58.002 33.3498 58.002C32.4798 58.002 31.8999 58.5819 31.8999 59.4519V62.3519C31.8997 63.2218 32.4798 63.8019 33.3498 63.8019Z" fill="#21344D"/>
<path d="M33.3498 55.1007C34.2198 55.1007 34.7998 54.5208 34.7998 53.6508V50.7507C34.7998 49.8807 34.2198 49.3008 33.3498 49.3008C32.4798 49.3008 31.8999 49.8807 31.8999 50.7507V53.6508C31.8997 54.5206 32.4798 55.1007 33.3498 55.1007Z" fill="#21344D"/>
<path d="M33.3498 46.4015C34.2198 46.4015 34.7998 45.8215 34.7998 44.9516V42.0515C34.7998 41.1815 34.2198 40.6016 33.3498 40.6016C32.4798 40.6016 31.8999 41.1815 31.8999 42.0515V44.9516C31.8997 45.8214 32.4798 46.4015 33.3498 46.4015Z" fill="#21344D"/>
<path d="M33.3498 37.7003C34.2198 37.7003 34.7998 37.1204 34.7998 36.2504V33.3503C34.7998 32.4803 34.2198 31.9004 33.3498 31.9004C32.4798 31.9004 31.8999 32.4803 31.8999 33.3503V36.2504C31.8997 37.1202 32.4798 37.7003 33.3498 37.7003Z" fill="#21344D"/>
<path d="M42.0505 20.3019C42.9205 20.3019 43.5005 19.722 43.5005 18.852V15.9519C43.5005 15.0819 42.9205 14.502 42.0505 14.502C41.1805 14.502 40.6006 15.0819 40.6006 15.9519V18.852C40.6004 19.7218 41.1805 20.3019 42.0505 20.3019Z" fill="#21344D"/>
<path d="M42.0505 11.6007C42.9205 11.6007 43.5005 11.0208 43.5005 10.1508V7.25073C43.5005 6.38073 42.9205 5.80078 42.0505 5.80078C41.1805 5.80078 40.6006 6.38073 40.6006 7.25073V10.1508C40.6004 11.0206 41.1805 11.6007 42.0505 11.6007Z" fill="#21344D"/>
</g>
<defs>
<clipPath id="clip0_1427_10046">
<rect width="87" height="87" fill="white"/>
</clipPath>
</defs>
</svg>
