<svg width="87" height="87" viewBox="0 0 87 87" fill="none" xmlns="http://www.w3.org/2000/svg">
<path d="M78.5039 41.8008H64.3958C65.465 40.3797 66.0996 38.6144 66.0996 36.7031V8.49609C66.0996 3.81135 62.2883 0 57.6035 0H51.1465C50.208 0 49.4473 0.76091 49.4473 1.69922C49.4473 2.63753 50.208 3.39844 51.1465 3.39844H57.6035C60.4144 3.39844 62.7012 5.68525 62.7012 8.49609V36.7031C62.7012 39.514 60.4144 41.8008 57.6035 41.8008H29.3965C26.5856 41.8008 24.2988 39.514 24.2988 36.7031V8.49609C24.2988 5.68525 26.5856 3.39844 29.3965 3.39844H35.8535C36.792 3.39844 37.5527 2.63753 37.5527 1.69922C37.5527 0.76091 36.792 0 35.8535 0H29.3965C24.7117 0 20.9004 3.81135 20.9004 8.49609V36.7031C20.9004 38.6144 21.535 40.3797 22.6042 41.8008H8.49609C3.81135 41.8008 0 45.6121 0 50.2969V78.5039C0 83.1887 3.81135 87 8.49609 87H36.7031C39.4795 87 41.9486 85.6614 43.5 83.5956C45.0514 85.6614 47.5205 87 50.2969 87H78.5039C83.1887 87 87 83.1887 87 78.5039V50.2969C87 45.6121 83.1887 41.8008 78.5039 41.8008ZM36.7031 83.6016H8.49609C5.68525 83.6016 3.39844 81.3148 3.39844 78.5039V50.2969C3.39844 47.486 5.68525 45.1992 8.49609 45.1992H36.7031C39.514 45.1992 41.8008 47.486 41.8008 50.2969V78.5039C41.8008 81.3148 39.514 83.6016 36.7031 83.6016ZM83.6016 78.5039C83.6016 81.3148 81.3148 83.6016 78.5039 83.6016H50.2969C47.486 83.6016 45.1992 81.3148 45.1992 78.5039V50.2969C45.1992 47.486 47.486 45.1992 50.2969 45.1992H78.5039C81.3148 45.1992 83.6016 47.486 83.6016 50.2969V78.5039Z" fill="#21344D"/>
<path d="M77.9941 49.1074H50.8066C49.8682 49.1074 49.1074 49.8683 49.1074 50.8066V77.9941C49.1074 78.9324 49.8682 79.6934 50.8066 79.6934H77.9941C78.9326 79.6934 79.6934 78.9324 79.6934 77.9941V50.8066C79.6934 49.8683 78.9326 49.1074 77.9941 49.1074ZM76.2949 76.2949H52.5059V52.5059H76.2949V76.2949Z" fill="#21344D"/>
<path d="M36.1934 49.1074H9.00586C8.06738 49.1074 7.30664 49.8683 7.30664 50.8066V77.9941C7.30664 78.9324 8.06738 79.6934 9.00586 79.6934H36.1934C37.1318 79.6934 37.8926 78.9324 37.8926 77.9941V50.8066C37.8926 49.8683 37.1318 49.1074 36.1934 49.1074ZM34.4941 76.2949H10.7051V52.5059H34.4941V76.2949Z" fill="#21344D"/>
<path d="M28.207 9.00586V36.1934C28.207 37.1317 28.9678 37.8926 29.9062 37.8926H57.0938C58.0322 37.8926 58.793 37.1317 58.793 36.1934V9.00586C58.793 8.06755 58.0322 7.30664 57.0938 7.30664H29.9062C28.9678 7.30664 28.207 8.06755 28.207 9.00586ZM31.6055 10.7051H55.3945V34.4941H31.6055V10.7051Z" fill="#21344D"/>
<path d="M44.9188 14.2598H42.0801C41.1416 14.2598 40.3809 15.0207 40.3809 15.959C40.3809 16.8973 41.1416 17.6582 42.0801 17.6582H43.2196V29.2404C43.2196 30.1787 43.9803 30.9396 44.9188 30.9396C45.8573 30.9396 46.618 30.1787 46.618 29.2404V15.959C46.618 15.0205 45.8573 14.2598 44.9188 14.2598Z" fill="#21344D"/>
<path d="M18.6329 62.072C19.5534 62.2525 20.447 61.653 20.6278 60.7322C20.7827 59.9434 21.4803 59.3711 22.2866 59.3711C23.2386 59.3711 23.9769 60.2798 23.9769 61.0615C23.9769 61.733 23.355 62.7021 22.8131 63.4713C18.6271 69.414 18.1294 70.1047 18.1109 70.1302C17.7364 70.6475 17.6835 71.3307 17.9738 71.8994C18.264 72.4682 18.8487 72.826 19.4871 72.826H26.2376C27.1761 72.826 27.9368 72.0651 27.9368 71.1268C27.9368 70.1885 27.1761 69.4276 26.2376 69.4276H22.7719C23.4483 68.4691 24.3611 67.1746 25.5914 65.4283C26.518 64.1131 27.3752 62.6737 27.3752 61.0615C27.3752 58.3031 25.0447 55.9727 22.2864 55.9727C19.8602 55.9727 17.7602 57.6987 17.2929 60.077C17.1121 60.9978 17.7121 61.891 18.6329 62.072Z" fill="#21344D"/>
<path d="M63.5117 69.6543C62.6686 69.6543 61.945 69.0268 61.829 68.194C61.8181 68.116 61.8125 68.0355 61.8125 67.9551C61.8125 67.0168 61.0518 66.2559 60.1133 66.2559C59.1748 66.2559 58.4141 67.0168 58.4141 67.9551C58.4141 68.1923 58.4305 68.431 58.4632 68.664C58.8124 71.1661 60.9828 73.0527 63.5117 73.0527C66.3226 73.0527 68.6094 70.7659 68.6094 67.9551C68.6094 66.6504 68.1163 65.4593 67.3073 64.5566C68.1163 63.654 68.6094 62.4629 68.6094 61.1582C68.6094 58.3474 66.3226 56.0605 63.5117 56.0605C61.0813 56.0605 58.9775 57.7897 58.5096 60.172C58.3288 61.093 58.9286 61.9861 59.8494 62.1669C60.77 62.3473 61.6633 61.7477 61.8443 60.827C62.0001 60.0342 62.7012 59.4588 63.5117 59.4588C64.4487 59.4588 65.2109 60.2211 65.2109 61.158C65.2109 62.095 64.4487 62.8573 63.5117 62.8573C62.5732 62.8573 61.8125 63.6182 61.8125 64.5565C61.8125 65.4948 62.5732 66.2557 63.5117 66.2557C64.4487 66.2557 65.2109 67.018 65.2109 67.9549C65.2109 68.8919 64.4487 69.6543 63.5117 69.6543Z" fill="#21344D"/>
<path d="M43.5 3.39844C43.9469 3.39844 44.3853 3.21662 44.7013 2.9004C45.0174 2.58451 45.1992 2.14611 45.1992 1.69922C45.1992 1.25232 45.0174 0.813926 44.7013 0.497871C44.3853 0.181816 43.9469 0 43.5 0C43.0531 0 42.6147 0.181647 42.2987 0.497871C41.9826 0.813926 41.8008 1.25232 41.8008 1.69922C41.8008 2.14611 41.9826 2.58451 42.2987 2.9004C42.6147 3.21662 43.0531 3.39844 43.5 3.39844Z" fill="#21344D"/>
</svg>
