<svg width="87" height="88" viewBox="0 0 87 88" fill="none" xmlns="http://www.w3.org/2000/svg">
<g clip-path="url(#clip0_1136_8997)">
<path d="M78.5039 42.043H64.3958C65.465 40.6219 66.0996 38.8566 66.0996 36.9453V8.73828C66.0996 4.05354 62.2883 0.242188 57.6035 0.242188H51.1465C50.208 0.242188 49.4473 1.0031 49.4473 1.94141C49.4473 2.87971 50.208 3.64062 51.1465 3.64062H57.6035C60.4144 3.64062 62.7012 5.92743 62.7012 8.73828V36.9453C62.7012 39.7562 60.4144 42.043 57.6035 42.043H29.3965C26.5856 42.043 24.2988 39.7562 24.2988 36.9453V8.73828C24.2988 5.92743 26.5856 3.64062 29.3965 3.64062H35.8535C36.792 3.64062 37.5527 2.87971 37.5527 1.94141C37.5527 1.0031 36.792 0.242188 35.8535 0.242188H29.3965C24.7117 0.242188 20.9004 4.05354 20.9004 8.73828V36.9453C20.9004 38.8566 21.535 40.6219 22.6042 42.043H8.49609C3.81135 42.043 0 45.8543 0 50.5391V78.7461C0 83.4308 3.81135 87.2422 8.49609 87.2422H36.7031C39.4795 87.2422 41.9486 85.9035 43.5 83.8378C45.0514 85.9035 47.5205 87.2422 50.2969 87.2422H78.5039C83.1887 87.2422 87 83.4308 87 78.7461V50.5391C87 45.8543 83.1887 42.043 78.5039 42.043ZM36.7031 83.8438H8.49609C5.68525 83.8438 3.39844 81.5569 3.39844 78.7461V50.5391C3.39844 47.7282 5.68525 45.4414 8.49609 45.4414H36.7031C39.514 45.4414 41.8008 47.7282 41.8008 50.5391V78.7461C41.8008 81.5569 39.514 83.8438 36.7031 83.8438ZM83.6016 78.7461C83.6016 81.5569 81.3148 83.8438 78.5039 83.8438H50.2969C47.486 83.8438 45.1992 81.5569 45.1992 78.7461V50.5391C45.1992 47.7282 47.486 45.4414 50.2969 45.4414H78.5039C81.3148 45.4414 83.6016 47.7282 83.6016 50.5391V78.7461Z" fill="#21344D"/>
<path d="M77.9941 49.3496H50.8066C49.8682 49.3496 49.1074 50.1105 49.1074 51.0488V78.2363C49.1074 79.1746 49.8682 79.9355 50.8066 79.9355H77.9941C78.9326 79.9355 79.6934 79.1746 79.6934 78.2363V51.0488C79.6934 50.1105 78.9326 49.3496 77.9941 49.3496ZM76.2949 76.5371H52.5059V52.748H76.2949V76.5371Z" fill="#21344D"/>
<path d="M36.1934 49.3496H9.00586C8.06738 49.3496 7.30664 50.1105 7.30664 51.0488V78.2363C7.30664 79.1746 8.06738 79.9355 9.00586 79.9355H36.1934C37.1318 79.9355 37.8926 79.1746 37.8926 78.2363V51.0488C37.8926 50.1105 37.1318 49.3496 36.1934 49.3496ZM34.4941 76.5371H10.7051V52.748H34.4941V76.5371Z" fill="#21344D"/>
<path d="M28.207 9.24805V36.4355C28.207 37.3739 28.9678 38.1348 29.9062 38.1348H57.0938C58.0322 38.1348 58.793 37.3739 58.793 36.4355V9.24805C58.793 8.30974 58.0322 7.54883 57.0938 7.54883H29.9062C28.9678 7.54883 28.207 8.30974 28.207 9.24805ZM31.6055 10.9473H55.3945V34.7363H31.6055V10.9473Z" fill="#21344D"/>
<path d="M44.919 14.502H42.0803C41.1418 14.502 40.381 15.2629 40.381 16.2012C40.381 17.1395 41.1418 17.9004 42.0803 17.9004H43.2198V29.4826C43.2198 30.4209 43.9805 31.1818 44.919 31.1818C45.8575 31.1818 46.6182 30.4209 46.6182 29.4826V16.2012C46.6182 15.2627 45.8575 14.502 44.919 14.502Z" fill="#21344D"/>
<path d="M18.6333 62.3142C19.5538 62.4947 20.4474 61.8952 20.6282 60.9744C20.7832 60.1856 21.4807 59.6133 22.287 59.6133C23.2391 59.6133 23.9774 60.522 23.9774 61.3037C23.9774 61.9752 23.3555 62.9443 22.8136 63.7135C18.6275 69.6562 18.1298 70.3469 18.1113 70.3724C17.7368 70.8896 17.684 71.5729 17.9742 72.1416C18.2644 72.7104 18.8491 73.0682 19.4875 73.0682H26.238C27.1765 73.0682 27.9372 72.3073 27.9372 71.369C27.9372 70.4307 27.1765 69.6698 26.238 69.6698H22.7723C23.4487 68.7112 24.3616 67.4168 25.5918 65.6705C26.5184 64.3553 27.3756 62.9159 27.3756 61.3037C27.3756 58.5453 25.0452 56.2148 22.2868 56.2148C19.8607 56.2148 17.7606 57.9409 17.2933 60.3191C17.1125 61.2399 17.7125 62.1332 18.6333 62.3142Z" fill="#21344D"/>
<path d="M63.5117 69.8965C62.6685 69.8965 61.945 69.269 61.8289 68.4362C61.818 68.3582 61.8124 68.2776 61.8124 68.1973C61.8124 67.259 61.0517 66.498 60.1132 66.498C59.1747 66.498 58.414 67.259 58.414 68.1973C58.414 68.4345 58.4305 68.6732 58.4631 68.9062C58.8123 71.4083 60.9827 73.2949 63.5117 73.2949C66.3225 73.2949 68.6093 71.0081 68.6093 68.1973C68.6093 66.8926 68.1162 65.7015 67.3072 64.7988C68.1162 63.8962 68.6093 62.7051 68.6093 61.4004C68.6093 58.5895 66.3225 56.3027 63.5117 56.3027C61.0813 56.3027 58.9775 58.0319 58.5095 60.4142C58.3287 61.3351 58.9285 62.2283 59.8493 62.409C60.77 62.5895 61.6632 61.9898 61.8442 61.0692C62 60.2764 62.7011 59.701 63.5117 59.701C64.4486 59.701 65.2109 60.4633 65.2109 61.4002C65.2109 62.3372 64.4486 63.0994 63.5117 63.0994C62.5732 63.0994 61.8124 63.8603 61.8124 64.7987C61.8124 65.737 62.5732 66.4979 63.5117 66.4979C64.4486 66.4979 65.2109 67.2601 65.2109 68.1971C65.2109 69.134 64.4486 69.8965 63.5117 69.8965Z" fill="#21344D"/>
<path d="M43.5 3.64062C43.9469 3.64062 44.3853 3.45881 44.7013 3.14258C45.0174 2.8267 45.1992 2.3883 45.1992 1.94141C45.1992 1.49451 45.0174 1.05611 44.7013 0.740059C44.3853 0.424004 43.9469 0.242188 43.5 0.242188C43.0531 0.242188 42.6147 0.423834 42.2987 0.740059C41.9826 1.05611 41.8008 1.49451 41.8008 1.94141C41.8008 2.3883 41.9826 2.8267 42.2987 3.14258C42.6147 3.45881 43.0531 3.64062 43.5 3.64062Z" fill="#21344D"/>
</g>
<defs>
<clipPath id="clip0_1136_8997">
<rect width="87" height="87" fill="white" transform="translate(0 0.242188)"/>
</clipPath>
</defs>
</svg>
