<svg width="87" height="87" viewBox="0 0 87 87" fill="none" xmlns="http://www.w3.org/2000/svg">
<path d="M84.0875 62.3843H83.9936V54.7742C83.9936 35.7817 70.7251 19.3203 52.297 15.2403C52.1992 14.2583 51.7788 13.3448 51.0802 12.6218C50.2406 11.7528 49.1129 11.2742 47.9044 11.2742H39.0956C37.8871 11.2742 36.7594 11.7528 35.9198 12.6218C35.2214 13.3448 34.8008 14.2583 34.703 15.2403C16.2749 19.3203 3.00643 35.7817 3.00643 54.7742V62.3843H2.91246C1.30636 62.3843 0 63.6908 0 65.2968V67.2131C0 68.4813 0.802201 69.5954 1.99607 69.9858C13.3164 73.6872 28.0563 75.7255 43.5 75.7255C58.9437 75.7255 73.6836 73.6872 85.0039 69.9858C86.1978 69.5954 87 68.4813 87 67.2131V65.2968C87 63.6908 85.6935 62.3843 84.0875 62.3843ZM37.947 14.5802C38.2506 14.266 38.6586 14.0927 39.0956 14.0927H47.9042C48.3412 14.0927 48.7492 14.2656 49.0529 14.5802C49.3565 14.8945 49.5156 15.3083 49.5005 15.745L48.2046 53.3259C48.1747 54.1908 47.4736 54.8683 46.6084 54.8683H40.3918C39.5265 54.8683 38.8254 54.1908 38.7955 53.3261L37.4997 15.7452C37.4844 15.3081 37.6433 14.8945 37.947 14.5802ZM84.1815 67.2133C84.1815 67.2512 84.165 67.2949 84.1282 67.3069C73.0829 70.9181 58.6541 72.907 43.5 72.907C28.3459 72.907 13.9171 70.9181 2.87202 67.3066C2.83515 67.2945 2.81866 67.251 2.81866 67.2131V65.2968C2.81866 65.2449 2.8608 65.2028 2.91263 65.2028H57.0292C57.8074 65.2028 58.4385 64.5719 58.4385 63.7935C58.4385 63.0152 57.8076 62.3841 57.0292 62.3841H5.82509V54.7742C5.82509 40.6103 13.7565 27.9605 25.7325 21.5422L28.7904 42.9488C28.891 43.6518 29.4937 44.159 30.1839 44.159C30.2502 44.159 30.3173 44.1542 30.3849 44.1447C31.1555 44.0346 31.6909 43.3208 31.5808 42.5503L28.3948 20.2467C30.4238 19.3584 32.5516 18.6432 34.7613 18.1191L35.9787 53.4235C36.0612 55.8141 37.9996 57.687 40.392 57.687H46.6086C49.0007 57.687 50.9392 55.8141 51.0218 53.4235L52.2393 18.1193C54.4487 18.6435 56.5767 19.3587 58.6057 20.2469L55.4197 42.5505C55.3097 43.3211 55.8452 44.0348 56.6156 44.1449C56.6832 44.1544 56.7503 44.1592 56.8166 44.1592C57.5067 44.1592 58.1095 43.6518 58.2101 42.949L61.2681 21.5424C73.244 27.9605 81.1754 40.6102 81.1754 54.7742V62.3843H72.0617C71.2834 62.3843 70.6523 63.0152 70.6523 63.7936C70.6523 64.5719 71.2832 65.203 72.0617 65.203H84.0879C84.1397 65.203 84.1818 65.2451 84.1818 65.2969V67.2133H84.1815Z" fill="#21344D"/>
<path d="M66.0487 62.3845H63.0421C62.2639 62.3845 61.6328 63.0154 61.6328 63.7939C61.6328 64.5721 62.2637 65.2032 63.0421 65.2032H66.0487C66.827 65.2032 67.4581 64.5723 67.4581 63.7939C67.4581 63.0154 66.8272 62.3845 66.0487 62.3845Z" fill="#21344D"/>
<path d="M32.8696 51.5686L32.4399 48.5613C32.3298 47.7907 31.6165 47.2553 30.8455 47.3654C30.0749 47.4755 29.5395 48.1894 29.6496 48.9598L30.0792 51.9671C30.1798 52.67 30.7825 53.1773 31.4727 53.1773C31.539 53.1773 31.6061 53.1725 31.6737 53.163C32.4443 53.0529 32.9797 52.339 32.8696 51.5686Z" fill="#21344D"/>
<path d="M56.1549 47.3655C55.3844 47.2552 54.6707 47.7909 54.5606 48.5614L54.131 51.5687C54.0211 52.3392 54.5565 53.0529 55.3269 53.163C55.3944 53.1725 55.4617 53.1773 55.5279 53.1773C56.218 53.1773 56.8209 52.6699 56.9215 51.9671L57.351 48.9598C57.4608 48.1894 56.9254 47.4756 56.1549 47.3655Z" fill="#21344D"/>
</svg>
