<svg width="24" height="24" viewBox="0 0 24 24" fill="none" xmlns="http://www.w3.org/2000/svg">
<path d="M22.9473 10.1901C22.9466 10.1896 22.946 10.1888 22.9455 10.1883L13.3452 0.588343C12.936 0.178956 12.3919 -0.0463867 11.8132 -0.0463867C11.2345 -0.0463867 10.6904 0.178956 10.281 0.588343L0.685759 10.1834C0.682527 10.1867 0.679115 10.1901 0.676063 10.1933C-0.164259 11.0385 -0.162822 12.4098 0.680193 13.2528C1.06534 13.6381 1.57384 13.8611 2.11772 13.8846C2.13998 13.8868 2.16225 13.8879 2.18469 13.8879H2.56715V20.9527C2.56715 22.3509 3.70481 23.4884 5.10301 23.4884H8.85896C9.2398 23.4884 9.54846 23.1795 9.54846 22.7989V17.2599C9.54846 16.622 10.0676 16.103 10.7055 16.103H12.9209C13.5588 16.103 14.0778 16.622 14.0778 17.2599V22.7989C14.0778 23.1795 14.3864 23.4884 14.7672 23.4884H18.5232C19.9216 23.4884 21.0591 22.3509 21.0591 20.9527V13.8879H21.4139C21.9924 13.8879 22.5365 13.6625 22.946 13.253C23.7899 12.4087 23.7903 11.0349 22.9473 10.1901ZM21.9709 12.278C21.822 12.4268 21.6241 12.5089 21.4139 12.5089H20.3696C19.9887 12.5089 19.6801 12.8175 19.6801 13.1984V20.9527C19.6801 21.5905 19.1612 22.1094 18.5232 22.1094H15.4567V17.2599C15.4567 15.8617 14.3193 14.7241 12.9209 14.7241H10.7055C9.30713 14.7241 8.16947 15.8617 8.16947 17.2599V22.1094H5.10301C4.46523 22.1094 3.94613 21.5905 3.94613 20.9527V13.1984C3.94613 12.8175 3.63748 12.5089 3.25664 12.5089H2.2303C2.21953 12.5082 2.20893 12.5076 2.19798 12.5074C1.99257 12.5038 1.7999 12.4223 1.65554 12.2778C1.3485 11.9707 1.3485 11.471 1.65554 11.1638C1.65572 11.1638 1.65572 11.1636 1.6559 11.1635L1.65644 11.1629L11.2564 1.56333C11.4051 1.41448 11.6028 1.3326 11.8132 1.3326C12.0235 1.3326 12.2211 1.41448 12.37 1.56333L21.9678 11.1609C21.9692 11.1624 21.9709 11.1638 21.9723 11.1653C22.2777 11.4728 22.2772 11.9715 21.9709 12.278Z" fill="white"/>
</svg>
