<svg width="87" height="87" viewBox="0 0 87 87" fill="none" xmlns="http://www.w3.org/2000/svg">
<path d="M54.2677 12.7203H60.8405C61.7841 12.7203 62.5486 12.1499 62.5486 11.4459C62.5486 10.7419 61.7841 10.1715 60.8405 10.1715H55.9758V7.63458H60.8405C61.7841 7.63458 62.5486 7.06415 62.5486 6.36017C62.5486 5.65618 61.7841 5.08575 60.8405 5.08575H55.9758V2.54882H60.8405C61.7841 2.54882 62.5486 1.9784 62.5486 1.27441C62.5486 0.570427 61.7841 0 60.8405 0H54.2677C53.3241 0 52.5596 0.570427 52.5596 1.27441V11.4459C52.5596 12.1499 53.3244 12.7203 54.2677 12.7203Z" fill="#21344D"/>
<path d="M40.89 2.54882H42.5822V11.4459C42.5822 12.1499 43.3467 12.7203 44.2903 12.7203C45.2339 12.7203 45.9984 12.1499 45.9984 11.4459V2.54882H47.6908C48.6344 2.54882 49.3989 1.9784 49.3989 1.27441C49.3989 0.570427 48.6344 0 47.6908 0H40.8902C39.9467 0 39.1821 0.570427 39.1821 1.27441C39.1821 1.9784 39.9467 2.54882 40.89 2.54882Z" fill="#21344D"/>
<path d="M27.7135 12.7203H34.5141C35.4576 12.7203 36.2222 12.1499 36.2222 11.4459V1.27441C36.2222 0.570427 35.4576 0 34.5141 0H27.7135C26.7699 0 26.0054 0.570427 26.0054 1.27441V11.4459C26.0054 12.1499 26.7699 12.7203 27.7135 12.7203ZM29.4216 2.54882H32.8059V10.1715H29.4216V2.54882Z" fill="#21344D"/>
<path d="M83.0645 79.3615H75.9849V22.7333C78.6471 22.1771 80.6046 20.3542 80.6046 18.1972C80.6046 16.5828 78.8411 15.2693 76.6734 15.2693H75.9849V11.4461C75.9849 10.7421 75.2204 10.1717 74.2768 10.1717H69.4121V1.27441C69.4121 0.570427 68.6476 0 67.704 0C66.7604 0 65.9959 0.570427 65.9959 1.27441V11.4459C65.9959 12.1499 66.7604 12.7203 67.704 12.7203H72.5687V15.2692H15.755V7.63458H19.1393V11.4459C19.1393 12.1499 19.9039 12.7203 20.8474 12.7203C21.791 12.7203 22.5555 12.1499 22.5555 11.4459V1.27441C22.5555 0.570427 21.791 0 20.8474 0C19.9039 0 19.1393 0.570427 19.1393 1.27441V5.08592H15.755V1.27441C15.755 0.570427 14.9904 0 14.0469 0C13.1033 0 12.3387 0.570427 12.3387 1.27441V15.2692H11.6503C9.48254 15.2692 7.71909 16.5826 7.71909 18.1971C7.71909 20.3541 9.67659 22.177 12.3387 22.7331V79.3614H3.9355C1.76551 79.3614 0 80.6749 0 82.2893C0 84.8867 2.84253 86.9999 6.33688 86.9999H80.6631C84.1575 86.9999 87 84.8867 87 82.2895C87 80.675 85.2345 79.3615 83.0645 79.3615ZM80.6631 84.451H6.33688C4.72647 84.451 3.41623 83.4815 3.41623 82.2895C3.41623 82.0805 3.64899 81.9104 3.9355 81.9104H58.9691C59.9127 81.9104 60.6773 81.3399 60.6773 80.636C60.6773 79.932 59.9127 79.3615 58.9691 79.3615H50.4247V57.3173C50.4247 56.6133 49.6601 56.0429 48.7166 56.0429H39.6066C38.6631 56.0429 37.8985 56.6133 37.8985 57.3173V79.3614H15.7547V22.9257H21.9896C22.9332 22.9257 23.6977 22.3552 23.6977 21.6512C23.6977 20.9473 22.9332 20.3768 21.9896 20.3768H14.0466V20.359C12.4412 20.359 11.1351 19.3892 11.1351 18.1972C11.1351 17.9882 11.3663 17.8181 11.65 17.8181H76.6734C76.9574 17.8181 77.1884 17.9882 77.1884 18.1972C77.1884 19.3892 75.8822 20.359 74.2768 20.359V20.3768H29.9927C29.0491 20.3768 28.2846 20.9473 28.2846 21.6512C28.2846 22.3552 29.0491 22.9257 29.9927 22.9257H72.5685V79.3615H66.9331C65.9895 79.3615 65.225 79.932 65.225 80.636C65.225 81.3399 65.9895 81.9104 66.9331 81.9104H83.0645C83.351 81.9104 83.5838 82.0805 83.5838 82.2895C83.5838 83.4815 82.2735 84.451 80.6631 84.451ZM47.0085 61.1405H41.3148V58.5917H47.0085V61.1405ZM41.3148 63.6893H47.0085V79.3614H41.3148V63.6893Z" fill="#21344D"/>
<path d="M29.9938 25.4941H20.8839C19.9403 25.4941 19.1758 26.0646 19.1758 26.7686V36.9638C19.1758 37.6678 19.9403 38.2383 20.8839 38.2383H29.9938C30.9374 38.2383 31.702 37.6678 31.702 36.9638V26.7686C31.702 26.0646 30.9374 25.4941 29.9938 25.4941ZM28.2857 28.043V30.5918H22.592V28.043H28.2857ZM22.592 35.6894V33.1406H28.2857V35.6894H22.592Z" fill="#21344D"/>
<path d="M29.9938 40.7617H20.8839C19.9403 40.7617 19.1758 41.3321 19.1758 42.0361V52.2314C19.1758 52.9354 19.9403 53.5058 20.8839 53.5058H29.9938C30.9374 53.5058 31.702 52.9354 31.702 52.2314V42.0361C31.702 41.3321 30.9374 40.7617 29.9938 40.7617ZM28.2857 43.3105V45.8594H22.592V43.3105H28.2857ZM22.592 50.957V48.4082H28.2857V50.957H22.592Z" fill="#21344D"/>
<path d="M29.9938 56.043H20.8839C19.9403 56.043 19.1758 56.6134 19.1758 57.3174V72.9131C19.1758 73.6171 19.9403 74.1875 20.8839 74.1875H29.9938C30.9374 74.1875 31.702 73.6171 31.702 72.9131V57.3174C31.702 56.6136 30.9374 56.043 29.9938 56.043ZM28.2857 58.5918V61.1406H22.592V58.5918H28.2857ZM22.592 71.6389V63.6896H28.2857V71.6389H22.592Z" fill="#21344D"/>
<path d="M48.7165 25.4941H39.6066C38.663 25.4941 37.8984 26.0646 37.8984 26.7686V36.9638C37.8984 37.6678 38.663 38.2383 39.6066 38.2383H48.7165C49.6601 38.2383 50.4246 37.6678 50.4246 36.9638V26.7686C50.4246 26.0646 49.6601 25.4941 48.7165 25.4941ZM47.0084 28.043V30.5918H41.3147V28.043H47.0084ZM41.3147 35.6894V33.1406H47.0084V35.6894H41.3147Z" fill="#21344D"/>
<path d="M48.7165 40.7617H39.6066C38.663 40.7617 37.8984 41.3321 37.8984 42.0361V52.2314C37.8984 52.9354 38.663 53.5058 39.6066 53.5058H48.7165C49.6601 53.5058 50.4246 52.9354 50.4246 52.2314V42.0361C50.4246 41.3321 49.6601 40.7617 48.7165 40.7617ZM47.0084 43.3105V45.8594H41.3147V43.3105H47.0084ZM41.3147 50.957V48.4082H47.0084V50.957H41.3147Z" fill="#21344D"/>
<path d="M58.3937 38.2383H67.5036C68.4472 38.2383 69.2117 37.6678 69.2117 36.9638V26.7686C69.2117 26.0646 68.4472 25.4941 67.5036 25.4941H58.3937C57.4501 25.4941 56.6855 26.0646 56.6855 26.7686V36.9638C56.6855 37.6678 57.4503 38.2383 58.3937 38.2383ZM60.1018 35.6894V33.1406H65.7955V35.6894H60.1018ZM65.7955 28.043V30.5918H60.1018V28.043H65.7955Z" fill="#21344D"/>
<path d="M58.3937 53.5058H67.5036C68.4472 53.5058 69.2117 52.9354 69.2117 52.2314V42.0361C69.2117 41.3321 68.4472 40.7617 67.5036 40.7617H58.3937C57.4501 40.7617 56.6855 41.3321 56.6855 42.0361V52.2314C56.6855 52.9352 57.4503 53.5058 58.3937 53.5058ZM60.1018 50.957V48.4082H65.7955V50.957H60.1018ZM65.7955 43.3105V45.8594H60.1018V43.3105H65.7955Z" fill="#21344D"/>
<path d="M69.2117 72.9131V57.3174C69.2117 56.6134 68.4472 56.043 67.5036 56.043H58.3937C57.4501 56.043 56.6855 56.6134 56.6855 57.3174V72.9131C56.6855 73.6171 57.4501 74.1875 58.3937 74.1875H67.5036C68.4472 74.1875 69.2117 73.6169 69.2117 72.9131ZM65.7955 58.5916V61.1405H60.1018V58.5916H65.7955ZM60.1018 71.6387V63.6894H65.7955V71.6387H60.1018Z" fill="#21344D"/>
</svg>
