<svg width="87" height="87" viewBox="0 0 87 87" fill="none" xmlns="http://www.w3.org/2000/svg">
<path d="M85.157 82.2537H1.84303C0.825214 82.2537 0 81.4285 0 80.4107C0 79.3929 0.825214 78.5676 1.84303 78.5676H85.157C86.1748 78.5676 87 79.3929 87 80.4107C87 81.4285 86.1748 82.2537 85.157 82.2537ZM81.7766 73.8534C80.7588 73.8534 79.9336 73.0282 79.9336 72.0104V31.283H65.0724C64.0546 31.283 63.2294 30.4578 63.2294 29.44C63.2294 28.4222 64.0546 27.5969 65.0724 27.5969H81.7771C82.7949 27.5969 83.6201 28.4222 83.6201 29.44C83.6201 29.454 83.6199 29.4678 83.6197 29.4817V72.0104C83.6197 73.0282 82.7944 73.8534 81.7766 73.8534ZM72.5912 73.8534H14.4085C13.3907 73.8534 12.5655 73.0282 12.5655 72.0104V45.806C12.5655 44.7882 13.3907 43.963 14.4085 43.963H72.5912C73.609 43.963 74.4343 44.7882 74.4343 45.806V72.0104C74.4343 73.0282 73.609 73.8534 72.5912 73.8534ZM59.8886 70.1674H70.7482V47.6491H59.8886V70.1674ZM45.343 70.1674H56.2028V47.6491H45.343V70.1674ZM30.7974 70.1674H41.657V47.6491H30.7974V70.1674ZM16.2516 70.1674H27.1114V47.6491H16.2516V70.1674ZM5.22267 73.8534C4.20486 73.8534 3.37965 73.0282 3.37965 72.0104V29.4678C3.37965 29.4586 3.37942 29.4492 3.37942 29.44C3.37942 28.4222 4.20463 27.5969 5.22244 27.5969H21.9272C22.945 27.5969 23.7702 28.4222 23.7702 29.44C23.7702 30.4578 22.945 31.283 21.9272 31.283H7.0657V72.0104C7.0657 73.0282 6.24071 73.8534 5.22267 73.8534ZM43.5 38.7804C34.1172 38.7804 26.4838 31.1471 26.4838 21.7642C26.4838 12.3814 34.1172 4.74805 43.5 4.74805C52.8828 4.74805 60.516 12.3814 60.516 21.7642C60.516 31.1471 52.8826 38.7804 43.5 38.7804ZM41.3715 34.9246C42.0647 35.0361 42.7759 35.0944 43.5 35.0944C46.1012 35.0944 48.531 34.3452 50.5846 33.0518C50.0812 30.2977 49.1141 27.6907 47.765 25.3185C44.7682 27.7614 42.4995 31.0853 41.3715 34.9246ZM30.8412 25.9447C31.9963 29.4342 34.5572 32.2895 37.8495 33.8367C39.2292 29.1796 42.0221 25.1621 45.7047 22.2487C44.9528 21.2897 44.1322 20.387 43.2496 19.5475C39.9222 22.8472 35.6132 25.1333 30.8412 25.9447ZM50.8327 23.2663C52.1014 25.4471 53.0874 27.8052 53.7419 30.2873C55.6693 27.975 56.8299 25.0029 56.8299 21.7642C56.8299 21.5786 56.826 21.3942 56.8186 21.2104C54.6932 21.5668 52.6764 22.2713 50.8327 23.2663ZM32.9231 13.6598C31.1971 15.9071 30.1699 18.7184 30.1699 21.7645C30.1699 21.9497 30.1738 22.1345 30.1811 22.3181C34.0798 21.6643 37.6131 19.8397 40.3809 17.1991C38.1389 15.626 35.6252 14.4159 32.9231 13.6598ZM45.6529 16.7537C46.7829 17.8151 47.8258 18.9661 48.771 20.1954C51.035 18.9274 53.5261 18.0312 56.1586 17.5838C55.0032 14.0945 52.4424 11.239 49.1505 9.69196C48.3875 12.2676 47.1918 14.6481 45.6529 16.7537ZM35.9682 10.7711C38.4234 11.6684 40.72 12.8986 42.8049 14.4041C44.0448 12.6666 45.009 10.7132 45.6285 8.60388C44.9353 8.49238 44.2239 8.4341 43.5 8.4341C40.7074 8.4341 38.1124 9.29755 35.9682 10.7711Z" fill="#21344D"/>
</svg>
