<svg width="87" height="88" viewBox="0 0 87 88" fill="none" xmlns="http://www.w3.org/2000/svg">
<path d="M85.157 82.4959H1.84303C0.825214 82.4959 0 81.6707 0 80.6529C0 79.635 0.825214 78.8098 1.84303 78.8098H85.157C86.1748 78.8098 87 79.635 87 80.6529C87 81.6707 86.1748 82.4959 85.157 82.4959ZM81.7766 74.0956C80.7588 74.0956 79.9336 73.2704 79.9336 72.2526V31.5252H65.0724C64.0546 31.5252 63.2294 30.7 63.2294 29.6822C63.2294 28.6644 64.0546 27.8391 65.0724 27.8391H81.7771C82.7949 27.8391 83.6201 28.6644 83.6201 29.6822C83.6201 29.6962 83.6199 29.71 83.6197 29.7239V72.2526C83.6197 73.2704 82.7944 74.0956 81.7766 74.0956ZM72.5912 74.0956H14.4085C13.3907 74.0956 12.5655 73.2704 12.5655 72.2526V46.0482C12.5655 45.0304 13.3907 44.2052 14.4085 44.2052H72.5912C73.609 44.2052 74.4343 45.0304 74.4343 46.0482V72.2526C74.4343 73.2704 73.609 74.0956 72.5912 74.0956ZM59.8886 70.4096H70.7482V47.8912H59.8886V70.4096ZM45.343 70.4096H56.2028V47.8912H45.343V70.4096ZM30.7974 70.4096H41.657V47.8912H30.7974V70.4096ZM16.2516 70.4096H27.1114V47.8912H16.2516V70.4096ZM5.22267 74.0956C4.20486 74.0956 3.37965 73.2704 3.37965 72.2526V29.71C3.37965 29.7008 3.37942 29.6914 3.37942 29.6822C3.37942 28.6644 4.20463 27.8391 5.22244 27.8391H21.9272C22.945 27.8391 23.7702 28.6644 23.7702 29.6822C23.7702 30.7 22.945 31.5252 21.9272 31.5252H7.0657V72.2526C7.0657 73.2704 6.24071 74.0956 5.22267 74.0956ZM43.5 39.0226C34.1172 39.0226 26.4838 31.3893 26.4838 22.0064C26.4838 12.6236 34.1172 4.99023 43.5 4.99023C52.8828 4.99023 60.516 12.6236 60.516 22.0064C60.516 31.3893 52.8826 39.0226 43.5 39.0226ZM41.3715 35.1668C42.0647 35.2783 42.7759 35.3366 43.5 35.3366C46.1012 35.3366 48.531 34.5874 50.5846 33.294C50.0812 30.5399 49.1141 27.9329 47.765 25.5607C44.7682 28.0036 42.4995 31.3275 41.3715 35.1668ZM30.8412 26.1869C31.9963 29.6764 34.5572 32.5317 37.8495 34.0789C39.2292 29.4218 42.0221 25.4043 45.7047 22.4909C44.9528 21.5318 44.1322 20.6292 43.2496 19.7897C39.9222 23.0894 35.6132 25.3755 30.8412 26.1869ZM50.8327 23.5085C52.1014 25.6892 53.0874 28.0474 53.7419 30.5295C55.6693 28.2172 56.8299 25.2451 56.8299 22.0064C56.8299 21.8207 56.826 21.6364 56.8186 21.4526C54.6932 21.809 52.6764 22.5135 50.8327 23.5085ZM32.9231 13.902C31.1971 16.1493 30.1699 18.9606 30.1699 22.0067C30.1699 22.1919 30.1738 22.3766 30.1811 22.5603C34.0798 21.9064 37.6131 20.0818 40.3809 17.4412C38.1389 15.8682 35.6252 14.6581 32.9231 13.902ZM45.6529 16.9959C46.7829 18.0573 47.8258 19.2082 48.771 20.4375C51.035 19.1695 53.5261 18.2734 56.1586 17.826C55.0032 14.3367 52.4424 11.4811 49.1505 9.93415C48.3875 12.5098 47.1918 14.8903 45.6529 16.9959ZM35.9682 11.0132C38.4234 11.9106 40.72 13.1408 42.8049 14.6463C44.0448 12.9088 45.009 10.9554 45.6285 8.84607C44.9353 8.73457 44.2239 8.67628 43.5 8.67628C40.7074 8.67628 38.1124 9.53974 35.9682 11.0132Z" fill="#21344D"/>
</svg>
