<svg width="87" height="87" viewBox="0 0 87 87" fill="none" xmlns="http://www.w3.org/2000/svg">
<g clip-path="url(#clip0_1427_10232)">
<path d="M67.0625 76.125H19.9375C18.937 76.125 18.125 75.313 18.125 74.3125V12.6875C18.125 11.687 18.937 10.875 19.9375 10.875H67.0625C68.063 10.875 68.875 11.687 68.875 12.6875V74.3125C68.875 75.313 68.063 76.125 67.0625 76.125ZM21.75 72.5H65.25V14.5H21.75V72.5Z" fill="#21344D"/>
<path d="M85.1875 76.125H67.0625C66.062 76.125 65.25 75.313 65.25 74.3125V30.8125C65.25 29.812 66.062 29 67.0625 29H85.1875C86.188 29 87 29.812 87 30.8125V74.3125C87 75.313 86.188 76.125 85.1875 76.125ZM68.875 72.5H83.375V32.625H68.875V72.5Z" fill="#21344D"/>
<path d="M70.6875 14.5H16.3125C15.312 14.5 14.5 13.688 14.5 12.6875C14.5 11.687 15.312 10.875 16.3125 10.875H70.6875C71.688 10.875 72.5 11.687 72.5 12.6875C72.5 13.688 71.688 14.5 70.6875 14.5Z" fill="#21344D"/>
<path d="M56.1875 25.375H30.8125C29.812 25.375 29 24.563 29 23.5625C29 22.562 29.812 21.75 30.8125 21.75H56.1875C57.188 21.75 58 22.562 58 23.5625C58 24.563 57.188 25.375 56.1875 25.375Z" fill="#21344D"/>
<path d="M56.1875 36.25H30.8125C29.812 36.25 29 35.438 29 34.4375C29 33.437 29.812 32.625 30.8125 32.625H56.1875C57.188 32.625 58 33.437 58 34.4375C58 35.438 57.188 36.25 56.1875 36.25Z" fill="#21344D"/>
<path d="M56.1875 47.125H30.8125C29.812 47.125 29 46.313 29 45.3125C29 44.312 29.812 43.5 30.8125 43.5H56.1875C57.188 43.5 58 44.312 58 45.3125C58 46.313 57.188 47.125 56.1875 47.125Z" fill="#21344D"/>
<path d="M77.9375 43.5H72.5C71.4995 43.5 70.6875 42.688 70.6875 41.6875C70.6875 40.687 71.4995 39.875 72.5 39.875H77.9375C78.938 39.875 79.75 40.687 79.75 41.6875C79.75 42.688 78.938 43.5 77.9375 43.5Z" fill="#21344D"/>
<path d="M77.9375 54.375H72.5C71.4995 54.375 70.6875 53.563 70.6875 52.5625C70.6875 51.562 71.4995 50.75 72.5 50.75H77.9375C78.938 50.75 79.75 51.562 79.75 52.5625C79.75 53.563 78.938 54.375 77.9375 54.375Z" fill="#21344D"/>
<path d="M77.9375 65.25H72.5C71.4995 65.25 70.6875 64.438 70.6875 63.4375C70.6875 62.437 71.4995 61.625 72.5 61.625H77.9375C78.938 61.625 79.75 62.437 79.75 63.4375C79.75 64.438 78.938 65.25 77.9375 65.25Z" fill="#21344D"/>
<path d="M19.9375 76.125H1.8125C0.812 76.125 0 75.313 0 74.3125V30.8125C0 29.812 0.812 29 1.8125 29H19.9375C20.938 29 21.75 29.812 21.75 30.8125V74.3125C21.75 75.313 20.938 76.125 19.9375 76.125ZM3.625 72.5H18.125V32.625H3.625V72.5Z" fill="#21344D"/>
<path d="M12.6875 43.5H7.25C6.2495 43.5 5.4375 42.688 5.4375 41.6875C5.4375 40.687 6.2495 39.875 7.25 39.875H12.6875C13.688 39.875 14.5 40.687 14.5 41.6875C14.5 42.688 13.688 43.5 12.6875 43.5Z" fill="#21344D"/>
<path d="M12.6875 54.375H7.25C6.2495 54.375 5.4375 53.563 5.4375 52.5625C5.4375 51.562 6.2495 50.75 7.25 50.75H12.6875C13.688 50.75 14.5 51.562 14.5 52.5625C14.5 53.563 13.688 54.375 12.6875 54.375Z" fill="#21344D"/>
<path d="M12.6875 65.25H7.25C6.2495 65.25 5.4375 64.438 5.4375 63.4375C5.4375 62.437 6.2495 61.625 7.25 61.625H12.6875C13.688 61.625 14.5 62.437 14.5 63.4375C14.5 64.438 13.688 65.25 12.6875 65.25Z" fill="#21344D"/>
<path d="M56.1875 76.125C55.187 76.125 54.375 75.313 54.375 74.3125V58H32.625V74.3125C32.625 75.313 31.813 76.125 30.8125 76.125C29.812 76.125 29 75.313 29 74.3125V56.1875C29 55.187 29.812 54.375 30.8125 54.375H56.1875C57.188 54.375 58 55.187 58 56.1875V74.3125C58 75.313 57.188 76.125 56.1875 76.125Z" fill="#21344D"/>
<path d="M56.1875 65.25H30.8125C29.812 65.25 29 64.438 29 63.4375C29 62.437 29.812 61.625 30.8125 61.625H56.1875C57.188 61.625 58 62.437 58 63.4375C58 64.438 57.188 65.25 56.1875 65.25Z" fill="#21344D"/>
</g>
<defs>
<clipPath id="clip0_1427_10232">
<rect width="87" height="87" fill="white"/>
</clipPath>
</defs>
</svg>
