<svg width="87" height="88" viewBox="0 0 87 88" fill="none" xmlns="http://www.w3.org/2000/svg">
<g clip-path="url(#clip0_1136_8946)">
<path d="M67.0623 76.4004H19.9373C18.9368 76.4004 18.1248 75.5884 18.1248 74.5879V12.9629C18.1248 11.9624 18.9368 11.1504 19.9373 11.1504H67.0623C68.0628 11.1504 68.8748 11.9624 68.8748 12.9629V74.5879C68.8748 75.5884 68.0628 76.4004 67.0623 76.4004ZM21.7498 72.7754H65.2498V14.7754H21.7498V72.7754Z" fill="#21344D"/>
<path d="M85.1875 76.4004H67.0625C66.062 76.4004 65.25 75.5884 65.25 74.5879V31.0879C65.25 30.0874 66.062 29.2754 67.0625 29.2754H85.1875C86.188 29.2754 87 30.0874 87 31.0879V74.5879C87 75.5884 86.188 76.4004 85.1875 76.4004ZM68.875 72.7754H83.375V32.9004H68.875V72.7754Z" fill="#21344D"/>
<path d="M70.6877 14.7754H16.3127C15.3122 14.7754 14.5002 13.9634 14.5002 12.9629C14.5002 11.9624 15.3122 11.1504 16.3127 11.1504H70.6877C71.6882 11.1504 72.5002 11.9624 72.5002 12.9629C72.5002 13.9634 71.6882 14.7754 70.6877 14.7754Z" fill="#21344D"/>
<path d="M56.1872 25.6504H30.8122C29.8117 25.6504 28.9997 24.8384 28.9997 23.8379C28.9997 22.8374 29.8117 22.0254 30.8122 22.0254H56.1872C57.1877 22.0254 57.9997 22.8374 57.9997 23.8379C57.9997 24.8384 57.1877 25.6504 56.1872 25.6504Z" fill="#21344D"/>
<path d="M56.1872 36.5254H30.8122C29.8117 36.5254 28.9997 35.7134 28.9997 34.7129C28.9997 33.7124 29.8117 32.9004 30.8122 32.9004H56.1872C57.1877 32.9004 57.9997 33.7124 57.9997 34.7129C57.9997 35.7134 57.1877 36.5254 56.1872 36.5254Z" fill="#21344D"/>
<path d="M56.1872 47.4004H30.8122C29.8117 47.4004 28.9997 46.5884 28.9997 45.5879C28.9997 44.5874 29.8117 43.7754 30.8122 43.7754H56.1872C57.1877 43.7754 57.9997 44.5874 57.9997 45.5879C57.9997 46.5884 57.1877 47.4004 56.1872 47.4004Z" fill="#21344D"/>
<path d="M77.9375 43.7754H72.5C71.4995 43.7754 70.6875 42.9634 70.6875 41.9629C70.6875 40.9624 71.4995 40.1504 72.5 40.1504H77.9375C78.938 40.1504 79.75 40.9624 79.75 41.9629C79.75 42.9634 78.938 43.7754 77.9375 43.7754Z" fill="#21344D"/>
<path d="M77.9375 54.6504H72.5C71.4995 54.6504 70.6875 53.8384 70.6875 52.8379C70.6875 51.8374 71.4995 51.0254 72.5 51.0254H77.9375C78.938 51.0254 79.75 51.8374 79.75 52.8379C79.75 53.8384 78.938 54.6504 77.9375 54.6504Z" fill="#21344D"/>
<path d="M77.9375 65.5254H72.5C71.4995 65.5254 70.6875 64.7134 70.6875 63.7129C70.6875 62.7124 71.4995 61.9004 72.5 61.9004H77.9375C78.938 61.9004 79.75 62.7124 79.75 63.7129C79.75 64.7134 78.938 65.5254 77.9375 65.5254Z" fill="#21344D"/>
<path d="M19.9375 76.4004H1.8125C0.812 76.4004 0 75.5884 0 74.5879V31.0879C0 30.0874 0.812 29.2754 1.8125 29.2754H19.9375C20.938 29.2754 21.75 30.0874 21.75 31.0879V74.5879C21.75 75.5884 20.938 76.4004 19.9375 76.4004ZM3.625 72.7754H18.125V32.9004H3.625V72.7754Z" fill="#21344D"/>
<path d="M12.6875 43.7754H7.25C6.2495 43.7754 5.4375 42.9634 5.4375 41.9629C5.4375 40.9624 6.2495 40.1504 7.25 40.1504H12.6875C13.688 40.1504 14.5 40.9624 14.5 41.9629C14.5 42.9634 13.688 43.7754 12.6875 43.7754Z" fill="#21344D"/>
<path d="M12.6875 54.6504H7.25C6.2495 54.6504 5.4375 53.8384 5.4375 52.8379C5.4375 51.8374 6.2495 51.0254 7.25 51.0254H12.6875C13.688 51.0254 14.5 51.8374 14.5 52.8379C14.5 53.8384 13.688 54.6504 12.6875 54.6504Z" fill="#21344D"/>
<path d="M12.6875 65.5254H7.25C6.2495 65.5254 5.4375 64.7134 5.4375 63.7129C5.4375 62.7124 6.2495 61.9004 7.25 61.9004H12.6875C13.688 61.9004 14.5 62.7124 14.5 63.7129C14.5 64.7134 13.688 65.5254 12.6875 65.5254Z" fill="#21344D"/>
<path d="M56.1872 76.4004C55.1867 76.4004 54.3747 75.5884 54.3747 74.5879V58.2754H32.6247V74.5879C32.6247 75.5884 31.8127 76.4004 30.8122 76.4004C29.8117 76.4004 28.9997 75.5884 28.9997 74.5879V56.4629C28.9997 55.4624 29.8117 54.6504 30.8122 54.6504H56.1872C57.1877 54.6504 57.9997 55.4624 57.9997 56.4629V74.5879C57.9997 75.5884 57.1877 76.4004 56.1872 76.4004Z" fill="#21344D"/>
<path d="M56.1872 65.5254H30.8122C29.8117 65.5254 28.9997 64.7134 28.9997 63.7129C28.9997 62.7124 29.8117 61.9004 30.8122 61.9004H56.1872C57.1877 61.9004 57.9997 62.7124 57.9997 63.7129C57.9997 64.7134 57.1877 65.5254 56.1872 65.5254Z" fill="#21344D"/>
</g>
<defs>
<clipPath id="clip0_1136_8946">
<rect width="87" height="87" fill="white" transform="translate(0 0.275391)"/>
</clipPath>
</defs>
</svg>
