<svg width="20" height="20" viewBox="0 0 20 20" fill="none" xmlns="http://www.w3.org/2000/svg">
<path d="M10 0C4.486 0 0 4.48606 0 10.0001C0 15.5141 4.486 20 10 20C15.514 20 20 15.5141 20 10.0001C20 4.48606 15.514 0 10 0ZM10 18.1818C5.48848 18.1818 1.81818 14.5115 1.81818 10.0001C1.81818 5.48861 5.48848 1.81818 10 1.81818C14.5115 1.81818 18.1818 5.48861 18.1818 10.0001C18.1818 14.5115 14.5115 18.1818 10 18.1818Z" fill="#21344D"/>
<path d="M9.99899 4.24243C9.33075 4.24243 8.78711 4.78643 8.78711 5.4551C8.78711 6.12316 9.33075 6.66668 9.99899 6.66668C10.6672 6.66668 11.2109 6.12316 11.2109 5.4551C11.2109 4.78643 10.6672 4.24243 9.99899 4.24243Z" fill="#21344D"/>
<path d="M10.0009 8.48486C9.49883 8.48486 9.0918 8.89189 9.0918 9.39395V14.8485C9.0918 15.3506 9.49883 15.7576 10.0009 15.7576C10.503 15.7576 10.91 15.3506 10.91 14.8485V9.39395C10.91 8.89189 10.503 8.48486 10.0009 8.48486Z" fill="#21344D"/>
</svg>
