<svg width="87" height="87" viewBox="0 0 87 87" fill="none" xmlns="http://www.w3.org/2000/svg">
<g clip-path="url(#clip0_1173_18287)">
<path d="M85.4298 14.4334C84.5627 14.4334 83.8597 15.1363 83.8597 16.0035V83.8595H71.3052V80.324H78.8193C79.6864 80.324 80.3894 79.621 80.3894 78.7539V50.9921C80.3894 50.125 79.6864 49.422 78.8193 49.422H72.1101V45.9518H78.8193C79.6864 45.9518 80.3894 45.2489 80.3894 44.3818V8.115C80.3894 7.24789 79.6864 6.54492 78.8193 6.54492H46.805C45.9379 6.54492 45.235 7.24789 45.235 8.115V30.8587H41.7646V8.115C41.7646 7.24789 41.0617 6.54492 40.1946 6.54492H8.18043C7.31332 6.54492 6.61035 7.24789 6.61035 8.115V37.6549V44.3816C6.61035 45.2487 7.31332 45.9517 8.18043 45.9517H13.8579C14.725 45.9517 15.4279 45.2487 15.4279 44.3816C15.4279 43.5145 14.725 42.8115 13.8579 42.8115H9.75051V39.225H16.4131C21.9677 39.225 26.4866 34.7061 26.4866 29.1517V9.68508H38.6245V32.4288C38.6245 33.2959 39.3274 33.9989 40.1946 33.9989H46.805C47.6721 33.9989 48.3751 33.2959 48.3751 32.4288V9.68508H77.2491V13.7245H73.1028C72.2357 13.7245 71.5327 14.4274 71.5327 15.2945V36.8571C71.5327 37.7242 72.2357 38.4272 73.1028 38.4272H77.2491V42.8115H70.5399C69.6728 42.8115 68.9698 43.5145 68.9698 44.3816V50.9919C68.9698 51.859 69.6728 52.562 70.5399 52.562H77.2491V77.1836H69.7348C68.8677 77.1836 68.1647 77.8866 68.1647 78.7537V85.4296C68.1647 86.2967 68.8677 86.9997 69.7348 86.9997H85.4293C86.2964 86.9997 86.9994 86.2967 86.9994 85.4296V16.0035C86.9999 15.1363 86.2969 14.4334 85.4298 14.4334ZM23.3466 29.1517H23.3465C23.3465 32.9746 20.2362 36.0848 16.4131 36.0848H9.75051V9.68508H10.8961V10.7C10.8961 11.5671 11.5991 12.2701 12.4662 12.2701C13.3333 12.2701 14.0363 11.5671 14.0363 10.7V9.68508H14.9783V13.8402C14.9783 14.7073 15.6813 15.4103 16.5484 15.4103C17.4155 15.4103 18.1185 14.7073 18.1185 13.8402V9.68508H19.0605V10.7C19.0605 11.5671 19.7635 12.2701 20.6306 12.2701C21.4977 12.2701 22.2007 11.5671 22.2007 10.7V9.68508H23.3465V29.1517H23.3466ZM77.2493 35.2872H74.6731V16.8646H77.2493V35.2872Z" fill="#21344D"/>
<path d="M85.4299 0.000976562H1.57008C0.702967 0.000976562 0 0.703943 0 1.57105V85.4307C0 86.2978 0.702967 87.0008 1.57008 87.0008H57.0885C57.9556 87.0008 58.6586 86.2978 58.6586 85.4307V78.7548C58.6586 77.8877 57.9556 77.1848 57.0885 77.1848H48.3752V61.8991C48.3752 61.032 47.6723 60.329 46.8051 60.329H40.1947C39.3276 60.329 38.6246 61.032 38.6246 61.8991V77.1848H9.75063V73.5872H14.5249C16.0004 73.5872 17.3042 72.8436 18.0853 71.7124C19.4508 72.42 21.0198 72.7989 22.6681 72.7989C27.5656 72.7989 31.5501 69.3755 31.5501 65.1675C31.5501 63.9181 31.1926 62.679 30.5163 61.5842C30.0607 60.8468 29.093 60.6177 28.3554 61.0736C27.6176 61.5293 27.389 62.4967 27.8448 63.2345C28.2198 63.8416 28.4097 64.4919 28.4097 65.1675C28.4097 67.6438 25.8339 69.6586 22.6681 69.6586C21.2554 69.6586 19.8999 69.245 18.8505 68.5101V61.8248C19.8999 61.0901 21.2554 60.6763 22.6681 60.6763C23.5823 60.6763 24.4563 60.8413 25.266 61.1664C26.0703 61.4896 26.985 61.0989 27.308 60.2942C27.631 59.4894 27.2405 58.5752 26.4358 58.2522C25.2523 57.777 23.9848 57.536 22.6677 57.536C21.0193 57.536 19.4499 57.9149 18.0839 58.623C17.3028 57.4927 15.9995 56.7496 14.5244 56.7496H9.75063V52.5627H53.0855C53.9526 52.5627 54.6555 51.8598 54.6555 50.9927V44.3824C54.6555 43.5152 53.9526 42.8123 53.0855 42.8123H18.8822C18.0151 42.8123 17.3122 43.5152 17.3122 44.3824C17.3122 45.2495 18.0151 45.9524 18.8822 45.9524H51.5156V49.4226H8.18055C7.31344 49.4226 6.61047 50.1255 6.61047 50.9927V78.7547C6.61047 79.6218 7.31344 80.3247 8.18055 80.3247H40.1948C41.062 80.3247 41.7649 79.6218 41.7649 78.7547V63.469H45.2352V78.7547C45.2352 79.6218 45.9382 80.3247 46.8053 80.3247H55.5186V83.8603H3.14016V3.14113H83.8598V10.4219C83.8598 11.2891 84.5628 11.992 85.4299 11.992C86.297 11.992 87 11.2891 87 10.4219V1.57105C87 0.703943 86.297 0.000976562 85.4299 0.000976562ZM9.75063 59.8904H14.5249V59.8903C15.1788 59.8903 15.7105 60.422 15.7105 61.0758V69.2616C15.7105 69.9152 15.1788 70.4472 14.5249 70.4472H9.75063V59.8904Z" fill="#21344D"/>
<path d="M65.6305 13.7246H54.0393C53.1722 13.7246 52.4692 14.4276 52.4692 15.2947V36.8573C52.4692 37.7244 53.1722 38.4273 54.0393 38.4273H65.6305C66.4976 38.4273 67.2006 37.7244 67.2006 36.8573V31.7283V20.4236V15.2947C67.2006 14.4276 66.4976 13.7246 65.6305 13.7246ZM64.0605 30.1583H61.0656V21.9937H64.0605V30.1583ZM64.0605 18.8535H59.4955C58.6284 18.8535 57.9254 19.5565 57.9254 20.4236V31.7283C57.9254 32.5955 58.6284 33.2984 59.4955 33.2984H64.0605V35.2872H55.6094V16.8648H64.0605V18.8535Z" fill="#21344D"/>
<path d="M22.2302 66.7376C23.0974 66.7376 23.8003 66.0346 23.8003 65.1675C23.8003 64.3004 23.0974 63.5974 22.2302 63.5974C21.3631 63.5974 20.6602 64.3004 20.6602 65.1675C20.6602 66.0346 21.3631 66.7376 22.2302 66.7376Z" fill="#21344D"/>
<path d="M16.5491 31.9483C17.4162 31.9483 18.1192 31.2453 18.1192 30.3782C18.1192 29.5111 17.4162 28.8081 16.5491 28.8081C15.682 28.8081 14.979 29.5111 14.979 30.3782C14.979 31.2453 15.682 31.9483 16.5491 31.9483Z" fill="#21344D"/>
</g>
<defs>
<clipPath id="clip0_1173_18287">
<rect width="87" height="87" fill="white"/>
</clipPath>
</defs>
</svg>
