<svg width="87" height="88" viewBox="0 0 87 88" fill="none" xmlns="http://www.w3.org/2000/svg">
<path d="M83.6383 27.667L44.2164 3.19823C44.0013 3.06482 43.7531 2.99414 43.5 2.99414C43.2469 2.99414 42.9987 3.06482 42.7836 3.19823L3.36173 27.667C3.16507 27.7889 3.0028 27.9591 2.89028 28.1613C2.77776 28.3635 2.71872 28.591 2.71875 28.8225V83.1974C2.71875 83.558 2.86197 83.9037 3.1169 84.1587C3.37183 84.4136 3.7176 84.5568 4.07812 84.5568H82.9219C83.2824 84.5568 83.6282 84.4136 83.8831 84.1587C84.138 83.9037 84.2812 83.558 84.2812 83.1974V28.8225C84.2813 28.591 84.2222 28.3635 84.1097 28.1613C83.9972 27.9591 83.8349 27.7889 83.6383 27.667ZM10.875 35.6193V32.9006H76.125V35.6193H10.875ZM73.4062 38.3381V81.8381H13.5938V38.3381H73.4062ZM81.5625 81.8381H76.125V38.3381H77.4844C77.8449 38.3381 78.1907 38.1949 78.4456 37.9399C78.7005 37.685 78.8438 37.3392 78.8438 36.9787V31.5412C78.8438 31.1807 78.7005 30.8349 78.4456 30.58C78.1907 30.325 77.8449 30.1818 77.4844 30.1818H9.51562C9.1551 30.1818 8.80933 30.325 8.5544 30.58C8.29947 30.8349 8.15625 31.1807 8.15625 31.5412V36.9787C8.15625 37.3392 8.29947 37.685 8.5544 37.9399C8.80933 38.1949 9.1551 38.3381 9.51562 38.3381H10.875V81.8381H5.4375V29.5796L43.5 5.95368L81.5625 29.5796V81.8381Z" fill="#21344D"/>
<path d="M32.625 17.9473V23.3848C32.625 23.7453 32.7682 24.0911 33.0232 24.346C33.2781 24.6009 33.6238 24.7441 33.9844 24.7441H53.0156C53.3762 24.7441 53.7219 24.6009 53.9768 24.346C54.2318 24.0911 54.375 23.7453 54.375 23.3848V17.9473C54.375 17.5867 54.2318 17.241 53.9768 16.986C53.7219 16.7311 53.3762 16.5879 53.0156 16.5879H33.9844C33.6238 16.5879 33.2781 16.7311 33.0232 16.986C32.7682 17.241 32.625 17.5867 32.625 17.9473ZM35.3438 19.3066H51.6562V22.0254H35.3438V19.3066Z" fill="#21344D"/>
<path d="M39.4219 11.1504H47.5781V13.8691H39.4219V11.1504Z" fill="#21344D"/>
<path d="M16.7109 63.2051L18.6331 65.1272L22.3129 61.4474H24.4689V62.8068H27.1876V61.4474H30.0994C30.2207 61.9106 30.4036 62.3555 30.6432 62.7701L28.5674 64.8458L27.6539 63.9323L25.7318 65.8545L26.6452 66.768L25.169 68.2443H20.3908V70.963H24.4689V75.0412H27.1876V70.0699L28.5674 68.6902L29.5761 69.7002L31.4982 67.778L30.4896 66.768L32.5368 64.7208C32.9867 64.9948 33.4745 65.2009 33.9845 65.3325V68.2443H32.6251V70.963H33.9845V73.119L30.3047 76.7988L32.2268 78.721L35.3439 75.6039L38.4609 78.721L40.3831 76.7988L36.7033 73.119V70.963H38.0626V68.2443H36.7033V65.3325C37.1665 65.2112 37.6113 65.0283 38.0259 64.7888L40.1017 66.8645L39.1896 67.778L41.1117 69.7002L42.0239 68.7867L43.5001 70.263V75.0412H46.2189V70.963H50.297V68.2443H45.3258L43.946 66.8645L44.956 65.8545L43.0339 63.9323L42.0239 64.9424L39.9766 62.8951C40.2504 62.4451 40.4565 61.9573 40.5884 61.4474H43.5001V62.8068H46.2189V61.4474H48.3749L52.0547 65.1272L53.9768 63.2051L50.8598 60.088L53.9768 56.971L52.0547 55.0488L48.3749 58.7287H46.2189V57.3693H43.5001V58.7287H40.5884C40.467 58.2654 40.2842 57.8206 40.0446 57.406L42.1204 55.3302L43.0339 56.2437L44.956 54.3216L44.0425 53.4081L45.5188 51.9318H50.297V49.213H46.2189V45.1349H43.5001V50.1061L42.1204 51.4859L41.1117 50.4759L39.1896 52.398L40.1982 53.4081L38.151 55.4553C37.7011 55.1813 37.2133 54.9752 36.7033 54.8436V51.9318H38.0626V49.213H36.7033V47.0571L40.3831 43.3772L38.4609 41.4551L35.3439 44.5721L32.2268 41.4551L30.3047 43.3772L33.9845 47.0571V49.213H32.6251V51.9318H33.9845V54.8436C33.5213 54.9649 33.0764 55.1478 32.6618 55.3873L30.5861 53.3115L31.4982 52.398L29.5761 50.4759L28.6639 51.3894L27.1876 49.9131V45.1349H24.4689V49.213H20.3908V51.9318H25.362L26.7418 53.3115L25.7318 54.3216L27.6539 56.2437L28.6639 55.2337L30.7111 57.2809C30.4374 57.7309 30.2313 58.2187 30.0994 58.7287H27.1876V57.3693H24.4689V58.7287H22.3129L18.6331 55.0488L16.7109 56.971L19.828 60.088L16.7109 63.2051ZM38.0626 60.088C38.0626 60.6257 37.9032 61.1514 37.6044 61.5985C37.3057 62.0456 36.8811 62.3941 36.3843 62.5998C35.8875 62.8056 35.3409 62.8594 34.8135 62.7545C34.2861 62.6496 33.8017 62.3907 33.4214 62.0105C33.0412 61.6303 32.7823 61.1458 32.6774 60.6184C32.5725 60.0911 32.6263 59.5444 32.8321 59.0476C33.0379 58.5508 33.3863 58.1262 33.8334 57.8275C34.2805 57.5287 34.8062 57.3693 35.3439 57.3693C36.0649 57.3693 36.7565 57.6557 37.2663 58.1656C37.7762 58.6754 38.0626 59.367 38.0626 60.088Z" fill="#21344D"/>
<path d="M61.1717 80.4785C62.5967 80.4825 63.9867 80.0373 65.1442 79.2061C66.3016 78.375 67.1677 77.2001 67.6193 75.8485C68.0708 74.497 68.085 73.0375 67.6596 71.6775C67.2342 70.3174 66.391 69.1261 65.2498 68.2727V45.1348C65.2498 44.0532 64.8201 43.0159 64.0553 42.2511C63.2905 41.4863 62.2533 41.0566 61.1717 41.0566C60.0901 41.0566 59.0528 41.4863 58.288 42.2511C57.5232 43.0159 57.0936 44.0532 57.0936 45.1348V68.2727C55.9523 69.1261 55.1091 70.3174 54.6838 71.6775C54.2584 73.0375 54.2725 74.497 54.7241 75.8485C55.1756 77.2001 56.0417 78.375 57.1992 79.2061C58.3567 80.0373 59.7467 80.4825 61.1717 80.4785ZM59.1326 70.1731C59.3389 70.054 59.5102 69.8828 59.6295 69.6767C59.7488 69.4706 59.8118 69.2367 59.8123 68.9986V45.1348C59.8123 44.7742 59.9555 44.4285 60.2105 44.1735C60.4654 43.9186 60.8111 43.7754 61.1717 43.7754C61.5322 43.7754 61.878 43.9186 62.1329 44.1735C62.3878 44.4285 62.5311 44.7742 62.5311 45.1348V68.9986C62.5315 69.2367 62.5946 69.4706 62.7139 69.6767C62.8331 69.8828 63.0045 70.054 63.2107 70.1731C63.8303 70.5257 64.3453 71.0361 64.7035 71.6523C65.0617 72.2686 65.2502 72.9688 65.2498 73.6816C65.2498 74.7632 64.8201 75.8005 64.0553 76.5653C63.2905 77.3301 62.2533 77.7598 61.1717 77.7598C60.0901 77.7598 59.0528 77.3301 58.288 76.5653C57.5232 75.8005 57.0936 74.7632 57.0936 73.6816C57.0932 72.9688 57.2817 72.2686 57.6399 71.6523C57.998 71.0361 58.5131 70.5257 59.1326 70.1731Z" fill="#21344D"/>
<path d="M59.8125 72.3223H62.5312V75.041H59.8125V72.3223Z" fill="#21344D"/>
<path d="M67.9688 45.1348H70.6875V47.8535H67.9688V45.1348Z" fill="#21344D"/>
<path d="M67.9688 50.5723H70.6875V53.291H67.9688V50.5723Z" fill="#21344D"/>
<path d="M67.9688 56.0098H70.6875V58.7285H67.9688V56.0098Z" fill="#21344D"/>
<path d="M67.9688 61.4473H70.6875V64.166H67.9688V61.4473Z" fill="#21344D"/>
</svg>
