<svg width="87" height="88" viewBox="0 0 87 88" fill="none" xmlns="http://www.w3.org/2000/svg">
<g clip-path="url(#clip0_1136_9302)">
<path d="M76.8073 0.275391H27.3631V2.85956H76.8073C78.4697 2.85956 79.8223 4.21214 79.8223 5.87449V67.5898H7.17726V5.87449C7.17726 4.21214 8.52984 2.85956 10.1922 2.85956H23.9175V0.275391H10.1922C7.10488 0.275391 4.59326 2.78701 4.59326 5.87449V67.5898V81.0761V81.0887H9.18676V87.2754H77.8131V81.0887H82.4066V81.0761V67.5898V5.87449C82.4063 2.78701 79.8947 0.275391 76.8073 0.275391ZM79.8223 78.492H75.2288V78.5045H21.5453V81.0887H75.2288V84.6912H11.7708V81.0887H18.4743V78.5045H11.7708V78.492H7.17726V70.1739H79.8223V78.492Z" fill="#21344D"/>
<path d="M77.2382 17.0723H74.6541V30.6252H77.2382V17.0723Z" fill="#21344D"/>
<path d="M77.2382 34.0703H74.6541V65.4369H77.2382V34.0703Z" fill="#21344D"/>
<path d="M17.8928 22.4982V19.9141H11.4854V50.5422L17.9014 50.4988L17.8841 47.9146L14.0695 47.9405V22.4982H17.8928Z" fill="#21344D"/>
<path d="M30.0215 36.5162H40.3798L36.9033 39.9926L32.1938 39.9928V42.577L36.1463 42.5768L36.1465 46.5297H38.7307V41.82L42.2074 38.3432L42.2076 48.7025H44.7918L44.7916 38.3435L48.2685 41.82V46.5297H50.8527V42.577L54.8049 42.5768V39.9926L50.0957 39.9928L46.6189 36.5162H56.9777V33.932H46.6188L50.0957 30.4553L54.8053 30.4554V27.8713L50.8525 27.8711V23.9182H48.2684V28.6279L44.7916 32.1045V21.7461H42.2074V32.1049L38.7307 28.6283L38.7305 23.9182H36.1463L36.1465 27.8713L32.1939 27.8708L32.1936 30.4549L36.9035 30.4556L40.3803 33.932H30.0215V36.5162Z" fill="#21344D"/>
<path d="M21.0224 72.1367H18.4382V76.5387H21.0224V72.1367Z" fill="#21344D"/>
<path d="M26.1926 72.1367H23.6084V76.5387H26.1926V72.1367Z" fill="#21344D"/>
<path d="M31.3608 72.1367H28.7766V76.5387H31.3608V72.1367Z" fill="#21344D"/>
<path d="M58.2224 72.1367H55.6382V76.5387H58.2224V72.1367Z" fill="#21344D"/>
<path d="M63.3908 72.1367H60.8066V76.5387H63.3908V72.1367Z" fill="#21344D"/>
<path d="M68.5588 72.1367H65.9746V76.5387H68.5588V72.1367Z" fill="#21344D"/>
</g>
<defs>
<clipPath id="clip0_1136_9302">
<rect width="87" height="87" fill="white" transform="translate(0 0.275391)"/>
</clipPath>
</defs>
</svg>
