<svg width="85" height="87" viewBox="0 0 85 87" fill="none" xmlns="http://www.w3.org/2000/svg">
<path d="M83.9497 27.8426L43.265 0.235066C42.8035 -0.0784402 42.1972 -0.0782702 41.7354 0.235066L1.05063 27.8426C0.676973 28.0961 0.453186 28.5182 0.453186 28.9699V85.638C0.453186 86.3902 1.06304 87.0002 1.81545 87.0002H83.1849C83.9373 87.0002 84.5472 86.3904 84.5472 85.638V28.9699C84.5472 28.5182 84.3236 28.0961 83.9497 27.8426ZM32.4197 84.2757H17.7079V69.5639H20.7956V76.9198C20.7956 77.672 21.4054 78.2821 22.1578 78.2821H27.97C28.7222 78.2821 29.3323 77.6722 29.3323 76.9198V69.5639H32.4199V84.2757H32.4197ZM14.8019 34.8728V31.7851H70.1986V34.8728H14.8019ZM23.5201 75.5575V69.5639H26.6077V75.5575H23.5201ZM32.4197 66.8393H27.9698H22.1576H17.7077V52.1275H20.7954V59.4834C20.7954 60.2357 21.4052 60.8457 22.1576 60.8457H27.9698C28.7221 60.8457 29.3321 60.2358 29.3321 59.4834V52.1275H32.4197V66.8393ZM23.5201 58.1212V52.1275H26.6077V58.1212H23.5201ZM49.8561 84.2757H35.1443V69.5639H38.2319V76.9198C38.2319 77.672 38.8418 78.2821 39.5942 78.2821H45.4064C46.1588 78.2821 46.7686 77.6722 46.7686 76.9198V69.5639H49.8563V84.2757H49.8561ZM40.9563 75.5575V69.5639H44.0439V75.5575H40.9563ZM81.8228 84.2757H70.017V55.1242C70.017 54.372 69.4073 53.762 68.6547 53.762C67.9023 53.762 67.2925 54.3718 67.2925 55.1242V84.2755H52.5806V68.2016C52.5806 67.4494 51.9709 66.8393 51.2184 66.8393H35.1443V50.7652C35.1443 50.013 34.5344 49.403 33.782 49.403H17.7079V37.5971H67.2925V49.3122C67.2925 50.0645 67.9021 50.6745 68.6547 50.6745C69.4071 50.6745 70.017 50.0647 70.017 49.3122V37.5971H71.5609C72.3133 37.5971 72.9232 36.9873 72.9232 36.2349V30.4229C72.9232 29.6706 72.3135 29.0606 71.5609 29.0606H13.4396C12.6874 29.0606 12.0774 29.6705 12.0774 30.4229V36.2351C12.0774 36.9873 12.6872 37.5973 13.4396 37.5973H14.9835V84.2759H3.17771V29.6917L42.5002 3.00853L81.8226 29.6917V84.2757H81.8228Z" fill="#21344D"/>
</svg>
