<svg width="87" height="87" viewBox="0 0 87 87" fill="none" xmlns="http://www.w3.org/2000/svg">
<g clip-path="url(#clip0_1427_10207)">
<path d="M84.9497 27.8426L44.2649 0.235066C43.8034 -0.0784402 43.1971 -0.0782702 42.7353 0.235066L2.05057 27.8426C1.67691 28.0961 1.45312 28.5182 1.45312 28.9699V85.638C1.45312 86.3902 2.06297 87.0002 2.81539 87.0002H84.1849C84.9373 87.0002 85.5471 86.3904 85.5471 85.638V28.9699C85.5471 28.5182 85.3235 28.0961 84.9497 27.8426ZM33.4197 84.2757H18.7078V69.5639H21.7955V76.9198C21.7955 77.672 22.4053 78.2821 23.1578 78.2821H28.9699C29.7222 78.2821 30.3322 77.6722 30.3322 76.9198V69.5639H33.4198V84.2757H33.4197ZM15.8018 34.8728V31.7851H71.1986V34.8728H15.8018ZM24.52 75.5575V69.5639H27.6077V75.5575H24.52ZM33.4197 66.8393H28.9698H23.1576H18.7077V52.1275H21.7953V59.4834C21.7953 60.2357 22.4052 60.8457 23.1576 60.8457H28.9698C29.722 60.8457 30.332 60.2358 30.332 59.4834V52.1275H33.4197V66.8393ZM24.52 58.1212V52.1275H27.6077V58.1212H24.52ZM50.856 84.2757H36.1442V69.5639H39.2319V76.9198C39.2319 77.672 39.8417 78.2821 40.5941 78.2821H46.4063C47.1587 78.2821 47.7686 77.6722 47.7686 76.9198V69.5639H50.8562V84.2757H50.856ZM41.9562 75.5575V69.5639H45.0439V75.5575H41.9562ZM82.8228 84.2757H71.0169V55.1242C71.0169 54.372 70.4072 53.762 69.6547 53.762C68.9022 53.762 68.2924 54.3718 68.2924 55.1242V84.2755H53.5806V68.2016C53.5806 67.4494 52.9709 66.8393 52.2183 66.8393H36.1442V50.7652C36.1442 50.013 35.5344 49.403 34.7819 49.403H18.7078V37.5971H68.2924V49.3122C68.2924 50.0645 68.9021 50.6745 69.6547 50.6745C70.4071 50.6745 71.0169 50.0647 71.0169 49.3122V37.5971H72.5608C73.3132 37.5971 73.9231 36.9873 73.9231 36.2349V30.4229C73.9231 29.6706 73.3134 29.0606 72.5608 29.0606H14.4396C13.6873 29.0606 13.0773 29.6705 13.0773 30.4229V36.2351C13.0773 36.9873 13.6872 37.5973 14.4396 37.5973H15.9835V84.2759H4.17765V29.6917L43.5001 3.00853L82.8226 29.6917V84.2757H82.8228Z" fill="#21344D"/>
<path d="M49.3116 11.625H37.6875C36.9352 11.625 36.3252 12.2349 36.3252 12.9873C36.3252 13.7397 36.935 14.3495 37.6875 14.3495H49.3116C50.064 14.3495 50.6739 13.7397 50.6739 12.9873C50.6739 12.2349 50.064 11.625 49.3116 11.625Z" fill="#21344D"/>
<path d="M49.3116 17.4375H37.6875C36.9352 17.4375 36.3252 18.0473 36.3252 18.7998C36.3252 19.5522 36.935 20.162 37.6875 20.162H49.3116C50.064 20.162 50.6739 19.5522 50.6739 18.7998C50.6739 18.0473 50.064 17.4375 49.3116 17.4375Z" fill="#21344D"/>
<path d="M49.3116 23.248H37.6875C36.9352 23.248 36.3252 23.8579 36.3252 24.6103C36.3252 25.3627 36.935 25.9726 37.6875 25.9726H49.3116C50.064 25.9726 50.6739 25.3627 50.6739 24.6103C50.6739 23.8579 50.064 23.248 49.3116 23.248Z" fill="#21344D"/>
<path d="M28.9703 62.4805H23.1582C22.4059 62.4805 21.7959 63.0903 21.7959 63.8427C21.7959 64.595 22.4057 65.205 23.1582 65.205H28.9703C29.7226 65.205 30.3326 64.5951 30.3326 63.8427C30.3324 63.0903 29.7226 62.4805 28.9703 62.4805Z" fill="#21344D"/>
<path d="M28.9703 79.916H23.1582C22.4059 79.916 21.7959 80.5259 21.7959 81.2783C21.7959 82.0305 22.4057 82.6405 23.1582 82.6405H28.9703C29.7226 82.6405 30.3326 82.0307 30.3326 81.2783C30.3324 80.526 29.7226 79.916 28.9703 79.916Z" fill="#21344D"/>
<path d="M46.4059 79.916H40.5937C39.8415 79.916 39.2314 80.5259 39.2314 81.2783C39.2314 82.0305 39.8413 82.6405 40.5937 82.6405H46.4059C47.1583 82.6405 47.7681 82.0307 47.7681 81.2783C47.7681 80.526 47.1585 79.916 46.4059 79.916Z" fill="#21344D"/>
</g>
<defs>
<clipPath id="clip0_1427_10207">
<rect width="87" height="87" fill="white"/>
</clipPath>
</defs>
</svg>
