<svg width="23" height="24" viewBox="0 0 23 24" fill="none" xmlns="http://www.w3.org/2000/svg">
<path d="M11 21.8286H2.74998C2.24398 21.8286 1.83334 21.3891 1.83334 20.8478V3.19256C1.83334 2.65113 2.24402 2.21174 2.74998 2.21174H11C11.5069 2.21174 11.9167 1.77331 11.9167 1.23091C11.9167 0.688514 11.5069 0.25 11 0.25H2.74998C1.23382 0.25 0 1.57025 0 3.19256V20.8477C0 22.47 1.23382 23.7902 2.74998 23.7902H11C11.5069 23.7902 11.9167 23.3518 11.9167 22.8094C11.9167 22.267 11.5069 21.8286 11 21.8286Z" fill="white"/>
<path d="M22.7265 11.3216L17.1531 5.43655C16.7938 5.05598 16.2126 5.06091 15.857 5.44638C15.5013 5.83184 15.505 6.45271 15.8661 6.83329L19.849 11.0391H7.84328C7.33637 11.0391 6.92664 11.4776 6.92664 12.02C6.92664 12.5624 7.33637 13.0008 7.84328 13.0008H19.849L15.8661 17.2067C15.505 17.5872 15.5022 18.2081 15.857 18.5936C16.0366 18.7878 16.2731 18.8859 16.5096 18.8859C16.7425 18.8859 16.9753 18.7917 17.1531 18.6034L22.7265 12.7183C22.9006 12.5339 22.9996 12.2828 22.9996 12.0199C22.9996 11.7572 22.9016 11.507 22.7265 11.3216Z" fill="white"/>
</svg>
