<svg width="36" height="47" viewBox="0 0 36 47" fill="none" xmlns="http://www.w3.org/2000/svg">
<path d="M28.4056 29.2124C28.4956 29.0009 28.5917 28.8148 28.7033 28.7032C28.9677 28.4407 29.5885 28.2527 30.1897 28.0706C31.1884 27.767 32.3223 27.4244 32.8922 26.4393C33.4542 25.468 33.1878 24.3243 32.9549 23.3157C32.8099 22.6969 32.6611 22.0565 32.7629 21.6825C32.851 21.3398 33.3074 20.856 33.7088 20.4292C34.4314 19.6596 35.25 18.7882 35.25 17.625C35.25 16.4617 34.4314 15.5903 33.7088 14.8207C33.3074 14.3937 32.853 13.91 32.7629 13.5693C32.663 13.1952 32.8118 12.5529 32.9549 11.9341C33.1879 10.9256 33.4542 9.78195 32.8922 8.80863C32.3223 7.82356 31.1903 7.48088 30.1897 7.17933C29.5885 6.9972 28.9696 6.8092 28.7052 6.54676C28.4408 6.28431 28.2548 5.66358 28.0726 5.06231C27.7711 4.06356 27.4283 2.93162 26.4433 2.36175C25.4662 1.79582 24.3264 2.06212 23.3159 2.29712C22.6971 2.44005 22.0587 2.58894 21.6827 2.48907C21.34 2.397 20.8562 1.94269 20.4294 1.54127C19.6598 0.818551 18.7882 0 17.625 0C16.4637 0 15.5922 0.818551 14.8226 1.54117C14.3937 1.9426 13.9101 2.397 13.5673 2.48898C13.1913 2.59078 12.5509 2.44005 11.9341 2.29703C10.9216 2.06203 9.77986 1.79765 8.80663 2.35973C7.82358 2.9296 7.48081 4.06155 7.17926 5.06222C6.99713 5.6634 6.80913 6.28422 6.54669 6.54667C6.28231 6.80911 5.66149 6.99711 5.06032 7.17924C4.06157 7.48281 2.9277 7.82549 2.35782 8.81056C1.79575 9.78186 2.06214 10.9256 2.29512 11.9341C2.44007 12.5529 2.58887 13.1933 2.48707 13.5674C2.39895 13.91 1.94263 14.3938 1.5412 14.8207C0.818666 15.5903 2.33339e-05 16.4636 2.33339e-05 17.625C2.33339e-05 18.7863 0.818575 19.6596 1.5412 20.4293C1.94263 20.8562 2.39702 21.3399 2.48707 21.6806C2.58695 22.0547 2.43814 22.697 2.29512 23.3158C2.06205 24.3244 1.79575 25.468 2.35782 26.4413C2.9277 27.4264 4.05964 27.7691 5.06032 28.0706C5.66149 28.2527 6.28039 28.4407 6.54476 28.7032C6.65639 28.8148 6.75231 28.9989 6.84246 29.2104L0.0744702 45.6467C-0.0822268 46.0247 0.0137927 46.4594 0.311398 46.7376C0.497469 46.9099 0.736325 47 0.979219 47C1.12802 47 1.27692 46.9667 1.41792 46.8943L8.7421 43.2322L14.1452 46.8336C14.3938 46.9981 14.7052 47.0392 14.9892 46.9511C15.2732 46.859 15.5004 46.6437 15.6042 46.3636L17.7427 40.6609L19.6325 46.3303C19.7304 46.6201 19.9575 46.8473 20.2454 46.9471C20.5333 47.0451 20.8505 47.0059 21.1051 46.8355L26.5082 43.2341L33.8323 46.8962C33.9733 46.9667 34.1221 47 34.271 47C34.5138 47 34.7528 46.91 34.9368 46.7396C35.2345 46.4615 35.3305 46.0268 35.1738 45.6488L28.4056 29.2124ZM16.7085 37.8408L14.2038 44.5187L9.35502 41.2875C9.05935 41.0936 8.68528 41.0682 8.3739 41.2268L2.87877 43.9743L7.85681 31.8816C8.09181 32.2811 8.38161 32.6414 8.80663 32.8882C9.78381 33.4541 10.9256 33.1878 11.9341 32.9528C12.5509 32.8099 13.1894 32.6571 13.5673 32.7609C13.91 32.8529 14.3937 33.3072 14.8206 33.7087C15.0967 33.9672 15.3924 34.2276 15.7018 34.4685C15.7097 34.5056 15.7038 34.5429 15.7155 34.5801L16.7691 37.7428C16.7516 37.7781 16.7223 37.8036 16.7085 37.8408ZM17.6231 33.2916C17.2372 33.2916 16.6654 32.7551 16.1602 32.2811C15.5374 31.6936 14.8912 31.0885 14.0726 30.8692C13.8083 30.7987 13.542 30.7693 13.2736 30.7693C12.6803 30.7693 12.0791 30.9103 11.4935 31.0455C10.8668 31.1923 10.0913 31.3725 9.78977 31.1943C9.47445 31.0121 9.2512 30.2738 9.05347 29.6217C8.80278 28.7894 8.54428 27.9297 7.93135 27.3187C7.32035 26.7077 6.46068 26.4473 5.62835 26.1966C4.97623 26.0008 4.23791 25.7775 4.05386 25.4622C3.87954 25.1586 4.05973 24.3831 4.20468 23.7585C4.4025 22.9047 4.60611 22.0234 4.38093 21.1754C4.15961 20.3568 3.55448 19.7125 2.969 19.0878C2.49313 18.5826 1.95658 18.0108 1.95658 17.625C1.95658 17.2391 2.49515 16.6673 2.969 16.1621C3.55458 15.5393 4.16163 14.8931 4.38093 14.0745C4.60611 13.2285 4.4025 12.3473 4.20468 11.4935C4.05973 10.8688 3.87963 10.0933 4.05386 9.79168C4.23791 9.47636 4.97623 9.25311 5.63028 9.05538C6.4626 8.80468 7.32035 8.54425 7.93328 7.93325C8.54235 7.32418 8.80278 6.46258 9.0554 5.63219C9.25322 4.98006 9.47647 4.23981 9.78977 4.05769C10.0972 3.88539 10.8708 4.06356 11.4916 4.20851C12.3415 4.40633 13.2208 4.61196 14.0726 4.38476C14.8912 4.16546 15.5374 3.55832 16.1622 2.97284C16.6655 2.49889 17.2373 1.96234 17.6232 1.96234C18.009 1.96234 18.5808 2.49889 19.086 2.97284C19.7088 3.56033 20.355 4.16546 21.1736 4.38476C22.0235 4.61196 22.9048 4.40633 23.7527 4.20851C24.3774 4.06164 25.1549 3.88346 25.4564 4.05971C25.7718 4.24183 25.995 4.98015 26.1927 5.63228C26.4434 6.4646 26.7019 7.32428 27.3149 7.93527C27.9259 8.54627 28.7855 8.8067 29.6179 9.0574C30.27 9.2532 31.0083 9.47645 31.1924 9.79177C31.3667 10.0953 31.1865 10.8708 31.0415 11.4955C30.8437 12.3493 30.6401 13.2306 30.8653 14.0786C31.0866 14.8971 31.6917 15.5415 32.2772 16.1661C32.7531 16.6714 33.2896 17.2432 33.2896 17.629C33.2896 18.0148 32.7511 18.5866 32.2772 19.0919C31.6916 19.7146 31.0846 20.3609 30.8653 21.1794C30.6401 22.0254 30.8437 22.9067 31.0415 23.7605C31.1865 24.3852 31.3666 25.1607 31.1924 25.4623C31.0083 25.7776 30.27 26.0009 29.6159 26.1986C28.7836 26.4493 27.9259 26.7097 27.3129 27.3207C26.7039 27.9298 26.4434 28.7914 26.1908 29.6218C25.993 30.2739 25.7697 31.0142 25.4564 31.1963C25.1549 31.3706 24.3774 31.1904 23.7546 31.0455C22.9047 30.8476 22.0254 30.642 21.1736 30.8692C20.355 31.0885 19.7088 31.6957 19.084 32.2811C18.5807 32.755 18.0089 33.2916 17.6231 33.2916ZM26.8742 41.2287C26.5609 41.0701 26.1849 41.0936 25.8931 41.2894L21.0854 44.4952L17.9835 35.1893C18.9627 35.0405 19.742 34.3531 20.4275 33.7088C20.8563 33.3073 21.34 32.8529 21.6828 32.761C22.0607 32.6611 22.6991 32.8099 23.316 32.9529C24.3284 33.1879 25.4702 33.4523 26.4434 32.8902C26.8664 32.6454 27.1562 32.2832 27.3912 31.8837L32.3693 43.9763L26.8742 41.2287Z" fill="#21344D"/>
<path d="M29.375 17.625C29.375 11.1449 24.1051 5.875 17.625 5.875C11.1449 5.875 5.875 11.1449 5.875 17.625C5.875 24.1051 11.1449 29.375 17.625 29.375C24.1051 29.375 29.375 24.1051 29.375 17.625ZM17.625 27.4167C12.2259 27.4167 7.8333 23.0241 7.8333 17.625C7.8333 12.2259 12.2259 7.8333 17.625 7.8333C23.0241 7.8333 27.4167 12.2259 27.4167 17.625C27.4167 23.0241 23.0241 27.4167 17.625 27.4167Z" fill="#21344D"/>
</svg>
