<svg width="87" height="87" viewBox="0 0 87 87" fill="none" xmlns="http://www.w3.org/2000/svg">
<g clip-path="url(#clip0_1173_17997)">
<path d="M48.9375 63.4375H38.0625C37.062 63.4375 36.25 62.6255 36.25 61.625C36.25 60.6245 37.062 59.8125 38.0625 59.8125H48.9375C49.938 59.8125 50.75 60.6245 50.75 61.625C50.75 62.6255 49.938 63.4375 48.9375 63.4375Z" fill="#21344D"/>
<path d="M48.9375 72.5H41.6875C38.6896 72.5 36.25 70.0604 36.25 67.0625V56.1875C36.25 53.1896 38.6896 50.75 41.6875 50.75H48.9375C49.938 50.75 50.75 51.562 50.75 52.5625C50.75 53.563 49.938 54.375 48.9375 54.375H41.6875C40.687 54.375 39.875 55.187 39.875 56.1875V67.0625C39.875 68.063 40.687 68.875 41.6875 68.875H48.9375C49.938 68.875 50.75 69.687 50.75 70.6875C50.75 71.688 49.938 72.5 48.9375 72.5Z" fill="#21344D"/>
<path d="M27.1875 72.5001C26.564 72.5001 25.9659 72.1775 25.6324 71.6193L18.125 59.1058V70.6876C18.125 71.6881 17.313 72.5001 16.3125 72.5001C15.312 72.5001 14.5 71.6881 14.5 70.6876V52.5627C14.5 51.747 15.0438 51.0329 15.8304 50.8154C16.6097 50.5979 17.4507 50.9314 17.8676 51.631L25.375 64.1445V52.5627C25.375 51.5622 26.187 50.7502 27.1875 50.7502C28.188 50.7502 29 51.5622 29 52.5627V70.6876C29 71.5033 28.4562 72.2174 27.6696 72.4349C27.5101 72.4784 27.347 72.5001 27.1875 72.5001Z" fill="#21344D"/>
<path d="M70.6875 72.5C70.0132 72.5 69.3789 72.123 69.0671 71.4995L65.25 63.8652L61.4329 71.4959C61.0559 72.2499 60.204 72.6269 59.3956 72.4492C58.58 72.2607 58 71.5285 58 70.6875V52.5625C58 51.562 58.812 50.75 59.8125 50.75C60.813 50.75 61.625 51.562 61.625 52.5625V63.0098L63.6296 59.0041C64.2459 57.7753 66.2577 57.7753 66.874 59.0041L68.875 63.0098V52.5625C68.875 51.562 69.687 50.75 70.6875 50.75C71.688 50.75 72.5 51.562 72.5 52.5625V70.6875C72.5 71.5285 71.92 72.2607 71.1044 72.4529C70.9666 72.4855 70.8252 72.5 70.6875 72.5Z" fill="#21344D"/>
<path d="M43.5 25.375C37.5043 25.375 32.625 20.4958 32.625 14.5C32.625 8.50425 37.5043 3.625 43.5 3.625C49.4958 3.625 54.375 8.50425 54.375 14.5C54.375 20.4958 49.4958 25.375 43.5 25.375ZM43.5 7.25C39.5016 7.25 36.25 10.5016 36.25 14.5C36.25 18.4984 39.5016 21.75 43.5 21.75C47.4984 21.75 50.75 18.4984 50.75 14.5C50.75 10.5016 47.4984 7.25 43.5 7.25Z" fill="#21344D"/>
<path d="M77.9375 83.375H9.0625C4.06725 83.375 0 79.3078 0 74.3125V45.3125C0 40.3172 4.06725 36.25 9.0625 36.25H77.9375C82.9327 36.25 87 40.3172 87 45.3125V74.3125C87 79.3078 82.9327 83.375 77.9375 83.375ZM9.0625 39.875C6.06462 39.875 3.625 42.3146 3.625 45.3125V74.3125C3.625 77.3104 6.06462 79.75 9.0625 79.75H77.9375C80.9354 79.75 83.375 77.3104 83.375 74.3125V45.3125C83.375 42.3146 80.9354 39.875 77.9375 39.875H9.0625Z" fill="#21344D"/>
<path d="M23.5627 39.8749C23.3089 39.8749 23.0515 39.8206 22.805 39.7082C21.8952 39.2877 21.5 38.2111 21.9169 37.3012L32.7919 13.7387C33.2124 12.8324 34.289 12.4373 35.1989 12.8506C36.1088 13.2711 36.5039 14.3477 36.087 15.2576L25.212 38.8201C24.9039 39.4871 24.2442 39.8749 23.5627 39.8749Z" fill="#21344D"/>
<path d="M63.4375 39.8749C62.7524 39.8749 62.0962 39.487 61.7881 38.82L50.9131 15.2575C50.4926 14.3513 50.8914 13.271 51.8012 12.8505C52.7111 12.4336 53.7877 12.8288 54.2082 13.7386L65.0832 37.3011C65.5037 38.2074 65.105 39.2876 64.1951 39.7081C63.9522 39.8205 63.6912 39.8749 63.4375 39.8749Z" fill="#21344D"/>
</g>
<defs>
<clipPath id="clip0_1173_17997">
<rect width="87" height="87" fill="white"/>
</clipPath>
</defs>
</svg>
