<svg width="86" height="86" viewBox="0 0 86 86" fill="none" xmlns="http://www.w3.org/2000/svg">
<path d="M84.7 70.2266C84.0047 70.2266 83.4414 70.7901 83.4414 71.4851V84.6578C83.4414 86.281 85.9585 86.281 85.9585 84.6578V71.4851C85.9585 70.7901 85.3952 70.2266 84.7 70.2266Z" fill="#21344D"/>
<path d="M84.6995 41.843H74.8168V37.305H77.8392C79.679 37.305 81.1756 35.8084 81.1756 33.9686V3.33663C81.1756 1.49682 79.679 0 77.8392 0H30.886C29.0462 0 27.5496 1.49682 27.5496 3.33663V7.85545C27.5496 9.47863 30.0666 9.47863 30.0666 7.85545V3.33663C30.0666 2.88473 30.4341 2.51707 30.886 2.51707H77.8393C78.2911 2.51707 78.6587 2.88473 78.6587 3.33663V27.7403H74.817V14.3315C74.817 13.9162 74.6121 13.5278 74.2695 13.2932C73.927 13.0586 73.4907 13.0081 73.1034 13.1581C72.7742 13.2858 65.8307 16.1214 64.353 27.7402H30.0666V14.3997C30.0666 12.7765 27.5496 12.7765 27.5496 14.3997V33.9686C27.5496 35.8084 29.0462 37.305 30.886 37.305H47.7917V41.843H19.2164C22.004 39.0584 22.2761 34.649 22.2761 30.9442C22.2761 30.2492 21.7128 29.6857 21.0176 29.6857H14.2215V27.3097C18.2589 28.1679 22.6601 24.8571 22.6062 20.6571C22.599 20.0946 22.5292 19.5231 22.0095 19.1799C19.6189 17.6021 16.3266 18.2595 14.2215 19.9825V17.7123C17.8181 15.23 18.0852 9.38432 14.6291 6.65581C14.2809 6.38095 13.8956 6.11934 13.4823 5.95086C11.7085 5.22662 9.75856 8.38622 9.33586 9.60582C8.33726 12.4877 9.24055 15.8022 11.7043 17.6309V19.9686C10.0888 18.6542 7.97899 18.006 5.91785 18.4188C5.06607 18.5894 3.57345 18.9749 3.38769 20.0074C2.58927 24.4502 7.62224 28.1699 11.7044 27.3134V29.6857H4.40492C3.7097 29.6857 3.14638 30.2492 3.14638 30.9442C3.14638 34.6438 3.34708 39.0588 6.13432 41.843H1.30053C0.605313 41.843 0.0419922 42.4065 0.0419922 43.1015V84.6576C0.0419922 86.2807 2.55907 86.2807 2.55907 84.6576V78.7844H25.2966V84.6576C25.2966 86.2807 27.8137 86.2807 27.8137 84.6576V52.6068H72.3181C72.3246 53.0453 72.3666 55.4072 72.3718 56.115H51.0725C46.0969 56.115 42.4104 57.4101 40.1151 59.9642C37.3594 63.0307 37.7222 66.7479 37.7392 66.9045C37.8077 67.544 38.3473 68.0289 38.9905 68.0289H55.2498V70.2943H50.2995C48.6764 70.2943 48.6764 72.8114 50.2995 72.8114H55.2498V83.399H39.1405C37.5173 83.399 37.5173 85.9161 39.1405 85.9161H56.0595C56.1991 85.9695 56.3499 86 56.5083 86C56.6667 86 56.8176 85.9695 56.9572 85.9161H73.8761C75.4993 85.9161 75.4993 83.399 73.8761 83.399H57.7669V68.0291H66.1749C69.0642 68.0291 71.1527 67.3326 72.5602 65.8997C75.0268 63.3885 74.9516 59.1838 74.8565 53.8602C74.8491 53.4484 74.8419 53.0295 74.8355 52.6067H83.441V64.4371C83.441 66.0602 85.9581 66.0602 85.9581 64.4371V43.1015C85.9581 42.4065 85.3948 41.843 84.6995 41.843ZM16.3234 21.5623C17.9431 20.5346 19.3521 20.7768 20.0858 21.0359C19.8643 23.6447 16.6926 25.5431 14.2683 24.7214C14.37 23.914 14.7798 22.5416 16.3234 21.5623ZM7.95802 24.1802C6.88877 23.5017 5.97926 22.3335 5.86163 21.0352C8.38206 20.1492 11.346 22.1122 11.6744 24.7214C10.4519 25.1358 9.02962 24.86 7.95802 24.1802ZM13.0279 8.58641C15.1355 10.1896 15.0411 13.8486 13.0205 15.4755C12.3971 14.9628 11.4568 13.8845 11.4568 12.0454C11.4566 10.1274 12.4161 9.06734 13.0279 8.58641ZM5.68124 32.2028H19.7401C19.527 39.0014 17.4979 41.6837 12.7111 41.6837C7.85868 41.6839 5.88529 39.0878 5.68124 32.2028ZM70.7645 64.1359C69.8549 65.062 68.3537 65.512 66.1749 65.512H40.2754C40.3918 64.5072 40.7798 62.9906 41.9875 61.6466C43.785 59.6462 46.8416 58.632 51.0726 58.632H72.3395C72.2355 61.0986 71.8626 63.0179 70.7645 64.1359ZM78.6586 30.2574V33.9687C78.6586 34.4206 78.2911 34.7881 77.8392 34.7881H74.8168V30.2574H78.6586ZM70.3314 18.6864C71.0167 17.7811 71.7057 17.1074 72.2998 16.6187V48.1431C71.7078 47.6358 71.0238 46.9439 70.3433 46.025C67.8909 42.7127 66.5944 37.9622 66.5944 32.2865C66.5944 26.6192 67.8868 21.9163 70.3314 18.6864ZM64.4158 37.3052C64.6561 38.9992 65.012 40.5064 65.4458 41.8432H60.9335V37.3052H64.4158ZM30.0666 33.9686V30.2572H64.1299C64.0512 31.7661 64.0602 33.2802 64.1582 34.788H30.886C30.4341 34.7881 30.0666 34.4205 30.0666 33.9686ZM50.3088 37.3052H58.4164V41.8432H50.3088V37.3052ZM66.4342 44.3601C67.7456 47.1624 69.3734 48.9727 70.6905 50.0898H2.55907V44.3601H66.4342ZM2.55907 76.2673V65.6956H25.2966V76.2673H2.55907ZM25.2966 63.1785H2.55907V52.6068H25.2966V63.1785ZM74.8168 50.0898V44.3601H83.441V50.0898H74.8168Z" fill="#21344D"/>
<path d="M9.18711 59.1519H18.752C20.3752 59.1519 20.3752 56.6348 18.752 56.6348H9.18711C7.56393 56.6348 7.56393 59.1519 9.18711 59.1519Z" fill="#21344D"/>
<path d="M18.752 69.7227H9.18711C7.56393 69.7227 7.56393 72.2398 9.18711 72.2398H18.752C20.3752 72.2398 20.3752 69.7227 18.752 69.7227Z" fill="#21344D"/>
</svg>
