<svg width="77" height="87" viewBox="0 0 77 87" fill="none" xmlns="http://www.w3.org/2000/svg">
<path d="M73.3 61.1668V49.3C73.288 38.8944 64.8556 30.462 54.45 30.45H42.5876C42.382 29.8439 42.0386 29.294 41.5842 28.8434C40.7749 28.0107 39.6613 27.5437 38.5 27.55C36.6632 27.5576 35.0291 28.7182 34.4168 30.45H31.25C30.4492 30.45 29.8 29.8008 29.8 29V25.8332C32.0551 25.0475 33.2463 22.5825 32.4608 20.3276C32.0265 19.0811 31.0466 18.1011 29.8 17.6668V0H3.70001V17.6625C3.09427 17.8685 2.54472 18.2124 2.09486 18.6673C1.26074 19.4751 0.792937 20.5887 0.800006 21.75C0.807618 23.5868 1.96816 25.2209 3.70001 25.8332V37.7C3.71197 48.1056 12.1444 56.538 22.55 56.55H34.4168C35.2025 58.8051 37.6675 59.9963 39.9225 59.2108C41.1689 58.7765 42.1489 57.7966 42.5832 56.55H45.75C46.5508 56.55 47.2 57.1992 47.2 58V61.1668C44.9449 61.9525 43.7537 64.4175 44.5393 66.6724C44.9735 67.9189 45.9534 68.8989 47.2 69.3332V87H73.3V69.3376C73.9056 69.1313 74.4549 68.7873 74.9052 68.3327C75.7393 67.5249 76.2071 66.4113 76.2 65.25C76.1924 63.4132 75.0319 61.7791 73.3 61.1668ZM6.60001 2.9H26.9V17.4H6.60001V2.9ZM3.70001 21.75C3.69928 21.359 3.86041 20.9853 4.14516 20.7176C4.40887 20.4466 4.77192 20.2957 5.15001 20.3H28.35C29.1508 20.3 29.8 20.9492 29.8 21.75C29.8 22.5508 29.1508 23.2 28.35 23.2H5.15001C4.34924 23.2 3.70001 22.5508 3.70001 21.75ZM34.15 53.65H22.55C13.7454 53.6397 6.61034 46.5046 6.60001 37.7V26.1H26.9V29C26.9 31.4025 28.8475 33.35 31.25 33.35H34.15V53.65ZM39.95 55.1C39.95 55.9008 39.3008 56.55 38.5 56.55C37.6992 56.55 37.05 55.9008 37.05 55.1V31.9C37.05 31.0992 37.6992 30.45 38.5 30.45C38.8911 30.4487 39.2654 30.6093 39.5339 30.8937C39.8028 31.1592 39.9529 31.5221 39.95 31.9V55.1ZM45.75 53.65H42.85V33.35H54.45C63.2546 33.3603 70.3897 40.4954 70.4 49.3V60.9H50.1V58C50.1 55.5975 48.1525 53.65 45.75 53.65ZM70.4 84.1H50.1V69.6H70.4V84.1ZM72.8563 66.2824C72.5919 66.553 72.2283 66.7038 71.85 66.7H48.65C47.8492 66.7 47.2 66.0508 47.2 65.25C47.2 64.4492 47.8492 63.8 48.65 63.8H71.85C72.6508 63.8 73.3 64.4492 73.3 65.25C73.3006 65.6406 73.1401 66.014 72.8563 66.2824Z" fill="#21344D"/>
</svg>
