<svg width="87" height="87" viewBox="0 0 87 87" fill="none" xmlns="http://www.w3.org/2000/svg">
<g clip-path="url(#clip0_1427_10295)">
<mask id="path-1-inside-1_1427_10295" fill="white">
<path d="M80.1949 33.621C80.1949 31.349 79.0679 29.2376 77.1795 27.9738L47.2766 7.95362C44.9794 6.41636 42.0117 6.41636 39.7145 7.95362L9.81163 27.9738C7.92391 29.2376 6.79619 31.349 6.79619 33.621V83.6018C6.79619 85.4783 5.27487 86.9996 3.39843 86.9996C1.52133 86.9996 0 85.4783 0 83.6018V33.621C0 29.077 2.25478 24.8548 6.03022 22.3266L35.9337 2.30638C40.5269 -0.768795 46.4642 -0.768795 51.0574 2.30638L80.9603 22.3266C84.737 24.8548 86.9911 29.077 86.9911 33.621C86.9911 35.4975 85.4698 37.0188 83.5927 37.0188C81.7163 37.0188 80.1949 35.4975 80.1949 33.621ZM83.5927 47.2075C81.7163 47.2075 80.1949 48.7288 80.1949 50.6052V83.6018C80.1949 85.4783 81.7163 86.9996 83.5927 86.9996C85.4698 86.9996 86.9911 85.4783 86.9911 83.6018V50.6052C86.9911 48.7288 85.4698 47.2075 83.5927 47.2075ZM70.0415 56.8512C72.2113 59.1139 73.3988 62.0006 73.3988 65.0824V83.6018C73.3988 85.4783 71.8774 86.9996 70.0003 86.9996H61.0157C59.1393 86.9996 57.618 85.4783 57.618 83.6018V81.9026H29.3732V83.6018C29.3732 85.4783 27.8518 86.9996 25.9754 86.9996H16.9908C15.1137 86.9996 13.5924 85.4783 13.5924 83.6018V65.1607C13.5924 62.0351 14.8343 59.177 16.8786 56.9846C16.9284 56.8638 16.9842 56.7443 17.0492 56.6268L23.4319 45.1226C25.8128 40.8712 30.4803 38.2375 35.6204 38.2375H51.3654C56.5095 38.2375 61.1797 40.8746 63.5519 45.1193L69.9831 56.731C70.0043 56.7702 70.0216 56.8113 70.0415 56.8512ZM29.3685 48.4314L27.0115 52.6788H59.9703L57.6133 48.4235C56.465 46.3685 54.0098 45.0337 51.3654 45.0337H35.6204C32.978 45.0337 30.5241 46.3671 29.3685 48.4314ZM66.6026 65.0817C66.6026 61.9906 63.6429 59.475 60.0055 59.475H26.9863C23.3483 59.475 20.3886 62.0258 20.3886 65.1607V75.1064H33.053L35.8786 70.9779C36.5119 70.0526 37.5613 69.4997 38.683 69.4997H48.4435C49.5328 69.4997 50.5556 70.0214 51.1948 70.9029L54.2421 75.1064H66.6026V65.0817ZM58.6169 64.0629C56.7405 64.0629 55.2192 65.5842 55.2192 67.4606C55.2192 69.3377 56.7405 70.8591 58.6169 70.8591C60.494 70.8591 62.0153 69.3377 62.0153 67.4606C62.0153 65.5842 60.494 64.0629 58.6169 64.0629ZM28.2043 64.0629C26.3272 64.0629 24.8059 65.5842 24.8059 67.4606C24.8059 69.3377 26.3272 70.8591 28.2043 70.8591C30.0807 70.8591 31.6021 69.3377 31.6021 67.4606C31.6021 65.5842 30.0807 64.0629 28.2043 64.0629Z"/>
</mask>
<path d="M80.1949 33.621C80.1949 31.349 79.0679 29.2376 77.1795 27.9738L47.2766 7.95362C44.9794 6.41636 42.0117 6.41636 39.7145 7.95362L9.81163 27.9738C7.92391 29.2376 6.79619 31.349 6.79619 33.621V83.6018C6.79619 85.4783 5.27487 86.9996 3.39843 86.9996C1.52133 86.9996 0 85.4783 0 83.6018V33.621C0 29.077 2.25478 24.8548 6.03022 22.3266L35.9337 2.30638C40.5269 -0.768795 46.4642 -0.768795 51.0574 2.30638L80.9603 22.3266C84.737 24.8548 86.9911 29.077 86.9911 33.621C86.9911 35.4975 85.4698 37.0188 83.5927 37.0188C81.7163 37.0188 80.1949 35.4975 80.1949 33.621ZM83.5927 47.2075C81.7163 47.2075 80.1949 48.7288 80.1949 50.6052V83.6018C80.1949 85.4783 81.7163 86.9996 83.5927 86.9996C85.4698 86.9996 86.9911 85.4783 86.9911 83.6018V50.6052C86.9911 48.7288 85.4698 47.2075 83.5927 47.2075ZM70.0415 56.8512C72.2113 59.1139 73.3988 62.0006 73.3988 65.0824V83.6018C73.3988 85.4783 71.8774 86.9996 70.0003 86.9996H61.0157C59.1393 86.9996 57.618 85.4783 57.618 83.6018V81.9026H29.3732V83.6018C29.3732 85.4783 27.8518 86.9996 25.9754 86.9996H16.9908C15.1137 86.9996 13.5924 85.4783 13.5924 83.6018V65.1607C13.5924 62.0351 14.8343 59.177 16.8786 56.9846C16.9284 56.8638 16.9842 56.7443 17.0492 56.6268L23.4319 45.1226C25.8128 40.8712 30.4803 38.2375 35.6204 38.2375H51.3654C56.5095 38.2375 61.1797 40.8746 63.5519 45.1193L69.9831 56.731C70.0043 56.7702 70.0216 56.8113 70.0415 56.8512ZM29.3685 48.4314L27.0115 52.6788H59.9703L57.6133 48.4235C56.465 46.3685 54.0098 45.0337 51.3654 45.0337H35.6204C32.978 45.0337 30.5241 46.3671 29.3685 48.4314ZM66.6026 65.0817C66.6026 61.9906 63.6429 59.475 60.0055 59.475H26.9863C23.3483 59.475 20.3886 62.0258 20.3886 65.1607V75.1064H33.053L35.8786 70.9779C36.5119 70.0526 37.5613 69.4997 38.683 69.4997H48.4435C49.5328 69.4997 50.5556 70.0214 51.1948 70.9029L54.2421 75.1064H66.6026V65.0817ZM58.6169 64.0629C56.7405 64.0629 55.2192 65.5842 55.2192 67.4606C55.2192 69.3377 56.7405 70.8591 58.6169 70.8591C60.494 70.8591 62.0153 69.3377 62.0153 67.4606C62.0153 65.5842 60.494 64.0629 58.6169 64.0629ZM28.2043 64.0629C26.3272 64.0629 24.8059 65.5842 24.8059 67.4606C24.8059 69.3377 26.3272 70.8591 28.2043 70.8591C30.0807 70.8591 31.6021 69.3377 31.6021 67.4606C31.6021 65.5842 30.0807 64.0629 28.2043 64.0629Z" fill="#21344D"/>
<path d="M77.1795 27.9738L76.345 29.2202L76.3452 29.2204L77.1795 27.9738ZM47.2766 7.95362L48.1111 6.70718L48.1109 6.70698L47.2766 7.95362ZM39.7145 7.95362L38.8803 6.70698L38.88 6.70718L39.7145 7.95362ZM9.81163 27.9738L10.6461 29.2203L10.6461 29.2202L9.81163 27.9738ZM6.03022 22.3266L5.19573 21.0801L5.19559 21.0802L6.03022 22.3266ZM35.9337 2.30638L36.7682 3.55283L36.7682 3.55282L35.9337 2.30638ZM51.0574 2.30638L50.2229 3.55282V3.55282L51.0574 2.30638ZM80.9603 22.3266L80.1257 23.573L80.1258 23.5731L80.9603 22.3266ZM70.0415 56.8512L68.6998 57.522L68.8015 57.7253L68.9588 57.8894L70.0415 56.8512ZM57.618 81.9026H59.118V80.4026H57.618V81.9026ZM29.3732 81.9026V80.4026H27.8732V81.9026H29.3732ZM16.8786 56.9846L17.9757 58.0076L18.1616 57.8082L18.2655 57.5561L16.8786 56.9846ZM17.0492 56.6268L15.7376 55.8991L15.7369 55.9002L17.0492 56.6268ZM23.4319 45.1226L22.1231 44.3897L22.1202 44.3949L23.4319 45.1226ZM63.5519 45.1193L64.8641 44.3925L64.8613 44.3875L63.5519 45.1193ZM69.9831 56.731L71.3017 56.0158L71.2952 56.0043L69.9831 56.731ZM29.3685 48.4314L28.0597 47.6987L28.0569 47.7036L29.3685 48.4314ZM27.0115 52.6788L25.6999 51.951L24.4637 54.1788H27.0115V52.6788ZM59.9703 52.6788V54.1788H62.5159L61.2825 51.952L59.9703 52.6788ZM57.6133 48.4235L58.9255 47.6967L58.9228 47.6918L57.6133 48.4235ZM20.3886 75.1064H18.8886V76.6064H20.3886V75.1064ZM33.053 75.1064V76.6064H33.8441L34.2909 75.9536L33.053 75.1064ZM35.8786 70.9779L37.1165 71.8251L37.1165 71.825L35.8786 70.9779ZM51.1948 70.9029L52.4093 70.0225L52.4091 70.0223L51.1948 70.9029ZM54.2421 75.1064L53.0276 75.9868L53.4768 76.6064H54.2421V75.1064ZM66.6026 75.1064V76.6064H68.1026V75.1064H66.6026ZM81.6949 33.621C81.6949 30.8486 80.3183 28.2695 78.0138 26.7272L76.3452 29.2204C77.8174 30.2057 78.6949 31.8494 78.6949 33.621H81.6949ZM78.014 26.7274L48.1111 6.70718L46.4422 9.20006L76.345 29.2202L78.014 26.7274ZM48.1109 6.70698C45.3088 4.8319 41.6824 4.8319 38.8803 6.70698L40.5487 9.20025C42.3411 8.00081 44.65 8.00081 46.4424 9.20025L48.1109 6.70698ZM38.88 6.70718L8.97713 26.7274L10.6461 29.2202L40.549 9.20006L38.88 6.70718ZM8.97716 26.7274C6.67365 28.2695 5.29619 30.8484 5.29619 33.621H8.29619C8.29619 31.8496 9.17418 30.2057 10.6461 29.2203L8.97716 26.7274ZM5.29619 33.621V83.6018H8.29619V33.621H5.29619ZM5.29619 83.6018C5.29619 84.6498 4.44644 85.4996 3.39843 85.4996V88.4996C6.10329 88.4996 8.29619 86.3067 8.29619 83.6018H5.29619ZM3.39843 85.4996C2.34956 85.4996 1.5 84.6497 1.5 83.6018H-1.5C-1.5 86.3069 0.69309 88.4996 3.39843 88.4996V85.4996ZM1.5 83.6018V33.621H-1.5V83.6018H1.5ZM1.5 33.621C1.5 29.5776 3.50509 25.8228 6.86485 23.5729L5.19559 21.0802C1.00447 23.8868 -1.5 28.5764 -1.5 33.621H1.5ZM6.86471 23.573L36.7682 3.55283L35.0992 1.05994L5.19573 21.0801L6.86471 23.573ZM36.7682 3.55282C40.8564 0.815726 46.1347 0.815726 50.2229 3.55282L51.8919 1.05995C46.7937 -2.35332 40.1974 -2.35332 35.0992 1.05995L36.7682 3.55282ZM50.2229 3.55282L80.1257 23.573L81.7948 21.0801L51.8919 1.05995L50.2229 3.55282ZM80.1258 23.5731C83.4866 25.8229 85.4911 29.5775 85.4911 33.621H88.4911C88.4911 28.5765 85.9874 23.8868 81.7947 21.0801L80.1258 23.5731ZM85.4911 33.621C85.4911 34.6689 84.6416 35.5188 83.5927 35.5188V38.5188C86.298 38.5188 88.4911 36.3261 88.4911 33.621H85.4911ZM83.5927 35.5188C82.5447 35.5188 81.6949 34.6691 81.6949 33.621H78.6949C78.6949 36.3259 80.8878 38.5188 83.5927 38.5188V35.5188ZM83.5927 45.7075C80.8878 45.7075 78.6949 47.9004 78.6949 50.6052H81.6949C81.6949 49.5572 82.5447 48.7075 83.5927 48.7075V45.7075ZM78.6949 50.6052V83.6018H81.6949V50.6052H78.6949ZM78.6949 83.6018C78.6949 86.3067 80.8878 88.4996 83.5927 88.4996V85.4996C82.5447 85.4996 81.6949 84.6498 81.6949 83.6018H78.6949ZM83.5927 88.4996C86.298 88.4996 88.4911 86.3069 88.4911 83.6018H85.4911C85.4911 84.6497 84.6416 85.4996 83.5927 85.4996V88.4996ZM88.4911 83.6018V50.6052H85.4911V83.6018H88.4911ZM88.4911 50.6052C88.4911 47.9002 86.298 45.7075 83.5927 45.7075V48.7075C84.6416 48.7075 85.4911 49.5574 85.4911 50.6052H88.4911ZM68.9588 57.8894C70.8696 59.882 71.8988 62.4 71.8988 65.0824H74.8988C74.8988 61.6012 73.553 58.3459 71.1241 55.813L68.9588 57.8894ZM71.8988 65.0824V83.6018H74.8988V65.0824H71.8988ZM71.8988 83.6018C71.8988 84.6497 71.0492 85.4996 70.0003 85.4996V88.4996C72.7057 88.4996 74.8988 86.3069 74.8988 83.6018H71.8988ZM70.0003 85.4996H61.0157V88.4996H70.0003V85.4996ZM61.0157 85.4996C59.9677 85.4996 59.118 84.6498 59.118 83.6018H56.118C56.118 86.3067 58.3109 88.4996 61.0157 88.4996V85.4996ZM59.118 83.6018V81.9026H56.118V83.6018H59.118ZM57.618 80.4026H29.3732V83.4026H57.618V80.4026ZM27.8732 81.9026V83.6018H30.8732V81.9026H27.8732ZM27.8732 83.6018C27.8732 84.6498 27.0234 85.4996 25.9754 85.4996V88.4996C28.6803 88.4996 30.8732 86.3067 30.8732 83.6018H27.8732ZM25.9754 85.4996H16.9908V88.4996H25.9754V85.4996ZM16.9908 85.4996C15.9419 85.4996 15.0924 84.6497 15.0924 83.6018H12.0924C12.0924 86.3069 14.2855 88.4996 16.9908 88.4996V85.4996ZM15.0924 83.6018V65.1607H12.0924V83.6018H15.0924ZM15.0924 65.1607C15.0924 62.4447 16.1691 59.9449 17.9757 58.0076L15.7816 55.9616C13.4994 58.409 12.0924 61.6255 12.0924 65.1607H15.0924ZM18.2655 57.5561C18.2977 57.4778 18.3293 57.4116 18.3615 57.3534L15.7369 55.9002C15.6391 56.077 15.5591 56.2497 15.4918 56.4131L18.2655 57.5561ZM18.3609 57.3545L24.7435 45.8503L22.1202 44.3949L15.7376 55.8991L18.3609 57.3545ZM24.7406 45.8555C26.8383 42.1099 30.9855 39.7375 35.6204 39.7375V36.7375C29.9752 36.7375 24.7873 39.6326 22.1232 44.3897L24.7406 45.8555ZM35.6204 39.7375H51.3654V36.7375H35.6204V39.7375ZM51.3654 39.7375C56.005 39.7375 60.1538 42.1137 62.2425 45.8511L64.8613 44.3875C62.2055 39.6355 57.014 36.7375 51.3654 36.7375V39.7375ZM62.2397 45.846L68.6709 57.4578L71.2952 56.0043L64.8641 44.3925L62.2397 45.846ZM68.6645 57.4462C68.6581 57.4343 68.6539 57.4259 68.6525 57.4231C68.6513 57.4207 68.6515 57.421 68.6548 57.4279C68.6565 57.4316 68.6581 57.4349 68.6609 57.4409C68.6633 57.4462 68.6667 57.4534 68.6703 57.461C68.6774 57.4762 68.6877 57.4976 68.6998 57.522L71.3831 56.1803C71.3853 56.1848 71.3859 56.1861 71.3836 56.1812C71.3787 56.1709 71.38 56.1735 71.3708 56.1538C71.3593 56.1294 71.3343 56.0761 71.3016 56.0159L68.6645 57.4462ZM28.0569 47.7036L25.6999 51.951L28.3231 53.4066L30.6801 49.1593L28.0569 47.7036ZM27.0115 54.1788H59.9703V51.1788H27.0115V54.1788ZM61.2825 51.952L58.9255 47.6967L56.3012 49.1502L58.6581 53.4056L61.2825 51.952ZM58.9228 47.6918C57.4728 45.097 54.4739 43.5337 51.3654 43.5337V46.5337C53.5457 46.5337 55.4572 47.64 56.3039 49.1551L58.9228 47.6918ZM51.3654 43.5337H35.6204V46.5337H51.3654V43.5337ZM35.6204 43.5337C32.5122 43.5337 29.5162 45.0969 28.0597 47.6987L30.6774 49.1641C31.5321 47.6374 33.4438 46.5337 35.6204 46.5337V43.5337ZM68.1026 65.0817C68.1026 60.9427 64.2333 57.975 60.0055 57.975V60.975C63.0524 60.975 65.1026 63.0385 65.1026 65.0817H68.1026ZM60.0055 57.975H26.9863V60.975H60.0055V57.975ZM26.9863 57.975C22.737 57.975 18.8886 60.9957 18.8886 65.1607H21.8886C21.8886 63.0558 23.9595 60.975 26.9863 60.975V57.975ZM18.8886 65.1607V75.1064H21.8886V65.1607H18.8886ZM20.3886 76.6064H33.053V73.6064H20.3886V76.6064ZM34.2909 75.9536L37.1165 71.8251L34.6408 70.1307L31.8152 74.2592L34.2909 75.9536ZM37.1165 71.825C37.4698 71.3088 38.0557 70.9997 38.683 70.9997V67.9997C37.0668 67.9997 35.5539 68.7964 34.6408 70.1307L37.1165 71.825ZM38.683 70.9997H48.4435V67.9997H38.683V70.9997ZM48.4435 70.9997C49.0522 70.9997 49.6235 71.2912 49.9805 71.7834L52.4091 70.0223C51.4877 68.7516 50.0133 67.9997 48.4435 67.9997V70.9997ZM49.9803 71.7833L53.0276 75.9868L55.4566 74.226L52.4093 70.0225L49.9803 71.7833ZM54.2421 76.6064H66.6026V73.6064H54.2421V76.6064ZM68.1026 75.1064V65.0817H65.1026V75.1064H68.1026ZM58.6169 62.5629C55.912 62.5629 53.7192 64.7558 53.7192 67.4606H56.7192C56.7192 66.4126 57.5689 65.5629 58.6169 65.5629V62.5629ZM53.7192 67.4606C53.7192 70.166 55.9119 72.3591 58.6169 72.3591V69.3591C57.5691 69.3591 56.7192 68.5095 56.7192 67.4606H53.7192ZM58.6169 72.3591C61.3224 72.3591 63.5153 70.1662 63.5153 67.4606H60.5153C60.5153 68.5093 59.6656 69.3591 58.6169 69.3591V72.3591ZM63.5153 67.4606C63.5153 64.7556 61.3223 62.5629 58.6169 62.5629V65.5629C59.6658 65.5629 60.5153 66.4128 60.5153 67.4606H63.5153ZM28.2043 62.5629C25.499 62.5629 23.3059 64.7556 23.3059 67.4606H26.3059C26.3059 66.4128 27.1554 65.5629 28.2043 65.5629V62.5629ZM23.3059 67.4606C23.3059 70.1662 25.4988 72.3591 28.2043 72.3591V69.3591C27.1556 69.3591 26.3059 68.5093 26.3059 67.4606H23.3059ZM28.2043 72.3591C30.9094 72.3591 33.1021 70.166 33.1021 67.4606H30.1021C30.1021 68.5095 29.2521 69.3591 28.2043 69.3591V72.3591ZM33.1021 67.4606C33.1021 64.7558 30.9092 62.5629 28.2043 62.5629V65.5629C29.2523 65.5629 30.1021 66.4126 30.1021 67.4606H33.1021Z" fill="white" mask="url(#path-1-inside-1_1427_10295)"/>
</g>
<defs>
<clipPath id="clip0_1427_10295">
<rect width="87" height="87" fill="white"/>
</clipPath>
</defs>
</svg>
