<svg width="87" height="88" viewBox="0 0 87 88" fill="none" xmlns="http://www.w3.org/2000/svg">
<g clip-path="url(#clip0_1136_9012)">
<path d="M80.1949 33.8632C80.1949 31.5912 79.0679 29.4798 77.1795 28.216L47.2766 8.1958C44.9794 6.65855 42.0117 6.65855 39.7145 8.1958L9.81163 28.216C7.92391 29.4798 6.79619 31.5912 6.79619 33.8632V83.844C6.79619 85.7205 5.27487 87.2418 3.39843 87.2418C1.52133 87.2418 0 85.7205 0 83.844V33.8632C0 29.3192 2.25478 25.097 6.03022 22.5688L35.9337 2.54857C40.5269 -0.526607 46.4642 -0.526607 51.0574 2.54857L80.9603 22.5688C84.737 25.097 86.9911 29.3192 86.9911 33.8632C86.9911 35.7397 85.4698 37.261 83.5927 37.261C81.7163 37.261 80.1949 35.7397 80.1949 33.8632ZM83.5927 47.4496C81.7163 47.4496 80.1949 48.971 80.1949 50.8474V83.844C80.1949 85.7205 81.7163 87.2418 83.5927 87.2418C85.4698 87.2418 86.9911 85.7205 86.9911 83.844V50.8474C86.9911 48.971 85.4698 47.4496 83.5927 47.4496ZM70.0415 57.0933C72.2113 59.3561 73.3988 62.2428 73.3988 65.3246V83.844C73.3988 85.7205 71.8774 87.2418 70.0003 87.2418H61.0157C59.1393 87.2418 57.618 85.7205 57.618 83.844V82.1448H29.3732V83.844C29.3732 85.7205 27.8518 87.2418 25.9754 87.2418H16.9908C15.1137 87.2418 13.5924 85.7205 13.5924 83.844V65.4029C13.5924 62.2773 14.8343 59.4191 16.8786 57.2268C16.9284 57.106 16.9842 56.9865 17.0492 56.869L23.4319 45.3648C25.8128 41.1134 30.4803 38.4796 35.6204 38.4796H51.3654C56.5095 38.4796 61.1797 41.1167 63.5519 45.3615L69.9831 56.9732C70.0043 57.0124 70.0216 57.0535 70.0415 57.0933ZM29.3685 48.6736L27.0115 52.921H59.9703L57.6133 48.6656C56.465 46.6107 54.0098 45.2758 51.3654 45.2758H35.6204C32.978 45.2758 30.5241 46.6093 29.3685 48.6736ZM66.6026 65.3239C66.6026 62.2328 63.6429 59.7172 60.0055 59.7172H26.9863C23.3483 59.7172 20.3886 62.268 20.3886 65.4029V75.3486H33.053L35.8786 71.2201C36.5119 70.2948 37.5613 69.7419 38.683 69.7419H48.4435C49.5328 69.7419 50.5556 70.2636 51.1948 71.1451L54.2421 75.3486H66.6026V65.3239ZM58.6169 64.305C56.7405 64.305 55.2192 65.8264 55.2192 67.7028C55.2192 69.5799 56.7405 71.1012 58.6169 71.1012C60.494 71.1012 62.0153 69.5799 62.0153 67.7028C62.0153 65.8264 60.494 64.305 58.6169 64.305ZM28.2043 64.305C26.3272 64.305 24.8059 65.8264 24.8059 67.7028C24.8059 69.5799 26.3272 71.1012 28.2043 71.1012C30.0807 71.1012 31.6021 69.5799 31.6021 67.7028C31.6021 65.8264 30.0807 64.305 28.2043 64.305Z" fill="#21344D"/>
</g>
<defs>
<clipPath id="clip0_1136_9012">
<rect width="87" height="87" fill="white" transform="translate(0 0.242188)"/>
</clipPath>
</defs>
</svg>
