<svg width="87" height="87" viewBox="0 0 87 87" fill="none" xmlns="http://www.w3.org/2000/svg">
<path d="M59.4501 15.95C60.2505 15.95 60.9001 15.3019 60.9001 14.5V5.8C60.9001 4.99815 60.2505 4.35 59.4501 4.35H56.5501V0H30.4501V4.35H27.5501C26.7497 4.35 26.1001 4.99815 26.1001 5.8V14.5C26.1001 15.3019 26.7497 15.95 27.5501 15.95H30.4501V71.05H27.5501C26.7497 71.05 26.1001 71.6982 26.1001 72.5V81.2C26.1001 82.0019 26.7497 82.65 27.5501 82.65H30.4501V87H56.5501V82.65H59.4501C60.2505 82.65 60.9001 82.0019 60.9001 81.2V72.5C60.9001 71.6982 60.2505 71.05 59.4501 71.05H56.5501V15.95H59.4501ZM33.3501 2.9H53.6501V4.35H33.3501V2.9ZM29.0001 13.05V7.25H30.4501H56.5501H58.0001V13.05H56.5501H30.4501H29.0001ZM53.6501 84.1H33.3501V82.65H53.6501V84.1ZM58.0001 79.75H56.5501H30.4501H29.0001V73.95H58.0001V79.75ZM53.6501 71.05H33.3501V15.95H53.6501V71.05Z" fill="black"/>
</svg>
