<svg width="87" height="87" viewBox="0 0 87 87" fill="none" xmlns="http://www.w3.org/2000/svg">
<g clip-path="url(#clip0_1173_17994)">
<path d="M77.6507 18.4411V13.7305C77.6507 13.1671 77.4147 12.6515 77.0438 12.2808C76.6681 11.9051 76.1575 11.674 75.594 11.674H71.365C70.7964 11.674 70.286 11.9051 69.9103 12.2808C69.5393 12.6517 69.3081 13.1671 69.3081 13.7305V18.4413H77.6507V18.4411ZM24.3775 41.3444C23.8815 40.8436 23.8815 40.039 24.3775 39.5429C24.8737 39.0421 25.6828 39.0421 26.179 39.5429L27.3399 40.7038L30.5623 37.4766C31.0585 36.9804 31.8677 36.9804 32.3638 37.4766C32.8648 37.9775 32.8648 38.782 32.3638 39.2829L28.2408 43.406C27.7445 43.9022 26.9353 43.9022 26.4392 43.406L24.3775 41.3444ZM72.203 26.6392C72.203 25.9359 72.7714 25.3627 73.4795 25.3627C74.1828 25.3627 74.751 25.9359 74.751 26.6392V53.3862C74.751 54.0894 74.1826 54.6627 73.4795 54.6627C72.7714 54.6627 72.203 54.0894 72.203 53.3862V26.6392ZM52.1123 69.7582H59.954V64.2911H52.1123V69.7582ZM61.2256 72.3062C47.3727 72.3062 33.5147 72.3062 19.6618 72.3062C18.9585 72.3062 18.3854 71.7329 18.3854 71.0295V63.0147C18.3854 62.3114 18.9585 61.7431 19.6618 61.7431H28.78V54.4795C28.78 53.7764 29.3484 53.2081 30.0515 53.2081H40.446C41.1493 53.2081 41.7177 53.7765 41.7177 54.4795V56.7434H50.8357C51.539 56.7434 52.1122 57.3165 52.1122 58.0198V61.7431H61.2254C61.9287 61.7431 62.5019 62.3115 62.5019 63.0147V71.0295C62.502 71.7329 61.9289 72.3062 61.2256 72.3062ZM41.7179 69.7582H49.5596V59.2963H41.7179V69.7582ZM31.3282 69.7582H39.1697V58.0198V55.7561H31.3282V69.7582ZM20.9335 69.7582H28.7802V64.2911H20.9335V69.7582ZM15.558 25.3629H66.7553V19.7128V13.7305C66.7553 12.4638 67.2755 11.3127 68.1088 10.4793C68.9421 9.64596 70.0933 9.12566 71.365 9.12566H75.594C76.8608 9.12566 78.012 9.64596 78.8453 10.4793C79.6786 11.3126 80.1987 12.4638 80.1987 13.7305V19.7128V25.3629H85.7283C86.4316 25.3629 86.9998 25.936 86.9998 26.6393V76.6025C86.9998 77.3058 86.4314 77.8742 85.7283 77.8742H50.4457C49.7424 77.8742 49.1742 77.3056 49.1742 76.6025C49.1742 75.8993 49.7426 75.326 50.4457 75.326H84.452V27.9109H80.1989V37.1252C80.1989 37.8285 79.6256 38.4017 78.9224 38.4017C78.2191 38.4017 77.6507 37.8285 77.6507 37.1252V26.6393V20.9894H69.3081V26.6393V59.0363H77.6507V42.9003C77.6507 42.197 78.2191 41.6239 78.9224 41.6239C79.6256 41.6239 80.1989 42.197 80.1989 42.9003V60.3078C80.1989 60.6161 80.117 60.7703 79.9821 61.0303L74.6163 71.5981C74.496 71.8341 74.3033 72.0363 74.0479 72.1665C73.4217 72.4844 72.6606 72.229 72.3427 71.603L66.9576 61.0064C66.8323 60.7511 66.7553 60.6067 66.7553 60.308V27.9109H15.558V37.5538C15.558 38.2571 14.9897 38.8304 14.2864 38.8304C13.583 38.8304 13.0099 38.2571 13.0099 37.5538V26.6393V12.7046C11.9165 12.0208 10.6835 11.674 9.3926 11.674C7.50443 11.674 5.79451 12.4398 4.5517 13.6777C3.31382 14.9203 2.54781 16.6303 2.54781 18.5184V62.0516C2.61527 61.9792 2.68273 61.907 2.75002 61.8397C4.45042 60.1393 6.80095 59.0893 9.39243 59.0893C10.4281 59.0893 11.43 59.2628 12.3788 59.5758C12.5909 59.648 12.8028 59.7299 13.0097 59.8166V43.3292C13.0097 42.6259 13.5829 42.0528 14.2862 42.0528C14.9895 42.0528 15.5579 42.6259 15.5579 43.3292V62.0035C15.5579 62.2684 15.4712 62.538 15.2977 62.7695C14.8787 63.3282 14.079 63.4388 13.5156 63.015C12.9328 62.572 12.2728 62.2203 11.5696 61.989C10.8954 61.7627 10.1632 61.6375 9.3926 61.6375C7.50443 61.6375 5.79451 62.4035 4.5517 63.6413C3.31382 64.8791 2.54781 66.5939 2.54781 68.4819C2.54781 70.375 3.31365 72.0848 4.5517 73.3226C5.79434 74.5605 7.50426 75.3264 9.3926 75.3264H44.6752C45.3785 75.3264 45.9467 75.8997 45.9467 76.6028C45.9467 77.3061 45.3783 77.8745 44.6752 77.8745H9.3926C6.80112 77.8745 4.45059 76.8244 2.75019 75.1242C1.04995 73.4237 0 71.078 0 68.4817V18.5183C0 15.9268 1.04995 13.5763 2.75019 11.876C4.45059 10.1756 6.80112 9.12549 9.3926 9.12549C11.4011 9.12549 13.3759 9.78054 14.9895 10.9753C15.3315 11.2064 15.5579 11.5965 15.5579 12.0398V25.3629H15.558ZM76.8511 61.5843H70.103L73.4795 68.2265L76.8511 61.5843ZM59.8191 33.084C60.5224 33.084 61.0907 33.6571 61.0907 34.3604C61.0907 35.0637 60.5223 35.6319 59.8191 35.6319H42.5704C41.8671 35.6319 41.2988 35.0636 41.2988 34.3604C41.2988 33.6571 41.8672 33.084 42.5704 33.084H59.8191ZM52.6471 45.2509C53.3551 45.2509 53.9235 45.8193 53.9235 46.5224C53.9235 47.2255 53.3551 47.7989 52.6471 47.7989H42.5705C41.8672 47.7989 41.299 47.2257 41.299 46.5224C41.299 45.8191 41.8674 45.2509 42.5705 45.2509H52.6471ZM59.8191 39.1673C60.5224 39.1673 61.0907 39.7359 61.0907 40.4438C61.0907 41.1471 60.5223 41.7155 59.8191 41.7155H42.5704C41.8671 41.7155 41.2988 41.1469 41.2988 40.4438C41.2988 39.7359 41.8672 39.1673 42.5704 39.1673H59.8191ZM21.0732 31.8653H35.6727C36.376 31.8653 36.9442 32.4384 36.9442 33.1417V47.7411C36.9442 48.4444 36.3759 49.0175 35.6727 49.0175H21.0732C20.3651 49.0175 19.7967 48.4444 19.7967 47.7411V33.1417C19.7967 32.4384 20.3651 31.8653 21.0732 31.8653ZM34.3964 34.4182H22.3449V46.4696H34.3964V34.4182Z" fill="#21344D"/>
</g>
<defs>
<clipPath id="clip0_1173_17994">
<rect width="87" height="87" fill="white"/>
</clipPath>
</defs>
</svg>
