<svg width="20" height="19" viewBox="0 0 20 19" fill="none" xmlns="http://www.w3.org/2000/svg">
<path d="M19.1666 8.77389H10.8333V0.907728C10.8333 0.473275 10.4602 0.121094 9.99995 0.121094C9.5397 0.121094 9.16661 0.473275 9.16661 0.907728V8.77393H0.833346C0.373094 8.77389 0 9.12607 0 9.56052C0 9.99498 0.373094 10.3472 0.833346 10.3472H9.16665V18.2134C9.16665 18.6478 9.53975 19 10 19C10.4603 19 10.8333 18.6478 10.8333 18.2134V10.3472H19.1667C19.6269 10.3472 20 9.99498 20 9.56052C20 9.12607 19.6268 8.77389 19.1666 8.77389Z" fill="white"/>
</svg>
