<svg width="87" height="87" viewBox="0 0 87 87" fill="none" xmlns="http://www.w3.org/2000/svg">
<g clip-path="url(#clip0_1427_10093)">
<path d="M38.278 27.2588C38.278 26.5548 37.7074 25.9844 37.0035 25.9844H27.2593C26.5555 25.9844 25.9849 26.5548 25.9849 27.2588V46.7473C25.9849 47.4513 26.5555 48.0217 27.2593 48.0217H37.0035C37.7074 48.0217 38.278 47.4513 38.278 46.7473V27.2588ZM35.7291 45.4729H28.5337V35.0292H35.7291V45.4729ZM35.7291 32.4804H28.5337V28.5331H35.7291V32.4804Z" fill="#21344D"/>
<path d="M20.7633 58.4668H11.0191C10.3152 58.4668 9.74463 59.0372 9.74463 59.7412V79.2297C9.74463 79.9337 10.3152 80.5042 11.0191 80.5042H20.7633C21.4671 80.5042 22.0377 79.9337 22.0377 79.2297V59.7412C22.0377 59.0374 21.4671 58.4668 20.7633 58.4668ZM19.4889 77.9555H12.2935V67.5118H19.4889V77.9555ZM19.4889 64.963H12.2935V61.0158H19.4889V64.963Z" fill="#21344D"/>
<path d="M37.0035 58.4668H27.2593C26.5555 58.4668 25.9849 59.0372 25.9849 59.7412V79.2297C25.9849 79.9337 26.5555 80.5042 27.2593 80.5042H37.0035C37.7074 80.5042 38.278 79.9337 38.278 79.2297V59.7412C38.278 59.0374 37.7074 58.4668 37.0035 58.4668ZM35.7291 77.9555H28.5337V67.5118H35.7291V77.9555ZM35.7291 64.963H28.5337V61.0158H35.7291V64.963Z" fill="#21344D"/>
<path d="M4.52296 71.2294C5.22678 71.2294 5.79738 70.659 5.79738 69.955V22.7092L24.0113 10.5665L42.2254 22.7094V50.0077C42.2254 50.7117 42.796 51.2821 43.4998 51.2821C44.2036 51.2821 44.7742 50.7117 44.7742 50.0077V22.7092L62.9883 10.5663L81.2023 22.709V30.9762C81.2023 31.6801 81.7729 32.2506 82.4768 32.2506C83.1806 32.2506 83.7512 31.6801 83.7512 30.9762L83.7466 14.2635C83.7466 13.8374 83.5337 13.4394 83.1791 13.2032L63.6953 0.214103C63.2671 -0.0713677 62.7094 -0.0713677 62.2816 0.214103L43.5001 12.7352L24.7183 0.214103C24.2901 -0.0713677 23.7324 -0.0713677 23.3046 0.214103L3.81608 13.2066C3.46162 13.443 3.24854 13.8408 3.24854 14.2669V69.9552C3.24854 70.659 3.81914 71.2294 4.52296 71.2294ZM44.7744 14.949L62.9884 2.80611L81.1979 14.9456V19.6421L63.6953 7.97382C63.2671 7.68835 62.7096 7.68835 62.2816 7.97382L44.7744 19.6453V14.949ZM5.79738 14.949L24.0115 2.80611L42.2208 14.9456V19.6419L24.7183 7.97382C24.2901 7.68835 23.7326 7.68835 23.3046 7.97382L5.79738 19.6453V14.949Z" fill="#21344D"/>
<path d="M82.4769 35.2578C81.7731 35.2578 81.2025 35.8282 81.2025 36.5322V84.4523H44.7744V55.5636C44.7744 54.8598 44.2038 54.2892 43.4999 54.2892C42.7961 54.2892 42.2255 54.8598 42.2255 55.5636V84.4523H5.79738V75.5109C5.79738 74.8069 5.22678 74.2365 4.52296 74.2365C3.81914 74.2365 3.24854 74.8069 3.24854 75.5109V85.7267C3.24854 86.4307 3.81914 87.0011 4.52296 87.0011H82.4769C83.1807 87.0011 83.7514 86.4307 83.7514 85.7267V36.5322C83.7514 35.8284 83.1807 35.2578 82.4769 35.2578Z" fill="#21344D"/>
<path d="M61.0148 27.2588C61.0148 26.5548 60.4442 25.9844 59.7403 25.9844H49.9961C49.2923 25.9844 48.7217 26.5548 48.7217 27.2588V46.7473C48.7217 47.4513 49.2923 48.0217 49.9961 48.0217H59.7403C60.4442 48.0217 61.0148 47.4513 61.0148 46.7473V27.2588ZM58.4659 45.4729H51.2705V35.0292H58.4659V45.4729ZM58.4659 32.4804H51.2705V28.5331H58.4659V32.4804Z" fill="#21344D"/>
<path d="M77.256 27.2588C77.256 26.5548 76.6854 25.9844 75.9816 25.9844H66.2373C65.5335 25.9844 64.9629 26.5548 64.9629 27.2588V46.7473C64.9629 47.4513 65.5335 48.0217 66.2373 48.0217H75.9816C76.6854 48.0217 77.256 47.4513 77.256 46.7473V27.2588ZM74.7071 45.4729H67.5117V35.0292H74.7071V45.4729ZM74.7071 32.4804H67.5117V28.5331H74.7071V32.4804Z" fill="#21344D"/>
<path d="M59.7403 58.4668H49.9961C49.2923 58.4668 48.7217 59.0372 48.7217 59.7412V79.2297C48.7217 79.9337 49.2923 80.5042 49.9961 80.5042H59.7403C60.4442 80.5042 61.0148 79.9337 61.0148 79.2297V59.7412C61.0148 59.0374 60.4443 58.4668 59.7403 58.4668ZM58.4659 77.9555H51.2705V67.5118H58.4659V77.9555ZM58.4659 64.963H51.2705V61.0158H58.4659V64.963Z" fill="#21344D"/>
<path d="M75.9816 58.4668H66.2373C65.5335 58.4668 64.9629 59.0372 64.9629 59.7412V79.2297C64.9629 79.9337 65.5335 80.5042 66.2373 80.5042H75.9816C76.6854 80.5042 77.256 79.9337 77.256 79.2297V59.7412C77.256 59.0374 76.6854 58.4668 75.9816 58.4668ZM74.7071 77.9555H67.5117V67.5118H74.7071V77.9555ZM74.7071 64.963H67.5117V61.0158H74.7071V64.963Z" fill="#21344D"/>
<path d="M22.0377 27.2588C22.0377 26.5548 21.4671 25.9844 20.7633 25.9844H11.0191C10.3152 25.9844 9.74463 26.5548 9.74463 27.2588V46.7473C9.74463 47.4513 10.3152 48.0217 11.0191 48.0217H20.7633C21.4671 48.0217 22.0377 47.4513 22.0377 46.7473V27.2588ZM19.4889 45.4729H12.2935V35.0292H19.4889V45.4729ZM19.4889 32.4804H12.2935V28.5331H19.4889V32.4804Z" fill="#21344D"/>
</g>
<defs>
<clipPath id="clip0_1427_10093">
<rect width="87" height="87" fill="white"/>
</clipPath>
</defs>
</svg>
