<svg width="81" height="87" viewBox="0 0 81 87" fill="none" xmlns="http://www.w3.org/2000/svg">
<path d="M35.2777 27.2588C35.2777 26.5548 34.7071 25.9844 34.0033 25.9844H24.259C23.5552 25.9844 22.9846 26.5548 22.9846 27.2588V46.7473C22.9846 47.4513 23.5552 48.0217 24.259 48.0217H34.0033C34.7071 48.0217 35.2777 47.4513 35.2777 46.7473V27.2588ZM32.7289 45.4729H25.5335V35.0292H32.7289V45.4729ZM32.7289 32.4804H25.5335V28.5331H32.7289V32.4804Z" fill="#21344D"/>
<path d="M17.7632 58.4668H8.01899C7.31517 58.4668 6.74457 59.0372 6.74457 59.7412V79.2297C6.74457 79.9337 7.31517 80.5042 8.01899 80.5042H17.7632C18.4671 80.5042 19.0377 79.9337 19.0377 79.2297V59.7412C19.0377 59.0374 18.4671 58.4668 17.7632 58.4668ZM16.4888 77.9555H9.29342V67.5118H16.4888V77.9555ZM16.4888 64.963H9.29342V61.0158H16.4888V64.963Z" fill="#21344D"/>
<path d="M34.0033 58.4668H24.259C23.5552 58.4668 22.9846 59.0372 22.9846 59.7412V79.2297C22.9846 79.9337 23.5552 80.5042 24.259 80.5042H34.0033C34.7071 80.5042 35.2777 79.9337 35.2777 79.2297V59.7412C35.2777 59.0374 34.7071 58.4668 34.0033 58.4668ZM32.7289 77.9555H25.5335V67.5118H32.7289V77.9555ZM32.7289 64.963H25.5335V61.0158H32.7289V64.963Z" fill="#21344D"/>
<path d="M1.52284 71.2294C2.22666 71.2294 2.79726 70.659 2.79726 69.955V22.7092L21.0112 10.5665L39.2252 22.7094V50.0077C39.2252 50.7117 39.7958 51.2821 40.4997 51.2821C41.2035 51.2821 41.7741 50.7117 41.7741 50.0077V22.7092L59.9881 10.5663L78.2022 22.709V30.9762C78.2022 31.6801 78.7728 32.2506 79.4766 32.2506C80.1805 32.2506 80.7511 31.6801 80.7511 30.9762L80.7465 14.2635C80.7465 13.8374 80.5336 13.4394 80.1789 13.2032L60.6952 0.214103C60.267 -0.0713677 59.7093 -0.0713677 59.2814 0.214103L40.5 12.7352L21.7182 0.214103C21.29 -0.0713677 20.7323 -0.0713677 20.3045 0.214103L0.815957 13.2066C0.461497 13.443 0.248413 13.8408 0.248413 14.2669V69.9552C0.248413 70.659 0.819015 71.2294 1.52284 71.2294ZM41.7742 14.949L59.9883 2.80611L78.1978 14.9456V19.6421L60.6952 7.97382C60.267 7.68835 59.7095 7.68835 59.2814 7.97382L41.7742 19.6453V14.949ZM2.79726 14.949L21.0113 2.80611L39.2206 14.9456V19.6419L21.7182 7.97382C21.29 7.68835 20.7325 7.68835 20.3045 7.97382L2.79726 19.6453V14.949Z" fill="#21344D"/>
<path d="M79.4769 35.2578C78.7731 35.2578 78.2025 35.8282 78.2025 36.5322V84.4523H41.7744V55.5636C41.7744 54.8598 41.2038 54.2892 40.4999 54.2892C39.7961 54.2892 39.2255 54.8598 39.2255 55.5636V84.4523H2.79738V75.5109C2.79738 74.8069 2.22678 74.2365 1.52296 74.2365C0.819137 74.2365 0.248535 74.8069 0.248535 75.5109V85.7267C0.248535 86.4307 0.819137 87.0011 1.52296 87.0011H79.4769C80.1807 87.0011 80.7514 86.4307 80.7514 85.7267V36.5322C80.7514 35.8284 80.1807 35.2578 79.4769 35.2578Z" fill="#21344D"/>
<path d="M58.0146 27.2588C58.0146 26.5548 57.444 25.9844 56.7402 25.9844H46.9959C46.2921 25.9844 45.7215 26.5548 45.7215 27.2588V46.7473C45.7215 47.4513 46.2921 48.0217 46.9959 48.0217H56.7402C57.444 48.0217 58.0146 47.4513 58.0146 46.7473V27.2588ZM55.4657 45.4729H48.2703V35.0292H55.4657V45.4729ZM55.4657 32.4804H48.2703V28.5331H55.4657V32.4804Z" fill="#21344D"/>
<path d="M74.2557 27.2588C74.2557 26.5548 73.6851 25.9844 72.9813 25.9844H63.237C62.5332 25.9844 61.9626 26.5548 61.9626 27.2588V46.7473C61.9626 47.4513 62.5332 48.0217 63.237 48.0217H72.9813C73.6851 48.0217 74.2557 47.4513 74.2557 46.7473V27.2588ZM71.7068 45.4729H64.5114V35.0292H71.7068V45.4729ZM71.7068 32.4804H64.5114V28.5331H71.7068V32.4804Z" fill="#21344D"/>
<path d="M56.7402 58.4668H46.9959C46.2921 58.4668 45.7215 59.0372 45.7215 59.7412V79.2297C45.7215 79.9337 46.2921 80.5042 46.9959 80.5042H56.7402C57.444 80.5042 58.0146 79.9337 58.0146 79.2297V59.7412C58.0146 59.0374 57.4442 58.4668 56.7402 58.4668ZM55.4657 77.9555H48.2703V67.5118H55.4657V77.9555ZM55.4657 64.963H48.2703V61.0158H55.4657V64.963Z" fill="#21344D"/>
<path d="M72.9813 58.4668H63.237C62.5332 58.4668 61.9626 59.0372 61.9626 59.7412V79.2297C61.9626 79.9337 62.5332 80.5042 63.237 80.5042H72.9813C73.6851 80.5042 74.2557 79.9337 74.2557 79.2297V59.7412C74.2557 59.0374 73.6851 58.4668 72.9813 58.4668ZM71.7068 77.9555H64.5114V67.5118H71.7068V77.9555ZM71.7068 64.963H64.5114V61.0158H71.7068V64.963Z" fill="#21344D"/>
<path d="M19.0377 27.2588C19.0377 26.5548 18.4671 25.9844 17.7632 25.9844H8.01899C7.31517 25.9844 6.74457 26.5548 6.74457 27.2588V46.7473C6.74457 47.4513 7.31517 48.0217 8.01899 48.0217H17.7632C18.4671 48.0217 19.0377 47.4513 19.0377 46.7473V27.2588ZM16.4888 45.4729H9.29342V35.0292H16.4888V45.4729ZM16.4888 32.4804H9.29342V28.5331H16.4888V32.4804Z" fill="#21344D"/>
</svg>
