<svg width="87" height="87" viewBox="0 0 87 87" fill="none" xmlns="http://www.w3.org/2000/svg">
<path d="M85.55 34.8H60.9V30.45C60.9 29.986 60.678 29.5499 60.3026 29.277L44.95 18.1119V13.05H60.9C61.7008 13.05 62.35 12.4008 62.35 11.6V2.9C62.35 2.09924 61.7008 1.45 60.9 1.45H44.95C44.95 0.649237 44.3008 0 43.5 0C42.6992 0 42.05 0.649237 42.05 1.45V18.1119L26.6974 29.277C26.322 29.5499 26.1 29.986 26.1 30.45V34.8H1.45C0.649237 34.8 0 35.4492 0 36.25V85.55C0 86.3508 0.649237 87 1.45 87H85.55C86.3508 87 87 86.3508 87 85.55V36.25C87 35.4492 86.3508 34.8 85.55 34.8ZM44.95 4.35H59.45V10.15H44.95V4.35ZM26.1 84.1H2.9V37.7H26.1V84.1ZM49.3 84.1H37.7V69.6H49.3V84.1ZM58 84.1H52.2V68.15C52.2 67.3492 51.5508 66.7 50.75 66.7H36.25C35.4492 66.7 34.8 67.3492 34.8 68.15V84.1H29V31.1881L43.5 20.6422L58 31.1881V84.1ZM84.1 84.1H60.9V37.7H84.1V84.1Z" fill="#21344D"/>
<path d="M13.0539 42.0508H7.25391V44.9508H13.0539V42.0508Z" fill="#21344D"/>
<path d="M21.7492 42.0508H15.9492V44.9508H21.7492V42.0508Z" fill="#21344D"/>
<path d="M13.0539 47.8496H7.25391V50.7496H13.0539V47.8496Z" fill="#21344D"/>
<path d="M21.7492 47.8496H15.9492V50.7496H21.7492V47.8496Z" fill="#21344D"/>
<path d="M13.0539 53.6504H7.25391V56.5504H13.0539V53.6504Z" fill="#21344D"/>
<path d="M21.7492 53.6504H15.9492V56.5504H21.7492V53.6504Z" fill="#21344D"/>
<path d="M13.0539 59.4492H7.25391V62.3492H13.0539V59.4492Z" fill="#21344D"/>
<path d="M21.7492 59.4492H15.9492V62.3492H21.7492V59.4492Z" fill="#21344D"/>
<path d="M13.0539 65.25H7.25391V68.15H13.0539V65.25Z" fill="#21344D"/>
<path d="M21.7492 65.25H15.9492V68.15H21.7492V65.25Z" fill="#21344D"/>
<path d="M71.05 42.0508H65.25V44.9508H71.05V42.0508Z" fill="#21344D"/>
<path d="M79.7512 42.0508H73.9512V44.9508H79.7512V42.0508Z" fill="#21344D"/>
<path d="M71.05 47.8496H65.25V50.7496H71.05V47.8496Z" fill="#21344D"/>
<path d="M79.7512 47.8496H73.9512V50.7496H79.7512V47.8496Z" fill="#21344D"/>
<path d="M71.05 53.6504H65.25V56.5504H71.05V53.6504Z" fill="#21344D"/>
<path d="M79.7512 53.6504H73.9512V56.5504H79.7512V53.6504Z" fill="#21344D"/>
<path d="M71.05 59.4492H65.25V62.3492H71.05V59.4492Z" fill="#21344D"/>
<path d="M79.7512 59.4492H73.9512V62.3492H79.7512V59.4492Z" fill="#21344D"/>
<path d="M71.05 65.25H65.25V68.15H71.05V65.25Z" fill="#21344D"/>
<path d="M79.7512 65.25H73.9512V68.15H79.7512V65.25Z" fill="#21344D"/>
<path d="M33.3496 43.4996C33.356 49.1026 37.8966 53.6433 43.4996 53.6496C49.1053 53.6496 53.6496 49.1053 53.6496 43.4996C53.6496 37.8939 49.1053 33.3496 43.4996 33.3496C37.8939 33.3496 33.3496 37.8939 33.3496 43.4996ZM50.7496 43.4996C50.7496 47.5036 47.5036 50.7496 43.4996 50.7496C39.4956 50.7496 36.2496 47.5036 36.2496 43.4996C36.2543 39.4976 39.4976 36.2543 43.4996 36.2496C47.5036 36.2496 50.7496 39.4956 50.7496 43.4996Z" fill="#21344D"/>
<path d="M43.5016 42.0512H40.6016V44.9512H46.4016V37.7012H43.5016V42.0512Z" fill="#21344D"/>
</svg>
