<svg width="87" height="87" viewBox="0 0 87 87" fill="none" xmlns="http://www.w3.org/2000/svg">
<path d="M78.8438 1.35938H8.15625V42.1406H78.8438V1.35938ZM76.125 4.07812V33.9844H70.6875V28.5469H57.0938V33.9844H10.875V4.07812H76.125ZM67.9688 33.9844H59.8125V31.2656H67.9688V33.9844ZM10.875 39.4219V36.7031H76.125V39.4219H10.875Z" fill="#21344D"/>
<path d="M87 50.2969H78.8438C78.8426 49.2157 78.4125 48.1791 77.648 47.4145C76.8834 46.65 75.8468 46.2199 74.7656 46.2188H58.4531C57.3719 46.2199 56.3353 46.65 55.5708 47.4145C54.8062 48.1791 54.3762 49.2157 54.375 50.2969H46.2188V58.4531H48.9375V80.2031H51.6562V58.4531H54.6255C54.9048 59.246 55.4226 59.933 56.108 60.4198C56.7933 60.9066 57.6125 61.1693 58.4531 61.1719H59.8125V67.9688H54.375V76.125H57.0938V85.6406H59.8125V76.125H73.4062V85.6406H76.125V76.125H78.8438V67.9688H73.4062V61.1719H74.7656C75.6062 61.1693 76.4254 60.9066 77.1108 60.4198C77.7961 59.933 78.3139 59.246 78.5932 58.4531H81.5625V80.2031H84.2812V58.4531H87V50.2969ZM48.9375 53.0156H54.375V55.7344H48.9375V53.0156ZM76.125 73.4062H57.0938V70.6875H76.125V73.4062ZM70.6875 67.9688H62.5312V61.1719H70.6875V67.9688ZM76.125 57.0938C76.1247 57.4542 75.9814 57.7998 75.7265 58.0546C75.4716 58.3095 75.1261 58.4528 74.7656 58.4531H58.4531C58.0927 58.4528 57.7471 58.3095 57.4923 58.0546C57.2374 57.7998 57.0941 57.4542 57.0938 57.0938V50.2969C57.0941 49.9364 57.2374 49.5909 57.4923 49.336C57.7471 49.0811 58.0927 48.9378 58.4531 48.9375H74.7656C75.1261 48.9378 75.4716 49.0811 75.7265 49.336C75.9814 49.5909 76.1247 49.9364 76.125 50.2969V57.0938ZM84.2812 55.7344H78.8438V53.0156H84.2812V55.7344Z" fill="#21344D"/>
<path d="M28.5469 46.2188H12.2344C11.1532 46.2199 10.1166 46.65 9.35202 47.4145C8.58748 48.1791 8.15744 49.2157 8.15625 50.2969H0V58.4531H2.71875V80.2031H5.4375V58.4531H8.40678C8.68605 59.246 9.2039 59.933 9.88922 60.4198C10.5746 60.9066 11.3938 61.1693 12.2344 61.1719H13.5938V67.9688H8.15625V76.125H10.875V85.6406H13.5938V76.125H27.1875V85.6406H29.9062V76.125H32.625V67.9688H27.1875V61.1719H28.5469C29.3875 61.1693 30.2067 60.9066 30.892 60.4198C31.5774 59.933 32.0952 59.246 32.3745 58.4531H35.3438V80.2031H38.0625V58.4531H40.7812V50.2969H32.625C32.6238 49.2157 32.1938 48.1791 31.4292 47.4145C30.6647 46.65 29.6281 46.2199 28.5469 46.2188ZM2.71875 53.0156H8.15625V55.7344H2.71875V53.0156ZM29.9062 73.4062H10.875V70.6875H29.9062V73.4062ZM24.4688 67.9688H16.3125V61.1719H24.4688V67.9688ZM29.9062 57.0938C29.9059 57.4542 29.7626 57.7998 29.5077 58.0546C29.2529 58.3095 28.9073 58.4528 28.5469 58.4531H12.2344C11.8739 58.4528 11.5284 58.3095 11.2735 58.0546C11.0186 57.7998 10.8753 57.4542 10.875 57.0938V50.2969C10.8753 49.9364 11.0186 49.5909 11.2735 49.336C11.5284 49.0811 11.8739 48.9378 12.2344 48.9375H28.5469C28.9073 48.9378 29.2529 49.0811 29.5077 49.336C29.7626 49.5909 29.9059 49.9364 29.9062 50.2969V57.0938ZM38.0625 53.0156V55.7344H32.625V53.0156H38.0625Z" fill="#21344D"/>
</svg>
