<svg width="87" height="87" viewBox="0 0 87 87" fill="none" xmlns="http://www.w3.org/2000/svg">
<path d="M86.8726 28.8064L86.8141 28.4798C86.8036 28.4294 86.7981 28.3789 86.7876 28.3298L80.6864 13.5943V6.34497H6.21268V13.5945L0.212402 28.3286C0.199148 28.3871 0.191162 28.4455 0.180457 28.5024L0.124723 28.8064C0.0424805 29.3335 0 29.8739 0 30.4248C0 34.3649 2.19845 37.7899 5.4375 39.5407V80.6552H81.5625V39.5407C84.799 37.7897 87 34.3647 87 30.4248C87 29.8739 86.9548 29.3335 86.8726 28.8064ZM82.7759 28.095H69.4583L67.8573 17.3328H78.3924L82.7759 28.095ZM9.8395 9.96906H77.0621V13.5945H9.8395V9.96906ZM66.3333 31.7191L66.5297 33.0346L65.4571 34.4616C64.1722 36.1741 62.2074 37.1564 60.0701 37.1564C57.9328 37.1564 55.968 36.1741 54.6831 34.4616L53.5891 33.004L53.5254 31.7191H66.3333ZM53.3475 28.095L52.8192 17.3328H64.1907L65.7944 28.095H53.3475ZM49.896 31.7189L49.9597 33.0332L48.8845 34.4616C47.5995 36.1741 45.6347 37.1564 43.5 37.1564C41.36 37.1564 39.3979 36.1741 38.1102 34.4616L37.011 32.9947L37.0747 31.7189H49.896ZM37.2581 28.095L37.8023 17.3328H49.1924L49.7181 28.095H37.2581ZM21.2243 28.095L22.8066 17.3328H34.1754L33.6284 28.095H21.2243ZM33.4427 31.7191L33.3762 33.0479L32.3142 34.4616C31.0265 36.1741 29.0645 37.1564 26.9272 37.1564C24.7899 37.1564 22.8278 36.1741 21.5401 34.4616L20.4941 33.0691L20.6933 31.7191H33.4427ZM8.60501 17.3328H19.1429L17.5606 28.095H4.22171L8.60501 17.3328ZM3.74882 31.7191H17.0292L16.7451 33.1276L15.7441 34.4618C14.4564 36.1742 12.4944 37.1566 10.3544 37.1566C7.08625 37.1566 4.35425 34.8149 3.74882 31.7191ZM70.6875 77.0338H56.1857V64.3427H57.9991C59.0001 64.3427 59.8125 63.5329 59.8125 62.532C59.8125 61.5312 59.0001 60.7213 57.9991 60.7213H56.1857V48.0302H70.6875V77.0338ZM77.936 77.0338H77.9357H74.3116V44.4088H52.5616V77.0338H9.06159V40.7011C9.48368 40.7542 9.91919 40.7822 10.3545 40.7822C13.7424 40.7822 16.7531 39.1547 18.6409 36.639C20.5313 39.1547 23.5394 40.7822 26.9273 40.7822C30.3153 40.7822 33.3234 39.1547 35.2138 36.639C37.1014 39.1547 40.1123 40.7822 43.5002 40.7822C46.8881 40.7822 49.8935 39.1547 51.7839 36.639C53.6742 39.1547 56.6824 40.7822 60.0703 40.7822C63.4582 40.7822 66.4663 39.1547 68.3567 36.639C70.2471 39.1547 73.2525 40.7822 76.6404 40.7822C77.0811 40.7822 77.5112 40.7543 77.936 40.7011V77.0338ZM76.64 37.1566C74.5055 37.1566 72.5407 36.1742 71.2555 34.4618L70.2015 33.0626L69.9971 31.7192H83.2458C82.6405 34.8149 79.911 37.1566 76.64 37.1566Z" fill="#21344d"/>
<path d="M12.6857 44.4087V69.7801H48.9375V44.4087H12.6857ZM45.3107 66.1587H16.3125V48.0301H45.3107V66.1587Z" fill="#21344d"/>
<path d="M41.6733 57.0945C41.1716 57.0945 40.7175 57.2963 40.3909 57.6255L36.7668 61.2523C36.4375 61.5789 36.2358 62.0329 36.2358 62.532C36.2358 63.533 37.0482 64.3427 38.0465 64.3427C38.5483 64.3427 39.0023 64.1408 39.3289 63.8117L42.953 60.1903C43.2823 59.861 43.484 59.4071 43.484 58.9053C43.484 57.9069 42.6743 57.0945 41.6733 57.0945Z" fill="#21344d"/>
<path d="M41.6732 49.8462C41.1715 49.8462 40.7174 50.0481 40.3908 50.3772L29.5158 61.2495C29.1892 61.5761 28.9848 62.0326 28.9848 62.5319C28.9848 63.5329 29.7972 64.3426 30.7982 64.3426C31.2975 64.3426 31.7513 64.1407 32.0779 63.8116L42.9529 52.9393C43.2822 52.6127 43.4839 52.1561 43.4839 51.6569C43.4839 50.6559 42.6742 49.8462 41.6732 49.8462Z" fill="#21344d"/>
</svg>
