<svg width="87" height="87" viewBox="0 0 87 87" fill="none" xmlns="http://www.w3.org/2000/svg">
<g clip-path="url(#clip0_1173_18006)">
<path d="M76.9804 61.3967C76.5033 61.1989 75.9541 61.3081 75.5888 61.6733L61.6337 75.6283C61.2686 75.9937 61.1593 76.5429 61.3571 77.02C61.5546 77.4973 62.0205 77.8083 62.5369 77.8083H76.4919C77.1972 77.8083 77.7689 77.2367 77.7689 76.5313V62.5763C77.7687 62.0599 77.4576 61.5943 76.9804 61.3967ZM65.6193 75.2545L75.2146 65.6592V75.2545H65.6193Z" fill="#21344D"/>
<path d="M86.2119 40.9285C85.7348 40.7307 85.1856 40.8399 84.8202 41.2051L80.9958 45.0295V19.0262C80.9958 18.3208 80.424 17.7492 79.7188 17.7492H69.9074L73.4689 14.1876C73.4694 14.1871 73.4699 14.1865 73.4705 14.1859L76.9022 10.7542C77.6375 10.0189 78.0424 9.04087 78.0424 8.00095C78.0424 6.96103 77.6375 5.98329 76.9022 5.2477L72.9338 1.27934C72.1986 0.544085 71.2205 0.13916 70.1806 0.13916C69.1407 0.13916 68.1628 0.544085 67.4273 1.27934L63.9939 4.71279L59.8451 8.86161L50.9576 17.749H11.3202V5.11618C11.3202 4.41083 10.7484 3.83922 10.0433 3.83922C4.50549 3.83956 0 8.3447 0 13.8828V68.1196C0 68.2139 0.010875 68.3057 0.0302462 68.394C0.206625 70.7439 1.22327 72.9272 2.92232 74.5846C4.73845 76.3559 7.13588 77.3314 9.67316 77.3314H48.6938L41.3448 84.6804C40.9796 85.0457 40.8704 85.5947 41.068 86.072C41.2656 86.5492 41.7314 86.8603 42.2478 86.8603H85.7232C86.4284 86.8603 87.0002 86.2887 87.0002 85.5834V42.1082C87.0002 41.5919 86.6889 41.1261 86.2119 40.9285ZM69.2336 3.08544C69.7556 2.5631 70.6061 2.5631 71.1281 3.08544L75.0966 7.05397C75.6189 7.57615 75.6189 8.42627 75.0966 8.94861L72.5663 11.4791L66.703 5.61592L69.2336 3.08544ZM64.897 7.42186L70.7602 13.2849L68.4171 15.6279L62.5543 9.76491L64.897 7.42186ZM84.4466 56.4568H82.0906C81.3853 56.4568 80.8137 57.0284 80.8137 57.7338C80.8137 58.4391 81.3853 59.0107 82.0906 59.0107H84.4466V62.8588H82.0906C81.3853 62.8588 80.8137 63.4304 80.8137 64.1358C80.8137 64.8411 81.3853 65.4127 82.0906 65.4127H84.4466V69.2606H82.0906C81.3853 69.2606 80.8137 69.8322 80.8137 70.5376C80.8137 71.2429 81.3853 71.8146 82.0906 71.8146H84.4466V75.6626H82.0906C81.3853 75.6626 80.8137 76.2344 80.8137 76.9396C80.8137 77.6449 81.3853 78.2165 82.0906 78.2165H84.4466V84.3069H45.3305L58.2289 71.4086C58.7277 70.9097 58.7277 70.1014 58.2289 69.6027C58.1717 69.5454 58.1102 69.4958 58.0458 69.4516C57.5486 69.1111 56.8645 69.1612 56.4228 69.6027L51.2477 74.7778H9.67333C5.80047 74.7778 2.68273 71.7542 2.56005 67.8883C2.56735 67.6457 2.58622 67.4051 2.61646 67.1672C2.61663 67.1658 2.6168 67.1645 2.61697 67.1631C2.63125 67.0501 2.64841 66.9376 2.66795 66.8258C2.67016 66.8131 2.67254 66.8003 2.67475 66.7876C2.69259 66.6878 2.71264 66.5886 2.73456 66.4897C2.74068 66.4622 2.74713 66.4346 2.75359 66.4073C2.77296 66.3237 2.79386 66.2406 2.81629 66.1578C2.82853 66.113 2.84127 66.0686 2.85435 66.0239C2.87304 65.959 2.89242 65.8943 2.91298 65.8302C2.93354 65.7662 2.95546 65.7028 2.97772 65.6394C2.99318 65.5951 3.00847 65.5507 3.02513 65.5067C3.05622 65.4231 3.08919 65.3403 3.12317 65.2583C3.13286 65.2347 3.14237 65.2107 3.1524 65.1871C3.19607 65.0851 3.24144 64.9844 3.28935 64.8848C3.29139 64.8805 3.29326 64.8763 3.2953 64.872C4.2941 62.8051 6.21508 61.2641 8.52041 60.7859C8.52687 60.7846 8.53332 60.783 8.53978 60.7817C8.64547 60.7601 8.75218 60.7416 8.85957 60.7244C8.87742 60.7215 8.89526 60.718 8.91344 60.7152C9.01047 60.7005 9.10851 60.6889 9.20656 60.6778C9.23408 60.6748 9.26144 60.6705 9.28914 60.6678C9.38378 60.6583 9.47928 60.652 9.57478 60.6461C9.60502 60.6442 9.63527 60.641 9.66552 60.6395C9.79058 60.6332 9.91666 60.6299 10.0433 60.6299C10.7484 60.6299 11.3202 60.0583 11.3202 59.353V50.0941C11.3202 49.3887 10.7484 48.8171 10.0433 48.8171C9.33808 48.8171 8.76629 49.3887 8.76629 50.0941V58.1564C6.60997 58.4291 4.60846 59.3909 3.03022 60.9321C2.86421 61.0942 2.70686 61.2627 2.55359 61.434V13.8828C2.55359 10.1885 5.24278 7.11005 8.76612 6.50207V19.0262V44.9864V44.9866C8.76612 45.6917 9.33791 46.2635 10.0431 46.2635C10.7483 46.2635 11.32 45.6917 11.32 44.9866V44.9864V20.3031H48.4039L41.3446 27.3624C40.8459 27.8613 40.8459 28.6696 41.3446 29.1683C41.8433 29.6669 42.6518 29.6669 43.1504 29.1683L52.3896 19.9291C52.3899 19.9288 52.3901 19.9285 52.3904 19.9283L60.748 11.5707L66.6109 17.4338L65.923 18.1217C65.9225 18.1222 65.9218 18.1227 65.9213 18.1232L40.1734 43.8715L34.3104 38.0085L39.3856 32.9333C39.8843 32.4344 39.8843 31.6261 39.3856 31.1274C38.8869 30.6288 38.0784 30.6288 37.5798 31.1274L31.6015 37.1056C31.5695 37.1375 31.5396 37.1713 31.5116 37.206C31.5022 37.2175 31.4939 37.2299 31.4851 37.242C31.467 37.266 31.4494 37.2901 31.4329 37.3152C31.4235 37.3299 31.415 37.3448 31.4062 37.3599C31.3921 37.3837 31.3785 37.4079 31.3661 37.4325C31.358 37.4485 31.3506 37.4646 31.3432 37.4813C31.3318 37.5062 31.3213 37.5317 31.3116 37.5572C31.3082 37.5662 31.3038 37.5747 31.3005 37.5837L28.8127 44.6312L27.1165 49.4365C27.0941 49.5004 27.078 49.5653 27.0659 49.6307H22.8192C22.114 49.6307 21.5422 50.2023 21.5422 50.9077C21.5422 51.613 22.114 52.1846 22.8192 52.1846H58.1824C58.8877 52.1846 59.4594 51.613 59.4594 50.9077C59.4594 50.2023 58.8877 49.6307 58.1824 49.6307H32.8108L40.5983 46.8817C40.6048 46.8793 40.6109 46.8761 40.6174 46.8737C40.6476 46.8625 40.6773 46.8499 40.7067 46.8365C40.7185 46.8311 40.7302 46.826 40.7416 46.8204C40.7722 46.8051 40.8022 46.7882 40.8318 46.7702C40.8413 46.7645 40.8512 46.7592 40.8605 46.7532C40.8913 46.7335 40.9212 46.7119 40.9506 46.6892C40.9579 46.6836 40.9655 46.6786 40.9727 46.6729C41.0082 46.6443 41.043 46.6136 41.076 46.5806L67.3534 20.3033H78.4417V47.5836L60.1757 65.8498C59.677 66.3487 59.677 67.157 60.1757 67.6557C60.2068 67.6868 60.2393 67.716 60.2728 67.7434C60.5069 67.9342 60.7929 68.0297 61.0787 68.0297C61.3645 68.0297 61.6507 67.9342 61.8847 67.7434C61.9181 67.7162 61.9506 67.6868 61.9817 67.6557C61.9822 67.6552 61.9817 67.6557 61.9822 67.6552L84.4466 45.1906V56.4568ZM37.8378 45.1475L34.18 46.4387L31.743 44.0017L33.0342 40.3439L37.8378 45.1475Z" fill="#21344D"/>
</g>
<defs>
<clipPath id="clip0_1173_18006">
<rect width="87" height="87" fill="white"/>
</clipPath>
</defs>
</svg>
