<svg width="187" height="123" viewBox="0 0 187 123" fill="none" xmlns="http://www.w3.org/2000/svg">
<path d="M110.418 8.07031H89.7514V8.46401H110.418V8.07031Z" fill="#CCCCCC"/>
<path d="M73.6113 8.07031H8.06897V8.46401H73.6113V8.07031Z" fill="#CCCCCC"/>
<path d="M8.0697 16.3367C12.5265 16.3367 16.1394 12.7237 16.1394 8.26696C16.1394 3.81019 12.5265 0.197266 8.0697 0.197266C3.61293 0.197266 0 3.81019 0 8.26696C0 12.7237 3.61293 16.3367 8.0697 16.3367Z" fill="#21344D"/>
<path d="M44.8759 16.3367C49.3327 16.3367 52.9456 12.7237 52.9456 8.26696C52.9456 3.81019 49.3327 0.197266 44.8759 0.197266C40.4191 0.197266 36.8062 3.81019 36.8062 8.26696C36.8062 12.7237 40.4191 16.3367 44.8759 16.3367Z" fill="#3F3D56"/>
<path d="M81.6804 16.5333C80.0455 16.5333 78.4472 16.0485 77.0877 15.1401C75.7283 14.2318 74.6687 12.9407 74.043 11.4302C73.4174 9.91964 73.2537 8.25749 73.5726 6.65391C73.8916 5.05034 74.6789 3.57736 75.835 2.42125C76.9912 1.26514 78.4641 0.477817 80.0677 0.158846C81.6713 -0.160125 83.3334 0.00358013 84.844 0.629264C86.3545 1.25495 87.6456 2.31451 88.5539 3.67395C89.4623 5.0334 89.9471 6.63167 89.9471 8.26666C89.9471 10.4591 89.0762 12.5618 87.5259 14.1121C85.9756 15.6624 83.8729 16.5333 81.6804 16.5333ZM81.6804 0.393705C80.1233 0.393705 78.6012 0.855447 77.3065 1.72054C76.0118 2.58563 75.0027 3.81522 74.4068 5.25381C73.8109 6.69241 73.655 8.2754 73.9588 9.8026C74.2625 11.3298 75.0124 12.7326 76.1134 13.8337C77.2145 14.9347 78.6173 15.6846 80.1445 15.9883C81.6717 16.2921 83.2547 16.1362 84.6933 15.5403C86.1319 14.9444 87.3615 13.9353 88.2266 12.6406C89.0917 11.3459 89.5534 9.82378 89.5534 8.26666C89.5534 6.17862 88.7239 4.17611 87.2475 2.69964C85.771 1.22318 83.7685 0.393705 81.6804 0.393705Z" fill="#CCCCCC"/>
<path d="M118.487 16.5333C116.852 16.5333 115.253 16.0485 113.894 15.1401C112.534 14.2318 111.475 12.9407 110.849 11.4302C110.223 9.91964 110.06 8.25749 110.379 6.65391C110.698 5.05034 111.485 3.57736 112.641 2.42125C113.797 1.26514 115.27 0.477817 116.874 0.158846C118.477 -0.160125 120.14 0.00358013 121.65 0.629264C123.161 1.25495 124.452 2.31451 125.36 3.67395C126.268 5.0334 126.753 6.63167 126.753 8.26666C126.753 10.4591 125.882 12.5618 124.332 14.1121C122.782 15.6624 120.679 16.5333 118.487 16.5333ZM118.487 0.393705C116.929 0.393705 115.407 0.855447 114.113 1.72054C112.818 2.58563 111.809 3.81522 111.213 5.25381C110.617 6.69241 110.461 8.2754 110.765 9.8026C111.069 11.3298 111.818 12.7326 112.92 13.8337C114.021 14.9347 115.423 15.6846 116.951 15.9883C118.478 16.2921 120.061 16.1362 121.499 15.5403C122.938 14.9444 124.168 13.9353 125.033 12.6406C125.898 11.3459 126.36 9.82378 126.36 8.26666C126.36 7.23277 126.156 6.209 125.76 5.25381C125.365 4.29862 124.785 3.43071 124.054 2.69964C123.322 1.96857 122.455 1.38865 121.499 0.992998C120.544 0.597345 119.52 0.393705 118.487 0.393705Z" fill="#CCCCCC"/>
<path d="M7.44811 10.674C7.30635 10.6741 7.16839 10.6281 7.05505 10.543L7.04807 10.5377L5.56694 9.4049C5.42841 9.29868 5.33775 9.14179 5.3149 8.96874C5.29205 8.79568 5.33888 8.62063 5.44509 8.48211C5.5513 8.34358 5.70819 8.25292 5.88125 8.23007C6.05431 8.20722 6.22936 8.25405 6.36788 8.36026L7.32713 9.09592L9.59392 6.13845C9.70009 6 9.8569 5.90938 10.0299 5.88653C10.2028 5.86368 10.3778 5.91047 10.5163 6.01661L10.5023 6.03604L10.5167 6.01661C10.6551 6.12291 10.7456 6.27977 10.7684 6.45274C10.7912 6.6257 10.7444 6.80065 10.6383 6.93918L7.97195 10.4161C7.91019 10.4963 7.83078 10.5611 7.73989 10.6056C7.649 10.6501 7.54908 10.6731 7.44789 10.6727L7.44811 10.674Z" fill="white"/>
<path d="M143.371 42.7926C143.522 42.8616 143.667 42.9425 143.805 43.0346L157.595 37.1489L158.087 33.5163L163.597 33.4824L163.272 41.8146L145.07 46.6288C145.032 46.7552 144.986 46.8791 144.932 47C144.669 47.5615 144.246 48.0327 143.716 48.3545C143.185 48.6763 142.572 48.8342 141.952 48.8085C141.333 48.7828 140.735 48.5747 140.233 48.2101C139.731 47.8455 139.349 47.3409 139.133 46.7595C138.917 46.1781 138.878 45.5459 139.02 44.9424C139.162 44.3388 139.48 43.7907 139.933 43.3669C140.385 42.9432 140.953 42.6627 141.565 42.5606C142.177 42.4585 142.805 42.5395 143.371 42.7933L143.371 42.7926Z" fill="#FEB8B8"/>
<path d="M165.602 118.289H161.832L160.039 103.75H165.602L165.602 118.289Z" fill="#FEB8B8"/>
<path d="M159.139 117.214H166.409V121.79H154.562C154.562 120.576 155.044 119.412 155.903 118.554C156.761 117.695 157.926 117.213 159.139 117.213V117.214Z" fill="#2F2E41"/>
<path d="M180.261 117.226L176.51 117.595L173.3 103.302L178.837 102.758L180.261 117.226Z" fill="#FEB8B8"/>
<path d="M173.722 116.789L180.956 116.076L181.404 120.63L169.617 121.792C169.498 120.584 169.864 119.378 170.634 118.44C171.403 117.502 172.514 116.908 173.722 116.789H173.722Z" fill="#2F2E41"/>
<path d="M166.65 18.0933C170.821 18.0933 174.202 14.7124 174.202 10.5418C174.202 6.37117 170.821 2.99023 166.65 2.99023C162.48 2.99023 159.099 6.37117 159.099 10.5418C159.099 14.7124 162.48 18.0933 166.65 18.0933Z" fill="#FEB8B8"/>
<path d="M160.989 115.351C160.665 115.351 160.352 115.238 160.103 115.03C159.855 114.821 159.688 114.532 159.632 114.213C157.682 103.385 151.303 67.9707 151.151 66.9889C151.147 66.9664 151.146 66.9436 151.146 66.9208V64.28C151.146 64.1838 151.176 64.09 151.232 64.0118L152.074 62.8327C152.114 62.7759 152.167 62.7291 152.228 62.6958C152.289 62.6624 152.356 62.6436 152.426 62.6405C157.23 62.4154 172.959 61.7553 173.719 62.7047C174.483 63.6579 174.211 66.5503 174.15 67.12L174.153 67.1794L181.22 112.376C181.276 112.736 181.187 113.104 180.973 113.4C180.759 113.695 180.437 113.895 180.078 113.955L175.664 114.682C175.335 114.735 174.998 114.668 174.715 114.493C174.431 114.319 174.219 114.048 174.119 113.731C172.753 109.368 168.176 94.6933 166.589 89.0147C166.58 88.9772 166.558 88.9444 166.526 88.9227C166.495 88.901 166.456 88.892 166.418 88.8975C166.38 88.903 166.346 88.9226 166.321 88.9524C166.297 88.9822 166.285 89.02 166.287 89.0583C166.367 94.4715 166.558 108.282 166.626 113.052L166.633 113.566C166.636 113.914 166.508 114.25 166.275 114.508C166.042 114.766 165.721 114.928 165.374 114.96L161.118 115.346C161.075 115.35 161.032 115.351 160.989 115.351Z" fill="#2F2E41"/>
<path d="M161.857 21.0614C160.54 21.8449 159.751 23.2843 159.298 24.7517C158.461 27.4639 157.956 30.2681 157.797 33.1022L157.318 41.5875L151.398 64.0846C156.529 68.4263 159.489 67.4393 166.396 63.8881C173.304 60.3369 174.093 65.072 174.093 65.072L175.474 45.93L177.447 25.0127C177.004 24.4793 176.503 23.9973 175.952 23.5756C174.128 22.157 172.006 21.1709 169.746 20.6915C167.485 20.2122 165.146 20.2521 162.903 20.8084L161.857 21.0614Z" fill="#E6E6E6"/>
<path d="M159.935 47.3344C160.094 47.3939 160.249 47.4659 160.396 47.5497L174.032 40.724L174.259 37.0265L179.883 36.6387L180.185 45.0673L161.962 51.0941C161.814 51.7326 161.474 52.3108 160.989 52.7516C160.504 53.1924 159.896 53.475 159.246 53.5619C158.596 53.6487 157.935 53.5356 157.351 53.2376C156.767 52.9396 156.288 52.4709 155.977 51.8937C155.666 51.3166 155.538 50.6584 155.61 50.0068C155.682 49.3551 155.951 48.7409 156.381 48.2458C156.81 47.7507 157.381 47.3982 158.016 47.2352C158.651 47.0722 159.32 47.1064 159.935 47.3333L159.935 47.3344Z" fill="#FEB8B8"/>
<path d="M177.35 25.1083C180.704 26.2922 181.296 39.1206 181.296 39.1206C177.349 36.9499 172.612 40.502 172.612 40.502C172.612 40.502 171.626 37.1469 170.442 32.8057C170.084 31.5845 170.041 30.2927 170.317 29.0505C170.593 27.8083 171.179 26.6562 172.02 25.7013C172.02 25.7013 173.994 23.9237 177.35 25.1083Z" fill="#E6E6E6"/>
<path d="M173.42 12.5381C172.479 11.7855 171.195 13.153 171.195 13.153L170.443 6.3804C170.443 6.3804 165.739 6.94399 162.727 6.19217C159.716 5.44036 159.246 8.92167 159.246 8.92167C159.091 7.51574 159.059 6.09889 159.152 4.68745C159.34 2.99386 161.786 1.30026 166.114 0.171127C170.442 -0.958011 172.7 3.93477 172.7 3.93477C175.713 5.43905 174.362 13.2917 173.42 12.5381Z" fill="#2F2E41"/>
<path d="M187 121.789H25.9849V122.267H187V121.789Z" fill="#E6E6E6"/>
<path d="M41.5179 113.345C42.2069 113.587 42.9467 113.648 43.6659 113.521C44.3851 113.394 45.0596 113.084 45.6244 112.621C47.0627 111.414 47.5136 109.425 47.8805 107.584L48.9657 102.137L46.6937 103.701C45.0597 104.826 43.389 105.987 42.2575 107.617C41.126 109.247 40.6322 111.471 41.5413 113.235" fill="#E6E6E6"/>
<path d="M41.8688 120.319C41.5828 118.235 41.2887 116.125 41.4893 114.019C41.6675 112.149 42.2381 110.322 43.3998 108.824C44.0163 108.031 44.7666 107.351 45.6168 106.816C45.8384 106.676 46.0426 107.027 45.8218 107.166C44.3504 108.096 43.2123 109.469 42.5715 111.087C41.864 112.886 41.7505 114.848 41.8728 116.759C41.9466 117.915 42.1027 119.064 42.2601 120.21C42.2725 120.262 42.2648 120.317 42.2384 120.363C42.2121 120.41 42.1691 120.444 42.1182 120.46C42.0663 120.474 42.0109 120.467 41.9642 120.441C41.9174 120.414 41.883 120.37 41.8684 120.318L41.8688 120.319Z" fill="#F2F2F2"/>
<path d="M43.9277 116.976C44.2232 117.425 44.6293 117.791 45.1071 118.037C45.5848 118.284 46.1179 118.403 46.6552 118.384C48.0359 118.318 49.1871 117.355 50.2232 116.441L53.2881 113.735L51.2598 113.638C49.8011 113.568 48.3047 113.503 46.9144 113.953C45.5241 114.402 44.2436 115.485 43.9897 116.922" fill="#E6E6E6"/>
<path d="M41.0604 121.515C42.436 119.079 44.034 116.372 46.8873 115.507C47.6807 115.267 48.5125 115.181 49.3382 115.254C49.5984 115.275 49.5334 115.677 49.2727 115.655C47.8887 115.54 46.5075 115.905 45.3614 116.689C44.2585 117.44 43.3999 118.484 42.6732 119.591C42.2279 120.267 41.8292 120.975 41.4305 121.681C41.3034 121.906 40.9322 121.744 41.0604 121.515Z" fill="#F2F2F2"/>
<path d="M138.095 51.2268H69.1611C68.8227 51.2264 68.4983 51.0918 68.259 50.8525C68.0197 50.6132 67.885 50.2887 67.8846 49.9503V32.8508C67.885 32.5123 68.0197 32.1879 68.259 31.9486C68.4983 31.7092 68.8227 31.5746 69.1611 31.5742H138.095C138.433 31.5746 138.758 31.7092 138.997 31.9486C139.236 32.1879 139.371 32.5123 139.371 32.8508V49.9503C139.371 50.2887 139.236 50.6132 138.997 50.8525C138.758 51.0918 138.433 51.2264 138.095 51.2268ZM69.1611 32.085C68.9581 32.0852 68.7634 32.166 68.6198 32.3096C68.4761 32.4532 68.3954 32.6479 68.3951 32.851V49.9505C68.3953 50.1536 68.4761 50.3483 68.6197 50.4919C68.7633 50.6356 68.958 50.7163 69.1611 50.7165H138.095C138.298 50.7163 138.493 50.6356 138.636 50.4919C138.78 50.3483 138.861 50.1536 138.861 49.9505V32.8508C138.861 32.6476 138.78 32.4529 138.636 32.3093C138.493 32.1657 138.298 32.0849 138.095 32.0847L69.1611 32.085Z" fill="#E6E6E6"/>
<path d="M91.8814 37.2773C91.6516 37.2773 91.4311 37.3687 91.2686 37.5312C91.106 37.6937 91.0147 37.9142 91.0147 38.144C91.0147 38.3739 91.106 38.5943 91.2686 38.7568C91.4311 38.9194 91.6516 39.0107 91.8814 39.0107H132.738C132.968 39.0107 133.189 38.9194 133.351 38.7568C133.514 38.5943 133.605 38.3739 133.605 38.144C133.605 37.9142 133.514 37.6937 133.351 37.5312C133.189 37.3687 132.968 37.2773 132.738 37.2773H91.8814Z" fill="#E6E6E6"/>
<path d="M91.8814 42.4766C91.6516 42.4766 91.4311 42.5679 91.2686 42.7304C91.106 42.8929 91.0147 43.1134 91.0147 43.3432C91.0147 43.5731 91.106 43.7935 91.2686 43.9561C91.4311 44.1186 91.6516 44.2099 91.8814 44.2099H109.462C109.692 44.2099 109.912 44.1186 110.075 43.9561C110.238 43.7935 110.329 43.5731 110.329 43.3432C110.329 43.1134 110.238 42.8929 110.075 42.7304C109.912 42.5679 109.692 42.4766 109.462 42.4766H91.8814Z" fill="#E6E6E6"/>
<path d="M79.92 45.9039C82.7919 45.9039 85.1201 43.5758 85.1201 40.7039C85.1201 37.832 82.7919 35.5039 79.92 35.5039C77.0482 35.5039 74.72 37.832 74.72 40.7039C74.72 43.5758 77.0482 45.9039 79.92 45.9039Z" fill="#E6E6E6"/>
<path d="M79.1036 43.5932C78.9288 43.5935 78.7588 43.5369 78.619 43.4321L78.6103 43.4255L76.7852 42.0293C76.6144 41.8985 76.5025 41.7051 76.4743 41.4917C76.446 41.2784 76.5037 41.0625 76.6346 40.8917C76.7654 40.7208 76.9588 40.609 77.1722 40.5807C77.3855 40.5525 77.6014 40.6101 77.7722 40.741L78.9544 41.6474L81.7479 38.003C81.8787 37.8324 82.0719 37.7207 82.2851 37.6925C82.4982 37.6644 82.7138 37.722 82.8844 37.8528L82.8672 37.8768L82.8851 37.8528C83.0556 37.9838 83.1671 38.177 83.1952 38.3901C83.2233 38.6033 83.1658 38.8188 83.0351 38.9896L79.7495 43.2768C79.6734 43.3755 79.5757 43.4554 79.4639 43.5102C79.352 43.565 79.229 43.5934 79.1044 43.593L79.1036 43.5932Z" fill="#21344D"/>
</svg>
