<svg width="152" height="137" viewBox="0 0 152 137" fill="none" xmlns="http://www.w3.org/2000/svg">
<path d="M96.5812 79.2932L75.6108 54.3457L33.5171 54.7304L7.98248 79.6018L8.49843 79.9333H8.31421V131.666H96.5246V79.9333L96.5812 79.2932Z" fill="#3F3D56"/>
<path d="M75.6326 54.3984L49.4349 85.1126V131.666H96.5245V79.2698L75.6326 54.3984Z" fill="#21344D"/>
<path d="M77.954 105.921H68.337V114.421H77.954V105.921Z" fill="white"/>
<path d="M77.954 91.208H68.337V99.5735H77.954V91.208Z" fill="white"/>
<path d="M35.2157 103.666H25.5988V112.166H35.2157V103.666Z" fill="white"/>
<path d="M35.2157 88.9521H25.5988V97.3176H35.2157V88.9521Z" fill="white"/>
<path d="M151.945 131.504H0V131.865H151.945V131.504Z" fill="#3F3D56"/>
<path d="M129.062 125.792L129.785 129.408L126.169 130.131L126.712 125.611L129.062 125.792Z" fill="#A0616A"/>
<path d="M140.451 125.068L139.547 129.587H135.208L137.016 124.164L140.451 125.068Z" fill="#A0616A"/>
<path d="M144.428 93.6127L145.151 98.4937L144.247 109.16L143.524 113.137L140.451 126.153C140.451 126.153 137.016 126.153 136.473 124.707L137.377 117.295C137.377 117.295 138.1 111.329 137.92 110.606C137.739 109.883 135.027 98.3129 135.027 98.3129C135.027 98.3129 131.05 116.572 130.508 118.199C129.965 119.826 129.242 126.876 129.242 126.876C129.242 126.876 126.169 127.418 125.988 126.876C125.808 126.334 125.627 113.498 125.627 111.51C125.627 109.521 125.988 108.437 125.988 108.075C125.988 107.713 124.564 90.4541 124.564 90.4541L144.428 93.6127Z" fill="#2F2E41"/>
<path d="M137.016 128.684C137.016 128.684 137.92 128.865 138.462 128.684C139.004 128.503 138.462 127.418 138.462 127.418H140.451C140.451 127.418 142.62 132.299 143.524 132.661C144.428 133.022 147.32 137 143.885 137C141.766 136.972 139.698 136.346 137.92 135.192C137.92 135.192 137.558 133.565 135.931 133.384C134.304 133.203 133.219 131.215 133.219 131.215L135.57 126.876C135.57 126.876 136.112 128.865 137.016 128.684Z" fill="#2F2E41"/>
<path d="M128.519 128.503C128.519 128.503 128.158 129.226 127.796 128.864C127.435 128.503 127.073 127.599 127.073 127.599C127.073 127.599 125.988 127.057 125.808 127.599C125.627 128.141 124.904 131.034 124.542 131.395C124.181 131.757 120.384 135.553 124.181 136.276C127.977 136.999 128.7 135.372 128.7 135.372C128.7 135.372 128.158 134.469 129.242 134.107C130.327 133.745 130.508 132.48 130.508 132.48L129.785 127.057C129.785 127.057 129.062 128.864 128.519 128.503Z" fill="#2F2E41"/>
<path d="M148.586 80.958L149.128 90.3585C149.128 90.3585 151.659 96.3242 148.224 96.1434C144.789 95.9627 146.959 90.1777 146.959 90.1777L143.596 81.7879L148.586 80.958Z" fill="#A0616A"/>
<path d="M120.746 78.2471L120.203 87.6476C120.203 87.6476 117.672 93.6133 121.107 93.4325C124.542 93.2517 122.373 87.4668 122.373 87.4668L125.736 79.077L120.746 78.2471Z" fill="#A0616A"/>
<path d="M135.208 57.8185C137.804 57.8185 139.908 55.7141 139.908 53.1182C139.908 50.5223 137.804 48.418 135.208 48.418C132.612 48.418 130.508 50.5223 130.508 53.1182C130.508 55.7141 132.612 57.8185 135.208 57.8185Z" fill="#A0616A"/>
<path d="M138.914 55.0166C138.914 55.0166 137.649 60.0784 140.179 61.3439C142.71 62.6093 132.225 64.4171 131.502 61.3439L131.864 59.8976C131.864 59.8976 133.31 58.0898 132.948 56.4628L138.914 55.0166Z" fill="#A0616A"/>
<path d="M136.112 61.4342C136.112 61.4342 132.993 61.7255 132.021 59.6816C132.021 59.6816 124.723 60.1687 123.096 66.8575L125.808 84.2123C125.808 84.2123 122.915 89.2741 123.277 89.8165C123.277 89.8165 121.469 94.8783 138.101 95.059L145.332 94.6975C145.429 93.6699 145.368 92.6333 145.151 91.6242C144.789 89.9972 142.801 78.6082 142.801 78.6082C142.801 78.6082 148.224 70.1115 147.682 68.8461C147.139 67.5806 146.271 62.591 139.293 60.5664C139.293 60.5664 139.185 61.6149 136.112 61.4342Z" fill="#E6E6E6"/>
<path d="M145.332 65.7734L147.682 68.8467C147.682 68.8467 150.032 81.682 149.309 81.8628C148.586 82.0435 144.247 83.4898 143.524 82.9474C142.801 82.4051 139.547 71.7391 139.547 71.7391L145.332 65.7734Z" fill="#E6E6E6"/>
<path d="M126.169 64.8691L123.096 66.8577C123.096 66.8577 118.576 79.5122 119.842 80.0546C121.107 80.5969 128.158 80.2354 128.158 80.2354L126.169 64.8691Z" fill="#E6E6E6"/>
<path d="M140.346 48.9115C140.346 48.9115 138.718 45.3841 135.597 46.1981C132.477 47.0121 130.713 48.2332 130.578 49.4542C130.442 50.6752 130.645 52.5068 130.645 52.5068C130.645 52.5068 130.985 49.9969 133.155 50.5396C134.31 50.8282 135.81 50.8482 136.961 50.8036C137.187 50.7943 137.412 50.8312 137.623 50.9118C137.834 50.9925 138.026 51.1153 138.188 51.2728C138.35 51.4303 138.478 51.6191 138.565 51.8278C138.651 52.0364 138.694 52.2605 138.691 52.4864L138.634 56.3719C138.634 56.3719 143.154 53.4794 140.346 48.9115Z" fill="#2F2E41"/>
<path d="M118.177 50.2806H54.3284C54.015 50.2802 53.7144 50.1555 53.4928 49.9338C53.2711 49.7122 53.1464 49.4116 53.1461 49.0982V19.781C53.1464 19.4675 53.2711 19.167 53.4928 18.9453C53.7144 18.7237 54.015 18.599 54.3284 18.5986H118.177C118.49 18.599 118.791 18.7237 119.013 18.9453C119.234 19.167 119.359 19.4675 119.359 19.781V49.0982C119.359 49.4116 119.234 49.7122 119.013 49.9338C118.791 50.1555 118.49 50.2802 118.177 50.2806ZM54.3284 19.0716C54.1403 19.0718 53.96 19.1466 53.827 19.2796C53.694 19.4126 53.6192 19.5929 53.619 19.781V49.0982C53.6192 49.2863 53.694 49.4666 53.827 49.5996C53.96 49.7326 54.1403 49.8074 54.3284 49.8076H118.177C118.365 49.8074 118.545 49.7326 118.678 49.5996C118.811 49.4666 118.886 49.2863 118.886 49.0982V19.781C118.886 19.5929 118.811 19.4126 118.678 19.2796C118.545 19.1466 118.365 19.0718 118.177 19.0716H54.3284Z" fill="#E6E6E6"/>
<path d="M63.7763 33.8007C66.4363 33.8007 68.5927 31.6444 68.5927 28.9843C68.5927 26.3243 66.4363 24.168 63.7763 24.168C61.1163 24.168 58.9599 26.3243 58.9599 28.9843C58.9599 31.6444 61.1163 33.8007 63.7763 33.8007Z" fill="#21344D"/>
<path d="M74.8998 25.7734C74.7942 25.7733 74.6897 25.7939 74.5922 25.8342C74.4947 25.8745 74.406 25.9336 74.3314 26.0081C74.2567 26.0827 74.1975 26.1712 74.157 26.2687C74.1166 26.3662 74.0958 26.4707 74.0958 26.5762C74.0958 26.6817 74.1166 26.7862 74.157 26.8836C74.1975 26.9811 74.2567 27.0697 74.3314 27.1442C74.406 27.2188 74.4947 27.2779 74.5922 27.3181C74.6897 27.3584 74.7942 27.3791 74.8998 27.3789H112.743C112.956 27.3789 113.16 27.2943 113.31 27.1438C113.461 26.9932 113.545 26.7891 113.545 26.5762C113.545 26.3633 113.461 26.1591 113.31 26.0086C113.16 25.858 112.956 25.7734 112.743 25.7734H74.8998Z" fill="#E6E6E6"/>
<path d="M74.8998 30.5889C74.7942 30.5887 74.6897 30.6094 74.5922 30.6496C74.4947 30.6899 74.406 30.749 74.3314 30.8236C74.2567 30.8981 74.1975 30.9867 74.157 31.0841C74.1166 31.1816 74.0958 31.2861 74.0958 31.3916C74.0958 31.4971 74.1166 31.6016 74.157 31.6991C74.1975 31.7965 74.2567 31.8851 74.3314 31.9596C74.406 32.0342 74.4947 32.0933 74.5922 32.1336C74.6897 32.1738 74.7942 32.1945 74.8998 32.1943H91.1837C91.2892 32.1945 91.3937 32.1738 91.4913 32.1336C91.5888 32.0933 91.6774 32.0342 91.7521 31.9596C91.8268 31.8851 91.886 31.7965 91.9264 31.6991C91.9668 31.6016 91.9876 31.4971 91.9876 31.3916C91.9876 31.2861 91.9668 31.1816 91.9264 31.0841C91.886 30.9867 91.8268 30.8981 91.7521 30.8236C91.6774 30.749 91.5888 30.6899 91.4913 30.6496C91.3937 30.6094 91.2892 30.5887 91.1837 30.5889H74.8998Z" fill="#E6E6E6"/>
<path d="M60.0819 38.2891C59.4713 38.2891 58.9744 38.6492 58.9744 39.0918C58.9744 39.5344 59.4713 39.8945 60.0819 39.8945H112.294C112.904 39.8945 113.401 39.5344 113.401 39.0918C113.401 38.6492 112.904 38.2891 112.294 38.2891H60.0819Z" fill="#E6E6E6"/>
<path d="M60.0819 43.1055C59.4713 43.1055 58.9744 43.4656 58.9744 43.9082C58.9744 44.3508 59.4713 44.7109 60.0819 44.7109H112.294C112.904 44.7109 113.401 44.3508 113.401 43.9082C113.401 43.4656 112.904 43.1055 112.294 43.1055H60.0819Z" fill="#E6E6E6"/>
<path d="M106.678 17.1314C111.408 17.1314 115.243 13.2964 115.243 8.56569C115.243 3.83499 111.408 0 106.678 0C101.947 0 98.1119 3.83499 98.1119 8.56569C98.1119 13.2964 101.947 17.1314 106.678 17.1314Z" fill="#21344D"/>
<path d="M106.678 22.4908L103.999 17.8519L101.321 13.2129H106.678H112.034L109.356 17.8519L106.678 22.4908Z" fill="#21344D"/>
<path d="M106.747 11.585C108.444 11.585 109.82 10.209 109.82 8.51172C109.82 6.81441 108.444 5.43848 106.747 5.43848C105.049 5.43848 103.673 6.81441 103.673 8.51172C103.673 10.209 105.049 11.585 106.747 11.585Z" fill="white"/>
<path d="M138.996 54.0217C139.395 54.0217 139.719 53.617 139.719 53.1178C139.719 52.6186 139.395 52.2139 138.996 52.2139C138.596 52.2139 138.273 52.6186 138.273 53.1178C138.273 53.617 138.596 54.0217 138.996 54.0217Z" fill="#A0616A"/>
</svg>
