<svg width="87" height="87" viewBox="0 0 87 87" fill="none" xmlns="http://www.w3.org/2000/svg">
<path d="M19.5835 26.2184C19.5835 25.0623 20.5208 24.125 21.6769 24.125C22.833 24.125 23.7704 25.0623 23.7704 26.2184V31.1982C23.7704 32.3543 22.833 33.2917 21.6769 33.2917C20.5208 33.2917 19.5835 32.3543 19.5835 31.1982V26.2184Z" fill="#21344D" stroke="white" stroke-width="0.5"/>
<path d="M30.4219 26.2184C30.4219 25.0623 31.3592 24.125 32.5153 24.125C33.6714 24.125 34.6087 25.0623 34.6087 26.2184V31.1982C34.6087 32.3543 33.6714 33.2917 32.5153 33.2917C31.3592 33.2917 30.4219 32.3543 30.4219 31.1982V26.2184Z" fill="#21344D" stroke="white" stroke-width="0.5"/>
<path d="M52.0986 26.2184C52.0986 25.0623 53.036 24.125 54.1921 24.125C55.3482 24.125 56.2855 25.0623 56.2855 26.2184V31.1982C56.2855 32.3543 55.3482 33.2917 54.1921 33.2917C53.036 33.2917 52.0986 32.3543 52.0986 31.1982V26.2184Z" fill="#21344D" stroke="white" stroke-width="0.5"/>
<path d="M67.1239 31.1982C67.1239 32.3543 66.1865 33.2917 65.0304 33.2917C63.8744 33.2917 62.937 32.3543 62.937 31.1982V26.2184C62.937 25.0623 63.8744 24.125 65.0304 24.125C66.1865 24.125 67.1239 25.0623 67.1239 26.2184V31.1982Z" fill="#21344D" stroke="white" stroke-width="0.5"/>
<path d="M41.2603 26.2184C41.2603 25.0623 42.1976 24.125 43.3537 24.125C44.5098 24.125 45.4471 25.0623 45.4471 26.2184V31.1982C45.4471 32.3543 44.5098 33.2917 43.3537 33.2917C42.1976 33.2917 41.2603 32.3543 41.2603 31.1982V26.2184Z" fill="#21344D" stroke="white" stroke-width="0.5"/>
<path d="M19.5835 40.572C19.5835 39.4159 20.5208 38.4785 21.6769 38.4785C22.833 38.4785 23.7704 39.4159 23.7704 40.572V45.5517C23.7704 46.7078 22.833 47.6452 21.6769 47.6452C20.5208 47.6452 19.5835 46.7078 19.5835 45.5517V40.572Z" fill="#21344D" stroke="white" stroke-width="0.5"/>
<path d="M30.4219 40.572C30.4219 39.4159 31.3592 38.4785 32.5153 38.4785C33.6714 38.4785 34.6087 39.4159 34.6087 40.572V45.5517C34.6087 46.7078 33.6714 47.6452 32.5153 47.6452C31.3592 47.6452 30.4219 46.7078 30.4219 45.5517V40.572Z" fill="#21344D" stroke="white" stroke-width="0.5"/>
<path d="M52.0986 40.572C52.0986 39.4159 53.036 38.4785 54.1921 38.4785C55.3482 38.4785 56.2855 39.4159 56.2855 40.572V45.5517C56.2855 46.7078 55.3482 47.6452 54.1921 47.6452C53.036 47.6452 52.0986 46.7078 52.0986 45.5517V40.572Z" fill="#21344D" stroke="white" stroke-width="0.5"/>
<path d="M67.1239 45.5517C67.1239 46.7078 66.1865 47.6452 65.0304 47.6452C63.8744 47.6452 62.937 46.7078 62.937 45.5517V40.572C62.937 39.4159 63.8744 38.4785 65.0304 38.4785C66.1865 38.4785 67.1239 39.4159 67.1239 40.572V45.5517Z" fill="#21344D" stroke="white" stroke-width="0.5"/>
<path d="M41.2603 40.572C41.2603 39.4159 42.1976 38.4785 43.3537 38.4785C44.5098 38.4785 45.4471 39.4159 45.4471 40.572V45.5517C45.4471 46.7078 44.5098 47.6452 43.3537 47.6452C42.1976 47.6452 41.2603 46.7078 41.2603 45.5517V40.572Z" fill="#21344D" stroke="white" stroke-width="0.5"/>
<path d="M76.7904 72.4574V72.2074V19.4801V19.2301H77.0404H79.7497C80.5439 19.2301 81.2701 18.7805 81.6238 18.0693L81.6239 18.0693C81.9779 17.3581 81.8986 16.5079 81.4198 15.8741L76.7904 72.4574ZM76.7904 72.4574H77.0404H79.774C83.6696 72.4574 86.75 75.6263 86.75 79.5306V84.5104C86.75 85.6806 85.8962 86.6039 84.7538 86.6039H2.34402C1.18785 86.6039 0.25 85.6664 0.25 84.5104V79.5306C0.25 75.6307 3.42383 72.4574 7.32382 72.4571H9.66667H9.91667V72.2071V19.4798V19.2298H9.66667H7.15245C6.35246 19.2298 5.62265 18.7742 5.27149 18.0557L5.27147 18.0556C4.92035 17.3374 5.00926 16.4815 5.50045 15.8502C5.50046 15.8502 5.50048 15.8502 5.50049 15.8502L16.9041 1.20381C17.3009 0.694534 17.9104 0.396484 18.5562 0.396484H68.6773C69.3332 0.396484 69.9513 0.704165 70.3473 1.22759C70.3473 1.22761 70.3474 1.22763 70.3474 1.22766L81.4197 15.874L76.7904 72.4574ZM67.1237 82.167V82.417H67.3737H82.3131H82.5631V82.167V79.5306C82.5631 77.9512 81.3781 76.6443 79.774 76.6443H67.3737H67.1237V76.8943V82.167ZM35.1627 62.7142L34.9619 63.0836H35.3823H51.4589H51.8859L51.6769 62.7113L48.8824 57.7315L48.8107 57.6039H48.6643H38.0896H37.941L37.87 57.7344L35.1627 62.7142ZM38.0808 67.2705H37.8308V67.5205V82.167V82.417H38.0808H48.3333H48.5833V82.167V67.5205V67.2705H48.3333H38.0808ZM53.0202 67.2705H52.7702V67.5205V82.167V82.417H53.0202H62.6869H62.9369V82.167V74.5508C62.9369 73.4077 63.9581 72.4574 65.1276 72.4574H72.3535H72.6035V72.2074V19.4801V19.2301H72.3535H14.3535H14.1035V19.4801V72.2074V72.4574H14.3535H21.9703C23.1263 72.4574 24.0631 73.3946 24.0631 74.5508V82.167V82.417H24.3131H33.3939H33.6439V82.167V67.5205V67.2705H33.3939H31.4407C30.7024 67.2705 30.0184 66.8816 29.6414 66.2472L29.4295 66.3731L29.6414 66.2471C29.264 65.6123 29.2489 64.8262 29.6016 64.1772L34.8568 54.5105C35.2231 53.8367 35.9286 53.417 36.6958 53.417H50.0361C50.7935 53.417 51.4913 53.8255 51.8619 54.4859L51.8619 54.4859L57.2866 64.1526L57.2867 64.1527C57.6506 64.8008 57.6433 65.5934 57.2676 66.2347L57.2675 66.2349C56.8923 66.8762 56.2046 67.2705 55.4612 67.2705H53.0202ZM19.8763 76.8943V76.6443H19.6263H7.32382C5.73201 76.6443 4.43687 77.9387 4.43687 79.5306V82.167V82.417H4.68687H19.6263H19.8763V82.167V76.8943ZM67.7108 4.68288L67.6358 4.58365H67.5114H19.7015H19.5794L19.5043 4.68006L11.7496 14.6397L11.4353 15.0432H11.9468H75.0406H75.543L75.24 14.6425L67.7108 4.68288Z" fill="#21344D" stroke="white" stroke-width="0.5"/>
</svg>
