<svg width="87" height="87" viewBox="0 0 87 87" fill="none" xmlns="http://www.w3.org/2000/svg">
<path d="M21.6767 23.8418C20.3826 23.8418 19.3333 24.8911 19.3333 26.1852V31.165C19.3333 32.4592 20.3826 33.5085 21.6767 33.5085C22.9709 33.5085 24.0202 32.4592 24.0202 31.165V26.1852C24.0202 24.8911 22.9709 23.8418 21.6767 23.8418Z" fill="#21344D"/>
<path d="M32.5151 23.8418C31.221 23.8418 30.1717 24.8911 30.1717 26.1852V31.165C30.1717 32.4592 31.221 33.5085 32.5151 33.5085C33.8093 33.5085 34.8586 32.4592 34.8586 31.165V26.1852C34.8586 24.8911 33.8093 23.8418 32.5151 23.8418Z" fill="#21344D"/>
<path d="M54.1919 23.8418C52.8978 23.8418 51.8485 24.8911 51.8485 26.1852V31.165C51.8485 32.4592 52.8978 33.5085 54.1919 33.5085C55.4861 33.5085 56.5354 32.4592 56.5354 31.165V26.1852C56.5354 24.8911 55.4861 23.8418 54.1919 23.8418Z" fill="#21344D"/>
<path d="M65.0303 33.5085C66.3245 33.5085 67.3738 32.4592 67.3738 31.165V26.1852C67.3738 24.8911 66.3245 23.8418 65.0303 23.8418C63.7362 23.8418 62.6869 24.8911 62.6869 26.1852V31.165C62.6869 32.4592 63.7362 33.5085 65.0303 33.5085Z" fill="#21344D"/>
<path d="M43.3536 23.8418C42.0594 23.8418 41.0101 24.8911 41.0101 26.1852V31.165C41.0101 32.4592 42.0594 33.5085 43.3536 33.5085C44.6477 33.5085 45.697 32.4592 45.697 31.165V26.1852C45.697 24.8911 44.6477 23.8418 43.3536 23.8418Z" fill="#21344D"/>
<path d="M21.6767 38.1953C20.3826 38.1953 19.3333 39.2446 19.3333 40.5387V45.5185C19.3333 46.8127 20.3826 47.862 21.6767 47.862C22.9709 47.862 24.0202 46.8127 24.0202 45.5185V40.5387C24.0202 39.2446 22.9709 38.1953 21.6767 38.1953Z" fill="#21344D"/>
<path d="M32.5151 38.1953C31.221 38.1953 30.1717 39.2446 30.1717 40.5387V45.5185C30.1717 46.8127 31.221 47.862 32.5151 47.862C33.8093 47.862 34.8586 46.8127 34.8586 45.5185V40.5387C34.8586 39.2446 33.8093 38.1953 32.5151 38.1953Z" fill="#21344D"/>
<path d="M54.1919 38.1953C52.8978 38.1953 51.8485 39.2446 51.8485 40.5387V45.5185C51.8485 46.8127 52.8978 47.862 54.1919 47.862C55.4861 47.862 56.5354 46.8127 56.5354 45.5185V40.5387C56.5354 39.2446 55.4861 38.1953 54.1919 38.1953Z" fill="#21344D"/>
<path d="M65.0303 47.862C66.3245 47.862 67.3738 46.8127 67.3738 45.5185V40.5387C67.3738 39.2446 66.3245 38.1953 65.0303 38.1953C63.7362 38.1953 62.6869 39.2446 62.6869 40.5387V45.5185C62.6869 46.8127 63.7362 47.862 65.0303 47.862Z" fill="#21344D"/>
<path d="M43.3536 38.1953C42.0594 38.1953 41.0101 39.2446 41.0101 40.5387V45.5185C41.0101 46.8127 42.0594 47.862 43.3536 47.862C44.6477 47.862 45.697 46.8127 45.697 45.5185V40.5387C45.697 39.2446 44.6477 38.1953 43.3536 38.1953Z" fill="#21344D"/>
<path d="M79.774 72.1742H77.0404V19.4469H79.7497C80.6387 19.4469 81.4516 18.9437 81.8477 18.1475C82.244 17.3513 82.1552 16.3996 81.6192 15.6901L70.5467 1.04362C70.1035 0.457766 69.4116 0.113281 68.6773 0.113281H18.5562C17.8332 0.113281 17.151 0.446928 16.7069 1.01697L5.30319 15.6634C4.75336 16.37 4.65377 17.3281 5.04688 18.1322C5.43999 18.9366 6.25697 19.4466 7.15245 19.4466H9.66667V72.1739H7.32382C3.28579 72.1742 0 75.4594 0 79.4974V84.4772C0 85.7714 1.04986 86.8206 2.34402 86.8206H84.7538C86.048 86.8206 87 85.7714 87 84.4772V79.4974C87 75.4594 83.812 72.1742 79.774 72.1742ZM67.3737 82.1338V76.8611H79.774C81.2278 76.8611 82.3131 78.0436 82.3131 79.4974V82.1338H67.3737ZM35.3823 62.8004L38.0896 57.8206H48.6643L51.4589 62.8004H35.3823ZM38.0808 67.4873H48.3333V82.1338H38.0808V67.4873ZM53.0202 67.4873H55.4612C56.2934 67.4873 57.0632 67.0459 57.4833 66.3279C57.9039 65.6099 57.9121 64.7226 57.5047 63.9971L52.0799 54.3304C51.6651 53.591 50.8839 53.1338 50.0361 53.1338H36.6958C35.837 53.1338 35.0472 53.6036 34.6371 54.3579L29.382 64.0246C28.9871 64.7511 29.0041 65.631 29.4265 66.3417C29.8486 67.052 30.6143 67.4873 31.4407 67.4873H33.3939V82.1338H24.3131V74.5176C24.3131 73.2235 23.2644 72.1742 21.9703 72.1742H14.3535V19.4469H72.3535V72.1742H65.1276C63.8334 72.1742 62.6869 73.2235 62.6869 74.5176V82.1338H53.0202V67.4873ZM4.68687 79.4974C4.68687 78.0436 5.87001 76.8611 7.32382 76.8611H19.6263V82.1338H4.68687V79.4974ZM67.5114 4.80044L75.0406 14.76H11.9468L19.7015 4.80044H67.5114Z" fill="#21344D"/>
</svg>
