<svg width="187" height="176" viewBox="0 0 187 176" fill="none" xmlns="http://www.w3.org/2000/svg">
<g clip-path="url(#clip0_1207_9942)">
<path d="M148.939 125.045C148.939 125.045 172.073 126.249 166.685 133.578C161.296 140.906 147.137 129.278 147.137 129.278L148.939 125.045Z" fill="#FFB8B8"/>
<path d="M106.306 55.2393L111.015 56.4239C111.015 56.4239 113.762 64.7167 115.724 72.2197C117.686 79.7227 121.61 102.232 121.61 102.232L152.032 123.688L148.404 131.856L107.876 115.782L98.8503 80.1176L106.306 55.2393Z" fill="#21344D"/>
<path opacity="0.2" d="M110.737 69.9595L108.981 106.945L112.644 117.942L101.916 110.025L110.737 69.9595Z" fill="black"/>
<path d="M117.097 135.6C117.097 135.6 122.199 149.421 122.984 158.899C123.768 168.376 124.553 175.879 124.553 175.879H100.616L95.9074 168.771V175.879H68.0465C68.0465 175.879 60.1984 150.211 63.3377 147.052C66.4769 143.893 96.2999 130.467 96.2999 130.467L117.097 135.6Z" fill="#2F2E41"/>
<path d="M162.708 175.52H24.1975V175.999H162.708V175.52Z" fill="#3F3D56"/>
<path d="M87.0782 40.2332C95.3136 40.2332 101.99 33.5148 101.99 25.2272C101.99 16.9396 95.3136 10.2212 87.0782 10.2212C78.8428 10.2212 72.1667 16.9396 72.1667 25.2272C72.1667 33.5148 78.8428 40.2332 87.0782 40.2332Z" fill="#FFB8B8"/>
<path d="M75.6982 31.5464L74.521 48.9218L89.4325 69.0614L96.8882 50.1064C96.8882 50.1064 90.2173 45.7626 94.1414 36.68L75.6982 31.5464Z" fill="#FFB8B8"/>
<path d="M119.254 138.957C119.254 142.512 109.444 148.04 109.444 148.04V150.014L105.52 151.989L96.8878 134.615L94.5348 153.568C94.5348 153.568 77.2675 156.334 71.7748 153.568C66.2797 150.804 63.5333 151.989 55.6852 149.225C47.8371 146.461 58.8249 109.34 58.8249 109.34L50.9768 52.0806L68.1225 43.4534L69.026 42.9975L71.3838 42.5609L74.9979 41.8892L87.0776 50.1061L88.0503 55.2402L88.6487 58.3998L91.786 54.8443L94.1557 47.0017L111.015 56.4253L106.307 94.3336C106.307 94.3336 119.254 135.404 119.254 138.957Z" fill="#21344D"/>
<path d="M61.5715 151.199C61.5715 151.199 79.6223 165.811 70.9893 168.575C62.3564 171.339 57.6475 153.569 57.6475 153.569L61.5715 151.199Z" fill="#FFB8B8"/>
<path d="M54.9009 52.8699L50.9768 52.0801C50.9768 52.0801 45.0907 55.2392 44.6983 61.5575C44.3059 67.8759 39.2046 112.104 39.2046 112.104L55.6857 156.727L69.0275 151.593L56.0781 109.735L65.8883 73.4044L54.9009 52.8699Z" fill="#21344D"/>
<path d="M88.8039 64.9209C89.5939 64.9209 90.2343 64.2764 90.2343 63.4815C90.2343 62.6865 89.5939 62.042 88.8039 62.042C88.0139 62.042 87.3735 62.6865 87.3735 63.4815C87.3735 64.2764 88.0139 64.9209 88.8039 64.9209Z" fill="#2F2E41"/>
<path d="M88.8039 74.2774C89.5939 74.2774 90.2343 73.6329 90.2343 72.8379C90.2343 72.0429 89.5939 71.3984 88.8039 71.3984C88.0139 71.3984 87.3735 72.0429 87.3735 72.8379C87.3735 73.6329 88.0139 74.2774 88.8039 74.2774Z" fill="#2F2E41"/>
<path d="M96.9094 135.935C97.6994 135.935 98.3398 135.29 98.3398 134.495C98.3398 133.7 97.6994 133.056 96.9094 133.056C96.1194 133.056 95.479 133.7 95.479 134.495C95.479 135.29 96.1194 135.935 96.9094 135.935Z" fill="#2F2E41"/>
<path d="M74.4886 9.85481L71.7321 8.74427C71.7321 8.74427 77.4956 2.35875 85.5145 2.91403L83.2592 0.415325C83.2592 0.415325 88.7721 -1.80571 93.7838 4.02454C96.4184 7.08936 99.4667 10.6919 101.367 14.7501H104.319L103.087 17.4802L107.399 20.2102L102.973 19.7198C103.237 21.2148 103.277 22.7411 103.093 24.2481C102.903 25.7556 102.139 27.1299 100.961 28.0809C100.961 28.0809 97.5426 20.96 97.5426 19.8495V22.6258C97.5426 22.6258 94.7861 20.1272 94.7861 18.4614L93.2826 20.4048H83.2592L84.7627 17.9061L78.9991 18.739L81.2545 15.685L72.331 28.2959C72.331 28.2959 67.2215 14.0193 74.4886 9.85481Z" fill="#2F2E41"/>
<path d="M163.16 116.007C176.326 116.007 187 105.266 187 92.0164C187 78.7666 176.326 68.0254 163.16 68.0254C149.994 68.0254 139.32 78.7666 139.32 92.0164C139.32 105.266 149.994 116.007 163.16 116.007Z" fill="#3F3D56"/>
<path opacity="0.1" d="M163.16 112.649C174.483 112.649 183.662 103.411 183.662 92.0166C183.662 80.6217 174.483 71.3843 163.16 71.3843C151.837 71.3843 142.658 80.6217 142.658 92.0166C142.658 103.411 151.837 112.649 163.16 112.649Z" fill="black"/>
<path d="M162.178 104.192V101.189C160.669 101.159 159.109 100.624 158.198 99.8804L158.823 97.8884C159.904 98.7041 161.216 99.1519 162.568 99.1668C164.414 99.1668 165.663 97.9478 165.663 96.2531C165.663 94.6177 164.648 93.6069 162.724 92.7148C160.071 91.5256 158.433 90.1578 158.433 87.5712C158.433 85.1033 159.967 83.2302 162.36 82.7842V79.7812H163.972V82.6653C165.175 82.6818 166.347 83.0428 167.353 83.7059L166.703 85.6683C165.738 85.0037 164.595 84.6511 163.426 84.6573C161.423 84.6573 160.669 86.025 160.669 87.2144C160.669 88.7604 161.631 89.5334 163.894 90.6039C166.573 91.8527 167.925 93.3987 167.925 96.0449C167.925 98.3937 166.495 100.594 163.816 101.099V104.192H162.178Z" fill="#6C63FF"/>
<path opacity="0.2" d="M59.6011 121.124L69.1359 151.097L61.5071 119.908L59.6011 121.124Z" fill="black"/>
<path d="M10.9885 62.5701H4.93633C4.67255 62.5698 4.41966 62.4642 4.23314 62.2765C4.04662 62.0888 3.9417 61.8343 3.94141 61.5688V52.8137C3.9417 52.5483 4.04662 52.2938 4.23314 52.1061C4.41966 51.9184 4.67255 51.8128 4.93633 51.8125H10.9885C11.2523 51.8128 11.5052 51.9184 11.6917 52.1061C11.8782 52.2938 11.9831 52.5483 11.9834 52.8137V61.5688C11.9831 61.8343 11.8782 62.0888 11.6917 62.2765C11.5052 62.4642 11.2523 62.5698 10.9885 62.5701ZM4.93633 52.2923C4.79896 52.2925 4.66727 52.3475 4.57014 52.4452C4.47301 52.543 4.41837 52.6755 4.41821 52.8137V61.5688C4.41837 61.7071 4.47301 61.8396 4.57014 61.9373C4.66727 62.0351 4.79896 62.0901 4.93633 62.0902H10.9885C11.1259 62.0901 11.2576 62.0351 11.3547 61.9373C11.4518 61.8396 11.5065 61.7071 11.5066 61.5688V52.8137C11.5065 52.6755 11.4518 52.543 11.3547 52.4452C11.2576 52.3475 11.1259 52.2925 10.9885 52.2923H4.93633Z" fill="#3F3D56"/>
<path d="M22.0431 62.5695H16.5776C16.236 62.5691 15.9086 62.4324 15.6671 62.1893C15.4256 61.9463 15.2897 61.6168 15.2893 61.2731V43.5918C15.2897 43.2481 15.4256 42.9186 15.6671 42.6756C15.9086 42.4325 16.236 42.2958 16.5776 42.2954H22.0431C22.3846 42.2958 22.7121 42.4325 22.9536 42.6756C23.1951 42.9186 23.3309 43.2481 23.3313 43.5918V61.2731C23.3309 61.6168 23.1951 61.9463 22.9536 62.1893C22.7121 62.4324 22.3846 62.5691 22.0431 62.5695ZM16.5776 42.7752C16.3624 42.7755 16.1562 42.8616 16.004 43.0147C15.8519 43.1678 15.7663 43.3753 15.7661 43.5918V61.2731C15.7663 61.4896 15.8519 61.6971 16.004 61.8502C16.1562 62.0033 16.3624 62.0894 16.5776 62.0897H22.0431C22.2582 62.0894 22.4645 62.0033 22.6166 61.8502C22.7687 61.6971 22.8543 61.4896 22.8545 61.2731V43.5918C22.8543 43.3753 22.7687 43.1678 22.6166 43.0147C22.4645 42.8616 22.2582 42.7755 22.0431 42.7752L16.5776 42.7752Z" fill="#3F3D56"/>
<path d="M33.1799 62.5697H28.1365C27.739 62.5692 27.3579 62.4101 27.0768 62.1273C26.7958 61.8444 26.6377 61.4609 26.6372 61.0609V35.0493C26.6377 34.6493 26.7958 34.2658 27.0768 33.983C27.3579 33.7001 27.739 33.541 28.1365 33.5405H33.1799C33.5774 33.541 33.9585 33.7001 34.2396 33.983C34.5207 34.2658 34.6788 34.6493 34.6792 35.0493V61.0609C34.6788 61.4609 34.5207 61.8444 34.2396 62.1273C33.9585 62.4101 33.5774 62.5692 33.1799 62.5697ZM28.1365 34.0203C27.8654 34.0207 27.6055 34.1292 27.4138 34.3221C27.2221 34.515 27.1143 34.7765 27.114 35.0493V61.0609C27.1143 61.3337 27.2221 61.5952 27.4138 61.7882C27.6055 61.9811 27.8654 62.0896 28.1365 62.0899H33.1799C33.451 62.0896 33.7109 61.9811 33.9026 61.7882C34.0943 61.5952 34.2021 61.3337 34.2024 61.0609V35.0493C34.2021 34.7765 34.0943 34.515 33.9026 34.3221C33.7109 34.1292 33.451 34.0207 33.1799 34.0203H28.1365Z" fill="#3F3D56"/>
<path d="M10.2322 53.4785H5.69312V60.9013H10.2322V53.4785Z" fill="#6C63FF"/>
<path d="M21.5799 44.0586H17.0408V60.9027H21.5799V44.0586Z" fill="#6C63FF"/>
<path d="M32.9278 35.3027H28.3887V60.902H32.9278V35.3027Z" fill="#6C63FF"/>
<path d="M172.363 34.9801H140.656C140.624 34.9801 140.593 34.9739 140.564 34.9618C140.535 34.9498 140.509 34.9321 140.487 34.9098C140.465 34.8875 140.447 34.8611 140.435 34.832C140.423 34.8028 140.417 34.7717 140.417 34.7401V2.35222C140.417 2.28859 140.442 2.22756 140.487 2.18257C140.532 2.13758 140.592 2.1123 140.656 2.1123C140.719 2.1123 140.779 2.13758 140.824 2.18257C140.869 2.22756 140.894 2.28859 140.894 2.35222V34.5002H172.363C172.426 34.5002 172.487 34.5255 172.531 34.5705C172.576 34.6155 172.601 34.6765 172.601 34.7401C172.601 34.8038 172.576 34.8648 172.531 34.9098C172.487 34.9548 172.426 34.9801 172.363 34.9801Z" fill="#3F3D56"/>
<path d="M37.9055 65.9285H0.2384C0.20709 65.9285 0.176087 65.9223 0.147159 65.9103C0.118231 65.8982 0.0919463 65.8805 0.0698072 65.8582C0.0476682 65.836 0.0301081 65.8095 0.0181302 65.7804C0.00615243 65.7513 -8.13555e-06 65.7201 8.06317e-09 65.6886V28.0226C8.06317e-09 27.959 0.0251168 27.898 0.0698254 27.853C0.114534 27.808 0.175172 27.7827 0.2384 27.7827C0.301627 27.7827 0.362265 27.808 0.406974 27.853C0.451682 27.898 0.476799 27.959 0.476799 28.0226V65.4487H37.9055C37.9688 65.4487 38.0294 65.474 38.0741 65.519C38.1188 65.5639 38.1439 65.625 38.1439 65.6886C38.1439 65.7522 38.1188 65.8132 38.0741 65.8582C38.0294 65.9032 37.9688 65.9285 37.9055 65.9285Z" fill="#3F3D56"/>
<path d="M151.598 31.9724H145.546C145.282 31.9721 145.029 31.8666 144.842 31.6789C144.656 31.4912 144.551 31.2366 144.551 30.9712V22.2161C144.551 21.9506 144.656 21.6961 144.842 21.5084C145.029 21.3207 145.282 21.2151 145.546 21.2148H151.598C151.862 21.2152 152.114 21.3208 152.301 21.5085C152.487 21.6962 152.592 21.9506 152.593 22.2161V30.9712C152.592 31.2366 152.487 31.4911 152.301 31.6788C152.114 31.8665 151.862 31.9721 151.598 31.9724ZM145.546 21.6947C145.408 21.6948 145.276 21.7498 145.179 21.8476C145.082 21.9453 145.028 22.0778 145.027 22.2161V30.9712C145.028 31.1094 145.082 31.242 145.179 31.3397C145.276 31.4374 145.408 31.4924 145.546 31.4926H151.598C151.735 31.4924 151.867 31.4374 151.964 31.3397C152.061 31.2419 152.116 31.1094 152.116 30.9712V22.2161C152.116 22.0779 152.061 21.9453 151.964 21.8476C151.867 21.7498 151.735 21.6948 151.598 21.6947H145.546Z" fill="#3F3D56"/>
<path d="M163.992 31.9732H158.422C158.094 31.9729 157.78 31.8417 157.548 31.6085C157.316 31.3754 157.186 31.0593 157.186 30.7295V14.8715C157.186 14.5418 157.316 14.2257 157.548 13.9926C157.78 13.7594 158.094 13.6283 158.422 13.6279H163.992C164.32 13.6283 164.634 13.7594 164.865 13.9926C165.097 14.2257 165.227 14.5418 165.228 14.8715V30.7295C165.227 31.0593 165.097 31.3754 164.865 31.6085C164.634 31.8417 164.32 31.9729 163.992 31.9732ZM158.422 14.1078C158.22 14.108 158.027 14.1885 157.885 14.3317C157.743 14.4749 157.663 14.669 157.663 14.8715V30.7295C157.663 30.932 157.743 31.1262 157.885 31.2694C158.027 31.4126 158.22 31.4932 158.422 31.4934H163.992C164.193 31.4932 164.386 31.4126 164.528 31.2694C164.671 31.1262 164.751 30.932 164.751 30.7295V14.8715C164.751 14.669 164.671 14.4749 164.528 14.3317C164.386 14.1885 164.193 14.108 163.992 14.1078H158.422Z" fill="#3F3D56"/>
<path d="M150.732 22.9663H146.193V30.3891H150.732V22.9663Z" fill="#6C63FF"/>
<path d="M163.477 15.6191H158.938V29.9811H163.477V15.6191Z" fill="#6C63FF"/>
<path d="M148.523 18.666C149.708 18.666 150.668 17.6993 150.668 16.5069C150.668 15.3144 149.708 14.3477 148.523 14.3477C147.338 14.3477 146.377 15.3144 146.377 16.5069C146.377 17.6993 147.338 18.666 148.523 18.666Z" fill="#6C63FF"/>
<path d="M161.158 10.5093C162.343 10.5093 163.304 9.5426 163.304 8.35011C163.304 7.15762 162.343 6.19092 161.158 6.19092C159.973 6.19092 159.012 7.15762 159.012 8.35011C159.012 9.5426 159.973 10.5093 161.158 10.5093Z" fill="#6C63FF"/>
</g>
<defs>
<clipPath id="clip0_1207_9942">
<rect width="187" height="176" fill="white"/>
</clipPath>
</defs>
</svg>
