<svg width="87" height="87" viewBox="0 0 87 87" fill="none" xmlns="http://www.w3.org/2000/svg">
<path d="M83.7715 39.252H80.441L73.9242 21.349C73.8405 21.1197 73.6884 20.9216 73.4884 20.7817C73.2884 20.6417 73.0502 20.5667 72.8061 20.5667H65.6959V12.9141C65.6937 10.9769 64.9232 9.11966 63.5534 7.74987C62.1836 6.38008 60.3264 5.60958 58.3892 5.60742H28.6108C26.6736 5.60958 24.8164 6.38008 23.4466 7.74987C22.0768 9.11966 21.3063 10.9769 21.3041 12.9141V20.5667H14.1939C13.9498 20.5667 13.7116 20.6417 13.5116 20.7817C13.3116 20.9216 13.1595 21.1197 13.0758 21.349L6.55898 39.252H3.22852C2.37259 39.253 1.55203 39.5935 0.946802 40.1988C0.341572 40.804 0.00107912 41.6245 0 42.4805L0 48.5936C0.00107912 49.4495 0.341572 50.2701 0.946802 50.8753C1.55203 51.4805 2.37259 51.821 3.22852 51.8221H6.20215V74.0859C6.20431 76.0231 6.9748 77.8803 8.3446 79.2501C9.71439 80.6199 11.5716 81.3904 13.5088 81.3926H73.4912C75.4284 81.3904 77.2856 80.6199 78.6554 79.2501C80.0252 77.8803 80.7957 76.0231 80.7979 74.0859V51.8221H83.7715C84.6274 51.821 85.448 51.4805 86.0532 50.8753C86.6584 50.2701 86.9989 49.4495 87 48.5936V42.4805C86.9989 41.6245 86.6584 40.804 86.0532 40.1988C85.448 39.5935 84.6274 39.253 83.7715 39.252ZM23.683 12.9141C23.6845 11.6076 24.2041 10.355 25.1279 9.43122C26.0517 8.5074 27.3043 7.98777 28.6108 7.98633H58.3892C59.6957 7.98777 60.9483 8.5074 61.8721 9.43122C62.7959 10.355 63.3155 11.6076 63.317 12.9141V20.5667H60.2584V12.9141C60.2578 12.4185 60.0607 11.9434 59.7103 11.593C59.3599 11.2426 58.8848 11.0455 58.3892 11.0449H28.6108C28.1152 11.0455 27.6401 11.2426 27.2897 11.593C26.9393 11.9434 26.7422 12.4185 26.7416 12.9141V20.5667H23.683V12.9141ZM29.1205 20.5667V13.4238H57.8795V20.5667H29.1205ZM15.0265 22.9456H71.9735L77.9092 39.252H9.09014L15.0265 22.9456ZM78.4189 74.0859C78.4175 75.3924 77.8979 76.645 76.9741 77.5688C76.0502 78.4926 74.7977 79.0122 73.4912 79.0137H13.5088C12.2023 79.0122 10.9498 78.4926 10.0259 77.5688C9.10213 76.645 8.58249 75.3924 8.58105 74.0859V51.8221H32.9438V62.0174C32.9441 63.2345 33.4275 64.4016 34.2877 65.2626C35.1479 66.1235 36.3146 66.6079 37.5317 66.6094H49.4683C50.6847 66.6079 51.8508 66.1241 52.7109 65.264C53.571 64.4039 54.0548 63.2378 54.0562 62.0215V51.8262H78.4189V74.0859ZM35.3227 51.8221H51.6773V62.0174C51.6766 62.603 51.4436 63.1645 51.0295 63.5786C50.6154 63.9927 50.054 64.2257 49.4683 64.2264H37.5317C36.946 64.2257 36.3846 63.9927 35.9705 63.5786C35.5564 63.1645 35.3234 62.603 35.3227 62.0174V51.8221ZM84.6211 48.5936C84.6209 48.8189 84.5313 49.0349 84.372 49.1941C84.2128 49.3534 83.9968 49.443 83.7715 49.4432H3.22852C3.00324 49.443 2.78724 49.3534 2.62795 49.1941C2.46866 49.0349 2.37909 48.8189 2.37891 48.5936V42.4805C2.37909 42.2552 2.46866 42.0392 2.62795 41.8799C2.78724 41.7206 3.00324 41.631 3.22852 41.6309H83.7715C83.9968 41.631 84.2128 41.7206 84.372 41.8799C84.5313 42.0392 84.6209 42.2552 84.6211 42.4805V48.5936Z" fill="#21344D"/>
<path d="M40.0166 59.2151H46.9834C47.2989 59.2151 47.6014 59.0898 47.8245 58.8667C48.0475 58.6436 48.1729 58.3411 48.1729 58.0256C48.1729 57.7102 48.0475 57.4076 47.8245 57.1846C47.6014 56.9615 47.2989 56.8362 46.9834 56.8362H40.0166C39.7011 56.8362 39.3986 56.9615 39.1755 57.1846C38.9525 57.4076 38.8271 57.7102 38.8271 58.0256C38.8271 58.3411 38.9525 58.6436 39.1755 58.8667C39.3986 59.0898 39.7011 59.2151 40.0166 59.2151Z" fill="#21344D"/>
</svg>
