<svg width="86" height="86" viewBox="0 0 86 86" fill="none" xmlns="http://www.w3.org/2000/svg">
<g clip-path="url(#clip0_1558_10272)">
<path d="M7.56117 16.4427C8.47711 17.2049 9.73633 17.4057 10.8439 16.9662C11.9515 16.5267 12.7304 15.5171 12.8745 14.3343H51.6003C53.9752 14.3343 55.9003 12.4091 55.9003 10.0343V7.1676C55.9003 4.79277 53.9752 2.8676 51.6003 2.8676H12.8745C12.7306 1.68502 11.9521 0.675562 10.8449 0.235801C9.73771 -0.203961 8.47875 -0.00376922 7.5626 0.757728L1.15847 6.09116C0.420599 6.71943 -0.00345059 7.64055 -0.000965702 8.60965C0.00151918 9.57876 0.430287 10.4977 1.17137 11.1222L7.56117 16.4427ZM3.01033 8.28273L9.3987 2.95933C9.4652 2.90152 9.54996 2.86903 9.63807 2.8676C9.69694 2.86895 9.75494 2.88211 9.80863 2.9063C9.94935 2.9652 10.0389 3.10501 10.0337 3.25746V4.30093C10.0337 5.09254 10.6754 5.73426 11.467 5.73426H51.6003C52.3919 5.73426 53.0337 6.37599 53.0337 7.1676V10.0343C53.0337 10.8259 52.3919 11.4676 51.6003 11.4676H11.467C10.6754 11.4676 10.0337 12.1093 10.0337 12.9009V13.9444C10.0394 14.0961 9.95109 14.2358 9.8115 14.2956C9.67582 14.3613 9.51403 14.3399 9.40013 14.2411L3.02037 8.92916C2.9234 8.84768 2.86729 8.72759 2.867 8.60093C2.86617 8.47905 2.9185 8.36287 3.01033 8.28273Z" fill="#21344D"/>
<path d="M78.4397 15.0929C77.5238 14.3307 76.2646 14.1299 75.157 14.5694C74.0494 15.0089 73.2705 16.0185 73.1264 17.2014H34.4006C32.0258 17.2014 30.1006 19.1265 30.1006 21.5014V24.368C30.1006 26.7428 32.0258 28.668 34.4006 28.668H73.1264C73.2658 29.8533 74.044 30.8666 75.1531 31.3071C76.2622 31.7477 77.5236 31.5445 78.4383 30.7779L84.8424 25.4445C85.5803 24.8162 86.0043 23.8951 86.0019 22.926C85.9994 21.9569 85.5706 21.0379 84.8295 20.4135L78.4397 15.0929ZM82.9906 23.2529L76.5993 28.5763C76.4841 28.6721 76.3238 28.6925 76.1883 28.6286C76.0528 28.5646 75.9666 28.428 75.9672 28.2782V27.2347C75.9672 26.4431 75.3255 25.8014 74.5339 25.8014H34.4006C33.609 25.8014 32.9673 25.1596 32.9673 24.368V21.5014C32.9673 20.7098 33.609 20.068 34.4006 20.068H74.5339C75.3255 20.068 75.9672 19.4263 75.9672 18.6347V17.5912C75.9615 17.4395 76.0498 17.2999 76.1894 17.2401C76.3248 17.1727 76.4875 17.1943 76.6008 17.2945L82.9777 22.6065C83.0757 22.6874 83.1329 22.8076 83.1339 22.9347C83.1347 23.0566 83.0824 23.1728 82.9906 23.2529Z" fill="#21344D"/>
<path d="M83.1333 38.7004L75.6585 38.7119C73.8892 38.7066 72.3288 39.8699 71.8286 41.5671H67.2806C66.6177 41.5695 65.9635 41.4153 65.3715 41.117L57.6644 37.2556C53.8393 35.3636 49.3507 35.3636 45.5255 37.2556L45.1486 37.4448L44.7644 37.2499C40.9389 35.3594 36.451 35.3594 32.6255 37.2499L24.9214 41.1098C24.3323 41.4101 23.6805 41.5667 23.0193 41.5671H14.1714C13.6715 39.8709 12.1126 38.7079 10.3444 38.7119L2.86667 38.7004C1.28345 38.7004 0 39.9839 0 41.5671V64.5004C0 66.0836 1.28345 67.3671 2.86667 67.3671L10.0606 67.3785L14.3606 69.1702C14.2943 71.0481 15.2468 72.8155 16.8517 73.7927C17.6404 74.2653 18.5424 74.5154 19.4618 74.5165C19.8971 74.5158 20.3305 74.4599 20.7518 74.3503C20.7891 74.3402 20.8235 74.3216 20.8607 74.3101C21.1694 75.6863 22.0262 76.8769 23.2329 77.6068C24.0217 78.077 24.9232 78.3246 25.8416 78.3235C26.2769 78.3227 26.7103 78.2668 27.1316 78.1572C27.1688 78.1472 27.2018 78.1285 27.2391 78.1185C27.5505 79.4962 28.4109 80.687 29.6213 81.4152C30.7895 82.1187 32.1925 82.3198 33.5113 81.9727C33.5443 81.9641 33.5744 81.9469 33.6074 81.9383C33.91 83.2946 34.7541 84.4681 35.9437 85.1863L35.9638 85.1977L36.0039 85.2235C36.7898 85.6964 37.6896 85.9466 38.6068 85.9474C39.0421 85.9475 39.4756 85.8921 39.8968 85.7825C40.8411 85.5379 41.6943 85.0252 42.3536 84.3062L43.1892 84.9555C44.0677 85.634 45.1465 86.002 46.2565 86.0018C46.4871 86.0017 46.7175 85.9859 46.946 85.9545C48.243 85.7838 49.4209 85.1099 50.2254 84.0783C50.2484 84.0525 50.2713 84.0238 50.2914 83.9966C51.1196 82.9005 51.471 81.5167 51.266 80.1581L51.3291 80.151C52.6597 79.9822 53.8657 79.2828 54.6731 78.2117C55.3554 77.327 55.7263 76.2416 55.728 75.1243C56.0533 75.1438 56.3797 75.1318 56.7027 75.0884C58.0307 74.9188 59.234 74.22 60.0395 73.1506C60.7292 72.2621 61.1034 71.1693 61.103 70.0445C61.1039 69.4717 61.01 68.9026 60.8249 68.3604C61.5301 68.1782 62.1847 67.8386 62.7399 67.3671L75.6398 67.3785H75.6485L83.1333 67.3671C84.7165 67.3671 86 66.0836 86 64.5004V41.5671C86 39.9839 84.7165 38.7004 83.1333 38.7004ZM56.3916 39.8241L64.0815 43.6769C65.0741 44.1756 66.1698 44.4348 67.2806 44.4337H71.8186L74.0503 64.509L64.3882 64.5004C64.4902 64.0372 64.5278 63.5621 64.5 63.0886C64.3363 61.3825 63.4492 59.8285 62.0633 58.8201L47.5867 48.695C45.7564 47.3841 43.2238 47.7128 41.7888 49.4475L35.1324 57.4083C33.8973 58.8747 31.7177 59.0879 30.2218 57.8884C29.8822 57.6183 29.6851 57.2073 29.6872 56.7733C29.6871 56.4758 29.782 56.1861 29.9581 55.9463L36.5672 46.502C37.662 44.9387 39.129 43.6727 40.8357 42.8184L46.8026 39.8284C49.8236 38.3346 53.3679 38.333 56.3902 39.8241H56.3916ZM2.86667 41.5671L10.3444 41.5785C10.6681 41.5786 10.9766 41.7165 11.1924 41.9578C11.4083 42.1991 11.5111 42.521 11.4753 42.8427L9.06583 64.5104L2.86667 64.5004V41.5671ZM18.3237 71.3331C17.2336 70.6663 16.8742 69.2517 17.5139 68.1454L18.1474 67.0632C18.4481 66.538 18.9478 66.1562 19.5335 66.004C19.7181 65.9573 19.9078 65.9337 20.0982 65.9337C20.5023 65.9349 20.8985 66.0453 21.2449 66.2534C21.9471 66.6764 22.3721 67.4403 22.3614 68.26C22.3632 68.6722 22.2564 69.0776 22.0518 69.4354L21.4183 70.5161C21.1176 71.0418 20.6181 71.4246 20.0323 71.5782C19.453 71.7295 18.8372 71.6411 18.3237 71.3331ZM24.7049 75.1472C23.6153 74.4799 23.2566 73.0654 23.8965 71.9595L24.5315 70.8744C24.8325 70.3508 25.3315 69.9701 25.9161 69.8181C26.1006 69.7703 26.2903 69.7458 26.4808 69.745C26.8849 69.746 27.2811 69.8565 27.6275 70.0646C28.6948 70.7255 29.0571 72.1068 28.4517 73.2065V73.2151L27.8024 74.3331L27.7938 74.3503C27.4925 74.8669 26.9973 75.2417 26.4183 75.3913C25.8393 75.541 25.2245 75.4531 24.7107 75.1472H24.7049ZM31.1033 78.9541C30.0134 78.2993 29.6456 76.8942 30.2749 75.7893L30.2863 75.7736L30.9199 74.6885C30.9299 74.6728 30.9371 74.6541 30.9457 74.6369C31.2474 74.1282 31.7393 73.7605 32.3127 73.615C32.886 73.4695 33.4937 73.5582 34.0015 73.8615C35.0965 74.5198 35.4625 75.9338 34.8243 77.0406L34.1735 78.1586C33.8745 78.6741 33.3815 79.0484 32.8046 79.1978C32.2278 79.3473 31.615 79.2596 31.1033 78.9541ZM39.1859 83.0062C38.6092 83.159 37.9952 83.0711 37.4845 82.7625L37.4645 82.7496C36.382 82.0988 36.0194 80.7014 36.6489 79.6063L37.0517 78.9126L37.3082 78.4711C37.7088 77.785 38.4431 77.3628 39.2375 77.3617C39.6472 77.3634 40.0489 77.4758 40.3999 77.6871C41.4858 78.3403 41.848 79.7432 41.2141 80.8404L40.5519 81.9785C40.251 82.4918 39.756 82.8623 39.1787 83.0062H39.1859ZM57.9998 65.1296C57.3756 64.6424 56.4747 64.7534 55.9874 65.3776C55.5002 66.0018 55.6112 66.9028 56.2354 67.39L57.3706 68.2787C57.8397 68.6397 58.1451 69.1732 58.2189 69.7606C58.2926 70.3479 58.1286 70.9404 57.7633 71.4062C57.4167 71.8689 56.8984 72.1725 56.3254 72.2486C55.7523 72.3246 55.1727 72.1667 54.7175 71.8104L53.7758 71.0765C53.7636 71.0656 53.7507 71.0556 53.7371 71.0464C53.1113 70.5722 52.2204 70.6898 51.739 71.3101C51.2576 71.9305 51.365 72.8227 51.9798 73.3111L52.0042 73.3297C52.9733 74.0946 53.1465 75.4968 52.3926 76.4745C52.0449 76.9325 51.5283 77.2321 50.9581 77.3064C50.3879 77.3808 49.8117 77.2236 49.3583 76.8701C48.9251 76.535 48.3388 76.476 47.8475 76.7181C47.3996 76.9368 47.0963 77.3713 47.0455 77.8672C46.9948 78.363 47.2037 78.85 47.5981 79.1548C48.5301 79.9006 48.7243 81.2411 48.0425 82.2207L47.9909 82.2852C47.6454 82.7455 47.1284 83.0464 46.5575 83.1194C45.9819 83.1979 45.3988 83.0431 44.9379 82.6894L43.8729 81.8624C45.0049 79.4552 44.1326 76.5818 41.8533 75.2103C40.6861 74.5056 39.2832 74.3039 37.9647 74.6513C37.926 74.6613 37.893 74.6814 37.8543 74.6914C37.5432 73.3136 36.6827 72.1226 35.4721 71.3947C34.3042 70.6918 32.9018 70.4907 31.5835 70.8372C31.5462 70.8472 31.5133 70.8658 31.4774 70.8759C31.1748 69.5225 30.3359 68.3498 29.1528 67.6262C27.9696 66.9027 26.5435 66.6902 25.2009 67.0374C25.1636 67.0474 25.1306 67.0675 25.0934 67.0775C24.784 65.7017 23.9275 64.5113 22.7212 63.7809C21.5467 63.0795 20.14 62.8784 18.8161 63.2227C17.4922 63.567 16.3617 64.428 15.6778 65.6127L15.212 66.4096L11.8967 65.0365L14.1814 44.4337H23.0193C24.1279 44.4352 25.2215 44.1775 26.2128 43.6812L33.8998 39.8284C36.3357 38.6315 39.1322 38.3926 41.7358 39.1591L39.55 40.2556C37.4158 41.3236 35.582 42.9075 34.2151 44.8637L27.6146 54.2965C26.2925 56.1489 26.6501 58.7118 28.4287 60.1316C31.1457 62.3019 35.0978 61.9088 37.334 59.2458L43.9847 51.2922C44.4662 50.7066 45.3206 50.5973 45.934 51.0428L60.3648 61.1292C61.0766 61.6447 61.5374 62.4371 61.6333 63.3107C61.6947 63.9407 61.4834 64.5668 61.0528 65.0307C60.2055 65.8283 58.897 65.8707 57.9998 65.1296ZM83.1333 64.5004L76.9356 64.5104L74.5333 42.8427C74.4974 42.5205 74.6006 42.1982 74.8171 41.9568C75.0336 41.7154 75.3428 41.5778 75.6671 41.5785L83.1333 41.5671V64.5004Z" fill="#21344D"/>
</g>
<defs>
<clipPath id="clip0_1558_10272">
<rect width="86" height="86" fill="white"/>
</clipPath>
</defs>
</svg>
