<svg width="87" height="87" viewBox="0 0 87 87" fill="none" xmlns="http://www.w3.org/2000/svg">
<path d="M65.9517 71.5645H68.7581V74.3709H65.9517V71.5645Z" fill="#21344D"/>
<path d="M18.2419 71.5645H21.0484V74.3709H18.2419V71.5645Z" fill="#21344D"/>
<path d="M79.9838 36.4839H73.3733L72.3798 31.0183C72.0694 29.3163 71.1588 27.8583 69.8961 26.8326C70.4504 26.4187 70.9416 25.9145 71.337 25.3211C72.4696 23.626 72.6868 21.4848 71.9207 19.5945L67.8207 9.46492C67.3377 7.22373 65.3568 5.6129 63.0526 5.6129C62.0995 5.6129 61.2732 4.96884 61.0416 4.0425L60.9546 3.69443C60.4113 1.5197 58.4654 0 56.2215 0H30.7784C28.5345 0 26.59 1.5197 26.0466 3.69306L25.9596 4.04387C25.7267 4.96884 24.9004 5.6129 23.9473 5.6129C21.6417 5.6129 19.6609 7.22373 19.1792 9.46492L15.0791 19.5945C14.3131 21.4848 14.5303 23.626 15.6629 25.3211C16.0582 25.9145 16.5495 26.4187 17.1038 26.834C15.841 27.8596 14.9305 29.3191 14.6201 31.0196L13.6266 36.4839H7.01607C4.69541 36.4839 2.8064 38.3729 2.8064 40.6935V46.3064C2.8064 48.6271 4.69541 50.5161 7.01607 50.5161H11.0757L9.93626 56.7827C9.86021 57.1952 9.82253 57.6179 9.82253 58.0386V71.5645C9.82253 75.4727 12.1226 78.8458 15.4354 80.4258V84.1936C15.4354 85.7413 16.6941 87 18.2419 87H26.6612C28.209 87 29.4677 85.7413 29.4677 84.1936V81.3871H57.5322V84.1936C57.5322 85.7413 58.7909 87 60.3387 87H68.758C70.3058 87 71.5645 85.7413 71.5645 84.1936V80.4258C74.8773 78.8458 77.1774 75.4727 77.1774 71.5645V58.0386C77.1774 57.6179 77.1397 57.1952 77.0636 56.7827L75.9242 50.5161H79.9838C82.3045 50.5161 84.1935 48.6271 84.1935 46.3064V40.6935C84.1935 38.3729 82.3045 36.4839 79.9838 36.4839ZM73.3281 51.9194H69.9858L67.8289 35.7432C67.4589 32.9662 65.0677 30.871 62.2653 30.871H59.2821L59.9049 28.0645H65.4774C67.5117 28.0645 69.2534 29.5184 69.6193 31.5205L73.3281 51.9194ZM12.6961 57.2856L13.1607 54.7258H17.0702L18.6009 63.1452H12.629V58.0386C12.629 57.7865 12.6516 57.5336 12.6961 57.2856ZM19.6622 53.289L21.9534 36.1118C22.1371 34.7244 23.3341 33.6774 24.7345 33.6774H36.4838V36.4839H33.6774V44.9032H53.3225V36.4839H50.5161V33.6774H62.2653C63.6658 33.6774 64.8628 34.7244 65.0464 36.1118L67.3377 53.289L66.8217 56.129H65.7974C65.8885 55.8049 65.9516 55.4692 65.9516 55.117C65.9516 54.71 65.8871 54.3079 65.7549 53.9091L65.0252 51.7227C64.5065 50.1626 63.0512 49.1129 61.4048 49.1129H56.4661C54.8196 49.1129 53.3643 50.1626 52.8443 51.7227L52.1132 53.9159C51.9837 54.3079 51.9193 54.7121 51.9193 55.117C51.9193 55.4692 51.9823 55.8049 52.0721 56.129H50.3619C50.453 55.8049 50.5161 55.4692 50.5161 55.117C50.5161 54.71 50.4517 54.3079 50.3194 53.9091L49.5897 51.7227C49.0711 50.1626 47.6158 49.1129 45.9693 49.1129H41.0306C39.3841 49.1129 37.9288 50.1626 37.4088 51.7227L36.6777 53.9159C36.5482 54.3079 36.4838 54.7121 36.4838 55.117C36.4838 55.4692 36.5469 55.8049 36.6366 56.129H34.9264C35.0176 55.8049 35.0806 55.4692 35.0806 55.117C35.0806 54.71 35.0162 54.3079 34.8839 53.9091L34.1542 51.7227C33.6356 50.1626 32.1803 49.1129 30.5338 49.1129H25.5951C23.9487 49.1129 22.4934 50.1626 21.9733 51.7227L21.2422 53.9159C21.1127 54.3079 21.0483 54.7121 21.0483 55.117C21.0483 55.4692 21.1114 55.8049 21.2011 56.129H20.1768L19.6622 53.289ZM23.9528 18.4077L24.6557 17.0929L25.2231 19.6452H24.6969C24.2323 19.6452 23.8548 19.2676 23.8548 18.8031C23.8548 18.6654 23.8884 18.5297 23.9528 18.4077ZM26.764 13.6383C29.5629 12.8647 31.898 10.9942 33.2409 8.41935H53.7603C55.1046 10.9942 57.4397 12.8647 60.2345 13.6383L58.9005 19.6452H28.0994L26.764 13.6383ZM63.0471 18.4077C63.1115 18.5297 63.1451 18.6654 63.1451 18.8031C63.1451 19.2676 62.7676 19.6452 62.303 19.6452H61.7755L62.3428 17.0929L63.0471 18.4077ZM58.277 22.4516L57.6542 25.2581H29.3471L28.7243 22.4516H58.277ZM57.03 28.0645L56.4072 30.871H30.5927L29.9699 28.0645H57.03ZM42.0967 33.6774V36.4839H39.2903V33.6774H42.0967ZM50.5161 39.2903V42.0968H36.4838V39.2903H50.5161ZM44.9032 36.4839V33.6774H47.7096V36.4839H44.9032ZM54.7257 55.117C54.7257 55.0095 54.7443 54.8985 54.7765 54.7971L55.5062 52.6114C55.6432 52.1975 56.031 51.9194 56.4661 51.9194H61.4048C61.8412 51.9194 62.2277 52.1975 62.3661 52.6114L63.093 54.7902C63.1266 54.8998 63.1451 55.0095 63.1451 55.117C63.1451 55.6754 62.6915 56.129 62.1331 56.129H55.7364C55.1793 56.129 54.7257 55.6754 54.7257 55.117ZM39.2903 55.117C39.2903 55.0095 39.3088 54.8985 39.341 54.7971L40.0707 52.6114C40.2077 52.1975 40.5955 51.9194 41.0306 51.9194H45.9693C46.4057 51.9194 46.7922 52.1975 46.9306 52.6114L47.6575 54.7902C47.6911 54.8998 47.7096 55.0095 47.7096 55.117C47.7096 55.6754 47.256 56.129 46.6976 56.129H40.3009C39.7438 56.129 39.2903 55.6754 39.2903 55.117ZM23.8548 55.117C23.8548 55.0095 23.8733 54.8985 23.9055 54.7971L24.6352 52.6114C24.7722 52.1975 25.16 51.9194 25.5951 51.9194H30.5338C30.9703 51.9194 31.3567 52.1975 31.4951 52.6114L32.2221 54.7902C32.2556 54.8998 32.2741 55.0095 32.2741 55.117C32.2741 55.6754 31.8206 56.129 31.2621 56.129H24.8654C24.3084 56.129 23.8548 55.6754 23.8548 55.117ZM20.6879 58.9355H66.312L65.0917 65.6529C64.9101 66.6395 64.053 67.3548 63.0526 67.3548C60.8087 67.3548 58.8642 68.8745 58.3208 71.0479L58.2338 71.3987C58.0009 72.3237 57.1745 72.9677 56.2215 72.9677H30.7784C29.8253 72.9677 28.999 72.3237 28.7674 71.3973L28.6804 71.0493C28.1371 68.8745 26.1912 67.3548 23.9473 67.3548C22.9456 67.3548 22.0898 66.6395 21.9082 65.6543L20.6879 58.9355ZM69.9283 54.7258H73.8379L74.3038 57.2856C74.3483 57.5336 74.3709 57.7865 74.3709 58.0386V63.1452H68.399L69.9283 54.7258ZM69.3192 20.6482C69.7357 21.6774 69.6165 22.8415 69.0006 23.7665C68.3791 24.701 67.3363 25.2581 66.214 25.2581H60.5298L61.1526 22.4516H62.303C64.3154 22.4516 65.9516 20.8154 65.9516 18.8031C65.9516 18.2056 65.8029 17.6102 65.5206 17.084L63.2787 12.886L64.1893 8.79003C64.6422 9.09288 64.9862 9.55057 65.0917 10.1199L69.3192 20.6482ZM28.6791 4.72629L28.7661 4.37549C28.999 3.45051 29.8253 2.80645 30.7784 2.80645H56.2228C57.1759 2.80645 58.0022 3.45051 58.2338 4.37686L58.3208 4.72492C58.7292 6.36111 59.9303 7.62387 61.4555 8.15145L60.845 10.9017C58.6394 10.246 56.8443 8.64546 55.9522 6.4817L55.5918 5.6129H31.4081L31.0504 6.4817C30.1597 8.64546 28.3646 10.2446 26.1563 10.9004L25.5444 8.15008C27.0696 7.62524 28.2721 6.36111 28.6791 4.72629ZM20.7859 25.2581C19.6622 25.2581 18.6194 24.701 17.998 23.7651C17.3834 22.8415 17.2641 21.6774 17.6794 20.6469L21.8287 10.3954L21.9082 10.1213C22.0124 9.55194 22.3577 9.09425 22.8106 8.7914L23.7212 12.8873L21.4793 17.0854C21.197 17.6116 21.0483 18.2056 21.0483 18.8031C21.0483 20.8154 22.6845 22.4516 24.6969 22.4516H25.8473L26.4701 25.2581H20.7859ZM17.3806 31.5219C17.7451 29.5184 19.4882 28.0645 21.5225 28.0645H27.0949L27.7178 30.871H24.7345C21.9322 30.871 19.541 32.9662 19.171 35.7418L17.0141 51.9194H13.6718L17.3806 31.5219ZM7.01607 47.7097C6.24183 47.7097 5.61285 47.0793 5.61285 46.3064V40.6935C5.61285 39.9207 6.24183 39.2903 7.01607 39.2903H13.1161L11.5848 47.7097H7.01607ZM26.6612 84.1936H18.2419V81.2747C18.7023 81.3405 19.1682 81.3871 19.6451 81.3871H26.6612V84.1936ZM68.758 84.1936H60.3387V81.3871H67.3548C67.8317 81.3871 68.2976 81.3405 68.758 81.2747V84.1936ZM67.3548 78.5806H19.6451C15.7766 78.5806 12.629 75.433 12.629 71.5645V65.9516H19.112L19.1497 66.1565C19.5725 68.4771 21.5917 70.1613 23.9473 70.1613C24.9004 70.1613 25.7267 70.8054 25.9583 71.7317L26.0453 72.0798C26.5886 74.2545 28.5345 75.7742 30.7784 75.7742H56.2228C58.4668 75.7742 60.4113 74.2545 60.9546 72.0811L61.0416 71.7303C61.2732 70.8054 62.0995 70.1613 63.0526 70.1613C65.4096 70.1613 67.4274 68.4771 67.8515 66.1565L67.8878 65.9516H74.3709V71.5645C74.3709 75.433 71.2232 78.5806 67.3548 78.5806ZM81.387 46.3064C81.387 47.0793 80.7581 47.7097 79.9838 47.7097H75.4137L73.8824 39.2903H79.9838C80.7581 39.2903 81.387 39.9207 81.387 40.6935V46.3064Z" fill="#21344D"/>
</svg>
