<svg width="87" height="87" viewBox="0 0 87 87" fill="none" xmlns="http://www.w3.org/2000/svg">
<path d="M86.3325 27.3462C84.6387 22.1468 79.3688 18.8258 73.9471 19.1031C75.281 17.0894 75.9846 14.7596 75.9846 12.3188C75.9846 5.5262 70.4584 0 63.6658 0C60.5506 0 57.5797 1.16447 55.2963 3.27966L21.1474 31.3118C21.1051 31.3465 21.0667 31.3841 21.03 31.4228C17.5347 34.4624 15.3213 38.94 15.3213 43.925C15.3213 45.4375 15.5262 46.9029 15.9077 48.2959C15.9077 48.2959 6.2546 57.3714 4.12497 59.5401C1.81335 61.894 0.0291748 66.2665 0.0291748 70.4333C0.0291748 79.5683 7.46088 87 16.5959 87C23.4747 87 29.3869 82.7856 31.8882 76.8035C34.3892 82.7856 40.3015 87 47.1801 87C53.7569 87 59.4507 83.1475 62.1239 77.5807L81.6608 44.0149C82.4897 42.5907 80.2867 41.3083 79.458 42.7326L63.7317 69.7517C63.3728 60.9318 56.0867 53.8668 47.1801 53.8668C46.4544 53.8668 45.7393 53.9142 45.0379 54.0051C45.0379 54.0051 67.4995 27.2084 71.5315 22.2579C76.2483 20.0543 82.382 23.4489 83.9089 28.1358C84.7736 30.7902 84.5395 33.7242 83.2664 36.1855C82.5096 37.6493 84.7736 38.82 85.5305 37.3565C87.1148 34.2931 87.4071 30.6446 86.3325 27.3462ZM56.9532 5.21711C58.9192 3.60234 61.0566 2.54883 63.6658 2.54883C69.053 2.54883 73.4359 6.93162 73.4359 12.319C73.4359 14.4386 72.7695 16.453 71.5083 18.1465C71.5083 18.1465 49.8702 44.1618 48.3215 46.0313C48.4095 45.3414 48.4547 44.6383 48.4547 43.925C48.4547 34.7901 41.023 27.3583 31.8882 27.3583C31.1894 27.3583 30.5008 27.4023 29.8246 27.4866L56.9532 5.21711ZM31.888 29.9071C39.6174 29.9071 45.9057 36.1954 45.9057 43.925C45.9057 51.5169 39.4857 57.9427 31.888 57.9427C24.1586 57.9427 17.8701 51.6544 17.8701 43.925C17.8703 36.1956 24.1586 29.9071 31.888 29.9071ZM34.0443 60.3513C33.174 61.4827 32.446 62.7287 31.888 64.0633C31.33 62.7287 30.602 61.4827 29.7317 60.3513C30.4377 60.4434 31.1573 60.4915 31.888 60.4915C32.6187 60.4915 33.3385 60.4434 34.0443 60.3513ZM16.8652 50.9033C17.3811 52.0095 18.0154 53.0494 18.7522 54.007C18.0462 53.9149 17.3265 53.8668 16.5959 53.8668C15.5136 53.8668 14.4555 53.9723 13.4306 54.1714L16.8652 50.9033ZM16.5959 84.4512C8.86647 84.4512 2.578 78.1629 2.578 70.4333C2.578 66.8522 3.92956 63.582 6.14704 61.1017C8.88499 58.2098 12.5611 56.4156 16.5959 56.4156C24.3253 56.4156 30.6138 62.7039 30.6138 70.4335C30.6138 78.163 24.3253 84.4512 16.5959 84.4512ZM61.198 70.4333C61.198 78.1627 54.9097 84.4512 47.1801 84.4512C39.4507 84.4512 33.1624 78.1629 33.1624 70.4333C33.1624 62.7037 39.4507 56.4154 47.1801 56.4154C54.9097 56.4156 61.198 62.7039 61.198 70.4333Z" fill="#21344D"/>
<path d="M31.8881 56.2435C38.6805 56.2435 44.2067 50.7175 44.2067 43.9249C44.2067 37.1322 38.6807 31.6062 31.8881 31.6062C29.5301 31.6062 27.2341 32.2806 25.2482 33.5564C23.8618 34.447 25.2395 36.5914 26.6258 35.7008C28.1999 34.6896 30.0196 34.155 31.8881 34.155C37.2751 34.155 41.6579 38.5377 41.6579 43.9249C41.6579 49.3121 37.2753 53.6947 31.8881 53.6947C26.5009 53.6947 22.1184 49.3121 22.1184 43.9249C22.1184 42.6815 22.3527 41.4652 22.8149 40.3101C23.427 38.7803 21.0605 37.8335 20.4484 39.3635C19.8652 40.8212 19.5696 42.356 19.5696 43.925C19.5696 50.7175 25.0956 56.2435 31.8881 56.2435Z" fill="#21344D"/>
<path d="M16.5957 58.1147C9.80325 58.1147 4.27722 63.6408 4.27722 70.4334C4.27722 77.226 9.80325 82.7519 16.5957 82.7519C23.3882 82.7519 28.9144 77.2259 28.9144 70.4332C28.9144 63.6406 23.3882 58.1147 16.5957 58.1147ZM16.5957 80.2031C11.2087 80.2031 6.82605 75.8204 6.82605 70.4332C6.82605 65.046 11.2087 60.6634 16.5957 60.6634C21.9827 60.6634 26.3655 65.046 26.3655 70.4332C26.3655 75.8204 21.9827 80.2031 16.5957 80.2031Z" fill="#21344D"/>
<path d="M47.1802 82.7518C53.9727 82.7518 59.4987 77.2258 59.4987 70.4332C59.4987 63.6405 53.9727 58.1145 47.1802 58.1145C40.3878 58.1145 34.8616 63.6405 34.8616 70.4332C34.8616 77.2258 40.3878 82.7518 47.1802 82.7518ZM47.1802 60.6635C52.5673 60.6635 56.9499 65.0461 56.9499 70.4333C56.9499 75.8205 52.5673 80.203 47.1802 80.203C41.7932 80.203 37.4104 75.8204 37.4104 70.4332C37.4104 65.046 41.7932 60.6635 47.1802 60.6635Z" fill="#21344D"/>
</svg>
