<svg width="87" height="87" viewBox="0 0 87 87" fill="none" xmlns="http://www.w3.org/2000/svg">
<path d="M69.6 48.5747V47.1247C69.6 44.7222 67.6525 42.7747 65.25 42.7747C62.8524 42.7867 60.912 44.7271 60.9 47.1247V48.5747H55.7946C54.9987 47.5985 54.0832 46.726 53.07 45.9778C52.78 45.7603 52.49 45.5573 52.2 45.3702V38.4247H55.1C57.4976 38.4127 59.438 36.4723 59.45 34.0747C59.45 31.6722 57.5025 29.7247 55.1 29.7247H49.3V26.8247H52.2C53.0008 26.8247 53.65 26.1755 53.65 25.3747V21.0247H62.35C64.7525 21.0247 66.7 19.0772 66.7 16.6747C66.7 14.2722 64.7525 12.3247 62.35 12.3247H24.65C22.2475 12.3247 20.3 14.2722 20.3 16.6747C20.3 19.0772 22.2475 21.0247 24.65 21.0247H33.35V25.3747C33.35 26.1755 33.9992 26.8247 34.8 26.8247H37.7V29.7247H31.9C29.5024 29.7367 27.562 31.6771 27.55 34.0747C27.55 36.4772 29.4975 38.4247 31.9 38.4247H34.8V45.3702C34.51 45.5573 34.22 45.7574 33.9402 45.972C32.9226 46.7209 32.0039 47.5954 31.2055 48.5747H26.1V47.1247C26.088 44.7271 24.1476 42.7867 21.75 42.7747C19.3475 42.7747 17.4 44.7222 17.4 47.1247V48.5747H0V68.8747H17.4V70.3247C17.4 72.7272 19.3475 74.6747 21.75 74.6747C24.1525 74.6747 26.1 72.7272 26.1 70.3247V68.8747H31.2084C36.7994 75.6632 46.835 76.6338 53.6235 71.0428C54.4143 70.3916 55.1404 69.6655 55.7917 68.8747H60.9V70.3247C60.9 72.7272 62.8475 74.6747 65.25 74.6747C67.6525 74.6747 69.6 72.7272 69.6 70.3247V68.8747H87V48.5747H69.6ZM17.4 65.9747H2.9V51.4747H17.4V65.9747ZM23.2 70.3247C23.2 71.1255 22.5508 71.7747 21.75 71.7747C20.9492 71.7747 20.3 71.1255 20.3 70.3247V47.1247C20.3 46.3239 20.9492 45.6747 21.75 45.6747C22.1408 45.6734 22.5145 45.834 22.7824 46.1184C23.053 46.3829 23.2038 46.7464 23.2 47.1247V70.3247ZM24.65 18.1247C23.8492 18.1247 23.2 17.4755 23.2 16.6747C23.2 15.8739 23.8492 15.2247 24.65 15.2247H62.35C63.1508 15.2247 63.8 15.8739 63.8 16.6747C63.8 17.4755 63.1508 18.1247 62.35 18.1247H24.65ZM36.25 23.9247V21.0247H50.75V23.9247H36.25ZM46.4 26.8247V29.7247H40.6V26.8247H46.4ZM31.9 35.5247C31.0992 35.5247 30.45 34.8755 30.45 34.0747C30.4487 33.6839 30.6093 33.3102 30.8937 33.0423C31.1581 32.7717 31.5217 32.6209 31.9 32.6247H55.1C55.9008 32.6247 56.55 33.2739 56.55 34.0747C56.5513 34.4655 56.3907 34.8392 56.1063 35.1071C55.8419 35.3777 55.4783 35.5285 55.1 35.5247H31.9ZM60.9 65.9747H55.0855C54.6291 65.9747 54.1994 66.1897 53.9255 66.5547C49.6172 72.3125 41.4568 73.4875 35.699 69.1792C34.7034 68.4341 33.8194 67.5503 33.0745 66.5547C32.8006 66.1897 32.3709 65.9747 31.9145 65.9747H26.1V51.4747H31.9145C32.3727 51.4723 32.8028 51.2536 33.0745 50.8846C34.1287 49.4853 35.4556 48.3142 36.975 47.4423C37.425 47.1825 37.7016 46.7019 37.7 46.1822V38.4247H49.3V46.1822C49.2986 46.7019 49.575 47.1825 50.025 47.4423C50.4781 47.7043 50.9139 47.9949 51.33 48.3123C52.3142 49.0369 53.1835 49.9062 53.9081 50.8904C54.1798 51.2594 54.6099 51.4781 55.0681 51.4805H60.9V65.9747ZM66.7 70.3247C66.7 71.1255 66.0508 71.7747 65.25 71.7747C64.4492 71.7747 63.8 71.1255 63.8 70.3247V47.1247C63.7987 46.7339 63.9593 46.3602 64.2437 46.0923C64.5081 45.8217 64.8717 45.6709 65.25 45.6747C66.0508 45.6747 66.7 46.3239 66.7 47.1247V70.3247ZM84.1 65.9747H69.6V51.4747H84.1V65.9747Z" fill="#21344D"/>
</svg>
