<svg width="87" height="87" viewBox="0 0 87 87" fill="none" xmlns="http://www.w3.org/2000/svg">
<g clip-path="url(#clip0_1427_10118)">
<path d="M43.5 31.2559C47.4401 31.2559 50.6465 34.4622 50.6465 38.4023C50.6465 42.3425 47.4401 45.5488 43.5 45.5488C39.5599 45.5488 36.3535 42.3425 36.3535 38.4023C36.3535 34.4622 39.5599 31.2559 43.5 31.2559ZM40.4512 38.4023C40.4512 40.0839 41.8184 41.4512 43.5 41.4512C45.1816 41.4512 46.5488 40.0839 46.5488 38.4023C46.5488 36.7208 45.1816 35.3535 43.5 35.3535C41.8184 35.3535 40.4512 36.7208 40.4512 38.4023Z" fill="#21344D" stroke="white"/>
<path d="M55.562 56.7034L55.6133 57.0005L55.9 57.0938C58.7657 58.0259 60.8418 60.7212 60.8418 63.8906V76.1348H56.7441V63.8906C56.7441 62.2091 55.3769 60.8418 53.6953 60.8418H51.6465V58.793C51.6465 55.2512 49.3752 52.2341 46.216 51.1136L45.5488 50.877V51.5849V61.7802V62.1334L45.8817 62.2514C48.6558 63.2353 50.6465 65.8844 50.6465 68.9883V76.1348H46.5488V68.9883C46.5488 67.3067 45.1816 65.9395 43.5 65.9395C41.8184 65.9395 40.4512 67.3067 40.4512 68.9883V76.1348H36.3535V68.9883C36.3535 65.8844 38.3442 63.2353 41.1183 62.2514L41.4512 62.1334V61.7802V51.5849V50.877L40.784 51.1136C37.7745 52.181 35.5708 54.9694 35.3687 58.293H31.2659C31.5292 51.7728 36.9165 46.5488 43.5 46.5488C49.5376 46.5488 54.5672 50.9443 55.562 56.7034Z" fill="#21344D" stroke="white"/>
<path d="M71.2891 31.3616L81.9791 37.4699L79.9461 41.0278L76.8829 39.2774L76.1348 38.85V39.7115V86.5H10.8653V39.7115V38.85L10.1173 39.2774L7.05405 41.0277L5.02106 37.4699L43.5001 15.4821L55.9962 22.6226L56.7442 23.0501V22.1885V16.2171V16.01L56.5978 15.8636L53.4304 12.6962C50.6442 9.91005 50.6442 5.3757 53.4304 2.58951C56.2164 -0.196504 60.7511 -0.196504 63.5372 2.58951L63.8907 2.94307L64.2443 2.58951C67.0303 -0.196504 71.565 -0.196504 74.351 2.58951C77.1372 5.3757 77.1372 9.91005 74.351 12.6962L71.1836 15.8634L71.0372 16.0098V16.217V30.9274V31.2176L71.2891 31.3616ZM65.2496 15.7956H65.4567L65.6031 15.6492L71.4535 9.79879C72.6367 8.61562 72.6369 6.67051 71.4535 5.48713C70.2644 4.29799 68.3308 4.29799 67.1417 5.48713L63.8907 8.73813L60.6395 5.48696C59.4506 4.29802 57.517 4.2978 56.3279 5.48696C55.1447 6.67017 55.1447 8.61545 56.328 9.79879L62.1785 15.6492L62.3249 15.7956H62.532H65.2496ZM71.5372 82.4023H72.0372V81.9023V36.7986V36.5084L71.7853 36.3645L66.9395 33.5955V20.3931V19.8931H66.4395H61.3419H60.8419L60.8419 20.3931L60.8417 30.1109L43.7482 20.3432L43.5001 20.2014L43.252 20.3432L15.2149 36.3645L14.963 36.5084V36.7986V81.9023V82.4023H15.463H71.5372Z" fill="#21344D" stroke="white"/>
</g>
<defs>
<clipPath id="clip0_1427_10118">
<rect width="87" height="87" fill="white"/>
</clipPath>
</defs>
</svg>
