<svg width="79" height="88" viewBox="0 0 79 88" fill="none" xmlns="http://www.w3.org/2000/svg">
<path d="M47.1465 39.3691C47.1465 35.1529 43.7163 31.7227 39.5 31.7227C35.2837 31.7227 31.8535 35.1529 31.8535 39.3691C31.8535 43.5854 35.2837 47.0156 39.5 47.0156C43.7163 47.0156 47.1465 43.5854 47.1465 39.3691ZM39.5 41.918C38.0946 41.918 36.9512 40.7746 36.9512 39.3691C36.9512 37.9637 38.0946 36.8203 39.5 36.8203C40.9054 36.8203 42.0488 37.9637 42.0488 39.3691C42.0488 40.7746 40.9054 41.918 39.5 41.918Z" fill="#21344D"/>
<path d="M52.0547 57.5851C51.0193 51.5909 45.7856 47.0156 39.5 47.0156C32.4729 47.0156 26.7559 52.7326 26.7559 59.7598H31.8535C31.8535 56.4369 33.9845 53.6038 36.9512 52.5517V62.747C33.9845 63.7991 31.8535 66.6323 31.8535 69.9551V77.6016H36.9512V69.9551C36.9512 68.5497 38.0946 67.4062 39.5 67.4062C40.9054 67.4062 42.0488 68.5497 42.0488 69.9551V77.6016H47.1465V69.9551C47.1465 66.6323 45.0155 63.7991 42.0488 62.747V52.5517C45.0155 53.6038 47.1465 56.4369 47.1465 59.7598V62.3086H49.6953C51.1007 62.3086 52.2441 63.452 52.2441 64.8574V77.6016H57.3418V64.8574C57.3418 61.4644 55.1196 58.582 52.0547 57.5851Z" fill="#21344D"/>
<path d="M78.6611 38.2507L67.5369 31.8942V17.1838L70.7043 14.0166C73.6857 11.0351 73.6857 6.18421 70.7043 3.20276C67.723 0.221477 62.8717 0.221477 59.8905 3.20276C56.9092 0.221477 52.0579 0.221477 49.0766 3.20276C46.0952 6.18421 46.0952 11.0351 49.0766 14.0166L52.244 17.1839V23.1553L39.4998 15.873L0.338623 38.2507L2.86774 42.6766L6.36507 40.6783V87.9668H72.6346V40.6783L76.1319 42.6768L78.6611 38.2507ZM52.6812 6.80731C53.6751 5.81344 55.292 5.81361 56.2857 6.80731L59.8905 10.412L63.495 6.80748C64.4889 5.81361 66.1059 5.81361 67.0997 6.80748C68.0878 7.79557 68.0877 9.4241 67.0997 10.412L61.2493 16.2624H58.5318L52.6814 10.412C51.6933 9.42393 51.6933 7.79523 52.6812 6.80731ZM67.5369 82.8691H11.4627V37.7654L39.4998 21.7441L57.3415 31.9393L57.3416 21.3599H62.4393V34.8524L67.5369 37.7654V82.8691Z" fill="#21344D"/>
</svg>
