<svg width="87" height="88" viewBox="0 0 87 88" fill="none" xmlns="http://www.w3.org/2000/svg">
<g clip-path="url(#clip0_1136_9281)">
<path d="M80.477 46.2885C80.477 45.5847 79.9066 45.0141 79.2026 45.0141C78.4986 45.0141 77.9282 45.5847 77.9282 46.2885V77.1735H74.9852V2.82422H77.9282V40.3413C77.9282 41.0451 78.4986 41.6157 79.2026 41.6157C79.9066 41.6157 80.477 41.0451 80.477 40.3413V1.5498C80.477 0.845988 79.9066 0.275391 79.2026 0.275391H73.7107C73.0068 0.275391 72.4363 0.845988 72.4363 1.5498V16.7537H69.4923V1.5498C69.4923 0.845988 68.9218 0.275391 68.2178 0.275391H18.7828C18.0788 0.275391 17.5084 0.845988 17.5084 1.5498V16.7537H14.5643V1.5498C14.5643 0.845988 13.9939 0.275391 13.2899 0.275391H7.79804C7.09406 0.275391 6.52363 0.845988 6.52363 1.5498V14.3177C6.52363 15.0216 7.09406 15.5921 7.79804 15.5921C8.50203 15.5921 9.07246 15.0216 9.07246 14.3177V2.82422H12.0155V77.1735H9.07246V20.265C9.07246 19.5612 8.50203 18.9906 7.79804 18.9906C7.09406 18.9906 6.52363 19.5612 6.52363 20.265L6.52295 86.001C6.52295 86.7048 7.09338 87.2754 7.79736 87.2754H13.2901C13.9941 87.2754 14.5645 86.7048 14.5645 86.001V79.7224H54.7424C55.4463 79.7224 56.0168 79.1518 56.0168 78.4479C56.0168 77.7441 55.4463 77.1735 54.7424 77.1735H14.5643V74.2301H72.4363V77.1735H60.6896C59.9856 77.1735 59.4152 77.7441 59.4152 78.4479C59.4152 79.1518 59.9856 79.7224 60.6896 79.7224H72.4362V86.001C72.4362 86.7048 73.0066 87.2754 73.7106 87.2754H79.2033C79.9073 87.2754 80.4777 86.7048 80.4777 86.001L80.477 46.2885ZM12.0157 84.7266H9.07178V79.7229H12.0157V84.7266ZM58.5066 2.82422H61.4505V5.76812H58.5066V2.82422ZM53.0139 2.82422H55.9578V7.04253C55.9578 7.74635 56.5282 8.31694 57.2322 8.31694H62.725C63.4289 8.31694 63.9994 7.74635 63.9994 7.04253V2.82422H66.9433V16.7537H53.0137V2.82422H53.0139ZM42.0283 2.82422H44.9724V5.76812H42.0283V2.82422ZM36.5356 2.82422H39.4795V7.04253C39.4795 7.74635 40.0499 8.31694 40.7539 8.31694H46.2468C46.9508 8.31694 47.5212 7.74635 47.5212 7.04253V2.82422H50.4651V16.7537H36.5354V2.82422H36.5356ZM25.5499 2.82422H28.4938V5.76812H25.5499V2.82422ZM20.0572 2.82422H23.0011V7.04253C23.0011 7.74635 23.5715 8.31694 24.2755 8.31694H29.7683C30.4722 8.31694 31.0427 7.74635 31.0427 7.04253V2.82422H33.9866V16.7537H20.0571V2.82422H20.0572ZM33.9867 71.6813H20.0572V57.7518H23.0011V61.9701C23.0011 62.6739 23.5715 63.2445 24.2755 63.2445H29.7683C30.4722 63.2445 31.0427 62.6739 31.0427 61.9701V57.7518H33.9866V71.6813H33.9867ZM25.5499 60.6957V57.7518H28.4938V60.6957H25.5499ZM50.4651 71.6813H36.5354V57.7518H39.4793V61.9701C39.4793 62.6739 40.0497 63.2445 40.7537 63.2445H46.2466C46.9506 63.2445 47.521 62.6739 47.521 61.9701V57.7518H50.4649V71.6813H50.4651ZM42.0283 60.6957V57.7518H44.9724V60.6957H42.0283ZM66.9434 71.6813H53.0139V57.7518H55.9578V61.9701C55.9578 62.6739 56.5282 63.2445 57.2322 63.2445H62.725C63.4289 63.2445 63.9994 62.6739 63.9994 61.9701V57.7518H66.9433V71.6813H66.9434ZM58.5066 60.6957V57.7518H61.4505V60.6957H58.5066ZM72.4363 71.6813H69.4923V56.4774C69.4923 55.7736 68.9218 55.203 68.2178 55.203H18.7828C18.0788 55.203 17.5084 55.7736 17.5084 56.4774V71.6813H14.5643V52.2591H72.4363V71.6813ZM72.4363 49.7103H14.5643V46.7664H72.4363V49.7103ZM25.6488 35.7807H31.1416C31.8456 35.7807 32.416 35.2101 32.416 34.5063V30.288H35.3599V44.2175H21.4304V30.288H24.3743V34.5063C24.3744 35.2101 24.945 35.7807 25.6488 35.7807ZM26.9233 33.2319V30.288H29.8672V33.2319H26.9233ZM55.8589 35.7807H61.3516C62.0556 35.7807 62.6261 35.2101 62.6261 34.5063V30.288H65.57V44.2175H51.6404V30.288H54.5843V34.5063C54.5845 35.2101 55.1551 35.7807 55.8589 35.7807ZM57.1333 33.2319V30.288H60.0772V33.2319H57.1333ZM72.4363 44.2175H68.1189V29.0136C68.1189 28.3098 67.5485 27.7392 66.8445 27.7392H50.3662C49.6622 27.7392 49.0918 28.3098 49.0918 29.0136V44.2175H37.9087V29.0136C37.9087 28.3098 37.3383 27.7392 36.6343 27.7392H20.156C19.452 27.7392 18.8815 28.3098 18.8815 29.0136V44.2175H14.5643V24.7953H72.4363V44.2175ZM72.4363 22.2465H14.5643V19.3026H72.4363V22.2465ZM77.9289 84.7266H74.985V79.7229H77.9289V84.7266Z" fill="#21344D"/>
</g>
<defs>
<clipPath id="clip0_1136_9281">
<rect width="87" height="87" fill="white" transform="translate(0 0.275391)"/>
</clipPath>
</defs>
</svg>
