<svg width="85" height="85" viewBox="0 0 85 85" fill="none" xmlns="http://www.w3.org/2000/svg">
<path d="M83.2812 77.8433H79.2031V45.2183H80.5625C80.923 45.2183 81.2688 45.0751 81.5237 44.8202C81.7787 44.5652 81.9219 44.2195 81.9219 43.859V39.7808C81.9219 39.4203 81.7787 39.0745 81.5237 38.8196C81.2688 38.5647 80.923 38.4215 80.5625 38.4215H79.2031V16.9654L81.3764 17.917C81.5834 18.0076 81.8096 18.0453 82.0347 18.0265C82.2598 18.0078 82.4767 17.9332 82.6658 17.8096C82.8549 17.6859 83.0102 17.5171 83.1176 17.3184C83.2251 17.1197 83.2813 16.8974 83.2812 16.6715V11.234C83.2813 10.9697 83.2044 10.7112 83.0598 10.4899C82.9153 10.2687 82.7094 10.0945 82.4673 9.98843L60.7173 0.472801C60.5452 0.397984 60.3595 0.359375 60.1719 0.359375C59.9842 0.359375 59.7985 0.397984 59.6264 0.472801L37.8764 9.98843C37.6344 10.0945 37.4285 10.2687 37.2839 10.4899C37.1394 10.7112 37.0624 10.9697 37.0625 11.234V16.6715C37.0624 16.8974 37.1187 17.1197 37.2261 17.3184C37.3336 17.5171 37.4889 17.6859 37.6779 17.8096C37.867 17.9332 38.0839 18.0078 38.309 18.0265C38.5342 18.0453 38.7604 18.0076 38.9673 17.917L41.1406 16.9654V24.8277H4.4375C4.07697 24.8277 3.73121 24.9709 3.47628 25.2259C3.22134 25.4808 3.07812 25.8265 3.07812 26.1871V30.2652C3.07812 30.6257 3.22134 30.9715 3.47628 31.2264C3.73121 31.4814 4.07697 31.6246 4.4375 31.6246H8.51562V38.4215H4.4375C4.07697 38.4215 3.73121 38.5647 3.47628 38.8196C3.22134 39.0745 3.07812 39.4203 3.07812 39.7808V43.859C3.07812 44.2195 3.22134 44.5652 3.47628 44.8202C3.73121 45.0751 4.07697 45.2183 4.4375 45.2183H5.79688V77.8433H1.71875C1.35822 77.8433 1.01246 77.9865 0.757527 78.2415C0.502594 78.4964 0.359375 78.8422 0.359375 79.2027V83.2808C0.359375 83.6414 0.502594 83.9871 0.757527 84.2421C1.01246 84.497 1.35822 84.6402 1.71875 84.6402H83.2812C83.6418 84.6402 83.9875 84.497 84.2425 84.2421C84.4974 83.9871 84.6406 83.6414 84.6406 83.2808V79.2027C84.6406 78.8422 84.4974 78.4964 84.2425 78.2415C83.9875 77.9865 83.6418 77.8433 83.2812 77.8433ZM39.7812 14.5933V12.1226L60.1719 3.20175L80.5625 12.1226V14.5933L78.3773 13.6366C78.3747 13.6362 78.3724 13.635 78.3705 13.6332L60.7173 5.9103C60.5453 5.83521 60.3596 5.79646 60.1719 5.79646C59.9842 5.79646 59.7985 5.83521 59.6264 5.9103L41.9732 13.6332C41.9714 13.635 41.969 13.6362 41.9664 13.6366L39.7812 14.5933ZM76.4844 15.776V38.4215H43.8594V15.776L60.1719 8.63925L76.4844 15.776ZM5.79688 28.9058V27.5465H41.1406V28.9058H5.79688ZM41.1406 31.6246V38.4215H35.7031V31.6246H41.1406ZM32.9844 31.6246V38.4215H27.5469V31.6246H32.9844ZM24.8281 31.6246V38.4215H19.3906V31.6246H24.8281ZM16.6719 31.6246V38.4215H11.2344V31.6246H16.6719ZM5.79688 41.1402H79.2031V42.4996H5.79688V41.1402ZM58.8125 58.8121H46.5781C46.2176 58.8121 45.8718 58.9553 45.6169 59.2102C45.362 59.4652 45.2188 59.8109 45.2188 60.1715V77.8433H43.8594V45.2183H76.4844V77.8433H60.1719V60.1715C60.1719 59.8109 60.0287 59.4652 59.7737 59.2102C59.5188 58.9553 59.173 58.8121 58.8125 58.8121ZM57.4531 61.5308V77.8433H47.9375V61.5308H57.4531ZM38.4219 52.0152H11.2344C10.8738 52.0152 10.5281 52.1584 10.2732 52.4134C10.0182 52.6683 9.875 53.014 9.875 53.3746V57.4527C9.875 57.8132 10.0182 58.159 10.2732 58.4139C10.5281 58.6689 10.8738 58.8121 11.2344 58.8121V77.8433H8.51562V45.2183H41.1406V77.8433H38.4219V58.8121C38.7824 58.8121 39.1282 58.6689 39.3831 58.4139C39.638 58.159 39.7812 57.8132 39.7812 57.4527V53.3746C39.7812 53.014 39.638 52.6683 39.3831 52.4134C39.1282 52.1584 38.7824 52.0152 38.4219 52.0152ZM12.5938 56.0933V54.734H37.0625V56.0933H12.5938ZM35.7031 58.8121V77.8433H13.9531V58.8121H35.7031ZM81.9219 81.9215H3.07812V80.5621H81.9219V81.9215Z" fill="#21344D"/>
<path d="M62.8906 71.0469H73.7656C74.1262 71.0469 74.4719 70.9037 74.7268 70.6487C74.9818 70.3938 75.125 70.048 75.125 69.6875V60.1719C75.125 59.8113 74.9818 59.4656 74.7268 59.2107C74.4719 58.9557 74.1262 58.8125 73.7656 58.8125H62.8906C62.5301 58.8125 62.1843 58.9557 61.9294 59.2107C61.6745 59.4656 61.5312 59.8113 61.5312 60.1719V69.6875C61.5312 70.048 61.6745 70.3938 61.9294 70.6487C62.1843 70.9037 62.5301 71.0469 62.8906 71.0469ZM64.25 61.5313H72.4062V68.3281H64.25V61.5313Z" fill="#21344D"/>
<path d="M62.8906 30.2656H73.7656C74.1262 30.2656 74.4719 30.1224 74.7268 29.8675C74.9818 29.6125 75.125 29.2668 75.125 28.9062V19.3906C75.125 19.0301 74.9818 18.6843 74.7268 18.4294C74.4719 18.1745 74.1262 18.0312 73.7656 18.0312H62.8906C62.5301 18.0312 62.1843 18.1745 61.9294 18.4294C61.6745 18.6843 61.5312 19.0301 61.5312 19.3906V28.9062C61.5312 29.2668 61.6745 29.6125 61.9294 29.8675C62.1843 30.1224 62.5301 30.2656 62.8906 30.2656ZM64.25 20.75H72.4062V27.5469H64.25V20.75Z" fill="#21344D"/>
<path d="M46.5781 30.2656H57.4531C57.8137 30.2656 58.1594 30.1224 58.4143 29.8675C58.6693 29.6125 58.8125 29.2668 58.8125 28.9062V19.3906C58.8125 19.0301 58.6693 18.6843 58.4143 18.4294C58.1594 18.1745 57.8137 18.0312 57.4531 18.0312H46.5781C46.2176 18.0312 45.8718 18.1745 45.6169 18.4294C45.362 18.6843 45.2188 19.0301 45.2188 19.3906V28.9062C45.2188 29.2668 45.362 29.6125 45.6169 29.8675C45.8718 30.1224 46.2176 30.2656 46.5781 30.2656ZM47.9375 20.75H56.0938V27.5469H47.9375V20.75Z" fill="#21344D"/>
<path d="M54.7344 72.4062C55.0949 72.4062 55.4407 72.263 55.6956 72.0081C55.9505 71.7532 56.0938 71.4074 56.0938 71.0469V68.3281C56.0938 67.9676 55.9505 67.6218 55.6956 67.3669C55.4407 67.112 55.0949 66.9688 54.7344 66.9688C54.3738 66.9688 54.0281 67.112 53.7732 67.3669C53.5182 67.6218 53.375 67.9676 53.375 68.3281V71.0469C53.375 71.4074 53.5182 71.7532 53.7732 72.0081C54.0281 72.263 54.3738 72.4062 54.7344 72.4062Z" fill="#21344D"/>
</svg>
