<svg width="87" height="87" viewBox="0 0 87 87" fill="none" xmlns="http://www.w3.org/2000/svg">
<path d="M84.2812 78.8433H80.2031V46.2183H81.5625C81.923 46.2183 82.2688 46.0751 82.5237 45.8202C82.7787 45.5652 82.9219 45.2195 82.9219 44.859V40.7808C82.9219 40.4203 82.7787 40.0745 82.5237 39.8196C82.2688 39.5647 81.923 39.4215 81.5625 39.4215H80.2031V17.9654L82.3764 18.917C82.5834 19.0076 82.8096 19.0453 83.0347 19.0265C83.2598 19.0078 83.4767 18.9332 83.6658 18.8096C83.8549 18.6859 84.0102 18.5171 84.1176 18.3184C84.2251 18.1197 84.2813 17.8974 84.2812 17.6715V12.234C84.2813 11.9697 84.2044 11.7112 84.0598 11.4899C83.9153 11.2687 83.7094 11.0945 83.4673 10.9884L61.7173 1.4728C61.5452 1.39798 61.3595 1.35937 61.1719 1.35938C60.9842 1.35937 60.7985 1.39798 60.6264 1.4728L38.8764 10.9884C38.6344 11.0945 38.4285 11.2687 38.2839 11.4899C38.1394 11.7112 38.0624 11.9697 38.0625 12.234V17.6715C38.0624 17.8974 38.1187 18.1197 38.2261 18.3184C38.3336 18.5171 38.4889 18.6859 38.6779 18.8096C38.867 18.9332 39.0839 19.0078 39.309 19.0265C39.5342 19.0453 39.7604 19.0076 39.9673 18.917L42.1406 17.9654V25.8277H5.4375C5.07697 25.8277 4.73121 25.9709 4.47628 26.2259C4.22134 26.4808 4.07812 26.8265 4.07812 27.1871V31.2652C4.07812 31.6257 4.22134 31.9715 4.47628 32.2264C4.73121 32.4814 5.07697 32.6246 5.4375 32.6246H9.51562V39.4215H5.4375C5.07697 39.4215 4.73121 39.5647 4.47628 39.8196C4.22134 40.0745 4.07812 40.4203 4.07812 40.7808V44.859C4.07812 45.2195 4.22134 45.5652 4.47628 45.8202C4.73121 46.0751 5.07697 46.2183 5.4375 46.2183H6.79688V78.8433H2.71875C2.35822 78.8433 2.01246 78.9865 1.75753 79.2415C1.50259 79.4964 1.35938 79.8422 1.35938 80.2027V84.2808C1.35938 84.6414 1.50259 84.9871 1.75753 85.2421C2.01246 85.497 2.35822 85.6402 2.71875 85.6402H84.2812C84.6418 85.6402 84.9875 85.497 85.2425 85.2421C85.4974 84.9871 85.6406 84.6414 85.6406 84.2808V80.2027C85.6406 79.8422 85.4974 79.4964 85.2425 79.2415C84.9875 78.9865 84.6418 78.8433 84.2812 78.8433ZM40.7812 15.5933V13.1226L61.1719 4.20175L81.5625 13.1226V15.5933L79.3773 14.6366C79.3747 14.6362 79.3724 14.635 79.3705 14.6332L61.7173 6.9103C61.5453 6.83521 61.3596 6.79646 61.1719 6.79646C60.9842 6.79646 60.7985 6.83521 60.6264 6.9103L42.9732 14.6332C42.9714 14.635 42.969 14.6362 42.9664 14.6366L40.7812 15.5933ZM77.4844 16.776V39.4215H44.8594V16.776L61.1719 9.63925L77.4844 16.776ZM6.79688 29.9058V28.5465H42.1406V29.9058H6.79688ZM42.1406 32.6246V39.4215H36.7031V32.6246H42.1406ZM33.9844 32.6246V39.4215H28.5469V32.6246H33.9844ZM25.8281 32.6246V39.4215H20.3906V32.6246H25.8281ZM17.6719 32.6246V39.4215H12.2344V32.6246H17.6719ZM6.79688 42.1402H80.2031V43.4996H6.79688V42.1402ZM59.8125 59.8121H47.5781C47.2176 59.8121 46.8718 59.9553 46.6169 60.2102C46.362 60.4652 46.2188 60.8109 46.2188 61.1715V78.8433H44.8594V46.2183H77.4844V78.8433H61.1719V61.1715C61.1719 60.8109 61.0287 60.4652 60.7737 60.2102C60.5188 59.9553 60.173 59.8121 59.8125 59.8121ZM58.4531 62.5308V78.8433H48.9375V62.5308H58.4531ZM39.4219 53.0152H12.2344C11.8738 53.0152 11.5281 53.1584 11.2732 53.4134C11.0182 53.6683 10.875 54.014 10.875 54.3746V58.4527C10.875 58.8132 11.0182 59.159 11.2732 59.4139C11.5281 59.6689 11.8738 59.8121 12.2344 59.8121V78.8433H9.51562V46.2183H42.1406V78.8433H39.4219V59.8121C39.7824 59.8121 40.1282 59.6689 40.3831 59.4139C40.638 59.159 40.7812 58.8132 40.7812 58.4527V54.3746C40.7812 54.014 40.638 53.6683 40.3831 53.4134C40.1282 53.1584 39.7824 53.0152 39.4219 53.0152ZM13.5938 57.0933V55.734H38.0625V57.0933H13.5938ZM36.7031 59.8121V78.8433H14.9531V59.8121H36.7031ZM82.9219 82.9215H4.07812V81.5621H82.9219V82.9215Z" fill="#21344D"/>
<path d="M63.8906 72.0469H74.7656C75.1262 72.0469 75.4719 71.9037 75.7268 71.6487C75.9818 71.3938 76.125 71.048 76.125 70.6875V61.1719C76.125 60.8113 75.9818 60.4656 75.7268 60.2107C75.4719 59.9557 75.1262 59.8125 74.7656 59.8125H63.8906C63.5301 59.8125 63.1843 59.9557 62.9294 60.2107C62.6745 60.4656 62.5312 60.8113 62.5312 61.1719V70.6875C62.5312 71.048 62.6745 71.3938 62.9294 71.6487C63.1843 71.9037 63.5301 72.0469 63.8906 72.0469ZM65.25 62.5313H73.4062V69.3281H65.25V62.5313Z" fill="#21344D"/>
<path d="M63.8906 31.2656H74.7656C75.1262 31.2656 75.4719 31.1224 75.7268 30.8675C75.9818 30.6125 76.125 30.2668 76.125 29.9062V20.3906C76.125 20.0301 75.9818 19.6843 75.7268 19.4294C75.4719 19.1745 75.1262 19.0312 74.7656 19.0312H63.8906C63.5301 19.0312 63.1843 19.1745 62.9294 19.4294C62.6745 19.6843 62.5312 20.0301 62.5312 20.3906V29.9062C62.5312 30.2668 62.6745 30.6125 62.9294 30.8675C63.1843 31.1224 63.5301 31.2656 63.8906 31.2656ZM65.25 21.75H73.4062V28.5469H65.25V21.75Z" fill="#21344D"/>
<path d="M47.5781 31.2656H58.4531C58.8137 31.2656 59.1594 31.1224 59.4143 30.8675C59.6693 30.6125 59.8125 30.2668 59.8125 29.9062V20.3906C59.8125 20.0301 59.6693 19.6843 59.4143 19.4294C59.1594 19.1745 58.8137 19.0312 58.4531 19.0312H47.5781C47.2176 19.0312 46.8718 19.1745 46.6169 19.4294C46.362 19.6843 46.2188 20.0301 46.2188 20.3906V29.9062C46.2188 30.2668 46.362 30.6125 46.6169 30.8675C46.8718 31.1224 47.2176 31.2656 47.5781 31.2656ZM48.9375 21.75H57.0938V28.5469H48.9375V21.75Z" fill="#21344D"/>
<path d="M55.7344 73.4062C56.0949 73.4062 56.4407 73.263 56.6956 73.0081C56.9505 72.7532 57.0938 72.4074 57.0938 72.0469V69.3281C57.0938 68.9676 56.9505 68.6218 56.6956 68.3669C56.4407 68.112 56.0949 67.9688 55.7344 67.9688C55.3738 67.9688 55.0281 68.112 54.7732 68.3669C54.5182 68.6218 54.375 68.9676 54.375 69.3281V72.0469C54.375 72.4074 54.5182 72.7532 54.7732 73.0081C55.0281 73.263 55.3738 73.4062 55.7344 73.4062Z" fill="#21344D"/>
</svg>
