<svg width="91" height="93" viewBox="0 0 91 93" fill="none" xmlns="http://www.w3.org/2000/svg">
<g>
<path d="M45.2777 0.226807C20.2526 0.226807 0 20.8847 0 46.4151C0 71.9438 20.2506 92.6035 45.2777 92.6035C70.3028 92.6035 90.5553 71.9456 90.5553 46.4151C90.5553 20.8865 70.3047 0.226807 45.2777 0.226807ZM45.2777 85.3866C24.1627 85.3866 7.07464 67.9564 7.07464 46.4151C7.07464 24.8753 24.1611 7.44374 45.2777 7.44374C66.3926 7.44374 83.4807 24.8739 83.4807 46.4151C83.4807 67.955 66.3942 85.3866 45.2777 85.3866Z" fill="#FF0000"/>
<path d="M60.0182 57.1146L49.5297 46.4152L60.0182 35.7157C61.3995 34.3066 61.3997 32.0219 60.0183 30.6126C58.6367 29.2033 56.397 29.2035 55.0159 30.6126L44.5272 41.3121L34.0385 30.6126C32.6574 29.2033 30.4174 29.2033 29.036 30.6126C27.6547 32.0219 27.6547 34.3066 29.0362 35.7157L39.5247 46.4152L29.0362 57.1146C27.6547 58.5239 27.6545 60.8086 29.036 62.2177C30.4179 63.6272 32.6575 63.6266 34.0385 62.2177L44.5272 51.5183L55.0159 62.2177C56.3968 63.6268 58.6368 63.627 60.0183 62.2177C61.3998 60.8084 61.3997 58.5237 60.0182 57.1146Z" fill="#FF0000"/>
</g>
<defs>
<clipPath id="clip0">
<rect width="90.5553" height="92.3767" fill="white" transform="translate(0 0.226807)"/>
</clipPath>
</defs>
</svg>
