<svg width="87" height="87" viewBox="0 0 87 87" fill="none" xmlns="http://www.w3.org/2000/svg">
<path d="M15.7254 31.4508C24.3964 31.4508 31.4508 24.3964 31.4508 15.7254C31.4508 7.05448 24.3964 0 15.7254 0C7.05448 0 0 7.05448 0 15.7254C0 24.3964 7.05448 31.4508 15.7254 31.4508ZM15.7254 3.39844C22.5225 3.39844 28.0524 8.92838 28.0524 15.7254C28.0524 22.5225 22.5225 28.0524 15.7254 28.0524C8.92838 28.0524 3.39844 22.5225 3.39844 15.7254C3.39844 8.92838 8.92838 3.39844 15.7254 3.39844Z" fill="#21344D"/>
<path d="M17.0773 19.4605C17.409 19.791 17.8429 19.9561 18.2769 19.9561C18.7126 19.9561 19.1486 19.7896 19.4805 19.4566C20.1428 18.7918 20.1411 17.7159 19.4766 17.0534L17.4362 15.0197V7.47656C17.4362 6.53825 16.6752 5.77734 15.7369 5.77734C14.7986 5.77734 14.0377 6.53825 14.0377 7.47656V15.7254C14.0377 16.1771 14.2177 16.6102 14.5373 16.929L17.0773 19.4605Z" fill="#21344D"/>
<path d="M85.3008 56.4142H74.8426C73.4051 54.3693 71.245 52.9209 68.7813 52.3823L61.3109 50.7488C64.3679 48.687 66.3825 45.192 66.3825 41.2352V37.0862V35.1666V34.7347C66.3825 28.4115 61.2383 23.2673 54.9152 23.2673C48.592 23.2673 43.4478 28.4115 43.4478 34.7347V35.1666V37.0862V41.2352C43.4478 45.1869 45.4572 48.6783 48.5078 50.7412L41.0421 52.379C40.7231 52.449 40.4096 52.5348 40.1016 52.6343V38.5724C40.1016 37.6341 39.3407 36.8731 38.4023 36.8731H26.8477C25.9093 36.8731 25.1484 37.6341 25.1484 38.5724C25.1484 39.5107 25.9093 40.2716 26.8477 40.2716H36.7031V64.0606H25.1484V55.5646C25.1484 52.7537 22.8616 50.4669 20.0508 50.4669C17.2399 50.4669 14.9531 52.7537 14.9531 55.5646V64.0606H3.39844V40.2716H13.2539C14.1922 40.2716 14.9531 39.5107 14.9531 38.5724C14.9531 37.6341 14.1922 36.8731 13.2539 36.8731H1.69922C0.76091 36.8731 0 37.6341 0 38.5724V65.7599C0 66.6982 0.76091 67.4591 1.69922 67.4591H14.9531V70.6876H14.7832C11.8786 70.6876 9.51562 73.0505 9.51562 75.9552V76.8048H1.69922C0.76091 76.8048 0 77.5657 0 78.504V85.3009C0 86.2392 0.76091 87.0001 1.69922 87.0001H85.3008C86.2391 87.0001 87 86.2392 87 85.3009V78.504V71.7071V64.9103V58.1134C87 57.1751 86.2391 56.4142 85.3008 56.4142ZM74.966 76.8048H65.25V73.4063H83.6016V76.8048H74.966ZM83.6016 70.0079H65.25V66.6095H83.6016V70.0079ZM83.6016 63.211H65.25V59.8126H73.8946C73.8997 59.8126 73.9048 59.8136 73.9097 59.8136C73.915 59.8136 73.9204 59.8126 73.9257 59.8126H83.6016V63.211ZM46.8461 34.7349C46.8461 30.2856 50.466 26.6659 54.915 26.6659C59.1517 26.6659 62.6361 29.9478 62.9594 34.1029L59.0094 31.7823C58.2939 31.3617 57.3794 31.5199 56.8463 32.1559C55.1257 34.2095 52.6022 35.3874 49.923 35.3874H46.8463V35.167V34.7349H46.8461ZM46.8461 38.7856H49.923C53.1218 38.7856 56.1592 37.5658 58.454 35.3974L62.9841 38.0589V41.2354C62.9841 45.6846 59.3642 49.3043 54.9152 49.3043C50.4661 49.3043 46.8463 45.6844 46.8463 41.2354V38.7856H46.8461ZM57.577 52.3875L54.8897 59.5742L52.1975 52.3746C53.0691 52.5874 53.9787 52.7027 54.915 52.7027C55.8316 52.7027 56.7221 52.5916 57.577 52.3875ZM38.4023 67.4591C39.3407 67.4591 40.1016 66.6982 40.1016 65.7599V56.3083C40.6258 56.032 41.1846 55.8271 41.7702 55.6986L49.2026 54.0681L53.2982 65.0207C53.5465 65.6846 54.1808 66.1247 54.8897 66.1247C55.5986 66.1247 56.2329 65.6846 56.4812 65.0205L60.577 54.0672L68.0554 55.7024C68.7118 55.8458 69.3347 56.0888 69.9079 56.414H63.5508C62.6125 56.414 61.8516 57.1749 61.8516 58.1132V64.9101V71.707V76.8046H36.5636V67.4589H38.4023V67.4591ZM33.1652 67.4591V76.8048H30.5859V75.9552C30.5859 73.0505 28.223 70.6876 25.3184 70.6876H25.1484V67.4591H33.1652ZM18.3516 55.5646C18.3516 54.6276 19.1138 53.8653 20.0508 53.8653C20.9877 53.8653 21.75 54.6276 21.75 55.5646V70.6876H18.3516V55.5646ZM12.9141 75.9552C12.9141 74.9246 13.7526 74.086 14.7832 74.086H16.6523H23.4492H25.3184C26.3489 74.086 27.1875 74.9246 27.1875 75.9552V76.8048H12.9141V75.9552ZM83.6016 83.6017H3.39844V80.2032H83.6016V83.6017Z" fill="#21344D"/>
<path d="M18.8494 37.3709C18.5334 37.687 18.3516 38.1254 18.3516 38.5723C18.3516 39.0192 18.5332 39.4576 18.8494 39.7734C19.1655 40.0895 19.6039 40.2715 20.0508 40.2715C20.4977 40.2715 20.9361 40.0897 21.252 39.7734C21.5682 39.4576 21.75 39.0192 21.75 38.5723C21.75 38.1254 21.5682 37.687 21.252 37.3709C20.9361 37.0549 20.4977 36.873 20.0508 36.873C19.6039 36.873 19.1655 37.0547 18.8494 37.3709Z" fill="#21344D"/>
</svg>
